<?xml version="1.0" encoding="utf-8" standalone="yes"?>
<!DOCTYPE svg PUBLIC "-//W3C//DTD SVG 1.1//EN" "http://www.w3.org/Graphics/SVG/1.1/DTD/svg11.dtd">
<svg width="576" height="540" viewBox="0 0 576 540" style="fill:none;stroke:none;fill-rule:evenodd;clip-rule:evenodd;stroke-linecap:round;stroke-linejoin:round;stroke-miterlimit:1.5;" version="1.1" xmlns="http://www.w3.org/2000/svg" xmlns:xlink="http://www.w3.org/1999/xlink"><style class="text-font-style fontImports" data-font-family="Roboto">@import url('https://fonts.googleapis.com/css2?family=Roboto:wght@400;700&amp;display=block');</style><g id="items" style="isolation: isolate"><g id="blend" style="mix-blend-mode: normal"><g id="g-root-sy_-1_line_zko6go18g3w1w-fill" data-item-order="999898631" transform="translate(473, 319.326171875)"></g><g id="g-root-sy_-1_vector_140hol418g3v9g-fill" data-item-order="999898633" transform="translate(14, 319.326171875)"></g><g id="g-root-cr_5_cr-big_zko6go18g3v9r-fill" data-item-order="999898636" transform="translate(434, 223.330078125)"><g id="cr_5_cr-big_zko6go18g3v9r-fill" stroke="none" fill="#fffbda"><g><path d="M 10 46C 10 65.882251 26.117749 82 46 82C 65.882251 82 82 65.882251 82 46C 82 26.117749 65.882251 10 46 10C 26.117749 10 10 26.117749 10 46"></path></g></g></g><g id="g-root-sy_5_cu-smallCircle_zko6go18g3w1v-fill" data-item-order="999898639" transform="translate(467, 316.326171875)"></g><g id="g-root-ln_5_ln_140hol418g3v9f-fill" data-item-order="999898641" transform="translate(470, 295.330078125)"></g><g id="g-root-cr_4_cr-big_zko6go18g3w1y-fill" data-item-order="999898644" transform="translate(338, 343.328125)"><g id="cr_4_cr-big_zko6go18g3w1y-fill" stroke="none" fill="#f4ffdc"><g><path d="M 10 46C 10 65.882251 26.117749 82 46 82C 65.882251 82 82 65.882251 82 46C 82 26.117749 65.882251 10 46 10C 26.117749 10 10 26.117749 10 46"></path></g></g></g><g id="g-root-sy_4_cu-smallCircle_zko6go18g3w1t-fill" data-item-order="999898647" transform="translate(371, 316.33203125)"></g><g id="g-root-ln_4_ln_zko6go18g3w1u-fill" data-item-order="999898649" transform="translate(374, 322.33203125)"></g><g id="g-root-cr_3_cr-big_zko6go18g3v9p-fill" data-item-order="999898652" transform="translate(242, 223.330078125)"><g id="cr_3_cr-big_zko6go18g3v9p-fill" stroke="none" fill="#e3fff2"><g><path d="M 10 46C 10 65.882251 26.117749 82 46 82C 65.882251 82 82 65.882251 82 46C 82 26.117749 65.882251 10 46 10C 26.117749 10 10 26.117749 10 46"></path></g></g></g><g id="g-root-sy_3_cu-smallCircle_zko6go18g3w1s-fill" data-item-order="999898655" transform="translate(275, 316.326171875)"></g><g id="g-root-ln_3_ln_140hol418g3v9e-fill" data-item-order="999898657" transform="translate(278, 295.330078125)"></g><g id="g-root-cr_2_cr-big_zko6go18g3w1x-fill" data-item-order="999898660" transform="translate(146, 343.330078125)"><g id="cr_2_cr-big_zko6go18g3w1x-fill" stroke="none" fill="#e8f9ff"><g><path d="M 10 46C 10 65.882251 26.117749 82 46 82C 65.882251 82 82 65.882251 82 46C 82 26.117749 65.882251 10 46 10C 26.117749 10 10 26.117749 10 46"></path></g></g></g><g id="g-root-sy_2_cu-smallCircle_v4uoc818g3w26-fill" data-item-order="999898663" transform="translate(179, 316.33203125)"></g><g id="g-root-ln_2_ln_v4uoc818g3w27-fill" data-item-order="999898665" transform="translate(182, 322.33203125)"></g><g id="g-root-cr_1_cr-big_zko6go18g3v9n-fill" data-item-order="999898668" transform="translate(50, 223.330078125)"><g id="cr_1_cr-big_zko6go18g3v9n-fill" stroke="none" fill="#edf4ff"><g><path d="M 10 46C 10 65.882251 26.117749 82 46 82C 65.882251 82 82 65.882251 82 46C 82 26.117749 65.882251 10 46 10C 26.117749 10 10 26.117749 10 46"></path></g></g></g><g id="g-root-sy_1_cu-smallCircle_140hol418g3v9h-fill" data-item-order="999898671" transform="translate(83, 316.326171875)"></g><g id="g-root-ln_1_ln_140hol418g3v9d-fill" data-item-order="999898673" transform="translate(86, 295.330078125)"></g><g id="g-root-ic_auto_zko6go18g3v9q-fill" data-item-order="1000000000" transform="translate(254, 235.330078125)"></g><g id="g-root-ic_proc_zko6go18g3v9o-fill" data-item-order="1000000000" transform="translate(62, 235.330078125)"></g><g id="g-root-ic_1_140hol418g3v9c-fill" data-item-order="1000000000" transform="translate(446, 235.330078125)"></g><g id="g-root-tx_implment_zko6go18g3w22-fill" data-item-order="1000000000" transform="translate(314, 427.330078125)"><g id="tx_implment_zko6go18g3w22-fill" stroke="none" fill="#484848"><g><text style="font: 20px Roboto, sans-serif; white-space: pre;" font-size="20px" font-family="Roboto, sans-serif"><tspan x="16.09" y="34" dominant-baseline="ideographic">Automation </tspan><tspan x="14.94" y="58" dominant-baseline="ideographic">Deployment</tspan></text></g></g></g><g id="g-root-tx_amliorat_zko6go18g3v9k-fill" data-item-order="1000000000" transform="translate(404, 163.330078125)"><g id="tx_amliorat_zko6go18g3v9k-fill" stroke="none" fill="#484848"><g><text style="font: 20px Roboto, sans-serif; white-space: pre;" font-size="20px" font-family="Roboto, sans-serif"><tspan x="23.32" y="34" dominant-baseline="ideographic">Productivity </tspan><tspan x="14.92" y="58" dominant-baseline="ideographic">Enhancement</tspan></text></g></g></g><g id="g-root-tx_identifi_zko6go18g3v9l-fill" data-item-order="1000000000" transform="translate(26, 163.330078125)"><g id="tx_identifi_zko6go18g3v9l-fill" stroke="none" fill="#484848"><g><text style="font: 20px Roboto, sans-serif; white-space: pre;" font-size="20px" font-family="Roboto, sans-serif"><tspan x="48.91" y="34" dominant-baseline="ideographic">Task </tspan><tspan x="11.96" y="58" dominant-baseline="ideographic">Identification</tspan></text></g></g></g><g id="g-root-tx_dveloppe_zko6go18g3v9j-fill" data-item-order="1000000000" transform="translate(212, 139.330078125)"><g id="tx_dveloppe_zko6go18g3v9j-fill" stroke="none" fill="#484848"><g><text style="font: 20px Roboto, sans-serif; white-space: pre;" font-size="20px" font-family="Roboto, sans-serif"><tspan x="24.01" y="34" dominant-baseline="ideographic">Automation </tspan><tspan x="34.33" y="58" dominant-baseline="ideographic">Solutions </tspan><tspan x="17.49" y="82" dominant-baseline="ideographic">Development</tspan></text></g></g></g><g id="g-root-ic_char_zko6go18g3w1z-fill" data-item-order="1000000000" transform="translate(158, 355.330078125)"></g><g id="g-root-ic_box_zko6go18g3w20-fill" data-item-order="1000000000" transform="translate(350, 355.330078125)"></g><g id="g-root-tx_analysed_zko6go18g3w21-fill" data-item-order="1000000000" transform="translate(140, 427.330078125)"><g id="tx_analysed_zko6go18g3w21-fill" stroke="none" fill="#484848"><g><text style="font: 20px Roboto, sans-serif; white-space: pre;" font-size="20px" font-family="Roboto, sans-serif"><tspan x="13.97" y="34" dominant-baseline="ideographic">Process </tspan><tspan x="12.73" y="58" dominant-baseline="ideographic">Analysis</tspan></text></g></g></g><g id="g-root-tx_processu_zko6go18g3v9i-fill" data-item-order="1000000000" transform="translate(158, 19.330078125)"><g id="tx_processu_zko6go18g3v9i-fill" stroke="none" fill="#484848"><g><text style="font: bold 25px Roboto, sans-serif; white-space: pre;" font-weight="bold" font-size="25px" font-family="Roboto, sans-serif"><tspan x="15.71" y="43" dominant-baseline="ideographic">Automation Process</tspan></text></g></g></g><g id="g-root-sy_-1_line_zko6go18g3w1w-stroke" data-item-order="999898631" transform="translate(473, 319.326171875)"><g id="sy_-1_line_zko6go18g3w1w-stroke" fill="none" stroke-linecap="round" stroke-linejoin="round" stroke-miterlimit="4" stroke="#969696" stroke-width="2"><g><path d="M 77 10.003906L 10 10.003906"></path><path d="M 71 16.503906L 77.5 10.003906L 71 3.503906" stroke-dasharray="none"></path></g></g></g><g id="g-root-sy_-1_vector_140hol418g3v9g-stroke" data-item-order="999898633" transform="translate(14, 319.326171875)"><g id="sy_-1_vector_140hol418g3v9g-stroke" fill="none" stroke-linecap="round" stroke-linejoin="round" stroke-miterlimit="4" stroke="#969696" stroke-width="2"><g><path d="M 78.9976 10L 10 10M 174.9976 10L 84.9976 10M 271 10L 181 10M 367 10L 277 10M 463 10L 373 10"></path></g></g></g><g id="g-root-cr_5_cr-big_zko6go18g3v9r-stroke" data-item-order="999898636" transform="translate(434, 223.330078125)"><g id="cr_5_cr-big_zko6go18g3v9r-stroke" fill="none" stroke-linecap="round" stroke-linejoin="round" stroke-miterlimit="4" stroke="#e0cb15" stroke-width="2"><g><path d="M 10 46C 10 65.882251 26.117749 82 46 82C 65.882251 82 82 65.882251 82 46C 82 26.117749 65.882251 10 46 10C 26.117749 10 10 26.117749 10 46"></path></g></g></g><g id="g-root-sy_5_cu-smallCircle_zko6go18g3w1v-stroke" data-item-order="999898639" transform="translate(467, 316.326171875)"><g id="sy_5_cu-smallCircle_zko6go18g3w1v-stroke" fill="none" stroke-linecap="round" stroke-linejoin="round" stroke-miterlimit="4" stroke="#e0cb15" stroke-width="2"><g><path d="M 16 13C 16 14.6569 14.6569 16 13 16C 11.3431 16 10 14.6569 10 13C 10 11.3431 11.3431 10 13 10C 14.6569 10 16 11.3431 16 13Z"></path></g></g></g><g id="g-root-ln_5_ln_140hol418g3v9f-stroke" data-item-order="999898641" transform="translate(470, 295.330078125)"><g id="ln_5_ln_140hol418g3v9f-stroke" fill="none" stroke-linecap="round" stroke-linejoin="round" stroke-miterlimit="4" stroke="#e0cb15" stroke-width="2"><g><path d="M 10 10L 10 20.5L 10 31"></path></g></g></g><g id="g-root-cr_4_cr-big_zko6go18g3w1y-stroke" data-item-order="999898644" transform="translate(338, 343.328125)"><g id="cr_4_cr-big_zko6go18g3w1y-stroke" fill="none" stroke-linecap="round" stroke-linejoin="round" stroke-miterlimit="4" stroke="#92bd39" stroke-width="2"><g><path d="M 10 46C 10 65.882251 26.117749 82 46 82C 65.882251 82 82 65.882251 82 46C 82 26.117749 65.882251 10 46 10C 26.117749 10 10 26.117749 10 46"></path></g></g></g><g id="g-root-sy_4_cu-smallCircle_zko6go18g3w1t-stroke" data-item-order="999898647" transform="translate(371, 316.33203125)"><g id="sy_4_cu-smallCircle_zko6go18g3w1t-stroke" fill="none" stroke-linecap="round" stroke-linejoin="round" stroke-miterlimit="4" stroke="#92bd39" stroke-width="2"><g><path d="M 10 13C 10 11.343109 11.343079 10 13 10C 14.656921 10 16 11.343109 16 13C 16 14.656891 14.656921 16 13 16C 11.343079 16 10 14.656891 10 13Z"></path></g></g></g><g id="g-root-ln_4_ln_zko6go18g3w1u-stroke" data-item-order="999898649" transform="translate(374, 322.33203125)"><g id="ln_4_ln_zko6go18g3w1u-stroke" fill="none" stroke-linecap="round" stroke-linejoin="round" stroke-miterlimit="4" stroke="#92bd39" stroke-width="2"><g><path d="M 10 31L 10 20.5L 10 10"></path></g></g></g><g id="g-root-cr_3_cr-big_zko6go18g3v9p-stroke" data-item-order="999898652" transform="translate(242, 223.330078125)"><g id="cr_3_cr-big_zko6go18g3v9p-stroke" fill="none" stroke-linecap="round" stroke-linejoin="round" stroke-miterlimit="4" stroke="#3cc583" stroke-width="2"><g><path d="M 10 46C 10 65.882251 26.117749 82 46 82C 65.882251 82 82 65.882251 82 46C 82 26.117749 65.882251 10 46 10C 26.117749 10 10 26.117749 10 46"></path></g></g></g><g id="g-root-sy_3_cu-smallCircle_zko6go18g3w1s-stroke" data-item-order="999898655" transform="translate(275, 316.326171875)"><g id="sy_3_cu-smallCircle_zko6go18g3w1s-stroke" fill="none" stroke-linecap="round" stroke-linejoin="round" stroke-miterlimit="4" stroke="#3cc583" stroke-width="2"><g><path d="M 16 13C 16 14.6569 14.6569 16 13 16C 11.3431 16 10 14.6569 10 13C 10 11.3431 11.3431 10 13 10C 14.6569 10 16 11.3431 16 13Z"></path></g></g></g><g id="g-root-ln_3_ln_140hol418g3v9e-stroke" data-item-order="999898657" transform="translate(278, 295.330078125)"><g id="ln_3_ln_140hol418g3v9e-stroke" fill="none" stroke-linecap="round" stroke-linejoin="round" stroke-miterlimit="4" stroke="#3cc583" stroke-width="2"><g><path d="M 10 10L 10 20.5L 10 31"></path></g></g></g><g id="g-root-cr_2_cr-big_zko6go18g3w1x-stroke" data-item-order="999898660" transform="translate(146, 343.330078125)"><g id="cr_2_cr-big_zko6go18g3w1x-stroke" fill="none" stroke-linecap="round" stroke-linejoin="round" stroke-miterlimit="4" stroke="#1eabda" stroke-width="2"><g><path d="M 10 46C 10 65.882251 26.117749 82 46 82C 65.882251 82 82 65.882251 82 46C 82 26.117749 65.882251 10 46 10C 26.117749 10 10 26.117749 10 46"></path></g></g></g><g id="g-root-sy_2_cu-smallCircle_v4uoc818g3w26-stroke" data-item-order="999898663" transform="translate(179, 316.33203125)"><g id="sy_2_cu-smallCircle_v4uoc818g3w26-stroke" fill="none" stroke-linecap="round" stroke-linejoin="round" stroke-miterlimit="4" stroke="#1eabda" stroke-width="2"><g><path d="M 10 13C 10 11.343109 11.343109 10 13 10C 14.656891 10 16 11.343109 16 13C 16 14.656891 14.656891 16 13 16C 11.343109 16 10 14.656891 10 13Z"></path></g></g></g><g id="g-root-ln_2_ln_v4uoc818g3w27-stroke" data-item-order="999898665" transform="translate(182, 322.33203125)"><g id="ln_2_ln_v4uoc818g3w27-stroke" fill="none" stroke-linecap="round" stroke-linejoin="round" stroke-miterlimit="4" stroke="#1eabda" stroke-width="2"><g><path d="M 10 31L 10 20.5L 10 10"></path></g></g></g><g id="g-root-cr_1_cr-big_zko6go18g3v9n-stroke" data-item-order="999898668" transform="translate(50, 223.330078125)"><g id="cr_1_cr-big_zko6go18g3v9n-stroke" fill="none" stroke-linecap="round" stroke-linejoin="round" stroke-miterlimit="4" stroke="#4e88e7" stroke-width="2"><g><path d="M 10 46C 10 65.882251 26.117749 82 46 82C 65.882251 82 82 65.882251 82 46C 82 26.117749 65.882251 10 46 10C 26.117749 10 10 26.117749 10 46"></path></g></g></g><g id="g-root-sy_1_cu-smallCircle_140hol418g3v9h-stroke" data-item-order="999898671" transform="translate(83, 316.326171875)"><g id="sy_1_cu-smallCircle_140hol418g3v9h-stroke" fill="none" stroke-linecap="round" stroke-linejoin="round" stroke-miterlimit="4" stroke="#4e88e7" stroke-width="2"><g><path d="M 16 13C 16 14.6569 14.6569 16 13 16C 11.3431 16 10 14.6569 10 13C 10 11.3431 11.3431 10 13 10C 14.6569 10 16 11.3431 16 13Z"></path></g></g></g><g id="g-root-ln_1_ln_140hol418g3v9d-stroke" data-item-order="999898673" transform="translate(86, 295.330078125)"><g id="ln_1_ln_140hol418g3v9d-stroke" fill="none" stroke-linecap="round" stroke-linejoin="round" stroke-miterlimit="4" stroke="#4e88e7" stroke-width="2"><g><path d="M 10 10L 10 20.5L 10 31"></path></g></g></g><g id="g-root-ic_auto_zko6go18g3v9q-stroke" data-item-order="1000000000" transform="translate(254, 235.330078125)"><g id="ic_auto_zko6go18g3v9q-stroke" fill="none" stroke-linecap="round" stroke-linejoin="round" stroke-miterlimit="4" stroke="#3cc583" stroke-width="2"><g><path d="M 30.860001 23.26L 45 56L 57 56L 38.400002 12.940001C 38.163094 12.366039 37.600899 11.993881 36.98 12L 24.98 12M 11.34 44.16L 16.360001 53.080002C 17.377686 54.884232 19.288542 56.000172 21.360001 56C 22.436396 56.001701 23.490959 55.696434 24.4 55.119999L 39 46L 21 46M 14.32 46C 12.486415 46 11 44.513584 11 42.68C 11.004207 42.225716 11.099415 41.776878 11.28 41.360001L 23.6 12.92C 23.837843 12.357482 24.389267 11.991946 25 11.991946C 25.610733 11.991946 26.162157 12.357482 26.4 12.92L 30.860001 23.26L 21 46Z"></path></g></g></g><g id="g-root-ic_proc_zko6go18g3v9o-stroke" data-item-order="1000000000" transform="translate(62, 235.330078125)"><g id="ic_proc_zko6go18g3v9o-stroke" fill="none" stroke-linecap="round" stroke-linejoin="round" stroke-miterlimit="4" stroke="#4e88e7" stroke-width="2"><g><path d="M 21 32L 21 38M 25 57L 26 45L 31 45L 31 38C 31 32.477154 26.522848 28 21 28C 15.477153 28 11 32.477154 11 38L 11 45L 16 45L 17 57ZM 23.334 18C 24.905506 18.001305 26.460918 17.683554 27.906 17.066C 27.525707 14.108422 25.302612 11.722239 22.379307 11.133867C 19.456003 10.545495 16.482872 11.885836 14.988 14.466C 17.17684 16.725311 20.188288 18.000467 23.334 18ZM 14 18C 14 21.865993 17.134007 25 21 25C 24.865993 25 28 21.865993 28 18C 28 14.134007 24.865993 11 21 11C 17.134007 11 14 14.134007 14 18ZM 36 35L 46 35M 46 17L 45 17C 42.790859 17 41 18.790861 41 21L 41 47C 41 49.209141 42.790859 51 45 51L 46 51M 50 18L 52 20L 57 16M 50 36L 52 38L 57 34M 50 48L 56 54M 56 48L 50 54"></path></g></g></g><g id="g-root-ic_1_140hol418g3v9c-stroke" data-item-order="1000000000" transform="translate(446, 235.330078125)"><g id="ic_1_140hol418g3v9c-stroke" fill="none" stroke-linecap="round" stroke-linejoin="round" stroke-miterlimit="4" stroke="#e0cb15" stroke-width="2"><g><path d="M 20 37.400002C 15.581722 37.400002 12 40.98172 12 45.400002L 12 56.400002L 28 56.400002L 28 45.400002C 28 40.98172 24.418278 37.400002 20 37.400002ZM 16 38.391998L 16 25.864M 24 25.864L 24 38.391998M 14 21.392C 14 24.705708 16.686291 27.392 20 27.392C 23.313709 27.392 26 24.705708 26 21.392C 26 18.078293 23.313709 15.392 20 15.392C 16.686291 15.392 14 18.078293 14 21.392M 39.542 17.116001C 39.542 20.157986 42.008015 22.624001 45.049999 22.624001C 48.091984 22.624001 50.557999 20.157986 50.557999 17.116001C 50.557999 14.074016 48.091984 11.608 45.049999 11.608C 42.008015 11.608 39.542 14.074016 39.542 17.116001M 39.784 14.493999L 24.104 17.015999M 25.892 22.529999L 39.478001 20.344M 43.188 22.624001L 43.666 28.440001M 48.327999 28.056L 47.849998 22.25M 12 46.391998L 28 46.391998M 41.299999 28.586L 46.049999 28.243999L 50.548 27.92M 46.543999 34.248001L 46.049999 28.243999M 12 56.391998L 56 56.391998M 36.889999 56.400002L 36.889999 52.169998C 36.903168 51.224136 37.680122 50.467766 38.625999 50.48L 54.262001 50.48C 55.208652 50.466652 55.986839 51.223347 56 52.170002L 56 56.400002M 40.363998 50.48L 46.444 38.48L 52.526001 50.48L 40.363998 50.48ZM 19 21.248001C 19 21.800285 19.447716 22.248001 20 22.248001C 20.552284 22.248001 21 21.800285 21 21.248001C 21 20.695715 20.552284 20.248001 20 20.248001C 19.447716 20.248001 19 20.695715 19 21.248001M 52.880001 31.01L 55.212002 29.474001M 53.195999 35.746002L 55.138 37.23M 39.538002 32.152L 36.908001 31.212M 40.354 36.826L 38.82 38.728001"></path></g></g></g><g id="g-root-tx_implment_zko6go18g3w22-stroke" data-item-order="1000000000" transform="translate(314, 427.330078125)"></g><g id="g-root-tx_amliorat_zko6go18g3v9k-stroke" data-item-order="1000000000" transform="translate(404, 163.330078125)"></g><g id="g-root-tx_identifi_zko6go18g3v9l-stroke" data-item-order="1000000000" transform="translate(26, 163.330078125)"></g><g id="g-root-tx_dveloppe_zko6go18g3v9j-stroke" data-item-order="1000000000" transform="translate(212, 139.330078125)"></g><g id="g-root-ic_char_zko6go18g3w1z-stroke" data-item-order="1000000000" transform="translate(158, 355.330078125)"><g id="ic_char_zko6go18g3w1z-stroke" fill="none" stroke-linecap="round" stroke-linejoin="round" stroke-miterlimit="4" stroke="#1eabda" stroke-width="2"><g><path d="M 26 34C 27.10457 34 28 33.104568 28 32L 28 17.327999C 27.999887 16.797611 27.789099 16.288986 27.414 15.914L 23.086 11.586C 22.711014 11.210901 22.202389 11.000113 21.672001 11L 13 11C 11.895431 11 11 11.895431 11 13L 11 32C 11 33.104568 11.895431 34 13 34ZM 16 17L 22.5 17M 16 23L 22.5 23M 16 29L 20.5 29M 35 46C 35 52.075134 39.92487 57 46 57C 52.075134 57 57 52.075134 57 46C 57 39.92487 52.075134 35 46 35C 39.92487 35 35 39.92487 35 46M 56.816002 44L 46 46L 46 35M 46 46L 51 55.798M 55.130001 25.445999C 51.991802 20.576185 46.593391 17.635502 40.799999 17.639999L 37.700001 17.639999M 42.354 12.99L 37.704002 17.639999L 42.354 22.288M 12.342 42C 15.480965 46.86721 20.878387 49.805504 26.67 49.800003L 29.768 49.799999M 25.119999 54.462002L 29.768 49.812L 25.119999 45.164001"></path></g></g></g><g id="g-root-ic_box_zko6go18g3w20-stroke" data-item-order="1000000000" transform="translate(350, 355.330078125)"><g id="ic_box_zko6go18g3w20-stroke" fill="none" stroke-linecap="round" stroke-linejoin="round" stroke-miterlimit="4" stroke="#92bd39" stroke-width="2"><g><path d="M 25.888 17.806L 25.888 47.619999L 30.388 56.264L 13.388 56.264L 17.969999 47.515999L 17.888 17.802M 40.950001 18.764L 26.458 18.764M 25.223999 12.764L 41.326 12.764M 38.970001 46.037998L 51.806 46.037998L 51.806 56.736L 38.970001 56.736ZM 38.970001 46.037998L 35.225998 42.293999M 51.806 46.037998L 55.549999 42.293999M 45.388 27.181999C 43.75692 27.182369 42.374027 25.98278 42.144001 24.368L 41 16.33C 40.753242 14.610421 41.532471 12.904969 42.993977 11.965904C 44.455482 11.02684 46.330521 11.02684 47.792027 11.965904C 49.253529 12.904969 50.032761 14.610421 49.785999 16.33L 48.636002 24.368C 48.406574 25.984728 47.02092 27.185228 45.387997 27.181999ZM 41.459999 33.104L 49.318001 33.104L 49.318001 40.961998L 41.459999 40.961998ZM 17.388 15.764C 17.388 18.249283 19.402718 20.264 21.888 20.264C 24.373281 20.264 26.388 18.249283 26.388 15.764C 26.388 13.278719 24.373281 11.264 21.888 11.264C 19.402718 11.264 17.388 13.278719 17.388 15.764M 10.888 56.264L 32.888 56.264M 51.271999 22.818001L 49.259998 21.914C 49.171848 21.889042 49.082378 21.869011 48.992001 21.854L 48.632 24.369999C 48.499886 25.236305 48.02124 26.011669 47.305996 26.518L 49.222 27.379999C 51.38332 28.349943 52.538002 30.730104 51.961998 33.028C 51.627316 34.367844 52.442158 35.725319 53.782001 36.060001C 55.121845 36.394684 56.479317 35.579842 56.814003 34.240002C 57.978317 29.592764 55.64291 24.779518 51.271996 22.817999ZM 42.144001 24.369999L 41.784 21.854C 41.694283 21.869015 41.605476 21.889046 41.518002 21.914001L 39.503998 22.82C 35.131279 24.779655 32.795097 29.594498 33.961998 34.242001C 34.242645 35.352535 35.240555 36.131432 36.386002 36.134003C 36.588223 36.133137 36.789627 36.108299 36.986 36.060001C 38.325226 35.724674 39.13913 34.367275 38.804001 33.028C 38.228279 30.727955 39.386944 28.346537 41.552002 27.380001L 43.470001 26.518C 42.755447 26.011028 42.276997 25.235983 42.144001 24.370001Z"></path></g></g></g><g id="g-root-tx_analysed_zko6go18g3w21-stroke" data-item-order="1000000000" transform="translate(140, 427.330078125)"></g><g id="g-root-tx_processu_zko6go18g3v9i-stroke" data-item-order="1000000000" transform="translate(158, 19.330078125)"></g></g></g></svg>