<?xml version="1.0" encoding="utf-8" standalone="yes"?>
<!DOCTYPE svg PUBLIC "-//W3C//DTD SVG 1.1//EN" "http://www.w3.org/Graphics/SVG/1.1/DTD/svg11.dtd">
<svg width="702" height="588" viewBox="0 0 702 588" style="fill:none;stroke:none;fill-rule:evenodd;clip-rule:evenodd;stroke-linecap:round;stroke-linejoin:round;stroke-miterlimit:1.5;" version="1.1" xmlns="http://www.w3.org/2000/svg" xmlns:xlink="http://www.w3.org/1999/xlink"><style class="text-font-style fontImports" data-font-family="Roboto">@import url('https://fonts.googleapis.com/css2?family=Roboto:wght@400;700&amp;display=block');</style><g id="items" style="isolation: isolate"><g id="blend" style="mix-blend-mode: normal"><g id="g-root-sy_-1_ar_1hbya3s1b8b408-fill" data-item-order="-179993" transform="translate(32, 157.60009765625)"></g><g id="g-root-sy_5_cu_1hbya3s1b8b40d-fill" data-item-order="-179990" transform="translate(529.583984375, 235.19580078125)"><g id="sy_5_cu_1hbya3s1b8b40d-fill" stroke="none" fill="#7f64ea"><g><path d="M 94 52C 94 75.196 75.196 94 52 94C 28.804 94 10 75.196 10 52C 10 28.804 28.804 10 52 10C 75.196 10 94 28.804 94 52Z"></path></g></g></g><g id="g-root-sy_4_cu_1lrrs881b8b402-fill" data-item-order="-179986" transform="translate(409.583984375, 355.19580078125)"><g id="sy_4_cu_1lrrs881b8b402-fill" stroke="none" fill="#1eabda"><g><path d="M 94 52C 94 75.196 75.196 94 52 94C 28.804 94 10 75.196 10 52C 10 28.804 28.804 10 52 10C 75.196 10 94 28.804 94 52Z"></path></g></g></g><g id="g-root-sy_3_cu_1hbya3s1b8b40a-fill" data-item-order="-179982" transform="translate(289.583984375, 175.19580078125)"><g id="sy_3_cu_1hbya3s1b8b40a-fill" stroke="none" fill="#92bd39"><g><path d="M 94 52C 94 75.196 75.196 94 52 94C 28.804 94 10 75.196 10 52C 10 28.804 28.804 10 52 10C 75.196 10 94 28.804 94 52Z"></path></g></g></g><g id="g-root-sy_2_cu_1lrrs881b8b400-fill" data-item-order="-179978" transform="translate(169.583984375, 295.19580078125)"><g id="sy_2_cu_1lrrs881b8b400-fill" stroke="none" fill="#3cc583"><g><path d="M 94 52C 94 75.196 75.196 94 52 94C 28.804 94 10 75.196 10 52C 10 28.804 28.804 10 52 10C 75.196 10 94 28.804 94 52Z"></path></g></g></g><g id="g-root-sy_1_cu_1hbya3s1b8b40c-fill" data-item-order="-179974" transform="translate(49.583984375, 235.19580078125)"><g id="sy_1_cu_1hbya3s1b8b40c-fill" stroke="none" fill="#4e88e7"><g><path d="M 94 52C 94 75.196 75.196 94 52 94C 28.804 94 10 75.196 10 52C 10 28.804 28.804 10 52 10C 75.196 10 94 28.804 94 52Z"></path></g></g></g><g id="g-root-ic_clou_1hbya3s1b8b40b-fill" data-item-order="-2304" transform="translate(308, 194.00439453125)"><g id="ic_clou_1hbya3s1b8b40b-fill" stroke="none" fill="#484848"><g><path d="M 52.139999 54.48L 51.040001 54.48L 51.040001 44.48L 52.139999 44.48C 52.96843 44.48 53.639999 43.80843 53.639999 42.98C 53.639999 42.151573 52.96843 41.480003 52.139999 41.480003L 46.919998 41.48C 46.091576 41.480003 45.420002 42.151573 45.420002 42.98C 45.420002 43.80843 46.091576 44.48 46.920002 44.48L 48 44.48L 48 54.48L 46.880001 54.48C 46.051575 54.48 45.380001 55.151573 45.380001 55.98C 45.380001 56.80843 46.051575 57.48 46.880001 57.48L 52.099998 57.48C 52.928429 57.48 53.600002 56.80843 53.600002 55.98C 53.600002 55.151573 52.928429 54.48 52.100002 54.48ZM 36.16 41.419998L 32.16 41.419998C 31.331573 41.419998 30.66 42.091576 30.66 42.920002L 30.66 56C 30.66 56.82843 31.331573 57.5 32.16 57.5C 32.988426 57.5 33.66 56.82843 33.66 56L 33.66 52.259998L 36.080002 52.259998C 39.072979 52.25943 41.498966 49.832981 41.498966 46.84C 41.498966 43.847019 39.072979 41.42057 36.080002 41.419998ZM 36.16 49.259998L 33.739998 49.259998L 33.739998 44.419998L 36.16 44.419998C 37.496529 44.420002 38.580002 45.503471 38.580002 46.84C 38.580002 48.176533 37.496529 49.260002 36.160004 49.260002ZM 25.4 46C 25.037273 43.393642 22.791239 41.464798 20.16 41.5C 17.536337 41.474937 15.301781 43.401279 14.94 45.999996L 13.46 55.84C 13.338526 56.387905 13.53306 56.957783 13.964203 57.317047C 14.395346 57.676308 14.990971 57.764847 15.507971 57.546524C 16.024971 57.328205 16.376854 56.839546 16.42 56.280003L 16.92 52.98L 23.42 52.98L 24 56.200001C 24.100681 56.93845 24.734753 57.486835 25.48 57.480003L 25.700001 57.48C 26.516237 57.35659 27.079346 56.59684 26.960001 55.780003ZM 17.4 50L 18 46.360001C 18.181488 45.247364 19.142662 44.430267 20.27 44.430267C 21.397339 44.430267 22.358513 45.247364 22.539999 46.359997L 22.959999 50ZM 57 28.52C 57.001762 25.804268 55.898918 23.204611 53.944958 21.318546C 51.990993 19.43248 49.353973 18.422234 46.639999 18.52C 43.910072 12.729048 37.599674 9.527731 31.314335 10.745161C 25.028994 11.962592 20.370277 17.288559 20 23.68C 17.794804 23.229866 15.504026 23.793852 13.759861 25.216316C 12.015696 26.638779 11.002542 28.769333 11 31.02C 11 38.639999 19 38.52 19 38.52L 48 38.52C 48 38.52 57 37.34 57 28.52Z"></path></g></g></g><g id="g-root-ic_shar_1hbya3s1b8b40e-fill" data-item-order="-2304" transform="translate(68, 254.00439453125)"><g id="ic_shar_1hbya3s1b8b40e-fill" stroke="none" fill="#484848"><g><path d="M 24.5 32L 13.5 32C 11.571548 32.010925 10.010926 33.571548 10 35.5L 10 54.5C 10.010926 56.428452 11.571548 57.989075 13.5 58L 24.5 58C 26.432997 58.000004 28 56.432999 28 54.500004L 28 35.5C 28 33.567005 26.432997 32 24.5 32ZM 13.5 35L 24.5 35C 24.776142 35 25 35.223858 25 35.5L 25 50L 13 50L 13 35.599998C 12.969582 35.451141 13.008499 35.296524 13.105766 35.179806C 13.203033 35.063087 13.348095 34.996925 13.5 35ZM 54.5 10L 39.5 10C 37.571548 10.010926 36.010925 11.571548 36 13.5L 36 27.5C 36.010925 29.428452 37.571548 30.989073 39.5 31L 54.5 31C 56.428452 30.989073 57.989075 29.428452 58 27.5L 58 13.5C 57.989075 11.571548 56.428452 10.010926 54.5 10ZM 48 17.139999L 48 21.139999L 39 21.139999L 39 17.139999ZM 51 17.139999L 55 17.139999L 55 21.139999L 51 21.139999ZM 39 27.5L 39 24.1L 48 24.1L 48 28L 39.5 28C 39.223858 28 39 27.776142 39 27.5ZM 54.5 28L 51.040001 28L 51.040001 24.1L 55.040001 24.1L 55.040001 27.5C 55.040447 27.639839 54.982315 27.773476 54.879707 27.868483C 54.7771 27.963491 54.639393 28.011189 54.5 28ZM 33.620003 14.74L 29.120001 10.42C 28.690718 10.000896 28.050892 9.88241 27.5 10.12C 26.943783 10.353208 26.581339 10.896873 26.58 11.5L 26.58 14.32L 25.08 14.32C 21.008307 14.26425 17.656658 17.508646 17.58 21.58L 17.58 22.24L 14.58 22.24C 13.968454 22.240391 13.418376 22.612 13.189738 23.179197C 12.961101 23.746395 13.099687 24.395603 13.54 24.82L 18 29.139999C 18.585636 29.724907 19.534367 29.724907 20.119999 29.140001L 24.619999 24.82C 25.060314 24.395603 25.1989 23.746395 24.970263 23.179197C 24.741623 22.612 24.191547 22.240391 23.580002 22.240002L 20.58 22.24L 20.58 21.58C 20.656214 19.165445 22.664894 17.263893 25.080002 17.32L 26.58 17.32L 26.58 20.139999C 26.581339 20.743126 26.943783 21.286793 27.5 21.52C 27.658117 21.589674 27.827484 21.630322 28 21.639999C 28.388762 21.644054 28.763083 21.492886 29.040001 21.220001L 33.540001 16.9C 33.849258 16.631418 34.033379 16.246679 34.048542 15.837354C 34.063702 15.428028 33.908546 15.030723 33.620003 14.74Z"></path></g></g></g><g id="g-root-ic_airf_1hbya3s1b8b40f-fill" data-item-order="-2304" transform="translate(548, 254.00439453125)"><g id="ic_airf_1hbya3s1b8b40f-fill" stroke="none" fill="#484848"><g><path d="M 36.5 12.16C 36.5 11.05543 37.395432 10.16 38.5 10.16L 43.5 10.16C 44.604568 10.16 45.5 11.05543 45.5 12.16C 45.5 13.264569 44.604568 14.16 43.5 14.16L 40.5 14.16L 40.5 53.84L 43.5 53.84C 44.604568 53.84 45.5 54.735432 45.5 55.84C 45.5 56.944569 44.604568 57.84 43.5 57.84L 38.5 57.84C 37.395432 57.84 36.5 56.944569 36.5 55.84L 36.5 36L 27.5 36C 26.39543 36 25.5 35.104568 25.5 34C 25.5 32.895432 26.39543 32 27.5 32L 36.5 32L 36.5 12.16ZM 16.9 12C 13.310149 12 10.400001 14.91015 10.400001 18.5C 10.400001 22.089851 13.310149 25 16.9 25C 20.489851 25 23.400002 22.089851 23.400002 18.5C 23.400002 14.91015 20.489851 12 16.9 12ZM 52.099998 12.6C 48.841522 12.6 46.200001 15.24152 46.200001 18.5C 46.200001 21.75848 48.841522 24.400002 52.100002 24.400002C 55.358482 24.400002 58 21.75848 58 18.5C 58 15.24152 55.358482 12.6 52.100002 12.6ZM 52.099998 27.6C 48.841522 27.6 46.200001 30.24152 46.200001 33.5C 46.200001 36.75848 48.841522 39.400002 52.100002 39.400002C 55.358482 39.400002 58 36.75848 58 33.5C 58 30.24152 55.358482 27.6 52.100002 27.6ZM 52.099998 42.599998C 48.841522 42.600002 46.200001 45.24152 46.200001 48.5C 46.200001 51.75848 48.841522 54.400002 52.100002 54.400002C 55.358482 54.400002 58 51.75848 58 48.5C 58 45.24152 55.358482 42.600002 52.100002 42.600002ZM 18.174 43.708C 17.898066 43.264153 17.411003 42.995926 16.888391 43.000008C 16.365778 43.004089 15.882966 43.279896 15.614 43.728001L 10.214 52.728001C 9.93585 53.191376 9.928474 53.768551 10.194691 54.238884C 10.460908 54.709213 10.959554 54.999969 11.5 55L 22.5 55C 23.04468 55.00005 23.546581 54.704834 23.811207 54.228756C 24.075832 53.752682 24.061592 53.170567 23.774 52.708L 18.174 43.708ZM 21.444 40C 22.272427 40 22.944 39.32843 22.944 38.5L 22.944 29.5C 22.944 28.671574 22.272427 28 21.444 28L 12.444 28C 11.615573 28 10.944 28.671574 10.944 29.5L 10.944 38.5C 10.944 39.327999 11.616 40 12.444 40L 21.444 40Z"></path></g></g></g><g id="g-root-ic_2_1lrrs881b8b401-fill" data-item-order="-2304" transform="translate(188, 314.00439453125)"><g id="ic_2_1lrrs881b8b401-fill" stroke="none" fill="#484848"><g><path d="M 49 55.360001C 48.996067 55.088829 49.104683 54.828152 49.299999 54.639999L 56.419998 47.580002C 56.78949 47.207478 56.997791 46.704681 57 46.18L 57 31.879999C 56.998447 31.555408 56.842499 31.250935 56.579998 31.059999C 56.311569 30.871552 55.967789 30.82671 55.66 30.940001C 54.220001 31.440001 52.060001 33.720001 52 42.599998C 51.998463 42.864235 51.890282 43.116653 51.700001 43.299999L 47.299999 47.700001C 47.120167 47.827019 46.879829 47.827019 46.699997 47.699997C 46.502377 47.589256 46.4039 47.359482 46.459999 47.139999L 47.439999 42.84C 48.119999 39.959999 45.439999 38.84 44.060001 40.959999C 42.798943 43.528107 41.7747 46.205864 41 48.960003L 41 57.48C 41 57.756142 41.223858 57.98 41.5 57.98L 48.5 57.98C 48.776142 57.98 49 57.756142 49 57.48ZM 26.5 58C 26.776142 58 27 57.776142 27 57.5L 27 48.98C 26.225302 46.225864 25.201061 43.548107 23.940001 40.980003C 22.5 38.760002 19.939999 39.98 20.560001 42.860001L 21.540001 47.16C 21.596098 47.379482 21.497623 47.609257 21.299999 47.720001C 21.120167 47.847015 20.879831 47.847015 20.699999 47.719997L 16.299999 43.32C 16.104683 43.131847 15.996068 42.871174 16 42.599998C 16 33.720001 13.78 31.440001 12.34 30.940001C 12.03221 30.82671 11.688433 30.871552 11.42 31.059999C 11.1575 31.250935 11.001551 31.555408 11 31.879999L 11 46C 10.99565 46.57132 11.235848 47.117222 11.66 47.5C 13.66 49.360001 17.66 53.5 18.720001 54.560001C 18.897598 54.750095 18.997501 54.999855 19 55.259998L 19 57.419998C 19 57.696144 19.223858 57.919998 19.5 57.919998ZM 41.239998 27.74C 40.770996 28.205599 40.507225 28.839132 40.507225 29.5C 40.507225 30.160868 40.770996 30.794401 41.239998 31.26C 41.702904 31.734022 42.337448 32.001282 43 32.001282C 43.662556 32.001282 44.297096 31.734022 44.760002 31.26L 52.759998 23.26C 53.229004 22.794401 53.492775 22.160868 53.492775 21.5C 53.492775 20.839134 53.229004 20.205599 52.760002 19.74L 44.759998 11.74C 43.787979 10.767979 42.212021 10.767979 41.239998 11.74C 40.267979 12.712021 40.267979 14.287979 41.239998 15.26L 46.759998 20.799999C 47.141144 21.188843 47.141144 21.811157 46.759998 22.200001ZM 26.76 11.74C 26.294401 11.270997 25.660868 11.007226 25 11.007226C 24.339134 11.007226 23.705599 11.270997 23.24 11.74L 15.24 19.74C 14.770998 20.205599 14.507227 20.839134 14.507227 21.5C 14.507227 22.160868 14.770998 22.794401 15.24 23.26L 23.24 31.26C 23.702904 31.734022 24.337448 32.001282 25 32.001282C 25.662554 32.001282 26.297096 31.734022 26.76 31.26C 27.229002 30.794401 27.492773 30.160868 27.492773 29.5C 27.492773 28.839132 27.229002 28.205599 26.76 27.74L 21.24 22.200001C 20.858856 21.811157 20.858856 21.188843 21.24 20.799999L 26.76 15.26C 27.229002 14.794401 27.492773 14.160868 27.492773 13.5C 27.492773 12.839132 27.229002 12.205599 26.76 11.74ZM 10 10M 31.459999 32.940002L 32 32.940002C 33.181667 32.927902 34.196213 32.09631 34.440002 30.940001L 38.440002 12.940001C 38.723816 12.023884 38.458519 11.026154 37.757172 10.371991C 37.05582 9.717828 36.042057 9.522554 35.147896 9.869385C 34.253731 10.216215 33.636799 11.044007 33.559998 12L 29.559999 30C 29.287107 31.333876 30.131763 32.640869 31.460001 32.940002Z"></path></g></g></g><g id="g-root-ic_1_1lrrs881b8b403-fill" data-item-order="-2304" transform="translate(428, 374.00439453125)"><g id="ic_1_1lrrs881b8b403-fill" stroke="none" fill="#484848"><g><path d="M 38.316002 10.258C 39.42057 10.258 40.316002 11.153431 40.316002 12.257999L 40.316002 15.5L 44.948002 15.5L 44.948002 12.257999C 44.948002 11.153431 45.84343 10.258 46.948002 10.258C 48.05257 10.258 48.948002 11.153431 48.948002 12.257999L 48.948002 15.858C 50.384041 16.407341 51.527195 17.528767 52.104 18.953999L 55.743999 18.954C 56.848568 18.954 57.743999 19.84943 57.743999 20.954C 57.743999 22.058571 56.848568 22.954 55.743999 22.954L 52.5 22.954L 52.5 27.652L 55.742001 27.652C 56.846569 27.652 57.742001 28.54743 57.742001 29.652C 57.742001 30.756569 56.846569 31.652 55.742001 31.652L 52.5 31.652L 52.5 36.348L 55.742001 36.348C 56.846569 36.348 57.742001 37.243431 57.742001 38.348C 57.742001 39.452568 56.846569 40.348 55.742001 40.348L 52.5 40.348L 52.5 45.046001L 55.742001 45.046001C 56.846569 45.046001 57.742001 45.941429 57.742001 47.046001C 57.742001 48.15057 56.846569 49.046001 55.742001 49.046001L 52.104 49.046001C 51.526993 50.471096 50.383907 51.592449 48.947998 52.141998L 48.948002 55.742001C 48.948002 56.846569 48.05257 57.742001 46.948002 57.742001C 45.84343 57.742001 44.948002 56.846569 44.948002 55.742001L 44.948002 52.5L 40.316002 52.5L 40.316002 55.742001C 40.316002 56.846569 39.42057 57.742001 38.316002 57.742001C 37.21143 57.742001 36.316002 56.846569 36.316002 55.742001L 36.316002 52.5L 31.684 52.5L 31.684 55.742001C 31.684 56.846569 30.78857 57.742001 29.684 57.742001C 28.57943 57.742001 27.684 56.846569 27.684 55.742001L 27.684 52.5L 23.052 52.5L 23.052 55.742001C 23.052 56.846569 22.15657 57.742001 21.052 57.742001C 19.94743 57.742001 19.052 56.846569 19.052 55.742001L 19.052 52.141998C 17.615959 51.592655 16.472801 50.471233 15.896 49.045998L 12.256001 49.046001C 11.15143 49.046001 10.256 48.15057 10.256 47.046001C 10.256 45.941429 11.15143 45.046001 12.256001 45.046001L 15.5 45.046001L 15.5 40.348L 12.257999 40.348C 11.153431 40.348 10.258 39.452568 10.258 38.348C 10.258 37.243431 11.153431 36.348 12.257999 36.348L 15.5 36.348L 15.5 31.652L 12.257999 31.652C 11.153431 31.652 10.258 30.756569 10.258 29.652C 10.258 28.54743 11.153431 27.652 12.257999 27.652L 15.5 27.652L 15.5 22.954L 12.257999 22.954C 11.153431 22.954 10.258 22.058571 10.258 20.954C 10.258 19.84943 11.153431 18.954 12.257999 18.954L 15.896 18.954C 16.472801 17.528767 17.615959 16.407341 19.052 15.858L 19.052 12.257999C 19.052 11.153431 19.94743 10.258 21.052 10.258C 22.15657 10.258 23.052 11.153431 23.052 12.257999L 23.052 15.5L 27.684 15.5L 27.684 12.257999C 27.684 11.153431 28.57943 10.258 29.684 10.258C 30.78857 10.258 31.684 11.153431 31.684 12.257999L 31.684 15.5L 36.316002 15.5L 36.316002 12.257999C 36.316002 11.153431 37.21143 10.258 38.316002 10.258ZM 34.104 23.112C 28.118 23.112 23.216 28.016001 23.216 34C 23.216 37.785999 25.195999 41.062 28.139999 43.088001C 28.822624 43.557442 28.995443 44.491379 28.526001 45.174C 28.056559 45.856625 27.122625 46.029442 26.440001 45.560001C 22.779999 43.040001 20.216 38.886002 20.216 34C 20.216 26.360001 26.462 20.112 34.104 20.112C 38.015999 20.112 41.506001 21.720001 43.860001 24.292C 44.139843 24.582281 44.290474 24.973351 44.277668 25.376352C 44.264862 25.779354 44.089706 26.160072 43.792 26.431999L 38.038002 32.003998C 39.011902 34.026611 38.38216 36.456825 36.548546 37.751923C 34.714931 39.047028 32.214024 38.828022 30.633413 37.23394C 29.052801 35.639858 28.85503 33.137184 30.165646 31.314627C 31.476261 29.492069 33.911728 28.882975 35.926003 29.874002L 40.606003 25.341999C 38.893997 23.962 36.634003 23.112 34.104 23.112ZM 47.784 34C 47.784 33.171574 47.112427 32.5 46.284 32.5C 45.455574 32.5 44.784 33.171574 44.784 34C 44.784 34.854 44.778 35.496002 44.624001 36.113998C 44.485031 36.636963 44.638504 37.194244 45.025616 37.572327C 45.412727 37.950413 45.973469 38.090694 46.493011 37.93943C 47.01255 37.788162 47.410351 37.368797 47.534 36.842003C 47.785999 35.834 47.784 34.849998 47.784 34.062L 47.784 34ZM 43.993999 41.360001C 44.603767 41.919701 44.644939 42.867535 44.086002 43.478001C 41.531998 46.264 38.034 47.886002 33.896 47.886002C 33.067574 47.886002 32.396 47.214428 32.396 46.386002C 32.396 45.557575 33.067574 44.886002 33.896 44.886002C 37.192001 44.886002 39.888 43.618 41.875999 41.450001C 42.435898 40.838913 43.385273 40.797714 43.996002 41.358002Z"></path></g></g></g><g id="g-root-tx_volution_1hbya3s1b8b404-fill" data-item-order="0" transform="translate(212, 14.00439453125)"><g id="tx_volution_1hbya3s1b8b404-fill" stroke="none" fill="#484848"><g><text style="font: 20px Roboto, sans-serif; white-space: pre;" font-size="20px" font-family="Roboto, sans-serif"><tspan x="13.16" y="34" dominant-baseline="ideographic">Automation Evolution in IT</tspan></text></g></g></g><g id="g-root-tx_prolifra_1hbya3s1b8b405-fill" data-item-order="0" transform="translate(248, 110.00439453125)"><g id="tx_prolifra_1hbya3s1b8b405-fill" stroke="none" fill="#424736"><g><text style="font: 20px Roboto, sans-serif; white-space: pre;" font-size="20px" font-family="Roboto, sans-serif"><tspan x="13.1" y="34" dominant-baseline="ideographic">Expansion of APIs</tspan></text></g></g></g><g id="g-root-tx_orchestr_1hbya3s1b8b409-fill" data-item-order="0" transform="translate(506, 146.00439453125)"><g id="tx_orchestr_1hbya3s1b8b409-fill" stroke="none" fill="#443e5c"><g><text style="font: 20px Roboto, sans-serif; white-space: pre;" font-size="20px" font-family="Roboto, sans-serif"><tspan x="34.22" y="34" dominant-baseline="ideographic">Workflow </tspan><tspan x="16.96" y="58" dominant-baseline="ideographic">orchestration</tspan></text></g></g></g><g id="g-root-tx_automati_1hbya3s1b8b406-fill" data-item-order="0" transform="translate(8, 170.00439453125)"><g id="tx_automati_1hbya3s1b8b406-fill" stroke="none" fill="#3a4455"><g><text style="font: 20px Roboto, sans-serif; white-space: pre;" font-size="20px" font-family="Roboto, sans-serif"><tspan x="16.05" y="34" dominant-baseline="ideographic">Basic automation</tspan></text></g></g></g><g id="g-root-tx_dveloppe_1lrrs881b8b404-fill" data-item-order="0" transform="translate(122, 422.00439453125)"><g id="tx_dveloppe_1lrrs881b8b404-fill" stroke="none" fill="#374840"><g><text style="font: 20px Roboto, sans-serif; white-space: pre;" font-size="20px" font-family="Roboto, sans-serif"><tspan x="29.84" y="34" dominant-baseline="ideographic">Development of </tspan><tspan x="12.81" y="58" dominant-baseline="ideographic">scripting languages</tspan></text></g></g></g><g id="g-root-tx_automati_1lrrs881b8b405-fill" data-item-order="0" transform="translate(362, 482.00439453125)"><g id="tx_automati_1lrrs881b8b405-fill" stroke="none" fill="#32444a"><g><text style="font: 20px Roboto, sans-serif; white-space: pre;" font-size="20px" font-family="Roboto, sans-serif"><tspan x="36.34" y="34" dominant-baseline="ideographic">Automation of </tspan><tspan x="13.57" y="58" dominant-baseline="ideographic">complex processes</tspan></text></g></g></g><g id="g-root-sy_-1_ar_1hbya3s1b8b408-stroke" data-item-order="-179993" transform="translate(32, 157.60009765625)"><g id="sy_-1_ar_1hbya3s1b8b408-stroke" fill="none" stroke-linecap="round" stroke-linejoin="round" stroke-miterlimit="4" stroke="#484848" stroke-width="2" stroke-dasharray="5.0, 7.0"><style>.fillAsStrokeColor-mk-924qph1speg3p { fill:#484848; }</style><g><path d="M 610 248L 610 130C 610 96.86 583.14 70 550 70C 516.86 70 490 96.86 490 130L 490 250C 490 283.14 463.14 310 430 310C 396.86 310 370 283.14 370 250L 370 70C 370 36.86 343.14 10 310 10C 276.86 10 250 36.86 250 70L 250 190C 250 223.14 223.14 250 190 250C 156.86 250 130 223.14 130 190L 130 130C 130 96.86 103.14 70 70 70C 36.86 70 10 96.86 10 130L 10 250"></path><path d="M 603.5 242L 610 248.5L 616.5 242" stroke-dasharray="none"></path><path d="M 7 250C 7 251.656861 8.343146 253.000007 10 253.000007C 11.656854 253.000007 13 251.656861 13 250.000007C 13 248.343153 11.656854 247.000007 10 247.000007C 8.343146 247.000007 7 248.343153 7 250.000007Z" stroke-dasharray="none" class="fillAsStrokeColor-mk-924qph1speg3p"></path></g></g></g><g id="g-root-sy_5_cu_1hbya3s1b8b40d-stroke" data-item-order="-179990" transform="translate(529.583984375, 235.19580078125)"><g id="sy_5_cu_1hbya3s1b8b40d-stroke" fill="none" stroke-linecap="round" stroke-linejoin="round" stroke-miterlimit="4" stroke="#ffffff" stroke-width="2"><g><path d="M 94 52C 94 75.196 75.196 94 52 94C 28.804 94 10 75.196 10 52C 10 28.804 28.804 10 52 10C 75.196 10 94 28.804 94 52Z"></path></g></g></g><g id="g-root-sy_4_cu_1lrrs881b8b402-stroke" data-item-order="-179986" transform="translate(409.583984375, 355.19580078125)"><g id="sy_4_cu_1lrrs881b8b402-stroke" fill="none" stroke-linecap="round" stroke-linejoin="round" stroke-miterlimit="4" stroke="#ffffff" stroke-width="2"><g><path d="M 94 52C 94 75.196 75.196 94 52 94C 28.804 94 10 75.196 10 52C 10 28.804 28.804 10 52 10C 75.196 10 94 28.804 94 52Z"></path></g></g></g><g id="g-root-sy_3_cu_1hbya3s1b8b40a-stroke" data-item-order="-179982" transform="translate(289.583984375, 175.19580078125)"><g id="sy_3_cu_1hbya3s1b8b40a-stroke" fill="none" stroke-linecap="round" stroke-linejoin="round" stroke-miterlimit="4" stroke="#ffffff" stroke-width="2"><g><path d="M 94 52C 94 75.196 75.196 94 52 94C 28.804 94 10 75.196 10 52C 10 28.804 28.804 10 52 10C 75.196 10 94 28.804 94 52Z"></path></g></g></g><g id="g-root-sy_2_cu_1lrrs881b8b400-stroke" data-item-order="-179978" transform="translate(169.583984375, 295.19580078125)"><g id="sy_2_cu_1lrrs881b8b400-stroke" fill="none" stroke-linecap="round" stroke-linejoin="round" stroke-miterlimit="4" stroke="#ffffff" stroke-width="2"><g><path d="M 94 52C 94 75.196 75.196 94 52 94C 28.804 94 10 75.196 10 52C 10 28.804 28.804 10 52 10C 75.196 10 94 28.804 94 52Z"></path></g></g></g><g id="g-root-sy_1_cu_1hbya3s1b8b40c-stroke" data-item-order="-179974" transform="translate(49.583984375, 235.19580078125)"><g id="sy_1_cu_1hbya3s1b8b40c-stroke" fill="none" stroke-linecap="round" stroke-linejoin="round" stroke-miterlimit="4" stroke="#ffffff" stroke-width="2"><g><path d="M 94 52C 94 75.196 75.196 94 52 94C 28.804 94 10 75.196 10 52C 10 28.804 28.804 10 52 10C 75.196 10 94 28.804 94 52Z"></path></g></g></g><g id="g-root-ic_clou_1hbya3s1b8b40b-stroke" data-item-order="-2304" transform="translate(308, 194.00439453125)"></g><g id="g-root-ic_shar_1hbya3s1b8b40e-stroke" data-item-order="-2304" transform="translate(68, 254.00439453125)"></g><g id="g-root-ic_airf_1hbya3s1b8b40f-stroke" data-item-order="-2304" transform="translate(548, 254.00439453125)"></g><g id="g-root-ic_2_1lrrs881b8b401-stroke" data-item-order="-2304" transform="translate(188, 314.00439453125)"></g><g id="g-root-ic_1_1lrrs881b8b403-stroke" data-item-order="-2304" transform="translate(428, 374.00439453125)"></g><g id="g-root-tx_volution_1hbya3s1b8b404-stroke" data-item-order="0" transform="translate(212, 14.00439453125)"></g><g id="g-root-tx_prolifra_1hbya3s1b8b405-stroke" data-item-order="0" transform="translate(248, 110.00439453125)"></g><g id="g-root-tx_orchestr_1hbya3s1b8b409-stroke" data-item-order="0" transform="translate(506, 146.00439453125)"></g><g id="g-root-tx_automati_1hbya3s1b8b406-stroke" data-item-order="0" transform="translate(8, 170.00439453125)"></g><g id="g-root-tx_dveloppe_1lrrs881b8b404-stroke" data-item-order="0" transform="translate(122, 422.00439453125)"></g><g id="g-root-tx_automati_1lrrs881b8b405-stroke" data-item-order="0" transform="translate(362, 482.00439453125)"></g></g></g></svg>