<?xml version="1.0" encoding="utf-8" standalone="yes"?>
<!DOCTYPE svg PUBLIC "-//W3C//DTD SVG 1.1//EN" "http://www.w3.org/Graphics/SVG/1.1/DTD/svg11.dtd">
<svg width="744" height="678" viewBox="0 0 744 678" style="fill:none;stroke:none;fill-rule:evenodd;clip-rule:evenodd;stroke-linecap:round;stroke-linejoin:round;stroke-miterlimit:1.5;" version="1.1" xmlns="http://www.w3.org/2000/svg" xmlns:xlink="http://www.w3.org/1999/xlink"><style class="text-font-style fontImports" data-font-family="Roboto">@import url('https://fonts.googleapis.com/css2?family=Roboto:wght@400;700&amp;display=block');</style><g id="items" style="isolation: isolate"><g id="blend" style="mix-blend-mode: normal"><g id="g-root-cp_1_bubble-1_91isl91npkf7k-fill" data-item-order="-431510" transform="translate(38, 108)"><g id="cp_1_bubble-1_91isl91npkf7k-fill" stroke="none" fill="#e0cb15"><g><path d="M 178 22L 10 22C 10.000001 15.3726 15.3726 9.999999 22 10L 166 10.000013C 172.627 10.000013 178 15.3726 178 22ZM 178 214L 178 22L 10 22.00002L 10.000003 214L 178 214ZM 10 214L 178 214L 178 218.0873C 178 222.8876 175.139 227.226 170.727 229.117L 98.727 259.9741C 95.7085 261.2678 92.2916 261.2678 89.273 259.9741L 17.273 229.117C 12.8608 227.226 10 222.8876 10 218.0873L 10 214Z"></path></g></g></g><g id="g-root-cp_3_bubble-3_6i9fh1npkcui-fill" data-item-order="-431482" transform="translate(230, 108)"><g id="cp_3_bubble-3_6i9fh1npkcui-fill" stroke="none" fill="#e55753"><g><path d="M 178 22L 10 22C 10.000001 15.3726 15.3726 9.999999 22 10L 166 10.000013C 172.627 10.000013 178 15.3726 178 22ZM 178 214L 178 22L 10 22.00002L 10.000003 214L 178 214ZM 10 214L 178 214L 178 218.0873C 178 222.8876 175.139 227.226 170.727 229.117L 98.727 259.9741C 95.7085 261.2678 92.2916 261.2678 89.273 259.9741L 17.273 229.117C 12.8608 227.226 10 222.8876 10 218.0873L 10 214Z"></path></g></g></g><g id="g-root-cp_5_bubble-5_1lw5t191npke8c-fill" data-item-order="-431454" transform="translate(422, 108)"><g id="cp_5_bubble-5_1lw5t191npke8c-fill" stroke="none" fill="#ba5de5"><g><path d="M 178 22L 10 22C 10.000001 15.3726 15.3726 9.999999 22 10L 166 10.000013C 172.627 10.000013 178 15.3726 178 22ZM 178 214L 178 22L 10 22.00002L 10.000003 214L 178 214ZM 10 214L 178 214L 178 218.0873C 178 222.8876 175.139 227.226 170.727 229.117L 98.727 259.9741C 95.7085 261.2678 92.2916 261.2678 89.273 259.9741L 17.273 229.117C 12.8608 227.226 10 222.8876 10 218.0873L 10 214Z"></path></g></g></g><g id="g-root-cp_2_bubble-2_18lbrr11npkcni-fill" data-item-order="-431422" transform="translate(134, 345)"><g id="cp_2_bubble-2_18lbrr11npkcni-fill" stroke="none" fill="#de8431"><g><path d="M 10.000001 272.999969L 178.000001 272.999998C 178.000001 279.627469 172.627001 284.999969 166.000001 284.999969L 22.000001 284.999969C 15.372601 284.999969 10 279.627369 10.000001 272.999969ZM 178 273L 178 56.999999L 10 57.000021L 10.000003 273L 178 273ZM 178 56.944404L 10 56.944404L 10 52.857104C 10.000001 48.056804 12.8608 43.718304 17.273 41.827404L 89.273 10.970304C 92.2915 9.676604 95.7085 9.676604 98.727 10.970304L 170.727 41.827404C 175.139 43.718304 178 48.056804 178 52.857104L 178 56.944404Z"></path></g></g></g><g id="g-root-cp_4_bubble-4_zpori51npke80-fill" data-item-order="-431394" transform="translate(326, 345)"><g id="cp_4_bubble-4_zpori51npke80-fill" stroke="none" fill="#de58a9"><g><path d="M 10.000001 273L 178.000001 273.000029C 178.000001 279.6275 172.627001 285 166.000001 285L 22.000001 285C 15.372601 285 10 279.6274 10.000001 273ZM 178 273L 178 56.999999L 10 57.000021L 10.000003 273L 178 273ZM 178 56.944404L 10 56.944404L 10 52.857104C 10.000001 48.056804 12.8608 43.718304 17.273 41.827404L 89.273 10.970304C 92.2915 9.676604 95.7085 9.676604 98.727 10.970304L 170.727 41.827404C 175.139 43.718304 178 48.056804 178 52.857104L 178 56.944404Z"></path></g></g></g><g id="g-root-cp_6_bubble-6_meuq7x1npkcn6-fill" data-item-order="-431366" transform="translate(518, 345)"><g id="cp_6_bubble-6_meuq7x1npkcn6-fill" stroke="none" fill="#4e88e7"><g><path d="M 10.000001 273L 178.000001 273.000029C 178.000001 279.6275 172.627001 285 166.000001 285L 22.000001 285C 15.372601 285 10 279.6274 10.000001 273ZM 178 273L 178 56.999999L 10 57.000021L 10.000003 273L 178 273ZM 178 56.944404L 10 56.944404L 10 52.857104C 10.000001 48.056804 12.8608 43.718304 17.273 41.827404L 89.273 10.970304C 92.2915 9.676604 95.7085 9.676604 98.727 10.970304L 170.727 41.827404C 175.139 43.718304 178 48.056804 178 52.857104L 178 56.944404Z"></path></g></g></g><g id="g-root-tx_rglesdec_vcdc1p1npn7re-fill" data-item-order="0" transform="translate(452, 120)"><g id="tx_rglesdec_vcdc1p1npn7re-fill" stroke="none" fill="#ffffff"><g><text style="font: bold 20px Roboto, sans-serif; white-space: pre;" font-weight="bold" font-size="20px" font-family="Roboto, sans-serif"><tspan x="19.79" y="34" dominant-baseline="ideographic">Règles de </tspan><tspan x="14.56" y="58" dominant-baseline="ideographic">conformité</tspan></text></g></g></g><g id="g-root-tx_vrifierl_18jgchp1nplrt2-fill" data-item-order="0" transform="translate(56, 180)"><g id="tx_vrifierl_18jgchp1nplrt2-fill" stroke="none" fill="#ffffff"><g><text style="font: 15px Roboto, sans-serif; white-space: pre;" font-size="15px" font-family="Roboto, sans-serif"><tspan x="42.74" y="28" dominant-baseline="ideographic">Vérifier la </tspan><tspan x="13.3" y="46" dominant-baseline="ideographic">compatibilité avec </tspan><tspan x="25.99" y="64" dominant-baseline="ideographic">l'infrastructure </tspan><tspan x="45.96" y="82" dominant-baseline="ideographic">actuelle.</tspan></text></g></g></g><g id="g-root-tx_valuerle_146rayl1npn5zh-fill" data-item-order="0" transform="translate(242, 180)"><g id="tx_valuerle_146rayl1npn5zh-fill" stroke="none" fill="#ffffff"><g><text style="font: 15px Roboto, sans-serif; white-space: pre;" font-size="15px" font-family="Roboto, sans-serif"><tspan x="16.27" y="28" dominant-baseline="ideographic">Évaluer les besoins </tspan><tspan x="45.08" y="46" dominant-baseline="ideographic">en vitesse, </tspan><tspan x="31.35" y="64" dominant-baseline="ideographic">disponibilité et </tspan><tspan x="49.68" y="82" dominant-baseline="ideographic">capacité.</tspan></text></g></g></g><g id="g-root-tx_identifi_dbq7991npolj7-fill" data-item-order="0" transform="translate(434, 180)"><g id="tx_identifi_dbq7991npolj7-fill" stroke="none" fill="#ffffff"><g><text style="font: 15px Roboto, sans-serif; white-space: pre;" font-size="15px" font-family="Roboto, sans-serif"><tspan x="42.5" y="28" dominant-baseline="ideographic">Identifier et </tspan><tspan x="14.24" y="46" dominant-baseline="ideographic">respecter toutes les </tspan><tspan x="43.14" y="64" dominant-baseline="ideographic">obligations </tspan><tspan x="28.32" y="82" dominant-baseline="ideographic">réglementaires.</tspan></text></g></g></g><g id="g-root-ic_5_v7zu4d1npltdz-fill" data-item-order="0" transform="translate(92, 264)"></g><g id="g-root-ic_spee_mfhagt1npn8cm-fill" data-item-order="0" transform="translate(284, 264)"></g><g id="g-root-tx_valuerle_1q6zosd1npwzr9-fill" data-item-order="0" transform="translate(536, 512)"><g id="tx_valuerle_1q6zosd1npwzr9-fill" stroke="none" fill="#ffffff"><g><text style="font: 15px Roboto, sans-serif; white-space: pre;" font-size="15px" font-family="Roboto, sans-serif"><tspan x="14.32" y="31" dominant-baseline="ideographic">Évaluer l'expertise </tspan><tspan x="30.95" y="49" dominant-baseline="ideographic">du personnel </tspan><tspan x="29.45" y="67" dominant-baseline="ideographic">informatique.</tspan></text></g></g></g><g id="g-root-tx_exigence_1qd8chp1npn6ro-fill" data-item-order="0" transform="translate(248, 120)"><g id="tx_exigence_1qd8chp1npn6ro-fill" stroke="none" fill="#ffffff"><g><text style="font: bold 20px Roboto, sans-serif; white-space: pre;" font-weight="bold" font-size="20px" font-family="Roboto, sans-serif"><tspan x="14.17" y="34" dominant-baseline="ideographic">Exigences de </tspan><tspan x="15.61" y="58" dominant-baseline="ideographic">performance</tspan></text></g></g></g><g id="g-root-ic_1_1qclykd1npom4n-fill" data-item-order="0" transform="translate(188, 380)"></g><g id="g-root-tx_intgrati_1qa3vwd1nplslp-fill" data-item-order="0" transform="translate(50, 120)"><g id="tx_intgrati_1qa3vwd1nplslp-fill" stroke="none" fill="#ffffff"><g><text style="font: bold 20px Roboto, sans-serif; white-space: pre;" font-weight="bold" font-size="20px" font-family="Roboto, sans-serif"><tspan x="12.84" y="34" dominant-baseline="ideographic">Intégration des </tspan><tspan x="37.36" y="58" dominant-baseline="ideographic">systèmes</tspan></text></g></g></g><g id="g-root-ic_shie_59hkt1nppzws-fill" data-item-order="0" transform="translate(380, 380)"></g><g id="g-root-tx_critresd_dj7pz11npkdfw-fill" data-item-order="0" transform="translate(80, 24)"><g id="tx_critresd_dj7pz11npkdfw-fill" stroke="none" fill="#484848"><g><text style="font: bold 25px Roboto, sans-serif; white-space: pre;" font-weight="bold" font-size="25px" font-family="Roboto, sans-serif"><tspan x="15.78" y="43" dominant-baseline="ideographic">Critères d'évaluation des solutions infonuagiques</tspan></text></g></g></g><g id="g-root-ic_user_dcz5fh1npreh5-fill" data-item-order="0" transform="translate(572, 380)"></g><g id="g-root-tx_budget_1cy12rh1npq0oy-fill" data-item-order="0" transform="translate(182, 452)"><g id="tx_budget_1cy12rh1npq0oy-fill" stroke="none" fill="#ffffff"><g><text style="font: bold 20px Roboto, sans-serif; white-space: pre;" font-weight="bold" font-size="20px" font-family="Roboto, sans-serif"><tspan x="13.89" y="34" dominant-baseline="ideographic">Budget</tspan></text></g></g></g><g id="g-root-tx_besoinse_1ha3qd91nprg1z-fill" data-item-order="0" transform="translate(356, 452)"><g id="tx_besoinse_1ha3qd91nprg1z-fill" stroke="none" fill="#ffffff"><g><text style="font: bold 20px Roboto, sans-serif; white-space: pre;" font-weight="bold" font-size="20px" font-family="Roboto, sans-serif"><tspan x="12.06" y="34" dominant-baseline="ideographic">Besoins en </tspan><tspan x="25.06" y="58" dominant-baseline="ideographic">sécurité</tspan></text></g></g></g><g id="g-root-tx_comptenc_8wj67x1npx0r0-fill" data-item-order="0" transform="translate(530, 452)"><g id="tx_comptenc_8wj67x1npx0r0-fill" stroke="none" fill="#ffffff"><g><text style="font: bold 20px Roboto, sans-serif; white-space: pre;" font-weight="bold" font-size="20px" font-family="Roboto, sans-serif"><tspan x="17.49" y="34" dominant-baseline="ideographic">Compétences </tspan><tspan x="31.71" y="58" dominant-baseline="ideographic">de l'équipe</tspan></text></g></g></g><g id="g-root-tx_prendree_mbqj3x1npq0oz-fill" data-item-order="0" transform="translate(146, 488)"><g id="tx_prendree_mbqj3x1npq0oz-fill" stroke="none" fill="#ffffff"><g><text style="font: 15px Roboto, sans-serif; white-space: pre;" font-size="15px" font-family="Roboto, sans-serif"><tspan x="17.14" y="28" dominant-baseline="ideographic">Prendre en compte </tspan><tspan x="32.03" y="46" dominant-baseline="ideographic">les ressources </tspan><tspan x="43.84" y="64" dominant-baseline="ideographic">financières </tspan><tspan x="13.59" y="82" dominant-baseline="ideographic">disponibles pour les </tspan><tspan x="52.72" y="100" dominant-baseline="ideographic">services </tspan><tspan x="30.94" y="118" dominant-baseline="ideographic">infonuagiques.</tspan></text></g></g></g><g id="g-root-tx_dtermine_zjg6yl1nprf9c-fill" data-item-order="0" transform="translate(356, 512)"><g id="tx_dtermine_zjg6yl1nprf9c-fill" stroke="none" fill="#ffffff"><g><text style="font: 15px Roboto, sans-serif; white-space: pre;" font-size="15px" font-family="Roboto, sans-serif"><tspan x="13.67" y="31" dominant-baseline="ideographic">Déterminer les </tspan><tspan x="24.96" y="49" dominant-baseline="ideographic">mesures et </tspan><tspan x="16.57" y="67" dominant-baseline="ideographic">protocoles de </tspan><tspan x="35.43" y="85" dominant-baseline="ideographic">sécurité </tspan><tspan x="20.17" y="103" dominant-baseline="ideographic">nécessaires.</tspan></text></g></g></g><g id="g-root-ic_uneq_1lqjpkt1npolc4-fill" data-item-order="0" transform="translate(476, 264)"></g><g id="g-root-cp_1_bubble-1_91isl91npkf7k-stroke" data-item-order="-431510" transform="translate(38, 108)"><g id="cp_1_bubble-1_91isl91npkf7k-stroke" fill="none" stroke-linecap="round" stroke-linejoin="round" stroke-miterlimit="4" stroke="#ffffff" stroke-width="2"><g><path d="M 178 22C 178 15.3726 172.6274 10 166 10L 22 10C 15.3726 10 10 15.3726 10 22M 178 213.99968L 178 22M 10 213.99968L 10 22M 178 214L 178 218.0872C 178 222.8876 175.1392 227.226 170.727 229.117L 98.727 259.9741C 95.7085 261.2678 92.2916 261.2678 89.273 259.9741L 17.273 229.117C 12.8608 227.226 10 222.8876 10 218.0872L 10 214"></path></g></g></g><g id="g-root-cp_3_bubble-3_6i9fh1npkcui-stroke" data-item-order="-431482" transform="translate(230, 108)"><g id="cp_3_bubble-3_6i9fh1npkcui-stroke" fill="none" stroke-linecap="round" stroke-linejoin="round" stroke-miterlimit="4" stroke="#ffffff" stroke-width="2"><g><path d="M 178 22C 178 15.3726 172.6274 10 166 10L 22 10C 15.3726 10 10 15.3726 10 22M 178 213.99968L 178 22M 10 213.99968L 10 22M 178 214L 178 218.0872C 178 222.8876 175.1392 227.226 170.727 229.117L 98.727 259.9741C 95.7085 261.2678 92.2916 261.2678 89.273 259.9741L 17.273 229.117C 12.8608 227.226 10 222.8876 10 218.0872L 10 214"></path></g></g></g><g id="g-root-cp_5_bubble-5_1lw5t191npke8c-stroke" data-item-order="-431454" transform="translate(422, 108)"><g id="cp_5_bubble-5_1lw5t191npke8c-stroke" fill="none" stroke-linecap="round" stroke-linejoin="round" stroke-miterlimit="4" stroke="#ffffff" stroke-width="2"><g><path d="M 178 22C 178 15.3726 172.6274 10 166 10L 22 10C 15.3726 10 10 15.3726 10 22M 178 213.99968L 178 22M 10 213.99968L 10 22M 178 214L 178 218.0872C 178 222.8876 175.1392 227.226 170.727 229.117L 98.727 259.9741C 95.7085 261.2678 92.2916 261.2678 89.273 259.9741L 17.273 229.117C 12.8608 227.226 10 222.8876 10 218.0872L 10 214"></path></g></g></g><g id="g-root-cp_2_bubble-2_18lbrr11npkcni-stroke" data-item-order="-431422" transform="translate(134, 345)"><g id="cp_2_bubble-2_18lbrr11npkcni-stroke" fill="none" stroke-linecap="round" stroke-linejoin="round" stroke-miterlimit="4" stroke="#ffffff" stroke-width="2"><g><path d="M 10.000001 272.999969C 10.000001 279.627369 15.372601 284.999969 22.000001 284.999969L 166.000001 284.999969C 172.627401 284.999969 178.000001 279.627369 178.000001 272.999969M 178 272.999634L 178 56.999999M 10 272.999634L 10 56.999999M 10 56.944404L 10 52.857104C 10 48.056804 12.8608 43.718304 17.273 41.827404L 89.273 10.970304C 92.2915 9.676604 95.7085 9.676604 98.727 10.970304L 170.727 41.827404C 175.1392 43.718304 178 48.056804 178 52.857104L 178 56.944404"></path></g></g></g><g id="g-root-cp_4_bubble-4_zpori51npke80-stroke" data-item-order="-431394" transform="translate(326, 345)"><g id="cp_4_bubble-4_zpori51npke80-stroke" fill="none" stroke-linecap="round" stroke-linejoin="round" stroke-miterlimit="4" stroke="#ffffff" stroke-width="2"><g><path d="M 10.000001 273C 10.000001 279.6274 15.372601 285 22.000001 285L 166.000001 285C 172.627401 285 178.000001 279.6274 178.000001 273M 178 272.999634L 178 56.999999M 10 272.999634L 10 56.999999M 10 56.944404L 10 52.857104C 10 48.056804 12.8608 43.718304 17.273 41.827404L 89.273 10.970304C 92.2915 9.676604 95.7085 9.676604 98.727 10.970304L 170.727 41.827404C 175.1392 43.718304 178 48.056804 178 52.857104L 178 56.944404"></path></g></g></g><g id="g-root-cp_6_bubble-6_meuq7x1npkcn6-stroke" data-item-order="-431366" transform="translate(518, 345)"><g id="cp_6_bubble-6_meuq7x1npkcn6-stroke" fill="none" stroke-linecap="round" stroke-linejoin="round" stroke-miterlimit="4" stroke="#ffffff" stroke-width="2"><g><path d="M 10.000001 273C 10.000001 279.6274 15.372601 285 22.000001 285L 166.000001 285C 172.627401 285 178.000001 279.6274 178.000001 273M 178 272.999634L 178 56.999999M 10 272.999634L 10 56.999999M 10 56.944404L 10 52.857104C 10 48.056804 12.8608 43.718304 17.273 41.827404L 89.273 10.970304C 92.2915 9.676604 95.7085 9.676604 98.727 10.970304L 170.727 41.827404C 175.1392 43.718304 178 48.056804 178 52.857104L 178 56.944404"></path></g></g></g><g id="g-root-tx_rglesdec_vcdc1p1npn7re-stroke" data-item-order="0" transform="translate(452, 120)"></g><g id="g-root-tx_vrifierl_18jgchp1nplrt2-stroke" data-item-order="0" transform="translate(56, 180)"></g><g id="g-root-tx_valuerle_146rayl1npn5zh-stroke" data-item-order="0" transform="translate(242, 180)"></g><g id="g-root-tx_identifi_dbq7991npolj7-stroke" data-item-order="0" transform="translate(434, 180)"></g><g id="g-root-ic_5_v7zu4d1npltdz-stroke" data-item-order="0" transform="translate(92, 264)"><g id="ic_5_v7zu4d1npltdz-stroke" fill="none" stroke-linecap="round" stroke-linejoin="round" stroke-miterlimit="4" stroke="#ffffff" stroke-width="2"><g><path d="M 34.75 27.115L 31.4275 29.022501L 27.622499 27.522499L 23.182499 30.07L 22.557499 34.110001L 19.235001 36.017498L 11.6025 22.727501C 10.905747 21.505932 11.328317 19.95092 12.547501 19.25L 23.622499 12.89C 24.211109 12.54867 24.911554 12.456221 25.568567 12.633144C 26.225582 12.810069 26.784885 13.241751 27.122499 13.8325ZM 22.869999 32.09L 31.335001 46.8325M 29.515001 28.275L 37.869999 42.825001M 58.2225 45.532501L 55.297501 43.055L 55.415001 38.967499L 51.517502 35.665001L 47.5 36.450001L 44.575001 33.9725L 54.5 22.280001C 55.412159 21.204126 57.023602 21.070959 58.099998 21.9825L 67.849998 30.232502C 68.367249 30.670176 68.689262 31.295551 68.745064 31.970825C 68.800873 32.646099 68.585892 33.315853 68.147499 33.8325ZM 49.509998 36.057503L 42.807499 43.967499M 55.357498 41.012501L 50.057503 47.264999M 36.84 54.4375C 36.84 56.036362 38.136135 57.3325 39.735001 57.3325C 41.333862 57.3325 42.630001 56.036362 42.630001 54.4375C 42.630001 52.838634 41.333862 51.542503 39.735001 51.542503C 38.136135 51.542503 36.84 52.838634 36.84 54.4375M 42.192501 43.25L 43.045002 46.052498C 43.336433 47.018486 44.326614 47.593357 45.309998 47.3675L 48.150002 46.7075C 49.255173 46.458157 50.39381 46.958244 50.957947 47.940754C 51.522083 48.92326 51.379974 50.158733 50.607498 50.987503L 48.619999 53.130001C 47.935421 53.872063 47.935421 55.015434 48.619999 55.7575L 50.607498 57.902496C 51.379974 58.731266 51.522083 59.96674 50.957947 60.949249C 50.39381 61.931755 49.255173 62.431847 48.150002 62.182503L 45.309998 61.522499C 44.326614 61.296638 43.336433 61.871513 43.044998 62.837502L 42.192501 65.639999C 41.86618 66.725227 40.866974 67.46817 39.733749 67.46817C 38.600521 67.46817 37.601318 66.725227 37.274998 65.639999L 36.422501 62.837502C 36.132149 61.871868 35.142754 61.296814 34.16 61.522499L 31.317501 62.182499C 30.21233 62.431847 29.073692 61.931755 28.509556 60.949249C 27.945415 59.96674 28.087524 58.731266 28.860001 57.902504L 30.860001 55.7575C 31.546991 55.016384 31.546991 53.871117 30.860003 53.130001L 28.860001 50.987503C 28.087524 50.158733 27.945415 48.92326 28.509556 47.940754C 29.073692 46.958244 30.21233 46.458157 31.317501 46.7075L 34.16 47.3675C 35.142754 47.593178 36.132149 47.018127 36.422497 46.052498L 37.275002 43.25C 37.601318 42.164772 38.600521 41.421825 39.733749 41.421825C 40.866974 41.421825 41.86618 42.164772 42.192497 43.25ZM 20.9475 23.317501C 20.9475 23.847694 21.377308 24.2775 21.907499 24.2775C 22.437695 24.2775 22.8675 23.847694 22.8675 23.317501C 22.8675 22.787308 22.437695 22.3575 21.907499 22.3575C 21.377308 22.3575 20.9475 22.787308 20.9475 23.317501M 56.66 32.4925C 56.660004 33.022694 57.089809 33.452499 57.620003 33.452499C 58.150196 33.452499 58.580002 33.022694 58.580002 32.4925C 58.580002 31.962307 58.150196 31.532499 57.620003 31.532499C 57.089809 31.532499 56.660004 31.962307 56.660004 32.4925"></path></g></g></g><g id="g-root-ic_spee_mfhagt1npn8cm-stroke" data-item-order="0" transform="translate(284, 264)"><g id="ic_spee_mfhagt1npn8cm-stroke" fill="none" stroke-linecap="round" stroke-linejoin="round" stroke-miterlimit="4" stroke="#ffffff" stroke-width="2"><g><path d="M 11.25 40C 11.250001 55.878185 24.121815 68.75 40 68.75C 55.878185 68.75 68.75 55.878185 68.75 40C 68.75 24.121815 55.878185 11.250001 40 11.250001C 24.121815 11.250001 11.250001 24.121815 11.250001 40M 36.25 40C 36.25 42.071068 37.928932 43.75 40 43.75C 42.071068 43.75 43.75 42.071068 43.75 40C 43.75 37.928932 42.071068 36.25 40 36.25C 37.928932 36.25 36.25 37.928932 36.25 40M 42.6525 37.349998L 55.025002 24.974998M 16.110001 38.75L 21.109999 38.75M 18.055 49.087502L 22.6775 47.174999M 61.939999 49.09L 57.322502 47.174999M 63.747501 38.75L 58.75 38.747498M 61.939999 30.912498L 57.322502 32.825001M 50.665001 18.059999L 48.75 22.675001M 41.25 16.7125L 41.25 21.7125M 30.912498 18.057501L 32.825001 22.675001M 23.2075 23.205L 26.74 26.74M 18.059999 30.91L 22.6775 32.825001M 30 51.25L 50 51.25C 50 51.25 51.25 51.25 51.25 52.5L 51.25 57.5C 51.25 57.5 51.25 58.75 50 58.75L 30 58.75C 30 58.75 28.75 58.75 28.75 57.5L 28.75 52.5C 28.75 52.5 28.75 51.25 30 51.25"></path></g></g></g><g id="g-root-tx_valuerle_1q6zosd1npwzr9-stroke" data-item-order="0" transform="translate(536, 512)"></g><g id="g-root-tx_exigence_1qd8chp1npn6ro-stroke" data-item-order="0" transform="translate(248, 120)"></g><g id="g-root-ic_1_1qclykd1npom4n-stroke" data-item-order="0" transform="translate(188, 380)"><g id="ic_1_1qclykd1npom4n-stroke" fill="none" stroke-linecap="round" stroke-linejoin="round" stroke-miterlimit="4" stroke="#ffffff" stroke-width="2"><g><path d="M 46.925003 21.25L 51.700001 13.125C 51.91346 12.735674 51.91346 12.264326 51.699997 11.875C 51.470993 11.497685 51.066193 11.262336 50.624996 11.25L 35 11.25C 34.54985 11.253827 34.13372 11.490265 33.899998 11.875C 33.6614 12.266512 33.6614 12.758489 33.900002 13.15L 38.75 21.25M 48.049999 36.25C 50.174999 37.974998 58.425003 43.575001 58.425003 53.75C 58.425003 61.975002 50.599998 68.75 42.025002 68.75C 33.490906 68.922546 26.367607 62.275616 25.949999 53.75C 25.950001 43.150002 34.375 37.599998 36.349998 36.25M 21.575001 18.75L 26.575001 18.75C 26.912878 18.727648 27.243975 18.852148 27.483414 19.091587C 27.722853 19.331026 27.847351 19.662121 27.825001 20L 27.825001 35C 27.847351 35.337875 27.722853 35.668976 27.483414 35.908413C 27.243975 36.14785 26.912878 36.27235 26.575001 36.25L 21.575001 36.25M 35.650002 16.025L 32.825001 20C 32.211468 20.758375 31.299818 21.214201 30.325001 21.25L 27.825001 21.25M 27.825001 32.5C 32.825001 35 34.875 36.25 37.825001 36.25L 47.825001 36.25C 50.324997 36.25 50.774998 36.125 51.574997 33.75C 52.824997 30 54.074997 23.75 54.074997 23.75C 54.074997 22.5 52.824997 21.25 50.324997 21.25L 38.75 21.25M 42.174999 56.25L 42.174999 58.75M 42.174999 43.75L 42.174999 46.25M 37.174999 56.25L 44.674999 56.25C 46.055714 56.25 47.174999 55.130711 47.174999 53.75C 47.174999 52.369289 46.055714 51.25 44.674999 51.25L 39.674999 51.25C 38.294289 51.25 37.174999 50.130711 37.174999 48.75C 37.174999 47.369286 38.294289 46.25 39.674999 46.25L 47.174999 46.25"></path></g></g></g><g id="g-root-tx_intgrati_1qa3vwd1nplslp-stroke" data-item-order="0" transform="translate(50, 120)"></g><g id="g-root-ic_shie_59hkt1nppzws-stroke" data-item-order="0" transform="translate(380, 380)"><g id="ic_shie_59hkt1nppzws-stroke" fill="none" stroke-linecap="round" stroke-linejoin="round" stroke-miterlimit="4" stroke="#ffffff" stroke-width="2"><g><path d="M 10 10M 42.669998 68.25L 45.32 67.25C 57.922573 62.448952 66.25071 50.363602 66.25 36.877502L 66.25 20.627501C 66.251961 18.637602 65.073769 16.835958 63.25 16.039999C 48.411758 9.659862 31.603237 9.659862 16.764999 16.039999C 14.93702 16.830687 13.752627 18.630846 13.75 20.622499L 13.75 36.872498C 13.747217 50.360432 22.075722 62.448303 34.68 67.25L 37.330002 68.25C 39.049286 68.907486 40.950714 68.907486 42.669998 68.25ZM 44.7225 45.474998C 47.970497 45.80302 51.240501 45.119331 54.085003 43.517502C 54.406124 43.336872 54.631203 43.023773 54.700123 42.661842C 54.769039 42.299904 54.674767 41.926003 54.442501 41.639999C 53.360001 40.369999 52.607498 38.695 52.277496 33.807499C 51.647499 24.5175 45.3825 21.25 40 21.25C 34.6175 21.25 28.352501 24.5175 27.7225 33.807499C 27.3925 38.695 26.639999 40.369999 25.557501 41.639999C 25.32523 41.926003 25.230963 42.299904 25.299879 42.661842C 25.368797 43.023773 25.593876 43.336872 25.915001 43.517498C 28.759966 45.118095 32.029575 45.801701 35.2775 45.474998M 53.357502 51.790001C 51.224998 50.91 48.702499 50.0075 45.959999 48.9925C 45.21344 48.721493 44.714653 48.01421 44.709999 47.219997L 44.709999 43.77C 44.709362 43.237892 44.933647 42.730297 45.327499 42.372501C 46.750408 41.073418 47.555428 39.231686 47.5425 37.305L 47.5425 34.555C 47.543495 33.467346 46.832916 32.50705 45.7925 32.189999C 43.93272 31.611158 42.238167 30.596315 40.849998 29.23C 40.37056 28.785355 39.62944 28.785355 39.150002 29.23C 37.75462 30.596659 36.052094 31.609087 34.184998 32.182499C 33.144585 32.499546 32.434002 33.45985 32.435001 34.547501L 32.435001 37.297501C 32.421757 39.224251 33.22683 41.066105 34.650002 42.365002C 35.043854 42.722797 35.268139 43.230392 35.267502 43.762501L 35.267502 47.212502C 35.262844 48.00671 34.764057 48.713993 34.017498 48.985001C 31.2675 50 28.752501 50.9025 26.619999 51.782497"></path></g></g></g><g id="g-root-tx_critresd_dj7pz11npkdfw-stroke" data-item-order="0" transform="translate(80, 24)"></g><g id="g-root-ic_user_dcz5fh1npreh5-stroke" data-item-order="0" transform="translate(572, 380)"><g id="ic_user_dcz5fh1npreh5-stroke" fill="none" stroke-linecap="round" stroke-linejoin="round" stroke-miterlimit="4" stroke="#ffffff" stroke-width="2"><g><path d="M 37.5 41.25C 29.215729 41.25 22.500002 34.534271 22.500002 26.25C 22.500002 17.965729 29.215729 11.25 37.5 11.25ZM 13.75 68.75C 13.75 55.63324 24.383238 45 37.5 45L 37.5 68.75ZM 42.5 41.25C 43.338158 41.24498 44.174419 41.169716 45 41.025002L 45 37.200001C 46.229649 36.917919 47.402256 36.428417 48.467499 35.752499L 51.182499 38.467499C 52.550064 37.494949 53.744949 36.300064 54.717499 34.932499L 52 32.217499C 52.676792 31.152424 53.167145 29.979807 53.449997 28.749998L 57.275002 28.75C 57.419716 27.924417 57.49498 27.088158 57.5 26.25C 57.49498 25.411844 57.419716 24.575584 57.275002 23.75L 53.449997 23.75C 53.167145 22.520191 52.676792 21.347574 52 20.282499L 54.715 17.567499C 53.742451 16.199936 52.547565 15.005049 51.18 14.0325L 48.467499 16.75C 47.402424 16.073204 46.229805 15.582853 44.999996 15.299999L 45 11.475C 44.174419 11.330284 43.338158 11.255021 42.5 11.25M 42.5 21.25C 45.261425 21.25 47.5 23.488577 47.5 26.25C 47.5 29.011423 45.261425 31.25 42.5 31.25M 66.25 68.75C 66.240982 67.49337 66.132309 66.239441 65.924995 64.999992L 60.872501 65C 60.538479 63.378109 59.988579 61.808304 59.237503 60.332504L 62.915001 56.657501C 61.194653 53.754902 58.877758 51.250538 56.1175 49.310001L 52.512497 52.9175C 50.965084 51.933155 49.280029 51.184151 47.512501 50.695L 47.512501 45.537498C 45.865334 45.181831 44.185127 45.001656 42.5 45M 42.5 58.75C 48.022846 58.75 52.5 63.227154 52.5 68.75"></path></g></g></g><g id="g-root-tx_budget_1cy12rh1npq0oy-stroke" data-item-order="0" transform="translate(182, 452)"></g><g id="g-root-tx_besoinse_1ha3qd91nprg1z-stroke" data-item-order="0" transform="translate(356, 452)"></g><g id="g-root-tx_comptenc_8wj67x1npx0r0-stroke" data-item-order="0" transform="translate(530, 452)"></g><g id="g-root-tx_prendree_mbqj3x1npq0oz-stroke" data-item-order="0" transform="translate(146, 488)"></g><g id="g-root-tx_dtermine_zjg6yl1nprf9c-stroke" data-item-order="0" transform="translate(356, 512)"></g><g id="g-root-ic_uneq_1lqjpkt1npolc4-stroke" data-item-order="0" transform="translate(476, 264)"><g id="ic_uneq_1lqjpkt1npolc4-stroke" fill="none" stroke-linecap="round" stroke-linejoin="round" stroke-miterlimit="4" stroke="#ffffff" stroke-width="2"><g><path d="M 40 26.705L 40 65.455002M 33.75 65.455002L 46.25 65.455002M 12.5 50.454998L 21.25 31.795002L 30 50.454998M 36.25 22.955C 36.25 25.02607 37.928932 26.705 40 26.705C 42.071068 26.705 43.75 25.02607 43.75 22.955C 43.75 20.883932 42.071068 19.205 40 19.205C 37.928932 19.205 36.25 20.883932 36.25 22.955ZM 21.25 59.204998C 23.588011 59.263233 25.847603 58.360077 27.501339 56.706337C 29.155075 55.052605 30.058233 52.793011 29.999998 50.454998L 12.5 50.454998C 12.441765 52.793011 13.344924 55.052605 14.99866 56.706337C 16.652397 58.360077 18.911989 59.263233 21.25 59.204998ZM 67.5 35.455002L 58.75 16.622499L 50 35.455002M 58.75 44.205002C 56.411987 44.263233 54.152393 43.360077 52.498661 41.706337C 50.844921 40.052601 49.941765 37.793011 49.999996 35.454998L 67.5 35.455002C 67.558228 37.793011 66.655075 40.052601 65.001343 41.706337C 63.347603 43.360077 61.088009 44.263233 58.75 44.204998ZM 43.735001 22.695L 63.887501 14.545M 16.115 33.8675L 37.162498 25.352499"></path></g></g></g></g></g></svg>