<?xml version="1.0" encoding="utf-8" standalone="yes"?>
<!DOCTYPE svg PUBLIC "-//W3C//DTD SVG 1.1//EN" "http://www.w3.org/Graphics/SVG/1.1/DTD/svg11.dtd">
<svg width="625" height="324" viewBox="0 0 625 324" style="fill:none;stroke:none;fill-rule:evenodd;clip-rule:evenodd;stroke-linecap:round;stroke-linejoin:round;stroke-miterlimit:1.5;" version="1.1" xmlns="http://www.w3.org/2000/svg" xmlns:xlink="http://www.w3.org/1999/xlink"><style class="text-font-style fontImports" data-font-family="Roboto">@import url('https://fonts.googleapis.com/css2?family=Roboto:wght@400;700&amp;display=block');</style><g id="items" style="isolation: isolate"><g id="blend" style="mix-blend-mode: normal"><g id="g-root-cp_1_g-1_1hcl3vp1etujv0-fill" data-item-order="3999857594" transform="translate(110, 71)"><g id="cp_1_g-1_1hcl3vp1etujv0-fill" stroke="none" fill="#a6da37"><g><path d="M 46 10L 82 28L 82 70L 46 88L 10 70L 10 28L 46 10Z"></path></g></g></g><g id="g-root-cp_2_g-2_1414lid1etulfy-fill" data-item-order="3999857600" transform="translate(74, 131)"><g id="cp_2_g-2_1414lid1etulfy-fill" stroke="none" fill="#43dd93"><g><path d="M 82 28L 46 10L 10 28L 10 70L 46 88L 82 70L 118 88L 154 70L 154 28L 118 10L 82 28Z"></path></g></g></g><g id="g-root-cp_3_g-3_zlxkh11etuj2g-fill" data-item-order="3999857606" transform="translate(38, 191)"><g id="cp_3_g-3_zlxkh11etuj2g-fill" stroke="none" fill="#4f91fc"><g><path d="M 82 28L 46 10L 10 28L 10 70L 46 88L 82 70L 118 88L 154 70L 190 88L 226 70L 226 28L 190 10L 154 28L 118 10L 82 28Z"></path></g></g></g><g id="g-root-sy_-1_Vector_v642cl1etujuq-fill" data-item-order="3999857641" transform="translate(164, 119)"></g><g id="g-root-sy_-1_Vector_19_mah23p1etuknf-fill" data-item-order="3999857647" transform="translate(198, 179)"></g><g id="g-root-sy_-1_Vector_19_1_hunjz91etulfo-fill" data-item-order="3999857653" transform="translate(234, 239)"></g><g id="g-root-tx_hirarchi_hunjz91etulfp-fill" data-item-order="4000000000" transform="translate(104, 11)"><g id="tx_hirarchi_hunjz91etulfp-fill" stroke="none" fill="#f4f4f4"><g><text style="font: 20px Roboto, sans-serif; white-space: pre;" font-size="20px" font-family="Roboto, sans-serif"><tspan x="122.56" y="34" dominant-baseline="ideographic">Cloud Services Hierarchy</tspan></text></g></g></g><g id="g-root-tx_saas_1q9h2at1etul8m-fill" data-item-order="4000000000" transform="translate(254, 95)"><g id="tx_saas_1q9h2at1etul8m-fill" stroke="none" fill="#f2ffd7"><g><text style="font: bold 20px Roboto, sans-serif; white-space: pre;" font-weight="bold" font-size="20px" font-family="Roboto, sans-serif"><tspan x="12" y="34" dominant-baseline="ideographic">SaaS</tspan></text></g></g></g><g id="g-root-tx_applicat_1cyn10l1etujnr-fill" data-item-order="4000000000" transform="translate(314, 107)"><g id="tx_applicat_1cyn10l1etujnr-fill" stroke="none" fill="#a6da37"><g><text style="font: 15px Roboto, sans-serif; white-space: pre;" font-size="15px" font-family="Roboto, sans-serif"><tspan x="12" y="28" dominant-baseline="ideographic">Software applications over Internet </tspan><tspan x="12" y="46" dominant-baseline="ideographic">accessible by subscription</tspan></text></g></g></g><g id="g-root-tx_paas_zn6in91etul8o-fill" data-item-order="4000000000" transform="translate(254, 155)"><g id="tx_paas_zn6in91etul8o-fill" stroke="none" fill="#dffff0"><g><text style="font: bold 20px Roboto, sans-serif; white-space: pre;" font-weight="bold" font-size="20px" font-family="Roboto, sans-serif"><tspan x="12" y="34" dominant-baseline="ideographic">PaaS</tspan></text></g></g></g><g id="g-root-tx_platefor_mcchd11etujnt-fill" data-item-order="4000000000" transform="translate(314, 167)"><g id="tx_platefor_mcchd11etujnt-fill" stroke="none" fill="#43dd93"><g><text style="font: 15px Roboto, sans-serif; white-space: pre;" font-size="15px" font-family="Roboto, sans-serif"><tspan x="12" y="28" dominant-baseline="ideographic">Cloud-based applications </tspan><tspan x="12" y="46" dominant-baseline="ideographic">development platform</tspan></text></g></g></g><g id="g-root-tx_iaas_90vyzp1etul8q-fill" data-item-order="4000000000" transform="translate(260, 215)"><g id="tx_iaas_90vyzp1etul8q-fill" stroke="none" fill="#ebf2ff"><g><text style="font: bold 20px Roboto, sans-serif; white-space: pre;" font-weight="bold" font-size="20px" font-family="Roboto, sans-serif"><tspan x="12" y="34" dominant-baseline="ideographic">IaaS</tspan></text></g></g></g><g id="g-root-tx_ressourc_1ur5zol1etujgr-fill" data-item-order="4000000000" transform="translate(314, 227)"><g id="tx_ressourc_1ur5zol1etujgr-fill" stroke="none" fill="#4f91fc"><g><text style="font: 15px Roboto, sans-serif; white-space: pre;" font-size="15px" font-family="Roboto, sans-serif"><tspan x="12" y="28" dominant-baseline="ideographic">Virtualized computing resources </tspan><tspan x="12" y="46" dominant-baseline="ideographic">managed by the provider</tspan></text></g></g></g><g id="g-root-cp_1_g-1_1hcl3vp1etujv0-stroke" data-item-order="3999857594" transform="translate(110, 71)"><g id="cp_1_g-1_1hcl3vp1etujv0-stroke" fill="none" stroke-linecap="round" stroke-linejoin="round" stroke-miterlimit="4" stroke="#2c2c2c" stroke-width="2"><g><path d="M 46 10L 82 28L 82 70L 46 88L 10 70L 10 28L 46 10ZM 82 28L 46 46M 46 88L 46 46M 10 28L 46 46"></path></g></g></g><g id="g-root-cp_2_g-2_1414lid1etulfy-stroke" data-item-order="3999857600" transform="translate(74, 131)"><g id="cp_2_g-2_1414lid1etulfy-stroke" fill="none" stroke-linecap="round" stroke-linejoin="round" stroke-miterlimit="4" stroke="#2c2c2c" stroke-width="2"><g><path d="M 118 10L 154 28L 154 70L 118 88L 82 70L 82 28L 118 10ZM 46 10L 82 28L 82 70L 46 88L 10 70L 10 28L 46 10ZM 154 28L 118 46M 118 88L 118 46M 118 46L 82 28L 46 46M 46 88L 46 46M 10 28L 46 46"></path></g></g></g><g id="g-root-cp_3_g-3_zlxkh11etuj2g-stroke" data-item-order="3999857606" transform="translate(38, 191)"><g id="cp_3_g-3_zlxkh11etuj2g-stroke" fill="none" stroke-linecap="round" stroke-linejoin="round" stroke-miterlimit="4" stroke="#2c2c2c" stroke-width="2"><g><path d="M 82 28L 46 10L 10 28L 10 70L 46 88L 82 70L 118 88L 154 70L 190 88L 226 70L 226 28L 190 10L 154 28L 118 10L 82 28ZM 190 10L 226 28L 226 70L 190 88L 154 70L 154 28L 190 10ZM 118 10L 154 28L 154 70L 118 88L 82 70L 82 28L 118 10ZM 46 10L 82 28L 82 70L 46 88L 10 70L 10 28L 46 10ZM 226 28L 190 46M 190 88L 190 46M 190 46L 154 28L 118 46M 118 88L 118 46M 118 46L 82 28L 46 46M 46 88L 46 46M 10 28L 46 46"></path></g></g></g><g id="g-root-sy_-1_Vector_v642cl1etujuq-stroke" data-item-order="3999857641" transform="translate(164, 119)"><g id="sy_-1_Vector_v642cl1etujuq-stroke" fill="none" stroke-linecap="round" stroke-linejoin="round" stroke-miterlimit="4" stroke="#f4f4f4" stroke-width="2"><style>.fillAsStrokeColor-mk-3e2bi1ojudxg { fill:#f4f4f4; }</style><g><path d="M 148 10L 14 10"></path><path d="M 12 10L 19 6L 19 14Z" stroke-dasharray="none" class="fillAsStrokeColor-mk-3e2bi1ojudxg"></path></g></g></g><g id="g-root-sy_-1_Vector_19_mah23p1etuknf-stroke" data-item-order="3999857647" transform="translate(198, 179)"><g id="sy_-1_Vector_19_mah23p1etuknf-stroke" fill="none" stroke-linecap="round" stroke-linejoin="round" stroke-miterlimit="4" stroke="#f4f4f4" stroke-width="2"><style>.fillAsStrokeColor-mk-4j7kfy1ojud57 { fill:#f4f4f4; }</style><g><path d="M 114 10L 14 10"></path><path d="M 12 10L 19 6L 19 14Z" stroke-dasharray="none" class="fillAsStrokeColor-mk-4j7kfy1ojud57"></path></g></g></g><g id="g-root-sy_-1_Vector_19_1_hunjz91etulfo-stroke" data-item-order="3999857653" transform="translate(234, 239)"><g id="sy_-1_Vector_19_1_hunjz91etulfo-stroke" fill="none" stroke-linecap="round" stroke-linejoin="round" stroke-miterlimit="4" stroke="#f4f4f4" stroke-width="2"><style>.fillAsStrokeColor-mk-de83lq1ojufia { fill:#f4f4f4; }</style><g><path d="M 78 10L 14 10"></path><path d="M 12 10L 19 6L 19 14Z" stroke-dasharray="none" class="fillAsStrokeColor-mk-de83lq1ojufia"></path></g></g></g><g id="g-root-tx_hirarchi_hunjz91etulfp-stroke" data-item-order="4000000000" transform="translate(104, 11)"></g><g id="g-root-tx_saas_1q9h2at1etul8m-stroke" data-item-order="4000000000" transform="translate(254, 95)"></g><g id="g-root-tx_applicat_1cyn10l1etujnr-stroke" data-item-order="4000000000" transform="translate(314, 107)"></g><g id="g-root-tx_paas_zn6in91etul8o-stroke" data-item-order="4000000000" transform="translate(254, 155)"></g><g id="g-root-tx_platefor_mcchd11etujnt-stroke" data-item-order="4000000000" transform="translate(314, 167)"></g><g id="g-root-tx_iaas_90vyzp1etul8q-stroke" data-item-order="4000000000" transform="translate(260, 215)"></g><g id="g-root-tx_ressourc_1ur5zol1etujgr-stroke" data-item-order="4000000000" transform="translate(314, 227)"></g></g></g></svg>