<?xml version="1.0" encoding="utf-8" standalone="yes"?>
<!DOCTYPE svg PUBLIC "-//W3C//DTD SVG 1.1//EN" "http://www.w3.org/Graphics/SVG/1.1/DTD/svg11.dtd">
<svg width="840" height="768" viewBox="0 0 840 768" style="fill:none;stroke:none;fill-rule:evenodd;clip-rule:evenodd;stroke-linecap:round;stroke-linejoin:round;stroke-miterlimit:1.5;" version="1.1" xmlns="http://www.w3.org/2000/svg" xmlns:xlink="http://www.w3.org/1999/xlink"><style class="text-font-style fontImports" data-font-family="Roboto">@import url('https://fonts.googleapis.com/css2?family=Roboto:wght@400;700&amp;display=block');</style><g id="items" style="isolation: isolate"><g id="blend" style="mix-blend-mode: normal"><g id="g-root-cp_5_g-5_v4v14xk1kiku-fill" data-item-order="20999429770" transform="translate(239, 177.0009765625)"><g id="cp_5_g-5_v4v14xk1kiku-fill" stroke="none" fill="#fff2e5"><g><path d="M 130 10C 63.7258 9.999994 10.000006 63.7258 10 130C 10 135.532 10.3743 140.976 11.0989 146.308C 33.0101 122.742 64.2834 108 99 108C 104.0273 108 108.9824 108.3091 113.847 108.9095C 139.667 112.096 162.947 123.484 181 140.387C 190.22 149.02 198.077 159.091 204.212 170.243C 211.148 182.851 215.883 196.839 217.901 211.692C 225.967 203.016 232.764 193.146 237.998 182.374C 245.687 166.548 250 148.778 250 130C 250 122.804 249.367 115.757 248.153 108.9095C 241.262 70.0454 215.665 37.6449 181 21.3454C 165.522 14.0678 148.236 10.000002 130 10Z"></path></g></g></g><g id="g-root-cp_4_g-4_qpo03lk1kg7c-fill" data-item-order="20999429774" transform="translate(207.99899291992188, 275)"><g id="cp_4_g-4_qpo03lk1kg7c-fill" stroke="none" fill="#fffbda"><g><path d="M 144.847 10.9095C 139.982 10.3091 135.027 10 130 10C 95.2834 9.999997 64.0101 24.7424 42.0989 48.3084C 22.1815 69.73 10.000003 98.4424 10 130C 9.999995 188.333 51.6222 236.945 106.7882 247.757C 97.3622 230.623 92 210.937 92 190C 92 171.222 96.313 153.452 104.0023 137.626C 115.004 114.981 132.919 96.3159 155.002 84.3742C 165.431 78.7348 176.789 74.5949 188.788 72.2432C 196.298 70.7714 204.059 70 212 70C 219.941 70 227.702 70.7713 235.212 72.2432C 229.077 61.0911 221.22 51.0196 212 42.3867C 193.947 25.4837 170.667 14.0956 144.847 10.9095Z"></path></g></g></g><g id="g-root-cp_3_g-3_m9uhz5k1kgzm-fill" data-item-order="20999429778" transform="translate(289.9989929199219, 337.244140625)"><g id="cp_3_g-3_m9uhz5k1kgzm-fill" stroke="none" fill="#f4ffdc"><g><path d="M 106.7882 10C 94.7892 12.3517 83.4309 16.4917 73.0023 22.131C 50.919 34.0727 33.0044 52.7378 22.0023 75.3826C 14.313 91.2089 10.000002 108.9792 10 127.757C 9.999998 148.694 15.3622 168.379 24.7882 185.514C 45.1987 222.615 84.6633 247.757 130 247.757C 175.337 247.757 214.801 222.615 235.212 185.514C 227.702 186.985 219.941 187.757 212 187.757C 180.291 187.757 151.454 175.458 130 155.37C 111.482 138.032 98.4648 114.891 93.8473 88.8473C 92.6333 82.0002 92 74.9525 92 67.7568C 92 62.2253 92.3742 56.7811 93.0989 51.4483C 95.117 36.596 99.8525 22.6075 106.7882 10Z"></path></g></g></g><g id="g-root-cp_2_g-2_de7hq9k1khsc-fill" data-item-order="20999429782" transform="translate(372, 313.31005859375)"><g id="cp_2_g-2_de7hq9k1khsc-fill" stroke="none" fill="#e3fff2"><g><path d="M 11.0989 75.3831C 10.3742 80.7158 10 86.16 10 91.6915C 9.999999 98.8872 10.6333 105.935 11.8473 112.782C 16.4648 138.826 29.4824 161.967 48 179.305C 69.454 199.393 98.2907 211.692 130 211.692C 137.941 211.692 145.702 210.92 153.212 209.448C 208.378 198.636 250 150.025 250 91.6916C 250 60.134 237.818 31.4216 217.901 10C 212.646 48.6722 188.968 81.4882 155.998 99.3173C 139.042 108.4862 119.629 113.692 99 113.692C 93.9727 113.692 89.0176 113.382 84.1527 112.782C 71.3706 111.205 59.2111 107.6175 48 102.3461C 34.0119 95.769 21.5005 86.5703 11.0989 75.3831Z"></path></g></g></g><g id="g-root-cp_1_g-1_8ydzltk1kikm-fill" data-item-order="20999429786" transform="translate(410, 177.0009765625)"><g id="cp_1_g-1_8ydzltk1kikm-fill" stroke="none" fill="#e8f9ff"><g><path d="M 181 130C 181 63.7258 127.274 10.000006 61 10C 42.764 9.999998 25.478 14.0678 10 21.3454C 44.6655 37.6449 70.2622 70.0453 77.1527 108.9095C 78.3667 115.757 79 122.804 79 130C 79 148.778 74.687 166.548 66.9977 182.374C 61.7644 193.146 54.9671 203.016 46.9011 211.692C 36.4995 222.879 23.9881 232.077 10.000012 238.655C 21.2111 243.926 33.3706 247.513 46.1527 249.091C 51.0176 249.691 55.9727 250 61 250C 81.629 250 101.0421 244.795 117.998 235.626C 150.968 217.797 174.646 184.981 179.901 146.308C 180.626 140.976 181 135.532 181 130Z"></path></g></g></g><g id="g-root-tx_renforce_zofds1k1kglf-fill" data-item-order="21000000000" transform="translate(224, 2.0009765625)"><g id="tx_renforce_zofds1k1kglf-fill" stroke="none" fill="#484848"><g><text style="font: bold 25px Roboto, sans-serif; white-space: pre;" font-weight="bold" font-size="25px" font-family="Roboto, sans-serif"><tspan x="19.14" y="58" dominant-baseline="ideographic">Facilitate digital transformation</tspan><tspan x="12.61" y="88" dominant-baseline="ideographic">through community engagement</tspan></text></g></g></g><g id="g-root-tx_inclusio_v4v14xk1lxj9-fill" data-item-order="21000000000" transform="translate(86, 122.0009765625)"><g id="tx_inclusio_v4v14xk1lxj9-fill" stroke="none" fill="#de8431"><g><text style="font: bold 20px Roboto, sans-serif; white-space: pre;" font-weight="bold" font-size="20px" font-family="Roboto, sans-serif"><tspan x="19.81" y="34" dominant-baseline="ideographic">Inclusion and </tspan><tspan x="62.92" y="58" dominant-baseline="ideographic">diversity</tspan></text></g></g></g><g id="g-root-tx_ateliers_1ursdq9k1khz9-fill" data-item-order="21000000000" transform="translate(590, 146.0009765625)"><g id="tx_ateliers_1ursdq9k1khz9-fill" stroke="none" fill="#1eabda"><g><text style="font: bold 20px Roboto, sans-serif; white-space: pre;" font-weight="bold" font-size="20px" font-family="Roboto, sans-serif"><tspan x="12" y="34" dominant-baseline="ideographic">Workshops</tspan></text></g></g></g><g id="g-root-tx_assurerl_8ydzltk1lwr3-fill" data-item-order="21000000000" transform="translate(86, 182.0009765625)"><g id="tx_assurerl_8ydzltk1lwr3-fill" stroke="none" fill="#484848"><g><text style="font: 15px Roboto, sans-serif; white-space: pre;" font-size="15px" font-family="Roboto, sans-serif"><tspan x="20.24" y="31" dominant-baseline="ideographic">Ensure accessibility </tspan><tspan x="26.72" y="49" dominant-baseline="ideographic">and representation </tspan><tspan x="113.97" y="67" dominant-baseline="ideographic">for all</tspan></text></g></g></g><g id="g-root-tx_sessions_18lbc75k1kh73-fill" data-item-order="21000000000" transform="translate(590, 182.0009765625)"><g id="tx_sessions_18lbc75k1kh73-fill" stroke="none" fill="#484848"><g><text style="font: 15px Roboto, sans-serif; white-space: pre;" font-size="15px" font-family="Roboto, sans-serif"><tspan x="12" y="31" dominant-baseline="ideographic">Interactive sessions </tspan><tspan x="12" y="49" dominant-baseline="ideographic">for hands-on </tspan><tspan x="12" y="67" dominant-baseline="ideographic">learning</tspan></text></g></g></g><g id="g-root-ic_pick_1lt101tk1lwjl-fill" data-item-order="21000000000" transform="translate(350, 206.0009765625)"></g><g id="g-root-ic_team_959aptk1c3r4-fill" data-item-order="21000000000" transform="translate(506, 272.0009765625)"></g><g id="g-root-ic_2_18k2h6pk17w1w-fill" data-item-order="21000000000" transform="translate(248, 338.0009765625)"></g><g id="g-root-tx_mentorat_meuao1k1kh6p-fill" data-item-order="21000000000" transform="translate(38, 380.0009765625)"><g id="tx_mentorat_meuao1k1kh6p-fill" stroke="none" fill="#e0cb15"><g><text style="font: bold 20px Roboto, sans-serif; white-space: pre;" font-weight="bold" font-size="20px" font-family="Roboto, sans-serif"><tspan x="23.43" y="34" dominant-baseline="ideographic">Mentoring</tspan></text></g></g></g><g id="g-root-tx_confrenc_13ymm4hk1lxq9-fill" data-item-order="21000000000" transform="translate(638, 368.0009765625)"><g id="tx_confrenc_13ymm4hk1lxq9-fill" stroke="none" fill="#3cc583"><g><text style="font: bold 20px Roboto, sans-serif; white-space: pre;" font-weight="bold" font-size="20px" font-family="Roboto, sans-serif"><tspan x="12" y="34" dominant-baseline="ideographic">Lectures / </tspan><tspan x="12" y="58" dominant-baseline="ideographic">Conferences</tspan></text></g></g></g><g id="g-root-tx_soutieng_1utnszlk1kgzn-fill" data-item-order="21000000000" transform="translate(38, 416.0009765625)"><g id="tx_soutieng_1utnszlk1kgzn-fill" stroke="none" fill="#484848"><g><text style="font: 15px Roboto, sans-serif; white-space: pre;" font-size="15px" font-family="Roboto, sans-serif"><tspan x="15.84" y="31" dominant-baseline="ideographic">Guidance provided </tspan><tspan x="39.83" y="49" dominant-baseline="ideographic">by experienced </tspan><tspan x="68.77" y="67" dominant-baseline="ideographic">individuals</tspan></text></g></g></g><g id="g-root-ic_1_1hituv5k1c1dz-fill" data-item-order="21000000000" transform="translate(494, 434.0009765625)"></g><g id="g-root-tx_vnements_1i16pk1lw5f-fill" data-item-order="21000000000" transform="translate(638, 428.0009765625)"><g id="tx_vnements_1i16pk1lw5f-fill" stroke="none" fill="#484848"><g><text style="font: 15px Roboto, sans-serif; white-space: pre;" font-size="15px" font-family="Roboto, sans-serif"><tspan x="12" y="31" dominant-baseline="ideographic">Open events for </tspan><tspan x="12" y="49" dominant-baseline="ideographic">discussion and </tspan><tspan x="12" y="67" dominant-baseline="ideographic">education</tspan></text></g></g></g><g id="g-root-ic_meet_v48n7lk1c0sl-fill" data-item-order="21000000000" transform="translate(326, 470.0009765625)"></g><g id="g-root-tx_projetsd_vbq935k1khsd-fill" data-item-order="21000000000" transform="translate(338, 602.0009765625)"><g id="tx_projetsd_vbq935k1khsd-fill" stroke="none" fill="#92bd39"><g><text style="font: bold 20px Roboto, sans-serif; white-space: pre;" font-weight="bold" font-size="20px" font-family="Roboto, sans-serif"><tspan x="14.12" y="34" dominant-baseline="ideographic">Collaborative </tspan><tspan x="36.88" y="58" dominant-baseline="ideographic">learning </tspan><tspan x="36.99" y="82" dominant-baseline="ideographic">projects</tspan></text></g></g></g><g id="g-root-tx_effortsd_9m7b5k1kikn-fill" data-item-order="21000000000" transform="translate(338, 686.0009765625)"><g id="tx_effortsd_9m7b5k1kikn-fill" stroke="none" fill="#484848"><g><text style="font: 15px Roboto, sans-serif; white-space: pre;" font-size="15px" font-family="Roboto, sans-serif"><tspan x="12.27" y="28" dominant-baseline="ideographic">Group efforts for </tspan><tspan x="16.52" y="46" dominant-baseline="ideographic">skill acquisition</tspan></text></g></g></g><g id="g-root-cp_5_g-5_v4v14xk1kiku-stroke" data-item-order="20999429770" transform="translate(239, 177.0009765625)"><g id="cp_5_g-5_v4v14xk1kiku-stroke" fill="none" stroke-linecap="round" stroke-linejoin="round" stroke-miterlimit="4" stroke="#de8431" stroke-width="2"><g><path d="M 130 10C 63.7258 10 10 63.7258 10 130C 10 135.5315 10.3743 140.9757 11.0989 146.3084C 33.0101 122.7424 64.2834 108 99 108C 104.0273 108 108.9824 108.3091 113.8473 108.9095C 139.6674 112.0956 162.9474 123.4837 181 140.3867C 190.2201 149.0196 198.0767 159.0911 204.2118 170.2432C 211.1475 182.8507 215.883 196.8393 217.9011 211.6916C 225.9671 203.0164 232.7644 193.1455 237.9977 182.3742C 245.687 166.5479 250 148.7776 250 130C 250 122.8043 249.3667 115.7566 248.1527 108.9095C 241.2622 70.0454 215.6655 37.6449 181 21.3454C 165.522 14.0678 148.236 10 130 10Z"></path></g></g></g><g id="g-root-cp_4_g-4_qpo03lk1kg7c-stroke" data-item-order="20999429774" transform="translate(207.99899291992188, 275)"><g id="cp_4_g-4_qpo03lk1kg7c-stroke" fill="none" stroke-linecap="round" stroke-linejoin="round" stroke-miterlimit="4" stroke="#e0cb15" stroke-width="2"><g><path d="M 144.8473 10.9095C 139.9824 10.3091 135.0273 10 130 10C 95.2834 10 64.0101 24.7424 42.0989 48.3084C 22.1815 69.73 10 98.4424 10 130C 10 188.3331 51.6222 236.9449 106.7882 247.7568C 97.3622 230.6225 92 210.9375 92 190C 92 171.2224 96.313 153.4521 104.0023 137.6258C 115.0044 114.981 132.9189 96.3159 155.0023 84.3742C 165.4309 78.7348 176.7892 74.5949 188.7882 72.2432C 196.2981 70.7714 204.059 70 212 70C 219.941 70 227.7019 70.7713 235.2118 72.2432C 229.0767 61.0911 221.2201 51.0196 212 42.3867C 193.9474 25.4837 170.6675 14.0956 144.8473 10.9095Z"></path></g></g></g><g id="g-root-cp_3_g-3_m9uhz5k1kgzm-stroke" data-item-order="20999429778" transform="translate(289.9989929199219, 337.244140625)"><g id="cp_3_g-3_m9uhz5k1kgzm-stroke" fill="none" stroke-linecap="round" stroke-linejoin="round" stroke-miterlimit="4" stroke="#92bd39" stroke-width="2"><g><path d="M 106.7882 10C 94.7892 12.3517 83.4309 16.4917 73.0023 22.131C 50.919 34.0727 33.0044 52.7378 22.0023 75.3826C 14.313 91.2089 10 108.9792 10 127.7568C 10 148.6943 15.3622 168.3793 24.7882 185.5136C 45.1987 222.6151 84.6633 247.7568 130 247.7568C 175.3367 247.7568 214.8012 222.6151 235.2118 185.5136C 227.7019 186.9855 219.941 187.7568 212 187.7568C 180.2907 187.7568 151.454 175.4579 130 155.3701C 111.4824 138.0318 98.4648 114.8908 93.8473 88.8473C 92.6333 82.0002 92 74.9525 92 67.7568C 92 62.2253 92.3742 56.7811 93.0989 51.4483C 95.117 36.596 99.8525 22.6075 106.7882 10Z"></path></g></g></g><g id="g-root-cp_2_g-2_de7hq9k1khsc-stroke" data-item-order="20999429782" transform="translate(372, 313.31005859375)"><g id="cp_2_g-2_de7hq9k1khsc-stroke" fill="none" stroke-linecap="round" stroke-linejoin="round" stroke-miterlimit="4" stroke="#3cc583" stroke-width="2"><g><path d="M 11.0988 75.3831C 10.3742 80.7158 10 86.16 10 91.6915C 9.999999 98.8872 10.6333 105.935 11.8473 112.7821C 16.4648 138.8256 29.4824 161.9665 48 179.3049C 69.454 199.3926 98.2907 211.6915 130 211.6915C 137.941 211.6915 145.7019 210.9202 153.2118 209.4484C 208.3778 198.6365 250 150.0247 250 91.6916C 250 60.134 237.8185 31.4216 217.9011 10C 212.6465 48.6722 188.9684 81.4882 155.9977 99.3173C 139.0421 108.4862 119.629 113.6916 99 113.6916C 93.9727 113.6916 89.0176 113.3824 84.1527 112.7821C 71.3706 111.2048 59.2111 107.6175 48 102.3461C 34.0119 95.769 21.5005 86.5703 11.0988 75.3831Z"></path></g></g></g><g id="g-root-cp_1_g-1_8ydzltk1kikm-stroke" data-item-order="20999429786" transform="translate(410, 177.0009765625)"><g id="cp_1_g-1_8ydzltk1kikm-stroke" fill="none" stroke-linecap="round" stroke-linejoin="round" stroke-miterlimit="4" stroke="#1eabda" stroke-width="2"><g><path d="M 181 130C 181 63.7258 127.2742 10 61 10C 42.764 10 25.478 14.0677 10 21.3454C 44.6655 37.6449 70.2622 70.0453 77.1527 108.9095C 78.3667 115.7566 79 122.8043 79 130C 79 148.7776 74.6871 166.5479 66.9977 182.3742C 61.7644 193.1455 54.9671 203.0164 46.9011 211.6916C 36.4995 222.8787 23.9881 232.0775 10 238.6546C 21.2111 243.9259 33.3706 247.5132 46.1527 249.0905C 51.0176 249.6909 55.9727 250 61 250C 81.6289 250 101.0421 244.7946 117.9977 235.6258C 150.9684 217.7967 174.6465 184.9807 179.9011 146.3085C 180.6257 140.9757 181 135.5316 181 130Z"></path></g></g></g><g id="g-root-tx_renforce_zofds1k1kglf-stroke" data-item-order="21000000000" transform="translate(224, 2.0009765625)"></g><g id="g-root-tx_inclusio_v4v14xk1lxj9-stroke" data-item-order="21000000000" transform="translate(86, 122.0009765625)"></g><g id="g-root-tx_ateliers_1ursdq9k1khz9-stroke" data-item-order="21000000000" transform="translate(590, 146.0009765625)"></g><g id="g-root-tx_assurerl_8ydzltk1lwr3-stroke" data-item-order="21000000000" transform="translate(86, 182.0009765625)"></g><g id="g-root-tx_sessions_18lbc75k1kh73-stroke" data-item-order="21000000000" transform="translate(590, 182.0009765625)"></g><g id="g-root-ic_pick_1lt101tk1lwjl-stroke" data-item-order="21000000000" transform="translate(350, 206.0009765625)"><g id="ic_pick_1lt101tk1lwjl-stroke" fill="none" stroke-linecap="round" stroke-linejoin="round" stroke-miterlimit="4" stroke="#de8431" stroke-width="2"><g><path d="M 27.271999 41.580002C 27.271402 45.330437 30.311563 48.371078 34.062 48.371078C 37.812435 48.371078 40.852596 45.330437 40.851997 41.580002C 40.852596 37.829563 37.812435 34.788918 34.062 34.788918C 30.311563 34.788918 27.271402 37.829563 27.271999 41.580002M 23.652 57C 25.222328 52.683071 29.293978 49.783154 33.88707 49.710361C 38.48016 49.637566 42.641663 52.407001 44.348 56.672001M 15.796 43.993999C 15.796 46.410797 17.755203 48.369999 20.172001 48.369999C 22.588799 48.369999 24.548 46.410797 24.548 43.993999C 24.548 41.577202 22.588799 39.618 20.172001 39.618C 17.755203 39.618 15.796 41.577202 15.796 43.993999M 25.445999 53.838001C 23.941299 52.658298 22.084021 52.018078 20.172001 52.02C 16.930964 52.028675 13.967644 53.851307 12.498 56.739998M 43.452 43.993999C 43.452 46.410797 45.411201 48.369999 47.827999 48.369999C 50.244797 48.369999 52.203999 46.410797 52.203999 43.993999C 52.203999 41.577202 50.244797 39.618 47.827999 39.618C 45.411201 39.618 43.452 41.577202 43.452 43.993999M 55.501999 56.740002C 54.032352 53.851307 51.069035 52.028675 47.827999 52.019997C 45.948448 52.015881 44.120258 52.633244 42.628002 53.776001M 47 11L 39.711998 11.2C 38.377304 11.2377 37.086403 11.684522 36.014 12.48L 29.040001 17.653999C 27.575289 18.743141 26.518806 20.29265 26.040001 22.054001L 24.84 26.483999C 24.363297 27.842503 24.357662 29.321907 24.824001 30.684C 25.552889 32.108547 27.222017 32.775688 28.732 32.246002C 29.620253 31.963127 30.30036 31.242968 30.532001 30.34L 32.028 24.084C 32.273464 23.503872 32.686401 23.010155 33.214001 22.666L 38.223999 19.4C 39.157883 18.789135 40.343842 18.713209 41.348 19.200001C 42.147999 19.6 43.560001 20.372 43.872002 21.172001C 44.48856 22.440083 44.269863 23.955914 43.32 24.997999L 39.57 28.656C 38.420204 29.705395 38.228401 31.445349 39.122002 32.720001C 40.271999 34.09 41.888 33.284 43.380001 32.251999L 50.119999 27.587999C 50.709465 27.17837 51.144085 26.582441 51.354 25.896L 52.754002 21.318001"></path></g></g></g><g id="g-root-ic_team_959aptk1c3r4-stroke" data-item-order="21000000000" transform="translate(506, 272.0009765625)"><g id="ic_team_959aptk1c3r4-stroke" fill="none" stroke-linecap="round" stroke-linejoin="round" stroke-miterlimit="4" stroke="#1eabda" stroke-width="2"><g><path d="M 42.48 57L 42.48 55.366001C 42.338257 51.629597 39.268089 48.673691 35.528999 48.673691C 31.789909 48.673691 28.719744 51.629597 28.577999 55.366001L 28.577999 57M 31.666 41.094002C 31.665316 43.22739 33.455482 44.957195 35.663998 44.957195C 37.872517 44.957195 39.662682 43.22739 39.661999 41.093998C 39.662682 38.960609 37.872517 37.230804 35.663998 37.230804C 33.455482 37.230804 31.665316 38.960609 31.665998 41.093998M 56.383999 57L 56.383999 55.366001C 56.256851 51.618271 53.181885 48.645859 49.431999 48.645859C 45.682114 48.645859 42.607147 51.618271 42.48 55.366001L 42.48 57M 45.568001 41.094002C 45.567314 43.22739 47.357479 44.957195 49.565998 44.957195C 51.774513 44.957195 53.564682 43.22739 53.563995 41.093998C 53.564682 38.960609 51.774513 37.230804 49.565998 37.230804C 47.357479 37.230804 45.567314 38.960609 45.567997 41.093998M 38.653999 11L 54.542 11C 55.671196 10.999999 56.586899 11.914806 56.588001 13.044001L 56.588001 26.334C 56.586899 27.463194 55.671196 28.378 54.542 28.378L 37.02 28.378M 43.681999 18.486L 46.262001 21.552L 49.702 19.507999L 51.557999 22.452M 14.478001 16.222C 14.477289 19.106533 16.815466 21.445288 19.700001 21.445288C 22.584534 21.445288 24.92271 19.106533 24.922001 16.222C 24.92271 13.337466 22.584534 10.998713 19.700001 10.998713C 16.815466 10.998713 14.477289 13.337466 14.478001 16.222M 26.868 39.304001L 26.868 34.464001L 26.868 34.464001L 37.903999 20.028L 37.958 19.959999C 39.044456 18.471672 38.74308 16.38806 37.279434 15.268578C 35.815788 14.149096 33.725952 14.40377 32.574001 15.842001L 26.552 23.577999C 26.124405 24.123838 25.469379 24.442499 24.776001 24.441999L 18.200001 24.442001C 16.400814 24.438814 14.674229 25.151306 13.400886 26.422398C 12.127542 27.693489 11.411997 29.418814 11.412 31.218L 11.412 39.129997M 52.745998 28.378L 52.745998 32.101997M 19.700001 29.021999L 19.700001 32.101997"></path></g></g></g><g id="g-root-ic_2_18k2h6pk17w1w-stroke" data-item-order="21000000000" transform="translate(248, 338.0009765625)"><g id="ic_2_18k2h6pk17w1w-stroke" fill="none" stroke-linecap="round" stroke-linejoin="round" stroke-miterlimit="4" stroke="#e0cb15" stroke-width="2"><g><path d="M 29.39036 43.9702L 15.5903 43.9702C 14.7903 43.9702 14.19034 43.370201 13.99034 42.770199L 11.590306 34.1702C 11.190306 33.1702 12.19034 31.9702 13.19034 31.9702L 24.5903 31.9702C 25.390301 31.9702 25.990341 32.570198 26.19034 33.1702L 29.39036 43.9702ZM 34.389999 43.9702L 29.390141 43.9702M 42.145 27.300039C 45.458801 27.300039 48.145 24.61376 48.145 21.300041C 48.145 17.98634 45.458801 15.300039 42.145 15.300039C 38.831398 15.300039 36.145 17.98634 36.145 21.300041C 36.145 24.61376 38.831398 27.300039 42.145 27.300039ZM 34.145 34.299999C 35.945 31.9 38.945 30.299999 42.145 30.299999C 43.4902 30.299999 44.799801 30.5828 46 31.0888M 51.494202 45.1702C 54.2556 45.1702 56.494202 42.931599 56.494202 40.1702C 56.494202 37.408798 54.2556 35.1702 51.494202 35.1702C 48.7328 35.1702 46.494202 37.408798 46.494202 40.1702C 46.494202 42.931599 48.7328 45.1702 51.494202 45.1702ZM 56.109402 42.109402C 55.109402 46.909401 52.931 49.9702 48.931 52.570202C 45.131001 55.1702 40.131001 54.1702 39.331001 50.570202C 38.331001 46.9702 39.884399 42.909401 46.484402 40.109398"></path></g></g></g><g id="g-root-tx_mentorat_meuao1k1kh6p-stroke" data-item-order="21000000000" transform="translate(38, 380.0009765625)"></g><g id="g-root-tx_confrenc_13ymm4hk1lxq9-stroke" data-item-order="21000000000" transform="translate(638, 368.0009765625)"></g><g id="g-root-tx_soutieng_1utnszlk1kgzn-stroke" data-item-order="21000000000" transform="translate(38, 416.0009765625)"></g><g id="g-root-ic_1_1hituv5k1c1dz-stroke" data-item-order="21000000000" transform="translate(494, 434.0009765625)"><g id="ic_1_1hituv5k1c1dz-stroke" fill="none" stroke-linecap="round" stroke-linejoin="round" stroke-miterlimit="4" stroke="#3cc583" stroke-width="2"><g><path d="M 11.499978 37.5L 11.499978 11.5L 56.5 11.5L 56.5 37.5M 11.499978 27.5L 18.499981 27.5C 18.499981 22.5 21.29998 18.300079 26.69998 17.700081C 27.69998 17.50008 28.499981 16.700081 28.499981 15.70008L 28.499981 11.5M 18.49378 37.5L 18.49378 27.5M 49.498402 37.5L 49.498402 27.5M 56.5 27.5L 49.5 27.5C 49.5 22.5 46.700001 18.300079 41.299999 17.700081C 40.299999 17.50008 39.5 16.700081 39.5 15.70008L 39.5 11.5M 27 37.5L 27 28.5C 27 26.299999 28.799999 24.5 31 24.5L 37 24.5C 39.200001 24.5 41 26.299999 41 28.5L 41 37.5M 17.1 50.900002C 19.309139 50.900002 21.1 49.1092 21.1 46.900002C 21.1 44.6908 19.309139 42.900002 17.1 42.900002C 14.89086 42.900002 13.1 44.6908 13.1 46.900002C 13.1 49.1092 14.89086 50.900002 17.1 50.900002ZM 11.5 56.5C 11.5 53.5 13.90004 50.900002 17.10004 50.900002C 20.300041 50.900002 22.70002 53.299999 22.70002 56.5M 34.049999 50.799999C 36.259201 50.799999 38.049999 49.009201 38.049999 46.799999C 38.049999 44.590801 36.259201 42.799999 34.049999 42.799999C 31.840799 42.799999 30.049999 44.590801 30.049999 46.799999C 30.049999 49.009201 31.840799 50.799999 34.049999 50.799999ZM 28.45002 56.400002C 28.45002 53.400002 30.85 50.799999 34.049999 50.799999C 37.25 50.799999 39.650002 53.200001 39.650002 56.400002M 50.900002 50.900002C 53.1092 50.900002 54.900002 49.1092 54.900002 46.900002C 54.900002 44.6908 53.1092 42.900002 50.900002 42.900002C 48.6908 42.900002 46.900002 44.6908 46.900002 46.900002C 46.900002 49.1092 48.6908 50.900002 50.900002 50.900002ZM 45.299999 56.5C 45.299999 53.5 47.700001 50.900002 50.900002 50.900002C 54.099998 50.900002 56.5 53.299999 56.5 56.5"></path></g></g></g><g id="g-root-tx_vnements_1i16pk1lw5f-stroke" data-item-order="21000000000" transform="translate(638, 428.0009765625)"></g><g id="g-root-ic_meet_v48n7lk1c0sl-stroke" data-item-order="21000000000" transform="translate(326, 470.0009765625)"><g id="ic_meet_v48n7lk1c0sl-stroke" fill="none" stroke-linecap="round" stroke-linejoin="round" stroke-miterlimit="4" stroke="#92bd39" stroke-width="2"><g><path d="M 29.5 15.5C 29.5 17.985281 31.514719 20 34 20C 36.485283 20 38.5 17.985281 38.5 15.5C 38.5 13.014719 36.485283 11 34 11C 31.514719 11 29.5 13.014719 29.5 15.5M 43 29C 41.933315 24.902742 38.233833 22.043076 34 22.043076C 29.766167 22.043076 26.066687 24.902742 25 29ZM 15.5 43.5C 15.5 45.985283 17.514719 48 20 48C 22.485281 48 24.5 45.985283 24.5 43.5C 24.5 41.014717 22.485281 39 20 39C 17.514719 39 15.5 41.014717 15.5 43.5M 29 57C 27.933313 52.902744 24.233833 50.043076 20 50.043076C 15.766167 50.043076 12.066687 52.902744 11 57ZM 43.5 43.5C 43.5 45.985283 45.514717 48 48 48C 50.485283 48 52.5 45.985283 52.5 43.5C 52.5 41.014717 50.485283 39 48 39C 45.514717 39 43.5 41.014717 43.5 43.5M 57 57C 55.933315 52.902744 52.233833 50.043076 48 50.043076C 43.766167 50.043076 40.066689 52.902744 39 57ZM 40 47.84C 36.151478 49.396805 31.848522 49.396805 28 47.84M 43 19.779999C 47.96957 23.158754 50.62685 29.037214 49.880001 35M 25 19.779999C 20.03043 23.158754 17.37315 29.037214 18.119999 35"></path></g></g></g><g id="g-root-tx_projetsd_vbq935k1khsd-stroke" data-item-order="21000000000" transform="translate(338, 602.0009765625)"></g><g id="g-root-tx_effortsd_9m7b5k1kikn-stroke" data-item-order="21000000000" transform="translate(338, 686.0009765625)"></g></g></g></svg>