<?xml version="1.0" encoding="utf-8" standalone="yes"?>
<!DOCTYPE svg PUBLIC "-//W3C//DTD SVG 1.1//EN" "http://www.w3.org/Graphics/SVG/1.1/DTD/svg11.dtd">
<svg width="696" height="502" viewBox="0 0 696 502" style="fill:none;stroke:none;fill-rule:evenodd;clip-rule:evenodd;stroke-linecap:round;stroke-linejoin:round;stroke-miterlimit:1.5;" version="1.1" xmlns="http://www.w3.org/2000/svg" xmlns:xlink="http://www.w3.org/1999/xlink"><style class="text-font-style fontImports" data-font-family="Roboto">@import url('https://fonts.googleapis.com/css2?family=Roboto:wght@400;700&amp;display=block');</style><g id="items" style="isolation: isolate"><g id="blend" style="mix-blend-mode: normal"><g id="g-root-sy_3_Vector_58se51m23myu-fill" data-item-order="12999882662" transform="translate(144.82000732421875, 84.169921875)"><g id="sy_3_Vector_58se51m23myu-fill" stroke="none" fill="#f4ffdc"><g><path d="M 105.86257 65.676905L 111.51057 83.824905L 92.96957 88.006905L 96.55757 81.791905L 73.93457 68.730905C 62.97957 82.226905 43.53957 86.150905 28.00657 77.182905C 10.78757 67.241905 4.88757 45.224905 14.82957 28.005905C 24.77057 10.787905 46.78757 4.887905 64.00657 14.828905C 79.51857 23.784905 85.84357 42.542905 79.67557 58.762905L 102.30957 71.829905L 105.86257 65.676905Z"></path></g></g></g><g id="g-root-sy_2_Vector_1qapu4d1m23nkf-fill" data-item-order="12999882666" transform="translate(290.00457763671875, 296.29345703125)"><g id="sy_2_Vector_1qapu4d1m23nkf-fill" stroke="none" fill="#e3fff2"><g><path d="M 58.893 23.965989L 46 9.999989L 33.108 23.965989L 40.284 23.965989L 40.284 50.151989C 23.118 52.890989 10 67.763989 10 85.700989C 10 105.582989 26.118 121.700989 46 121.700989C 65.882 121.700989 82 105.582989 82 85.700989C 82 67.788989 68.918 52.931989 51.788 50.163989L 51.788 23.965989L 58.893 23.965989Z"></path></g></g></g><g id="g-root-sy_1_Vector_1uqjc8t1m23nk0-fill" data-item-order="12999882670" transform="translate(405.6785888671875, 84.169921875)"><g id="sy_1_Vector_1uqjc8t1m23nk0-fill" stroke="none" fill="#ffeceb"><g><path d="M 28.540989 88.007905L 9.999989 83.824905L 15.647989 65.676905L 19.235989 71.891905L 41.859989 58.829905C 35.648989 42.594905 41.969989 23.797905 57.503989 14.828905C 74.722989 4.887905 96.739989 10.787905 106.680989 28.005905C 116.621989 45.224905 110.722989 67.241905 93.503989 77.182905C 77.991989 86.138905 58.584989 82.237905 47.621989 68.786905L 24.987989 81.853905L 28.540989 88.007905Z"></path></g></g></g><g id="g-root-sy_0_Vector_1luwbzx1m23ocp-fill" data-item-order="12999882674" transform="translate(254.00457763671875, 131.99072265625)"><g id="sy_0_Vector_1luwbzx1m23ocp-fill" stroke="none" fill="#f5f5f5"><g><path d="M 154 81.999998C 154 42.235998 121.765 9.999998 82 9.999998C 42.236 9.999998 10 42.235998 10 81.999998C 10 121.764998 42.236 153.999998 82 153.999998C 121.764 153.999998 154 121.764998 154 81.999998Z"></path></g></g></g><g id="g-root-tx_applicat_dhy8xp1m23nk5-fill" data-item-order="13000000000" transform="translate(152.00457763671875, 11.99462890625)"><g id="tx_applicat_dhy8xp1m23nk5-fill" stroke="none" fill="#484848"><g><text style="font: bold 25px Roboto, sans-serif; white-space: pre;" font-weight="bold" font-size="25px" font-family="Roboto, sans-serif"><tspan x="12.64" y="43" dominant-baseline="ideographic">Applications du Deep Learning</tspan></text></g></g></g><g id="g-root-tx_traducti_1hf2tvh1m23p4y-fill" data-item-order="13000000000" transform="translate(14.00457763671875, 95.99462890625)"><g id="tx_traducti_1hf2tvh1m23p4y-fill" stroke="none" fill="#484848"><g><text style="font: 20px Roboto, sans-serif; white-space: pre;" font-size="20px" font-family="Roboto, sans-serif"><tspan x="32.9" y="34" dominant-baseline="ideographic">Traduction </tspan><tspan x="15.51" y="58" dominant-baseline="ideographic">automatique</tspan></text></g></g></g><g id="g-root-ic_1_1hf2x191m1ilft-fill" data-item-order="13000000000" transform="translate(156.00457763671875, 95.9951171875)"></g><g id="g-root-ic_moni_1q8ui0t1m1ilmw-fill" data-item-order="13000000000" transform="translate(448.00457763671875, 95.99462890625)"></g><g id="g-root-tx_dtection_qssa7x1m23p50-fill" data-item-order="13000000000" transform="translate(518.0045776367188, 95.99462890625)"><g id="tx_dtection_qssa7x1m23p50-fill" stroke="none" fill="#484848"><g><text style="font: 20px Roboto, sans-serif; white-space: pre;" font-size="20px" font-family="Roboto, sans-serif"><tspan x="12" y="34" dominant-baseline="ideographic">Détection de </tspan><tspan x="12" y="58" dominant-baseline="ideographic">fraude bancaire</tspan></text></g></g></g><g id="g-root-ic_fram_4mb8ot1m23ocu-fill" data-item-order="13000000000" transform="translate(290.00457763671875, 167.99072265625)"></g><g id="g-root-ic_reco_18eg43h1m1imtr-fill" data-item-order="13000000000" transform="translate(302.00457763671875, 347.994140625)"></g><g id="g-root-tx_reconnai_1448sl91m23nk3-fill" data-item-order="13000000000" transform="translate(248.00457763671875, 419.994140625)"><g id="tx_reconnai_1448sl91m23nk3-fill" stroke="none" fill="#484848"><g><text style="font: 20px Roboto, sans-serif; white-space: pre;" font-size="20px" font-family="Roboto, sans-serif"><tspan x="12.38" y="34" dominant-baseline="ideographic">Reconnaissance </tspan><tspan x="13.34" y="58" dominant-baseline="ideographic">faciale et vocale</tspan></text></g></g></g><g id="g-root-sy_3_Vector_58se51m23myu-stroke" data-item-order="12999882662" transform="translate(144.82000732421875, 84.169921875)"><g id="sy_3_Vector_58se51m23myu-stroke" fill="none" stroke-linecap="round" stroke-linejoin="round" stroke-miterlimit="4" stroke="#92bd39" stroke-width="2"><g><path d="M 105.86257 65.676905L 111.51057 83.824905L 92.96957 88.006905L 96.55757 81.791905L 73.93457 68.730905C 62.97957 82.226905 43.53957 86.150905 28.00657 77.182905C 10.78757 67.241905 4.88757 45.224905 14.82957 28.005905C 24.77057 10.787905 46.78757 4.887905 64.00657 14.828905C 79.51857 23.784905 85.84357 42.542905 79.67557 58.762905L 102.30957 71.829905L 105.86257 65.676905Z"></path></g></g></g><g id="g-root-sy_2_Vector_1qapu4d1m23nkf-stroke" data-item-order="12999882666" transform="translate(290.00457763671875, 296.29345703125)"><g id="sy_2_Vector_1qapu4d1m23nkf-stroke" fill="none" stroke-linecap="round" stroke-linejoin="round" stroke-miterlimit="4" stroke="#3cc583" stroke-width="2"><g><path d="M 58.893 23.965989L 46 9.999989L 33.108 23.965989L 40.284 23.965989L 40.284 50.151989C 23.118 52.890989 10 67.763989 10 85.700989C 10 105.582989 26.118 121.700989 46 121.700989C 65.882 121.700989 82 105.582989 82 85.700989C 82 67.788989 68.918 52.931989 51.788 50.163989L 51.788 23.965989L 58.893 23.965989Z"></path></g></g></g><g id="g-root-sy_1_Vector_1uqjc8t1m23nk0-stroke" data-item-order="12999882670" transform="translate(405.6785888671875, 84.169921875)"><g id="sy_1_Vector_1uqjc8t1m23nk0-stroke" fill="none" stroke-linecap="round" stroke-linejoin="round" stroke-miterlimit="4" stroke="#e55753" stroke-width="2"><g><path d="M 28.540989 88.007905L 9.999989 83.824905L 15.647989 65.676905L 19.235989 71.891905L 41.859989 58.829905C 35.648989 42.594905 41.969989 23.797905 57.503989 14.828905C 74.722989 4.887905 96.739989 10.787905 106.680989 28.005905C 116.621989 45.224905 110.722989 67.241905 93.503989 77.182905C 77.991989 86.138905 58.584989 82.237905 47.621989 68.786905L 24.987989 81.853905L 28.540989 88.007905Z"></path></g></g></g><g id="g-root-sy_0_Vector_1luwbzx1m23ocp-stroke" data-item-order="12999882674" transform="translate(254.00457763671875, 131.99072265625)"><g id="sy_0_Vector_1luwbzx1m23ocp-stroke" fill="none" stroke-linecap="round" stroke-linejoin="round" stroke-miterlimit="4" stroke="#969696" stroke-width="2"><g><path d="M 154 81.999998C 154 42.235998 121.765 9.999998 82 9.999998C 42.236 9.999998 10 42.235998 10 81.999998C 10 121.764998 42.236 153.999998 82 153.999998C 121.764 153.999998 154 121.764998 154 81.999998Z"></path></g></g></g><g id="g-root-tx_applicat_dhy8xp1m23nk5-stroke" data-item-order="13000000000" transform="translate(152.00457763671875, 11.99462890625)"></g><g id="g-root-tx_traducti_1hf2tvh1m23p4y-stroke" data-item-order="13000000000" transform="translate(14.00457763671875, 95.99462890625)"></g><g id="g-root-ic_1_1hf2x191m1ilft-stroke" data-item-order="13000000000" transform="translate(156.00457763671875, 95.9951171875)"><g id="ic_1_1hf2x191m1ilft-stroke" fill="none" stroke-linecap="round" stroke-linejoin="round" stroke-miterlimit="4" stroke="#92bd39" stroke-width="2"><g><path d="M 15.062 18.996002L 31.000002 18.996002M 23.000002 14.996L 23.000002 18.996002M 28.000002 19.000002C 26.384495 24.829552 21.829552 29.384495 16 31.000002M 18 19.000002C 19.615509 24.829552 24.170452 29.384495 30.000002 31.000002M 39.000004 53.000004L 44.064003 39.498001C 44.210613 39.108158 44.583504 38.850002 45.000004 38.850002C 45.416504 38.850002 45.789394 39.108158 45.936005 39.498001L 51.000004 53.000004M 40.500004 48.996002L 49.524002 48.996002M 13 10.996L 33.000004 10.996C 33.000004 10.996 35.000004 10.996 35.000004 12.996L 35.000004 32.996002C 35.000004 32.996002 35.000004 34.996002 33.000004 34.996002L 13 34.996002C 13 34.996002 11 34.996002 11 32.996002L 11 12.996C 11 12.996 11 10.996 13 10.996M 40.000004 33.000004L 55.000004 33.000004C 56.104572 33.000004 57.000004 33.895432 57.000004 35.000004L 57.000004 55.000004C 57.000004 56.104572 56.104572 57.000004 55.000004 57.000004L 35.000004 57.000004C 33.895432 57.000004 33.000004 56.104572 33.000004 55.000004L 33.000004 40.000004M 22.000002 55.996002L 26.000002 51.996002L 22.000002 47.996002M 14 42.000004C 14 47.52285 18.477154 52.000004 24.000002 52.000004L 26.000002 52.000004M 46.000004 11.996L 42.000004 15.996L 46.000004 19.996002M 54.000004 26.000002C 54.000004 20.477154 49.52285 16 44.000004 16L 42.000004 16"></path></g></g></g><g id="g-root-ic_moni_1q8ui0t1m1ilmw-stroke" data-item-order="13000000000" transform="translate(448.00457763671875, 95.99462890625)"><g id="ic_moni_1q8ui0t1m1ilmw-stroke" fill="none" stroke-linecap="round" stroke-linejoin="round" stroke-miterlimit="4" stroke="#e55753" stroke-width="2"><g><path d="M 43.712002 39.622002L 43.712002 57M 11 57L 11 23.265999C 11 21.008259 12.830259 19.177999 15.087999 19.177999L 28.378 19.178001M 28.378 25.312L 22.243999 25.312M 19.177999 35.534L 35.534 35.534C 35.534 35.534 37.577999 35.534 37.577999 37.578003L 37.577999 50.355999C 37.577999 50.355999 37.577999 52.400002 35.534 52.400002L 19.177999 52.400002C 19.177999 52.400002 17.133999 52.400002 17.133999 50.355999L 17.133999 37.578003C 17.133999 37.578003 17.133999 35.534 19.177999 35.534M 17.133999 45.756001L 37.577999 45.756001M 35.695999 21.652C 35.694664 27.535885 40.464119 32.306427 46.348 32.306427C 52.231884 32.306427 57.001339 27.535885 57 21.652C 57.001339 15.768116 52.231884 10.997576 46.348 10.997576C 40.464119 10.997576 35.694664 15.768116 35.695999 21.652M 46.348 25.242001C 46.772415 25.240894 47.117264 25.584249 47.118 26.008663C 47.118736 26.433079 46.775085 26.777628 46.35067 26.777998C 45.926254 26.778368 45.582005 26.434416 45.582001 26.01C 45.581467 25.806496 45.661934 25.611149 45.805645 25.467062C 45.949356 25.322975 46.144493 25.241999 46.347996 25.241999M 46.348 20.686001L 46.348 15.842M 21.610001 40.302002L 25.836 40.302002"></path></g></g></g><g id="g-root-tx_dtection_qssa7x1m23p50-stroke" data-item-order="13000000000" transform="translate(518.0045776367188, 95.99462890625)"></g><g id="g-root-ic_fram_4mb8ot1m23ocu-stroke" data-item-order="13000000000" transform="translate(290.00457763671875, 167.99072265625)"><g id="ic_fram_4mb8ot1m23ocu-stroke" fill="none" stroke-linecap="round" stroke-linejoin="round" stroke-miterlimit="4" stroke="#969696" stroke-width="2"><g><path d="M 20.5 53.5C 24.64213 53.5 28 50.142101 28 46C 28 41.857899 24.64213 38.5 20.5 38.5C 16.35787 38.5 13 41.857899 13 46C 13 50.142101 16.35787 53.5 20.5 53.5ZM 47.5 35.5C 51.642101 35.5 55 32.142132 55 28C 55 23.85787 51.642101 20.5 47.5 20.5C 43.357899 20.5 40 23.85787 40 28C 40 32.142132 43.357899 35.5 47.5 35.5ZM 47.5 71.5C 51.642101 71.5 55 68.142097 55 64C 55 59.857903 51.642101 56.5 47.5 56.5C 43.357899 56.5 40 59.857903 40 64C 40 68.142097 43.357899 71.5 47.5 71.5ZM 71.5 79C 73.985199 79 76 76.985199 76 74.5C 76 72.014801 73.985199 70 71.5 70C 69.014801 70 67 72.014801 67 74.5C 67 76.985199 69.014801 79 71.5 79ZM 74.5 61C 76.985199 61 79 58.985199 79 56.5C 79 54.014801 76.985199 52 74.5 52C 72.014801 52 70 54.014801 70 56.5C 70 58.985199 72.014801 61 74.5 61ZM 71.5 22C 73.985199 22 76 19.985291 76 17.5C 76 15.014709 73.985199 13 71.5 13C 69.014801 13 67 15.014709 67 17.5C 67 19.985291 69.014801 22 71.5 22ZM 74.5 40C 76.985199 40 79 37.985291 79 35.5C 79 33.014709 76.985199 31 74.5 31C 72.014801 31 70 33.014709 70 35.5C 70 37.985291 72.014801 40 74.5 40ZM 10 10M 26.5 41.500301L 41.751999 32.827389M 54.373299 25.01173L 67.426605 19.375M 10 10M 54.7015 30.01783L 70.182999 34.267662M 10 10M 26.35351 50.7169L 41.582199 59.376396M 10 10M 54.400002 67L 67.416397 72.620499M 10 10M 54.795399 62.259705L 70.184502 57.733299"></path></g></g></g><g id="g-root-ic_reco_18eg43h1m1imtr-stroke" data-item-order="13000000000" transform="translate(302.00457763671875, 347.994140625)"><g id="ic_reco_18eg43h1m1imtr-stroke" fill="none" stroke-linecap="round" stroke-linejoin="round" stroke-miterlimit="4" stroke="#3cc583" stroke-width="2"><g><path d="M 45.599998 56.5C 42.799999 53.099998 38.599998 50.900002 33.799999 50.900002C 29 50.900002 24.799999 53.099998 22 56.5M 33.799999 46.5C 38.3288 46.5 42 42.8288 42 38.299999C 42 33.771202 38.3288 30.1 33.799999 30.1C 29.27124 30.1 25.599979 33.771202 25.599979 38.299999C 25.599979 42.8288 29.27124 46.5 33.799999 46.5ZM 25.699959 39.700001C 26.49996 39.700001 31.200001 39.5 33.799999 35.5C 36.400002 39.5 41.099998 39.700001 41.900002 39.700001M 21.39996 45.5C 21.39996 45.5 25.59996 44.5 25.59996 38.299999M 46.099998 45.5C 46.099998 45.5 41.900002 44.5 41.900002 38.299999M 15 30.5L 15 28.49996C 15 27.299959 15.8 26.49996 17 26.49996L 19 26.49996M 53 30.5L 53 28.49996C 53 27.299959 52.200001 26.49996 51 26.49996L 49 26.49996M 15 48.5L 15 50.5C 15 51.700001 15.8 52.5 17 52.5L 19 52.5M 53 48.5L 53 50.5C 53 51.700001 52.200001 52.5 51 52.5L 49 52.5M 42.533401 14.57292L 42.533401 18.73958C 42.533401 20.35042 43.839199 21.65624 45.450001 21.65624L 46.283401 21.65624C 47.894199 21.65624 49.200001 20.35042 49.200001 18.73958L 49.200001 14.57292C 49.200001 12.96208 47.894199 11.65625 46.283401 11.65625L 45.450001 11.65625C 43.839199 11.65625 42.533401 12.96208 42.533401 14.57292ZM 10 10M 22.53344 11.65625L 22.53344 21.65624M 10 10M 19.200119 14.15624L 20.03344 14.15624C 21.41416 14.15624 22.53344 13.03696 22.53344 11.65625L 22.53344 11.65625M 10 10M 25.866699 21.65624L 19.200039 21.65626M 37.533401 21.65624L 30.8666 21.65624L 30.8666 20.23572C 30.8666 19.242481 31.454599 18.343441 32.364601 17.945339L 36.0742 16.32238C 36.960602 15.93458 37.533401 15.05888 37.533401 14.0914C 37.533401 12.7465 36.443199 11.65625 35.098198 11.65625L 33.3666 11.65625C 32.278198 11.65625 31.3522 12.35192 31.009001 13.32292"></path></g></g></g><g id="g-root-tx_reconnai_1448sl91m23nk3-stroke" data-item-order="13000000000" transform="translate(248.00457763671875, 419.994140625)"></g></g></g></svg>