<?xml version="1.0" encoding="utf-8" standalone="yes"?>
<!DOCTYPE svg PUBLIC "-//W3C//DTD SVG 1.1//EN" "http://www.w3.org/Graphics/SVG/1.1/DTD/svg11.dtd">
<svg width="780" height="568" viewBox="0 0 780 568" style="fill:none;stroke:none;fill-rule:evenodd;clip-rule:evenodd;stroke-linecap:round;stroke-linejoin:round;stroke-miterlimit:1.5;" version="1.1" xmlns="http://www.w3.org/2000/svg" xmlns:xlink="http://www.w3.org/1999/xlink"><style class="text-font-style fontImports" data-font-family="Roboto">@import url('https://fonts.googleapis.com/css2?family=Roboto:wght@400;700&amp;display=block');</style><g id="items" style="isolation: isolate"><g id="blend" style="mix-blend-mode: normal"><g id="g-root-cp_4_lines-4_1cuvtw1jh77ye-fill" data-item-order="13999613514" transform="translate(686, 126)"><g id="cp_4_lines-4_1cuvtw1jh77ye-fill" stroke="none" fill="#e0cb15"><g><path d="M 46 118L 10 118L 10 34L 46 34L 46 118ZM 10 118L 10 346L 46 322L 46 118L 10 118ZM 46 10L 46 34L 10 34L 46 10Z"></path></g></g></g><g id="g-root-cp_4_lines-4_1_18f2brljh78qo-fill" data-item-order="13999613528" transform="translate(122, 78)"><g id="cp_4_lines-4_1_18f2brljh78qo-fill" stroke="none" fill="#e0cb15"><g><path d="M 10 40L 417.9818 40L 417.9818 34L 454 10L 10 10L 10 40ZM 10 76L 418 76L 418 40L 10 40L 10 76ZM 10 76L 418 76L 418 106L 10 106Z"></path></g></g></g><g id="g-root-cp_4_lines-4_2_v3lte9jh7abl-fill" data-item-order="13999613536" transform="translate(530, 78)"><g id="cp_4_lines-4_2_v3lte9jh7abl-fill" stroke="none" fill="#e0cb15"><g><path d="M 10 82L 10 34L 46 10L 202 58L 166 82L 10 82ZM 166 106L 10 106L 10 82L 166 82L 166 106ZM 166 154L 10 106L 166 106L 166 154Z"></path></g></g></g><g id="g-root-cp_3_lines-3_m8la8hjh77yj-fill" data-item-order="13999613564" transform="translate(650, 222)"><g id="cp_3_lines-3_m8la8hjh77yj-fill" stroke="none" fill="#92bd39"><g><path d="M 46 106L 10 106L 10 34L 46 34L 46 106ZM 10 106L 10 274L 46 250L 46 106L 10 106ZM 46 10L 46 34L 10 34L 46 10Z"></path></g></g></g><g id="g-root-cp_3_lines-3_1_hsrs41jh78qt-fill" data-item-order="13999613578" transform="translate(122, 174)"><g id="cp_3_lines-3_1_hsrs41jh78qt-fill" stroke="none" fill="#92bd39"><g><path d="M 10 40L 381.9818 40L 381.9818 34L 418 10L 10 10L 10 40ZM 10 76L 382 76L 382 40L 10 40L 10 76ZM 10 76L 382 76L 382 106L 10 106Z"></path></g></g></g><g id="g-root-cp_3_lines-3_2_4hb9qpjh7abq-fill" data-item-order="13999613586" transform="translate(494, 174)"><g id="cp_3_lines-3_2_4hb9qpjh7abq-fill" stroke="none" fill="#92bd39"><g><path d="M 10 82L 10 34L 46 10L 202 58L 166 82L 10 82ZM 166 106L 10 106L 10 82L 166 82L 166 106ZM 166 154L 10 106L 166 106L 166 154Z"></path></g></g></g><g id="g-root-cp_2_lines-2_248pdjh77y8-fill" data-item-order="13999613614" transform="translate(614, 318)"><g id="cp_2_lines-2_248pdjh77y8-fill" stroke="none" fill="#3cc583"><g><path d="M 46 94L 10 94L 10 34L 46 34L 46 94ZM 10 94L 10 202L 46 178L 46 94L 10 94ZM 46 10L 46 34L 10 34L 46 10Z"></path></g></g></g><g id="g-root-cp_2_lines-2_1_1q7lafljh78ju-fill" data-item-order="13999613628" transform="translate(122, 270)"><g id="cp_2_lines-2_1_1q7lafljh78ju-fill" stroke="none" fill="#3cc583"><g><path d="M 10 40L 345.9818 40L 345.9818 34L 382 10L 10 10L 10 40ZM 10 76L 346 76L 346 40L 10 40L 10 76ZM 10 76L 346 76L 346 106L 10 106Z"></path></g></g></g><g id="g-root-cp_2_lines-2_2_1cw4s29jh7a4r-fill" data-item-order="13999613636" transform="translate(458, 270)"><g id="cp_2_lines-2_2_1cw4s29jh7a4r-fill" stroke="none" fill="#3cc583"><g><path d="M 10 82L 10 34L 46 10L 202 58L 166 82L 10 82ZM 166 106L 10 106L 10 82L 166 82L 166 106ZM 166 154L 10 106L 166 106L 166 154Z"></path></g></g></g><g id="g-root-cp_1_lines-1_18gxr0xjh77r9-fill" data-item-order="13999613664" transform="translate(122, 366)"><g id="cp_1_lines-1_18gxr0xjh77r9-fill" stroke="none" fill="#4e88e7"><g><path d="M 10 40L 310.02 40L 310.02 34L 346.02 10L 10 10L 10 40ZM 10 100L 310 100L 310 40L 10 40L 10 100ZM 10 100L 310 100L 310 130L 10 130Z"></path></g></g></g><g id="g-root-cp_1_lines-1_zlaqs1jh78jy-fill" data-item-order="13999613672" transform="translate(578, 414)"><g id="cp_1_lines-1_zlaqs1jh78jy-fill" stroke="none" fill="#4e88e7"><g><path d="M 46 82L 10 82L 10 34L 46 34L 46 82ZM 10 82L 10 130L 46 106L 46 82L 10 82ZM 46 10L 46 34L 10 34L 46 10Z"></path></g></g></g><g id="g-root-cp_1_lines-1_1_qpnqj5jh7a4g-fill" data-item-order="13999613686" transform="translate(422, 366)"><g id="cp_1_lines-1_1_qpnqj5jh7a4g-fill" stroke="none" fill="#4e88e7"><g><path d="M 202 58L 46 10L 10 34L 10 82L 166 82L 202 58ZM 166 130L 10 130L 10 82L 166 82L 166 130ZM 10 130L 166 178L 166 130L 10 130Z"></path></g></g></g><g id="g-root-ic_trai_94mgwhjhcwel-fill" data-item-order="13999996400" transform="translate(38, 396)"><g id="ic_trai_94mgwhjhcwel-fill" stroke="none" fill="#4e88e7"><g><path d="M 33.625 10.625C 30.310781 10.624276 27.62369 13.31078 27.62369 16.625C 27.62369 19.93922 30.310781 22.625725 33.625 22.625C 36.938198 22.624277 39.623688 19.938198 39.623688 16.625C 39.623688 13.311803 36.938198 10.625724 33.625 10.625ZM 16.625 20.375C 13.31078 20.374277 10.62369 23.06078 10.62369 26.375C 10.62369 29.68922 13.31078 32.375725 16.625 32.375C 19.938198 32.374275 22.62369 29.688198 22.62369 26.375C 22.62369 23.061804 19.938198 20.375725 16.625 20.375ZM 50.625 20.375C 47.310783 20.374277 44.623688 23.06078 44.623688 26.375C 44.623688 29.68922 47.310783 32.375725 50.625 32.375C 53.938198 32.374275 56.623692 29.688198 56.623692 26.375C 56.623692 23.061804 53.938198 20.375725 50.625 20.375ZM 36.600002 30.594999C 35.099998 28.719999 32.149998 28.719999 30.650002 30.594999L 30.625 30.625L 20.875 43.625L 20.8575 43.650002C 20.018177 44.788685 19.891045 46.302784 20.528736 47.565483C 21.166428 48.828186 22.460411 49.624592 23.875 49.625L 31.949999 49.625C 32.383926 48.607391 33.193356 47.796177 34.209999 47.359997L 45.455002 42.397499L 36.625 30.625L 36.600002 30.594999ZM 41.037498 58.377499L 49.137501 61.952499C 51.241245 62.879925 53.639416 62.872654 55.737499 61.932503L 63.537502 58.439999L 63.537502 64.362503C 63.537064 64.859612 63.339233 65.336212 62.987499 65.6875L 61.662502 64.362503L 62.987499 65.6875L 62.987499 65.689995L 62.985001 65.692505L 62.98 65.697495L 62.962498 65.714996L 62.912502 65.762497C 62.670769 65.988525 62.420586 66.205353 62.162498 66.412498C 61.6675 66.8125 60.947498 67.337502 60.037498 67.862503C 58.227501 68.904999 55.59 69.987503 52.412498 69.987503C 49.2425 69.987503 46.549999 68.909996 44.690002 67.875C 43.695633 67.321915 42.754906 66.677467 41.880001 65.950005C 41.821888 65.900711 41.764381 65.850708 41.7075 65.800003L 41.657501 65.754997L 41.642498 65.739998L 41.635002 65.735001L 41.635002 65.732498C 41.635002 65.732498 41.630001 65.732498 42.912498 64.362503L 41.630001 65.729996C 41.252045 65.37561 41.037579 64.880615 41.037498 64.362503L 41.037498 58.375ZM 35.470001 50.219997C 35.016785 50.419838 34.724316 50.868435 34.724316 51.36375C 34.724316 51.85907 35.016785 52.307663 35.470001 52.5075L 50.400002 59.092499C 51.694199 59.662704 53.169334 59.658161 54.459999 59.080002L 66.160004 53.842503L 66.160004 58.315002C 66.160004 59.350533 66.999466 60.190002 68.035004 60.190002C 69.070534 60.190002 69.910004 59.350533 69.910004 58.315002L 69.910004 51.989998C 69.910904 51.855625 69.897499 51.721535 69.870003 51.59C 69.977173 51.022202 69.67878 50.45546 69.150002 50.222496L 54.459999 43.645C 53.169334 43.066837 51.694199 43.062294 50.400002 43.6325L 35.470001 50.219997Z"></path></g></g></g><g id="g-root-ic_4_mbpno1jh7959-fill" data-item-order="13999996400" transform="translate(38, 96)"><g id="ic_4_mbpno1jh7959-fill" stroke="none" fill="#e0cb15"><g><path d="M 37.482498 22.34C 37.485229 19.245178 35.441261 16.521431 32.469002 15.659112C 29.496738 14.796793 26.312405 16.003695 24.658371 18.619436C 23.004337 21.235178 23.279175 24.629448 25.3325 26.945002C 25.441505 27.04285 25.541876 27.149914 25.6325 27.264999C 27.622656 29.24556 30.609032 29.834101 33.201828 28.756731C 35.794628 27.679359 37.484493 25.147728 37.485001 22.34ZM 23.782499 32.200001C 28.82633 35.654297 35.663872 34.744881 39.629463 30.0923C 43.595051 25.439724 43.409767 18.544458 39.200043 14.111559C 34.990314 9.678659 28.113802 9.137755 23.262758 12.857938C 18.411715 16.578119 17.150621 23.359615 20.34 28.575001L 16.225 32.592499C 15.259601 33.561531 15.252214 35.126499 16.208426 36.104599C 17.164637 37.082699 18.729374 37.110725 19.719999 36.1675L 23.782499 32.200001ZM 24.3575 36.7775C 21.640856 43.815323 23.367178 51.794525 28.750002 57.080002L 28.75 68.360001C 28.75 69.050354 29.309643 69.610001 30 69.610001L 49.799999 69.610001C 50.490356 69.610001 51.049999 69.050354 51.049999 68.360001L 51.049999 63.950001L 52.625 63.950001C 56.439911 63.950001 59.532501 60.85741 59.532501 57.042503L 59.532501 52.637501L 61.8675 52.637501C 62.745964 52.637142 63.567818 52.203899 64.064514 51.47934C 64.561218 50.75478 64.668945 49.831985 64.352501 49.012501C 63.952499 47.9725 63.559998 46.932499 63.172497 45.9025C 61.935001 42.610001 60.732498 39.41 59.3475 36.584999C 59.274048 36.437305 59.172089 36.305607 59.047501 36.197502C 58.641296 35.538136 58.092949 34.977829 57.442497 34.557499C 56.412502 33.862499 55.044998 33.307499 53.527496 32.875C 50.790001 32.092499 47.209999 31.5975 43.285 31.5C 42.23761 32.9547 40.950016 34.22031 39.477497 35.242496C 40.2425 35.23 40.982498 35.232502 41.6875 35.232502C 45.110001 35.232502 46.779999 35.462502 48.6875 35.724998C 49.067501 35.775002 49.459999 35.8325 49.877502 35.885002C 51.7075 36.209999 53.7775 36.610001 55.34 37.665001C 55.4575 37.7425 55.545002 37.809998 55.610001 37.864998C 55.524826 37.938705 55.434608 38.006371 55.34 38.067501C 54.772499 38.450001 53.829998 38.870003 52.494999 39.252502C 49.852501 40.0075 46.09 40.502502 41.857498 40.502502C 37.627499 40.502502 33.864998 40.0075 31.2225 39.252502C 29.887501 38.870003 28.942501 38.452499 28.375 38.067501C 28.282171 38.005878 28.192865 37.939106 28.1075 37.8675L 28.125 37.852501C 26.830656 37.653637 25.566532 37.292458 24.362499 36.7775Z"></path></g></g></g><g id="g-root-ic_conv_dhblldjhbhu0-fill" data-item-order="13999996400" transform="translate(38, 192)"><g id="ic_conv_dhblldjhbhu0-fill" stroke="none" fill="#92bd39"><g><path d="M 20.575001 58.75C 24.717136 58.75 28.075001 55.392136 28.075001 51.25C 28.075001 47.107864 24.717136 43.750004 20.575001 43.750004C 16.432865 43.750004 13.075001 47.107864 13.075 51.25C 13.075 55.392136 16.432865 58.75 20.575001 58.75ZM 20.575001 62.5C 15.819044 62.513367 11.585306 65.516022 10 70L 31.125 70C 29.549015 65.519928 25.32416 62.516472 20.575001 62.5ZM 59.425003 58.75C 63.567139 58.75 66.925003 55.392136 66.925003 51.25C 66.925003 47.107864 63.567139 43.750004 59.425003 43.750004C 55.282864 43.750004 51.925003 47.107864 51.925003 51.25C 51.925003 55.392136 55.282864 58.75 59.425003 58.75ZM 59.425003 62.5C 54.675835 62.516472 50.450981 65.519928 48.875 69.999992L 70 70C 68.414696 65.516022 64.180954 62.513367 59.425003 62.5ZM 63.875 10L 26.375 10C 24.23086 10.013744 22.499956 11.755815 22.5 13.9L 22.5 35.950001C 22.5 38.103909 24.24609 39.849998 26.4 39.849998L 37.5 39.849998L 37.5 48.525002C 37.49691 49.036144 37.80534 49.497665 38.278786 49.690346C 38.752228 49.883026 39.295284 49.768036 39.649998 49.400002L 49.200001 39.849998L 63.974998 39.849998C 66.128914 39.849998 67.875 38.103909 67.875 35.950001L 67.875 13.9C 67.875351 12.848094 67.45076 11.840652 66.697594 11.106318C 65.944427 10.371982 64.926559 9.973028 63.875 10ZM 59.400002 25.475C 57.674999 27.75 52.924999 32.974998 46.075001 32.974998C 39.224998 32.974998 34.5 27.75 32.75 25.475C 32.287098 24.879364 32.287098 24.045637 32.75 23.450001C 34.474998 21.174999 39.200001 15.950001 46.049999 15.950001C 52.900002 15.950001 57.649998 21.200001 59.375 23.450001C 59.828342 24.045849 59.838493 24.868141 59.400002 25.475ZM 46.075001 20.275C 48.394592 20.275 50.274998 22.155403 50.274998 24.475C 50.274998 26.794596 48.394592 28.674999 46.074997 28.674999C 43.755402 28.674999 41.874996 26.794596 41.874996 24.475C 41.874996 22.155403 43.755402 20.275 46.074997 20.275"></path></g></g></g><g id="g-root-ic_2_v6q6ttjhcumb-fill" data-item-order="13999996400" transform="translate(38, 288)"><g id="ic_2_v6q6ttjhcumb-fill" stroke="none" fill="#3cc583"><g><path d="M 63.75 10L 18.75 10C 15.298221 10 12.5 12.798221 12.5 16.25L 12.5 42.299999C 13.940519 41.000916 15.5774 39.937786 17.35 39.150002C 14.592874 35.257935 15.197486 29.916155 18.754772 26.738789C 22.312056 23.561424 27.687946 23.561424 31.24523 26.738789C 34.802517 29.916155 35.407127 35.257935 32.650002 39.150002C 38.988926 41.973789 43.242893 48.075634 43.699997 55L 63.699997 55C 65.366249 55.013332 66.968834 54.360741 68.151772 53.187187C 69.334717 52.013641 70.000053 50.416302 70 48.75L 70 16.25C 70 12.798221 67.201782 10 63.75 10ZM 61.875 42.5C 61.875 43.535534 61.035538 44.375 60 44.375C 58.964466 44.375 58.125 43.535534 58.125 42.5L 58.125 38.125L 47.674999 38.125L 47.674999 42.5C 47.675003 43.535534 46.835533 44.375 45.800003 44.375C 44.764465 44.375 43.925003 43.535534 43.925003 42.5L 43.924999 29.199999C 43.926517 24.24432 47.944317 20.227753 52.899994 20.227753C 57.855679 20.227753 61.873474 24.24432 61.874996 29.199999ZM 52.875 24C 50.00312 24 47.674995 26.328117 47.674995 29.199999L 47.674999 34.375L 58.125 34.375L 58.125 29.174999C 58.097511 26.299084 55.751007 23.986107 52.875 24ZM 26.875 41.375L 26.875 39.049999C 29.457901 38.136806 31.007261 35.495628 30.543993 32.795502C 30.080723 30.095375 27.73958 28.121698 25 28.121698C 22.260422 28.121698 19.919277 30.095375 19.456009 32.795502C 18.992741 35.495628 20.542099 38.136806 23.125 39.049999L 23.125 41.375C 15.627777 42.319561 10.003703 48.693512 10 56.25L 10 65C 10 67.761429 12.238576 70 15 70L 35 70C 37.761425 70 40 67.761429 40 65L 40 56.25C 39.996296 48.693512 34.372223 42.319561 26.875 41.375ZM 30.625 49.375C 32.005714 49.375 33.125 50.494289 33.125 51.875C 33.125 53.255711 32.005714 54.375 30.625 54.375C 29.244287 54.375 28.125 53.255711 28.125 51.875C 28.125 50.494289 29.244287 49.375 30.625 49.375ZM 19.375 49.375C 20.755713 49.375 21.875 50.494289 21.875 51.875C 21.875 53.255711 20.755713 54.375 19.375 54.375C 17.994287 54.375 16.875 53.255711 16.875 51.875C 16.875 50.494289 17.994287 49.375 19.375 49.375ZM 35 65L 15 65L 15 60L 35 60Z"></path></g></g></g><g id="g-root-tx_3_qss3ypjhbg93-fill" data-item-order="14000000000" transform="translate(554, 240)"><g id="tx_3_qss3ypjhbg93-fill" stroke="none" fill="#ffffff"><g><text style="font: bold 30px Roboto, sans-serif; white-space: pre;" font-weight="bold" font-size="30px" font-family="Roboto, sans-serif"><tspan x="13.39" y="46" dominant-baseline="ideographic">3</tspan></text></g></g></g><g id="g-root-tx_1_1cxdq8hjhe8su-fill" data-item-order="14000000000" transform="translate(482, 444)"><g id="tx_1_1cxdq8hjhe8su-fill" stroke="none" fill="#ffffff"><g><text style="font: bold 30px Roboto, sans-serif; white-space: pre;" font-weight="bold" font-size="30px" font-family="Roboto, sans-serif"><tspan x="13.39" y="46" dominant-baseline="ideographic">1</tspan></text></g></g></g><g id="g-root-tx_2_18hk841jhcw76-fill" data-item-order="14000000000" transform="translate(518, 336)"><g id="tx_2_18hk841jhcw76-fill" stroke="none" fill="#ffffff"><g><text style="font: bold 30px Roboto, sans-serif; white-space: pre;" font-weight="bold" font-size="30px" font-family="Roboto, sans-serif"><tspan x="13.39" y="46" dominant-baseline="ideographic">2</tspan></text></g></g></g><g id="g-root-tx_enseigne_1luw5qpjhbfgu-fill" data-item-order="14000000000" transform="translate(134, 204)"><g id="tx_enseigne_1luw5qpjhbfgu-fill" stroke="none" fill="#ffffff"><g><text style="font: 15px Roboto, sans-serif; white-space: pre;" font-size="15px" font-family="Roboto, sans-serif"><tspan x="12" y="28" dominant-baseline="ideographic">Teach the ethical and responsible use of </tspan><tspan x="12" y="46" dominant-baseline="ideographic">technology.</tspan></text></g></g></g><g id="g-root-tx_4_18i6p75jh79xg-fill" data-item-order="14000000000" transform="translate(590, 144)"><g id="tx_4_18i6p75jh79xg-fill" stroke="none" fill="#ffffff"><g><text style="font: bold 30px Roboto, sans-serif; white-space: pre;" font-weight="bold" font-size="30px" font-family="Roboto, sans-serif"><tspan x="13.39" y="46" dominant-baseline="ideographic">4</tspan></text></g></g></g><g id="g-root-tx_renforce_1q8u8ltjh7aq3-fill" data-item-order="14000000000" transform="translate(134, 108)"><g id="tx_renforce_1q8u8ltjh7aq3-fill" stroke="none" fill="#ffffff"><g><text style="font: 15px Roboto, sans-serif; white-space: pre;" font-size="15px" font-family="Roboto, sans-serif"><tspan x="12" y="28" dominant-baseline="ideographic">Strengthen critical thinking skills to engage </tspan><tspan x="12" y="46" dominant-baseline="ideographic">thoughtfully with AI,</tspan></text></g></g></g><g id="g-root-tx_quiperle_18mk0sxjhcvlw-fill" data-item-order="14000000000" transform="translate(134, 396)"><g id="tx_quiperle_18mk0sxjhcvlw-fill" stroke="none" fill="#ffffff"><g><text style="font: 15px Roboto, sans-serif; white-space: pre;" font-size="15px" font-family="Roboto, sans-serif"><tspan x="12" y="31" dominant-baseline="ideographic">Equip teachers with digital skills to </tspan><tspan x="12" y="49" dominant-baseline="ideographic">teach computer science.</tspan></text></g></g></g><g id="g-root-tx_atteindr_hun7ddjh77re-fill" data-item-order="14000000000" transform="translate(200, 6)"><g id="tx_atteindr_hun7ddjh77re-fill" stroke="none" fill="#484848"><g><text style="font: 20px Roboto, sans-serif; white-space: pre;" font-size="20px" font-family="Roboto, sans-serif"><tspan x="12.86" y="34" dominant-baseline="ideographic">Achieving AI mastery through education</tspan></text></g></g></g><g id="g-root-tx_explique_1lt0qhdjhcum9-fill" data-item-order="14000000000" transform="translate(134, 300)"><g id="tx_explique_1lt0qhdjhcum9-fill" stroke="none" fill="#ffffff"><g><text style="font: 15px Roboto, sans-serif; white-space: pre;" font-size="15px" font-family="Roboto, sans-serif"><tspan x="12" y="28" dominant-baseline="ideographic">Explain to the students the history and inner </tspan><tspan x="12" y="46" dominant-baseline="ideographic">workings of AI.</tspan></text></g></g></g><g id="g-root-cp_4_lines-4_1cuvtw1jh77ye-stroke" data-item-order="13999613514" transform="translate(686, 126)"><g id="cp_4_lines-4_1cuvtw1jh77ye-stroke" fill="none" stroke-linecap="round" stroke-linejoin="round" stroke-miterlimit="4" stroke="#ffffff" stroke-width="2"><g><path d="M 46 322L 46 10M 10 346L 46 322"></path></g></g></g><g id="g-root-cp_4_lines-4_1_18f2brljh78qo-stroke" data-item-order="13999613528" transform="translate(122, 78)"></g><g id="g-root-cp_4_lines-4_2_v3lte9jh7abl-stroke" data-item-order="13999613536" transform="translate(530, 78)"><g id="cp_4_lines-4_2_v3lte9jh7abl-stroke" fill="none" stroke-linecap="round" stroke-linejoin="round" stroke-miterlimit="4" stroke="#ffffff" stroke-width="2"><g><path d="M 202 58L 46 10L 10 34L 166 82L 202 58ZM 10.000031 106L 10.000031 34M 166.000031 154L 166.000031 82"></path></g></g></g><g id="g-root-cp_3_lines-3_m8la8hjh77yj-stroke" data-item-order="13999613564" transform="translate(650, 222)"><g id="cp_3_lines-3_m8la8hjh77yj-stroke" fill="none" stroke-linecap="round" stroke-linejoin="round" stroke-miterlimit="4" stroke="#ffffff" stroke-width="2"><g><path d="M 46 250L 46 10M 10 274L 46 250"></path></g></g></g><g id="g-root-cp_3_lines-3_1_hsrs41jh78qt-stroke" data-item-order="13999613578" transform="translate(122, 174)"></g><g id="g-root-cp_3_lines-3_2_4hb9qpjh7abq-stroke" data-item-order="13999613586" transform="translate(494, 174)"><g id="cp_3_lines-3_2_4hb9qpjh7abq-stroke" fill="none" stroke-linecap="round" stroke-linejoin="round" stroke-miterlimit="4" stroke="#ffffff" stroke-width="2"><g><path d="M 202 58L 46 10L 10 34L 166 82L 202 58ZM 10.000031 106L 10.000031 34M 166 154L 166 82"></path></g></g></g><g id="g-root-cp_2_lines-2_248pdjh77y8-stroke" data-item-order="13999613614" transform="translate(614, 318)"><g id="cp_2_lines-2_248pdjh77y8-stroke" fill="none" stroke-linecap="round" stroke-linejoin="round" stroke-miterlimit="4" stroke="#ffffff" stroke-width="2"><g><path d="M 46 178L 46 10M 10 202L 46 178"></path></g></g></g><g id="g-root-cp_2_lines-2_1_1q7lafljh78ju-stroke" data-item-order="13999613628" transform="translate(122, 270)"></g><g id="g-root-cp_2_lines-2_2_1cw4s29jh7a4r-stroke" data-item-order="13999613636" transform="translate(458, 270)"><g id="cp_2_lines-2_2_1cw4s29jh7a4r-stroke" fill="none" stroke-linecap="round" stroke-linejoin="round" stroke-miterlimit="4" stroke="#ffffff" stroke-width="2"><g><path d="M 202 58L 46 10L 10 34L 166 82L 202 58ZM 10.000031 106L 10.000031 34M 166.000031 154L 166.000031 82"></path></g></g></g><g id="g-root-cp_1_lines-1_18gxr0xjh77r9-stroke" data-item-order="13999613664" transform="translate(122, 366)"></g><g id="g-root-cp_1_lines-1_zlaqs1jh78jy-stroke" data-item-order="13999613672" transform="translate(578, 414)"><g id="cp_1_lines-1_zlaqs1jh78jy-stroke" fill="none" stroke-linecap="round" stroke-linejoin="round" stroke-miterlimit="4" stroke="#ffffff" stroke-width="2"><g><path d="M 46 106L 46 10M 10 130L 46 106"></path></g></g></g><g id="g-root-cp_1_lines-1_1_qpnqj5jh7a4g-stroke" data-item-order="13999613686" transform="translate(422, 366)"><g id="cp_1_lines-1_1_qpnqj5jh7a4g-stroke" fill="none" stroke-linecap="round" stroke-linejoin="round" stroke-miterlimit="4" stroke="#ffffff" stroke-width="2"><g><path d="M 202 58L 46 10L 10 34L 166 82L 202 58ZM 10 130L 10 34M 166 82L 166 178M 10 130L 166 178"></path></g></g></g><g id="g-root-ic_trai_94mgwhjhcwel-stroke" data-item-order="13999996400" transform="translate(38, 396)"></g><g id="g-root-ic_4_mbpno1jh7959-stroke" data-item-order="13999996400" transform="translate(38, 96)"></g><g id="g-root-ic_conv_dhblldjhbhu0-stroke" data-item-order="13999996400" transform="translate(38, 192)"></g><g id="g-root-ic_2_v6q6ttjhcumb-stroke" data-item-order="13999996400" transform="translate(38, 288)"></g><g id="g-root-tx_3_qss3ypjhbg93-stroke" data-item-order="14000000000" transform="translate(554, 240)"></g><g id="g-root-tx_1_1cxdq8hjhe8su-stroke" data-item-order="14000000000" transform="translate(482, 444)"></g><g id="g-root-tx_2_18hk841jhcw76-stroke" data-item-order="14000000000" transform="translate(518, 336)"></g><g id="g-root-tx_enseigne_1luw5qpjhbfgu-stroke" data-item-order="14000000000" transform="translate(134, 204)"></g><g id="g-root-tx_4_18i6p75jh79xg-stroke" data-item-order="14000000000" transform="translate(590, 144)"></g><g id="g-root-tx_renforce_1q8u8ltjh7aq3-stroke" data-item-order="14000000000" transform="translate(134, 108)"></g><g id="g-root-tx_quiperle_18mk0sxjhcvlw-stroke" data-item-order="14000000000" transform="translate(134, 396)"></g><g id="g-root-tx_atteindr_hun7ddjh77re-stroke" data-item-order="14000000000" transform="translate(200, 6)"></g><g id="g-root-tx_explique_1lt0qhdjhcum9-stroke" data-item-order="14000000000" transform="translate(134, 300)"></g></g></g></svg>