<?xml version="1.0" encoding="utf-8" standalone="yes"?>
<!DOCTYPE svg PUBLIC "-//W3C//DTD SVG 1.1//EN" "http://www.w3.org/Graphics/SVG/1.1/DTD/svg11.dtd">
<svg width="721" height="619" viewBox="0 0 721 619" style="fill:none;stroke:none;fill-rule:evenodd;clip-rule:evenodd;stroke-linecap:round;stroke-linejoin:round;stroke-miterlimit:1.5;" version="1.1" xmlns="http://www.w3.org/2000/svg" xmlns:xlink="http://www.w3.org/1999/xlink"><style class="text-font-style fontImports" data-font-family="Roboto">@import url('https://fonts.googleapis.com/css2?family=Roboto:wght@400;700&amp;display=block');</style><g id="items" style="isolation: isolate"><g id="blend" style="mix-blend-mode: normal"><g id="g-root-sy_-1_cu_v4vqc1idiolr-fill" data-item-order="-298692" transform="translate(405, 219.435791015625)"><g id="sy_-1_cu_v4vqc1idiolr-fill" stroke="none" fill="#1ac6ff"><g><path d="M 19.636993 15.377807C 24.02002 15.377807 28.746002 13.978897 31.757019 11.192505C 32.153992 10.814102 32.531982 10.424301 32.890015 10C 33.238007 10.424301 33.61499 10.814102 34.02301 11.192505C 37.033997 13.990295 41.436005 15.377807 45.807983 15.377807C 50.181 15.377807 54.583008 13.978897 57.593994 11.192505C 57.990997 10.814102 58.369019 10.424301 58.71698 10C 59.065002 10.424301 59.442017 10.814102 59.850006 11.192505C 62.860992 13.990295 67.252991 15.377807 71.63501 15.377807C 76.018005 15.377807 80.410004 13.978897 83.421021 11.192505C 83.817993 10.814102 84.195984 10.424301 84.544006 10C 84.891998 10.424301 85.268982 10.814102 85.677002 11.192505C 88.687988 13.990295 93.089996 15.377807 97.462006 15.377807C 101.835022 15.377807 106.237 13.978897 109.247986 11.192505C 109.64502 10.814102 110.02301 10.424301 110.380981 10C 110.729004 10.424301 111.106018 10.814102 111.503998 11.192505C 114.515015 13.990295 118.916992 15.377807 123.289001 15.377807C 127.661987 15.377807 132.063965 13.978897 135.075012 11.192505C 135.471985 10.814102 135.849976 10.424301 136.208008 10C 136.554993 10.424301 136.932983 10.814102 137.330994 11.192505C 140.34198 13.990295 144.744019 15.377807 149.115967 15.377807C 153.489014 15.377807 157.890991 13.978897 160.901978 11.192505C 161.299011 10.814102 161.677002 10.424301 162.034668 10C 162.382507 10.424301 162.760132 10.814102 163.157593 11.192505C 166.168579 13.990295 170.570801 15.377807 174.943176 15.377807C 179.315613 15.377807 183.717773 13.978897 186.728821 11.192505C 187.126282 10.814102 187.503906 10.424301 187.861572 10C 188.209412 10.424301 188.587097 10.814102 188.984619 11.192505C 191.995605 13.990295 196.397827 15.377807 200.770203 15.377807C 205.142578 15.377807 209.5448 13.978897 212.555786 11.192505C 212.953308 10.814102 213.330872 10.424301 213.688721 10C 214.036499 10.424301 214.414124 10.814102 214.821472 11.192505C 217.83252 13.990295 222.23468 15.377807 226.607117 15.377807C 230.979492 15.377807 235.381775 13.978897 238.392822 11.192505C 238.790283 10.814102 239.167908 10.424301 239.525574 10C 239.873413 10.424301 240.250977 10.814102 240.658386 11.192505C 243.669373 13.990295 248.349121 15.3862 252.40509 15.3862L 262 28.564392L 262 60.564514L 244 96.564514L 244 144.565002L 226 180.563995L 226 216.563995L 178.287415 306.490967L 166.287415 306.490967L 136 350.565002L 118 320.563965L 106 320.563965L 70 260.563995L 70 228.563995L 46 192.565002L 46 156.563995L 34 137.565002L 34 102.564697L 10 60.564697L 10 28.064392L 19.02002 15.377807L 19.636993 15.377807Z"></path></g></g></g><g id="g-root-sy_-1_cu_1_v4vqc1idiolo-fill" data-item-order="-298690" transform="translate(414.048583984375, 116.0001220703125)"><g id="sy_-1_cu_1_v4vqc1idiolo-fill" stroke="none" fill="#a3a3a3"><g><path d="M 10 118.821991C 14.765991 118.963989 19.752014 117.416 22.763001 114.630005C 23.159973 114.251999 23.537994 113.862 23.895996 113.438004C 24.242981 113.862 24.621002 114.251999 25.028015 114.630005C 28.039001 117.428009 32.442017 118.815002 36.813995 118.815002C 41.185974 118.815002 45.588989 117.416 48.599976 114.630005C 48.997009 114.251999 49.375 113.862 49.722992 113.438004C 50.070007 113.862 50.447998 114.251999 50.85498 114.630005C 53.865997 117.428009 58.259003 118.815002 62.640991 118.815002C 67.02301 118.815002 71.416016 117.416 74.427002 114.630005C 74.823975 114.251999 75.201996 113.862 75.549988 113.438004C 75.897003 113.862 76.274994 114.251999 76.682007 114.630005C 79.692993 117.428009 84.096008 118.815002 88.468018 118.815002C 92.839996 118.815002 97.242981 117.416 100.253998 114.630005C 100.651001 114.251999 101.028992 113.862 101.385986 113.438004C 101.734009 113.862 102.112 114.251999 102.509003 114.630005C 105.519989 117.428009 109.922974 118.815002 114.294983 118.815002C 118.666992 118.815002 123.070007 117.416 126.080994 114.630005C 126.477966 114.251999 126.856018 113.862 127.213013 113.438004C 127.560974 113.862 127.939026 114.251999 128.335999 114.630005C 131.346985 117.428009 135.75 118.815002 140.122009 118.815002C 144.494385 118.815002 148.896606 117.416 151.907593 114.630005C 152.305115 114.251999 152.6828 113.862 153.040466 113.438004C 153.388306 113.862 153.765869 114.251999 154.163391 114.630005C 157.174377 117.428009 161.576599 118.815002 165.948975 118.815002C 170.321411 118.815002 174.723572 117.416 177.734619 114.630005C 178.13208 114.251999 178.509827 113.862 178.867493 113.438004C 179.215271 113.862 179.592896 114.251999 179.990418 114.630005C 183.001404 117.428009 187.403626 118.815002 191.776001 118.815002C 196.148376 118.815002 200.55072 117.416 203.561584 114.630005C 203.959106 114.251999 204.336792 113.862 204.694519 113.438004C 205.042297 113.862 205.419922 114.251999 205.827393 114.630005C 208.838318 117.428009 213.240601 118.815002 217.612976 118.815002C 221.985413 118.815002 226.387573 117.416 229.398621 114.630005C 229.796082 114.251999 230.173706 113.862 230.531372 113.438004C 230.879211 113.862 231.256897 114.251999 231.664307 114.630005C 234.528992 117.291 239.125183 118.820007 243.382996 118.820007L 209.000183 74L 197.000183 87L 160.000183 38L 149.000183 38L 127 10.000015L 87 61L 79 52L 43 100L 32 100L 28 95L 10 118.821991Z"></path></g></g></g><g id="g-root-sy_-1_cu_2_v4vqc1idiolq-fill" data-item-order="-298687" transform="translate(14, 219.435791015625)"></g><g id="g-root-sy_-1_line_v4vqc1idiolp-fill" data-item-order="-298683" transform="translate(362, 139.9962158203125)"></g><g id="g-root-sy_1_line_zkp8ghidiole-fill" data-item-order="-298677" transform="translate(362, 307.9962158203125)"></g><g id="g-root-sy_2_line_qp287lidipe5-fill" data-item-order="-298671" transform="translate(362, 368.0003662109375)"></g><g id="g-root-sy_3_line_v4vqc1idipds-fill" data-item-order="-298665" transform="translate(362, 427.996337890625)"></g><g id="g-root-ic_tech_v4vqc1idioln-fill" data-item-order="-2304" transform="translate(302, 116.0001220703125)"><g id="ic_tech_v4vqc1idioln-fill" stroke="none" fill="#1eabda"><g><path d="M 49.380001 16.66C 44.779812 13.756715 39.439445 12.242802 34 12.3C 28.560556 12.242802 23.220192 13.756715 18.620001 16.66C 13.386475 19.853275 10.138144 25.490749 10 31.620001C 10.132384 37.466087 13.121369 42.876148 18 46.099998L 14.66 54.34C 14.540863 54.64872 14.582165 54.996387 14.770315 55.268604C 14.958466 55.540821 15.269096 55.702335 15.6 55.700001C 15.731853 55.728085 15.868145 55.728085 16 55.699997L 28.139999 50.400002C 30.071817 50.767452 32.033554 50.954922 34 50.960003C 39.443447 51.026161 44.788128 49.504074 49.380001 46.580002C 54.613525 43.386726 57.861858 37.749252 58 31.620001C 57.861858 25.490749 54.613525 19.853275 49.380001 16.66ZM 34 39.760002C 26.940001 39.760002 21.200001 36.099998 21.200001 31.620001C 21.200001 27.139999 26.940001 23.5 34 23.5C 41.059998 23.5 46.799999 27.139999 46.799999 31.620001C 46.799999 36.099998 41.059998 39.760002 34 39.760002Z"></path></g></g></g><g id="g-root-ic_uneq_zkp8ghidiold-fill" data-item-order="-2304" transform="translate(302, 284.0001220703125)"><g id="ic_uneq_zkp8ghidiold-fill" stroke="none" fill="#de8431"><g><path d="M 58 30.719999C 57.999996 30.449705 57.938442 30.182961 57.82 29.939999L 51.66 16C 51.609989 15.878269 51.609989 15.741731 51.66 15.62C 51.730953 15.492474 51.856071 15.404154 51.999996 15.379999L 53.32 14.860001C 54.347252 14.429218 54.830784 13.24725 54.400002 12.22C 53.969219 11.192751 52.787254 10.709218 51.760002 11.14L 36.68 17.139999C 36.536652 17.218256 36.363346 17.218256 36.220001 17.139999C 36.046452 17.028618 35.959084 16.822117 36 16.619999L 36 14C 36 12.895431 35.104568 12 34 12C 32.895432 12 32 12.895431 32 14L 32 18.6C 31.997347 18.804316 31.87064 18.986458 31.68 19.060001L 13.68 26.139999C 12.769165 26.497074 12.25033 27.460653 12.453625 28.417624C 12.656919 29.374594 13.522666 30.044041 14.5 30C 14.673492 29.99839 14.837193 30.08024 14.940001 30.220001C 15.009314 30.372492 15.009314 30.547506 14.94 30.699999L 10.18 41.68C 10.063484 41.923637 10.00203 42.189941 10 42.459999C 10 47.430565 14.029438 51.459999 19 51.459999C 23.970562 51.459999 28 47.430565 28 42.459999C 27.984947 42.176601 27.91712 41.898502 27.799999 41.639999L 21.68 27.879999C 21.618996 27.753645 21.618996 27.606356 21.68 27.48C 21.751638 27.352924 21.86454 27.254135 22 27.199999L 31.360001 23.52C 31.503347 23.441742 31.676651 23.441742 31.819998 23.52C 31.960176 23.637253 32.028515 23.819485 31.999998 24L 32 52.5C 32 52.776142 31.776142 53 31.5 53L 25.16 53C 24.055431 53 23.16 53.895432 23.16 55C 23.16 56.104568 24.055431 57 25.16 57L 42.779999 57C 43.884571 57 44.779999 56.104568 44.779999 55C 44.779999 53.895432 43.884571 53 42.779999 53L 36.5 53C 36.223858 53 36 52.776142 36 52.5L 36 22C 36.002655 21.795685 36.12936 21.613543 36.32 21.540001L 44.32 18.34C 44.508377 18.277767 44.71571 18.323841 44.860001 18.459999C 44.996922 18.612556 45.03566 18.829483 44.959999 19.02L 40.200001 30C 40.0821 30.251181 40.014175 30.52289 40 30.800001C 40 35.770561 44.029438 39.799999 49 39.799999C 53.970562 39.799999 58 35.770561 58 30.799999ZM 15.62 41C 15.452768 40.99847 15.296476 40.916603 15.2 40.779999C 15.130687 40.627506 15.130687 40.452492 15.2 40.299999L 18.58 32.720001C 18.658545 32.535622 18.839592 32.415958 19.040001 32.415958C 19.24041 32.415958 19.421455 32.535622 19.5 32.720001L 22.860001 40.299999C 22.929314 40.452492 22.929314 40.627506 22.860001 40.779999C 22.763523 40.916603 22.607231 40.99847 22.439999 41ZM 45.619999 29.24C 45.452766 29.23847 45.296474 29.156605 45.199997 29.019999C 45.130684 28.867506 45.130684 28.692492 45.199997 28.539999L 48.560001 20.959999C 48.638546 20.775623 48.819592 20.65596 49.02 20.65596C 49.220409 20.65596 49.401455 20.775623 49.48 20.959999L 52.860001 28.540001C 52.92931 28.692492 52.92931 28.867506 52.859997 29.019999C 52.763519 29.156605 52.607227 29.23847 52.439999 29.239998Z"></path></g></g></g><g id="g-root-ic_down_qp287lidipe4-fill" data-item-order="-2304" transform="translate(302, 344.0001220703125)"><g id="ic_down_qp287lidipe4-fill" stroke="none" fill="#4e88e7"><g><path d="M 18.5 18.18C 19.880711 18.18 21 19.299288 21 20.68C 21 22.060711 19.880711 23.18 18.5 23.18C 17.119289 23.18 16 22.060711 16 20.68C 15.994617 20.015324 16.256281 19.376307 16.726294 18.906294C 17.196306 18.436281 17.835323 18.174618 18.5 18.18M 10 10M 30.76 49.119999L 26.76 45.119999C 26.331026 44.691559 25.686317 44.563484 25.126152 44.795425C 24.56599 45.02737 24.200535 45.573719 24.200001 46.18L 24.200001 48.68L 20.700001 48.68C 20.423859 48.68 20.200001 48.456142 20.200001 48.18L 20.200001 42.919998C 20.200001 42.091576 19.528427 41.419998 18.700001 41.419998C 17.871572 41.419998 17.200001 42.091576 17.200001 42.920002L 17.200001 48.18C 17.200001 50.112999 18.767004 51.68 20.700001 51.68L 24.200001 51.68L 24.200001 54.18C 24.202015 54.793625 24.5728 55.345856 25.139999 55.579998C 25.317696 55.651863 25.508415 55.685921 25.700001 55.68C 26.099504 55.689014 26.484318 55.529282 26.76 55.239998L 30.76 51.240002C 31.045897 50.961426 31.20714 50.579178 31.20714 50.18C 31.20714 49.780827 31.045897 49.398579 30.76 49.120003ZM 49 39.34C 55 39.34 57.799999 37.700001 57.799999 37.200001C 57.799999 36.700001 55.060001 35.080002 49 35.080002C 42.939999 35.080002 40.200001 36.700001 40.200001 37.200001C 40.200001 37.700001 42.939999 39.34 49 39.34ZM 49 45.400002C 52.062946 45.53101 55.121578 45.055222 58 44L 58 39.620003C 55.173527 40.882084 52.092682 41.470871 49 41.34C 45.907318 41.470871 42.826473 40.882084 40 39.620003L 40 44C 42.878422 45.055222 45.937054 45.53101 49 45.399998ZM 49 53.639999C 45.949207 53.699963 42.909126 53.260841 40 52.34L 40 55.119999C 40 56.700001 44 58 49 58C 54 58 58 56.700001 58 55.119999L 58 52.34C 55.090878 53.260841 52.050797 53.699963 49 53.640003ZM 58 50.16L 58 46.16C 55.090878 47.080841 52.050797 47.519962 49 47.460003C 45.949207 47.519962 42.909126 47.080841 40 46.16L 40 50.16C 42.869694 51.254478 45.930939 51.757885 49 51.639999C 52.069061 51.757885 55.130302 51.254478 58 50.16ZM 33.52 16.780001L 28.1 11.36C 27.238895 10.489002 26.0648 9.999196 24.84 10L 14.6 10C 12.05949 10 10 12.05949 10 14.6L 10 34.18C 10 36.720509 12.05949 38.779999 14.6 38.779999L 30.26 38.779999C 32.803764 38.780022 34.868988 36.72374 34.879997 34.18L 34.879997 20C 34.872368 18.788628 34.383041 17.630077 33.519997 16.779999ZM 14.6 14L 24.84 14C 24.998732 14 25.150528 14.065056 25.259998 14.18L 30.700001 19.6C 30.808086 19.722057 30.871548 19.877184 30.879999 20.040001L 30.879999 28L 28 24.779999C 27.667673 24.41223 27.195673 24.201645 26.699999 24.200001C 26.202124 24.191116 25.725962 24.403559 25.4 24.779999L 21.18 29.6L 23.880001 31.879999C 24.30526 32.233459 24.363462 32.864738 24.01 33.290001C 23.656538 33.71526 23.025259 33.77346 22.599998 33.419998L 16.700001 28.620001C 16.004309 28.067608 15.004216 28.127958 14.38 28.76L 14 29.120001L 14 14.6C 14.010387 14.273029 14.273029 14.010387 14.6 14Z"></path></g></g></g><g id="g-root-ic_stre_qp287lidipe7-fill" data-item-order="-2304" transform="translate(302, 404.0001220703125)"><g id="ic_stre_qp287lidipe7-fill" stroke="none" fill="#e55753"><g><path d="M 34 24C 28.477154 24 24 28.477152 24 34C 24 39.52285 28.477154 44 34 44C 39.52285 44 44 39.52285 44 34C 44 28.477152 39.52285 24 34 24ZM 38.34 35.059998L 32.720001 37.879997C 32.359016 38.0793 31.920984 38.0793 31.559999 37.880001C 31.218632 37.660553 31.00873 37.285725 31 36.879997L 31 31.18C 31.00873 30.774275 31.218632 30.399448 31.559999 30.18C 31.920984 29.980698 32.359016 29.980698 32.720001 30.18L 38.34 33C 38.744843 33.198013 39.001541 33.609329 39.001541 34.059998C 39.001541 34.510674 38.744843 34.921989 38.34 35.119999ZM 24.799999 24.799999C 25.397181 24.003759 25.317997 22.88957 24.614214 22.185787C 23.910431 21.482002 22.796242 21.402821 22 22C 15.410667 28.643147 15.410667 39.356853 22 46C 22.377438 46.374374 22.888393 46.583073 23.42 46.580002C 23.937737 46.572594 24.432423 46.364681 24.799999 46C 25.575447 45.219925 25.575447 43.960075 24.799999 43.18C 19.748325 38.094658 19.748325 29.885342 24.799999 24.799999ZM 46 22C 45.53046 21.373945 44.738914 21.079258 43.974281 21.245834C 43.209648 21.412411 42.612411 22.009647 42.445835 22.774281C 42.279259 23.538916 42.573944 24.33046 43.200001 24.799999C 48.264938 29.887672 48.264938 38.112328 43.200001 43.200001C 42.424553 43.980076 42.424553 45.239925 43.200001 46.02C 43.572521 46.389488 44.075321 46.59779 44.599998 46.599998C 45.127537 46.592487 45.630737 46.376827 46 46C 52.589333 39.356853 52.589333 28.643147 46 22ZM 19.560001 20.560001C 20.335447 19.779926 20.335447 18.520075 19.560001 17.74C 19.184467 17.361374 18.673275 17.148403 18.139999 17.148403C 17.606724 17.148403 17.095533 17.361374 16.719999 17.74C 7.764559 26.730371 7.764559 41.26963 16.719999 50.259998C 17.095533 50.638626 17.606724 50.851597 18.139999 50.851597C 18.673275 50.851597 19.184467 50.638626 19.560001 50.259998C 20.335447 49.479923 20.335447 48.220074 19.560001 47.439999C 12.144447 40.014332 12.144447 27.98567 19.560001 20.560001ZM 51.279999 17.74C 50.904469 17.361374 50.393276 17.148403 49.860001 17.148403C 49.326725 17.148403 48.815533 17.361374 48.439999 17.74C 47.664555 18.520075 47.664555 19.779926 48.439999 20.560001C 55.855553 27.98567 55.855553 40.014332 48.440002 47.440002C 47.664555 48.220074 47.664555 49.479923 48.439999 50.259998C 48.815533 50.638626 49.326725 50.851597 49.860001 50.851597C 50.393276 50.851597 50.904469 50.638626 51.279999 50.259998C 60.235443 41.26963 60.235443 26.730371 51.279999 17.74Z"></path></g></g></g><g id="g-root-tx_larvolut_v4vqc1idiolk-fill" data-item-order="0" transform="translate(194.37109375, 38)"><g id="tx_larvolut_v4vqc1idiolk-fill" stroke="none" fill="#484848"><g><text style="font: 30px Roboto, sans-serif; white-space: pre;" font-size="30px" font-family="Roboto, sans-serif"><tspan x="12" y="46" dominant-baseline="ideographic">The GenAI Iceberg</tspan></text></g></g></g><g id="g-root-tx_leconten_v4vqc1idiolm-fill" data-item-order="0" transform="translate(74, 116.0001220703125)"><g id="tx_leconten_v4vqc1idiolm-fill" stroke="none" fill="#32444a"><g><text style="font: 20px Roboto, sans-serif; white-space: pre;" font-size="20px" font-family="Roboto, sans-serif"><tspan x="16.35" y="34" dominant-baseline="ideographic">The impressive content </tspan><tspan x="38.99" y="58" dominant-baseline="ideographic">produced with GenAI</tspan></text></g></g></g><g id="g-root-tx_question_zkp8ghidiolc-fill" data-item-order="0" transform="translate(38, 296.0001220703125)"><g id="tx_question_zkp8ghidiolc-fill" stroke="none" fill="#4c4034"><g><text style="font: 20px Roboto, sans-serif; white-space: pre;" font-size="20px" font-family="Roboto, sans-serif"><tspan x="21.97" y="34" dominant-baseline="ideographic">Ethical and legal questions</tspan></text></g></g></g><g id="g-root-tx_origined_zkp8ghidiolf-fill" data-item-order="0" transform="translate(122, 356.0001220703125)"><g id="tx_origined_zkp8ghidiolf-fill" stroke="none" fill="#3a4455"><g><text style="font: 20px Roboto, sans-serif; white-space: pre;" font-size="20px" font-family="Roboto, sans-serif"><tspan x="22.47" y="34" dominant-baseline="ideographic">Origin of the data</tspan></text></g></g></g><g id="g-root-tx_consomma_qp287lidipe6-fill" data-item-order="0" transform="translate(62, 404.0001220703125)"><g id="tx_consomma_qp287lidipe6-fill" stroke="none" fill="#543a3a"><g><text style="font: 20px Roboto, sans-serif; white-space: pre;" font-size="20px" font-family="Roboto, sans-serif"><tspan x="20.61" y="34" dominant-baseline="ideographic">Consumption of content </tspan><tspan x="29.18" y="58" dominant-baseline="ideographic">without critical thinking</tspan></text></g></g></g><g id="g-root-sy_-1_cu_v4vqc1idiolr-stroke" data-item-order="-298692" transform="translate(405, 219.435791015625)"><g id="sy_-1_cu_v4vqc1idiolr-stroke" fill="none" stroke-linecap="round" stroke-linejoin="round" stroke-miterlimit="4" stroke="#ffffff" stroke-width="2"><g><path d="M 19.637299 15.377807C 24.019592 15.377807 28.745911 13.978897 31.756897 11.192505C 32.154419 10.814102 32.531982 10.424301 32.889801 10C 33.23761 10.424301 33.615204 10.814102 34.022583 11.192505C 37.0336 13.990295 41.435791 15.377807 45.808197 15.377807C 50.180603 15.377807 54.582886 13.978897 57.593903 11.192505C 57.991394 10.814102 58.369019 10.424301 58.716797 10C 59.064606 10.424301 59.4422 10.814102 59.849609 11.192505C 62.860596 13.990295 67.252899 15.377807 71.635315 15.377807C 76.017578 15.377807 80.409912 13.978897 83.420898 11.192505C 83.818298 10.814102 84.195984 10.424301 84.543793 10C 84.891602 10.424301 85.269196 10.814102 85.676605 11.192505C 88.687622 13.990295 93.089783 15.377807 97.462219 15.377807C 101.834595 15.377807 106.236816 13.978897 109.247803 11.192505C 109.645294 10.814102 110.022888 10.424301 110.380707 10C 110.728516 10.424301 111.106079 10.814102 111.503601 11.192505C 114.514587 13.990295 118.916809 15.377807 123.289185 15.377807C 127.661621 15.377807 132.063782 13.978897 135.074829 11.192505C 135.47229 10.814102 135.849915 10.424301 136.207703 10C 136.555481 10.424301 136.933105 10.814102 137.330566 11.192505C 140.341614 13.990295 144.743774 15.377807 149.116211 15.377807C 153.488586 15.377807 157.890808 13.978897 160.901794 11.192505C 161.299316 10.814102 161.67688 10.424301 162.034668 10C 162.382507 10.424301 162.760132 10.814102 163.157593 11.192505C 166.168579 13.990295 170.570801 15.377807 174.943176 15.377807C 179.315613 15.377807 183.717773 13.978897 186.728821 11.192505C 187.126282 10.814102 187.503906 10.424301 187.861572 10C 188.209473 10.424301 188.587097 10.814102 188.984619 11.192505C 191.995605 13.990295 196.397827 15.377807 200.770203 15.377807C 205.142578 15.377807 209.5448 13.978897 212.555786 11.192505C 212.953308 10.814102 213.330872 10.424301 213.688721 10C 214.036499 10.424301 214.414124 10.814102 214.821472 11.192505C 217.83252 13.990295 222.23468 15.377807 226.607117 15.377807C 230.979492 15.377807 235.381775 13.978897 238.392822 11.192505C 238.790283 10.814102 239.167908 10.424301 239.525574 10C 239.873413 10.424301 240.250977 10.814102 240.658386 11.192505C 243.669373 13.990295 248.349121 15.3862 252.40509 15.3862L 262 28.564392L 262 60.564514L 244 96.564514L 244 144.564697L 226 180.564392L 226 216.564514L 178.287415 306.491211L 166.287415 306.491211L 136 350.564697L 118 320.564514L 106 320.564514L 70 260.564514L 70 228.564514L 46 192.564697L 46 156.564392L 34 137.564697L 34 102.564697L 10 60.564697L 10 28.064392L 19.019714 15.377807L 19.637299 15.377807ZM 82 36.394531L 46 36.394531L 22.000183 60.39444L 10.000183 60.39444M 244 98.564453L 226 74.564453L 202 74.564453M 46 156.564453L 54 168.564453L 70.000031 168.564514M 196.00061 204.564697L 214.000549 204.564667L 226.000549 180.564575M 118 320.564331L 130 308.564453L 142 308.564453"></path></g></g></g><g id="g-root-sy_-1_cu_1_v4vqc1idiolo-stroke" data-item-order="-298690" transform="translate(414.048583984375, 116.0001220703125)"><g id="sy_-1_cu_1_v4vqc1idiolo-stroke" fill="none" stroke-linecap="round" stroke-linejoin="round" stroke-miterlimit="4" stroke="#ffffff" stroke-width="2"><g><path d="M 10.000183 118.821503C 14.765595 118.963989 19.751709 117.416397 22.762695 114.630005C 23.160217 114.251602 23.537781 113.861801 23.895508 113.4375C 24.243286 113.861801 24.621002 114.251602 25.028381 114.630005C 28.039398 117.427795 32.441589 118.815308 36.813995 118.815308C 41.186401 118.815308 45.588684 117.416397 48.599609 114.630005C 48.997101 114.251602 49.374695 113.861801 49.722473 113.4375C 50.070313 113.861801 50.447998 114.251602 50.855408 114.630005C 53.866394 117.427795 58.258698 118.815308 62.640991 118.815308C 67.023376 118.815308 71.415588 117.416397 74.426575 114.630005C 74.824097 114.251602 75.201782 113.861801 75.549591 113.4375C 75.8974 113.861801 76.274994 114.251602 76.682373 114.630005C 79.69339 117.427795 84.095581 118.815308 88.468018 118.815308C 92.840393 118.815308 97.242615 117.416397 100.253601 114.630005C 100.651093 114.251602 101.028687 113.861801 101.386475 113.4375C 101.734314 113.861801 102.111877 114.251602 102.509399 114.630005C 105.520386 117.427795 109.922607 118.815308 114.294983 118.815308C 118.667389 118.815308 123.069702 117.416397 126.080627 114.630005C 126.478088 114.251602 126.855774 113.861801 127.213501 113.4375C 127.561279 113.861801 127.938904 114.251602 128.336365 114.630005C 131.347412 117.427795 135.749573 118.815308 140.122009 118.815308C 144.494385 118.815308 148.896606 117.416397 151.907593 114.630005C 152.305115 114.251602 152.682678 113.861801 153.040466 113.4375C 153.388306 113.861801 153.765869 114.251602 154.163391 114.630005C 157.174377 117.427795 161.576599 118.815308 165.948975 118.815308C 170.321411 118.815308 174.723572 117.416397 177.734619 114.630005C 178.13208 114.251602 178.509827 113.861801 178.867493 113.4375C 179.215271 113.861801 179.592896 114.251602 179.990418 114.630005C 183.001404 117.427795 187.403626 118.815308 191.776001 118.815308C 196.148376 118.815308 200.55072 117.416397 203.561584 114.630005C 203.959106 114.251602 204.336792 113.861801 204.694519 113.4375C 205.042297 113.861801 205.419922 114.251602 205.827393 114.630005C 208.838318 117.427795 213.240601 118.815308 217.612976 118.815308C 221.985413 118.815308 226.387573 117.416397 229.398621 114.630005C 229.796082 114.251602 230.173706 113.861801 230.531372 113.4375C 230.879211 113.861801 231.256897 114.251602 231.664307 114.630005C 234.528992 117.290497 239.125183 118.820297 243.382996 118.820297L 209.000183 74L 197.000183 87L 160.000183 38L 149.000183 38L 127.000183 10L 87.000183 61L 78.999695 52L 43.000183 100L 31.999695 100L 28.000183 95L 10.000183 118.821503ZM 148.99823 38L 132.99823 38M 58.906158 100L 42.997223 100M 196.99823 87L 187.99823 96.5M 86.99823 61L 76.99823 74"></path></g></g></g><g id="g-root-sy_-1_cu_2_v4vqc1idiolq-stroke" data-item-order="-298687" transform="translate(14, 219.435791015625)"><g id="sy_-1_cu_2_v4vqc1idiolq-stroke" fill="none" stroke-linecap="round" stroke-linejoin="round" stroke-miterlimit="4" stroke="#1eabda" stroke-width="2"><g><path d="M 682.7422 10C 682.3944 10.4243 682.0167 10.8141 681.6093 11.1925C 678.5983 13.9903 674.206 15.3778 669.8237 15.3778C 665.4413 15.3778 661.0491 13.9789 658.0381 11.1925C 657.6406 10.8141 657.263 10.4243 656.9152 10C 656.5674 10.4243 656.1897 10.8141 655.7823 11.1925C 652.7713 13.9903 648.3691 15.3778 643.9967 15.3778C 639.6243 15.3778 635.222 13.9789 632.2111 11.1925C 631.8136 10.8141 631.436 10.4243 631.0782 10C 630.7304 10.4243 630.3528 10.8141 629.9553 11.1925C 626.9443 13.9903 622.5421 15.3778 618.1697 15.3778C 613.7973 15.3778 609.395 13.9789 606.384 11.1925C 605.9865 10.8141 605.609 10.4243 605.2512 10C 604.9034 10.4243 604.5258 10.8141 604.1283 11.1925C 601.1173 13.9903 596.7151 15.3778 592.3427 15.3778C 587.9702 15.3778 583.5681 13.9789 580.5571 11.1925C 580.1596 10.8141 579.7819 10.4243 579.4242 10C 579.0764 10.4243 578.6988 10.8141 578.3013 11.1925C 575.2903 13.9903 570.8881 15.3778 566.5157 15.3778C 562.1433 15.3778 557.741 13.9789 554.73 11.1925C 554.3326 10.8141 553.955 10.4243 553.5972 10C 553.2494 10.4243 552.8718 10.8141 552.4743 11.1925C 549.4633 13.9903 545.0611 15.3778 540.6887 15.3778C 536.3163 15.3778 531.9141 13.9789 528.9031 11.1925C 528.5056 10.8141 528.1279 10.4243 527.7702 10C 527.4224 10.4243 527.0448 10.8141 526.6373 11.1925C 523.6263 13.9903 519.2241 15.3778 514.8517 15.3778C 510.4793 15.3778 506.0771 13.9789 503.0661 11.1925C 502.6686 10.8141 502.291 10.4243 501.9333 10C 501.5855 10.4243 501.2078 10.8141 500.8004 11.1925C 497.7894 13.9903 493.0033 15.3862 488.6309 15.3862C 484.2486 15.3862 479.7255 13.9789 476.7145 11.1925C 476.317 10.8141 475.9395 10.4243 475.5817 10C 475.2339 10.4243 474.8563 10.8141 474.4489 11.1925C 471.4379 13.9903 467.0356 15.3778 462.6632 15.3778C 458.2908 15.3778 453.8886 13.9789 450.8776 11.1925C 450.4801 10.8141 450.1025 10.4243 449.7547 10C 449.4069 10.4243 449.0293 10.8141 448.6219 11.1925C 445.6109 13.9903 441.2186 15.3778 436.8362 15.3778C 432.4539 15.3778 428.0616 13.9789 425.0506 11.1925C 424.6531 10.8141 424.2755 10.4243 423.9277 10C 423.5799 10.4243 423.2023 10.8141 422.7948 11.1925C 419.7838 13.9903 415.3816 15.3778 411.0092 15.3778C 406.6368 15.3778 402.2346 13.9789 399.2236 11.1925C 398.8261 10.8141 398.4485 10.4243 398.0908 10C 397.743 10.4243 397.3653 10.8141 396.9678 11.1925C 393.9568 13.9903 389.5547 15.3778 385.1823 15.3778C 380.8098 15.3778 376.4076 13.9789 373.3966 11.1925C 372.9991 10.8141 372.6215 10.4243 372.2638 10C 371.916 10.4243 371.5384 10.8141 371.1409 11.1925C 368.1299 13.9903 363.7276 15.3778 359.3552 15.3778C 354.9828 15.3778 350.5806 13.9789 347.5696 11.1925C 347.1721 10.8141 346.7945 10.4243 346.4368 10C 346.089 10.4243 345.7113 10.8141 345.3138 11.1925C 342.3028 13.9903 337.9006 15.3778 333.5282 15.3778C 329.1558 15.3778 324.7536 13.9789 321.7426 11.1925C 321.3451 10.8141 320.9675 10.4243 320.6097 10C 320.2619 10.4243 319.8843 10.8141 319.4868 11.1925C 316.4758 13.9903 312.0736 15.3778 307.7012 15.3778C 303.3288 15.3778 298.9266 13.9789 295.9156 11.1925C 295.5181 10.8141 295.1405 10.4243 294.7827 10C 294.4349 10.4243 294.0573 10.8141 293.6499 11.1925C 290.6389 13.9903 286.2367 15.3778 281.8643 15.3778C 277.4919 15.3778 273.0896 13.9789 270.0786 11.1925C 269.6812 10.8141 269.3035 10.4243 268.9458 10C 268.598 10.4243 268.2204 10.8141 267.813 11.1925C 264.802 13.9903 260.0157 15.3862 255.6433 15.3862C 251.2609 15.3862 246.7376 13.9789 243.7266 11.1925C 243.3291 10.8141 242.9515 10.4243 242.5937 10C 242.2459 10.4243 241.8683 10.8141 241.4609 11.1925C 238.4499 13.9903 234.0477 15.3778 229.6752 15.3778C 225.3028 15.3778 220.9006 13.9789 217.8896 11.1925C 217.4921 10.8141 217.1145 10.4243 216.7667 10C 216.4189 10.4243 216.0413 10.8141 215.6339 11.1925C 212.6229 13.9903 208.2305 15.3778 203.8482 15.3778C 199.4659 15.3778 195.0736 13.9789 192.0626 11.1925C 191.6651 10.8141 191.2875 10.4243 190.9397 10C 190.5919 10.4243 190.2143 10.8141 189.8068 11.1925C 186.7958 13.9903 182.3936 15.3778 178.0212 15.3778C 173.6488 15.3778 169.2466 13.9789 166.2356 11.1925C 165.8381 10.8141 165.4605 10.4243 165.1028 10C 164.755 10.4243 164.3773 10.8141 163.9798 11.1925C 160.9688 13.9903 156.5666 15.3778 152.1942 15.3778C 147.8218 15.3778 143.4196 13.9789 140.4086 11.1925C 140.0111 10.8141 139.6335 10.4243 139.2758 10C 138.9279 10.4243 138.5503 10.8141 138.1528 11.1925C 135.1419 13.9903 130.7396 15.3778 126.3672 15.3778C 121.9948 15.3778 117.5926 13.9789 114.5816 11.1925C 114.1841 10.8141 113.8065 10.4243 113.4488 10C 113.101 10.4243 112.7233 10.8141 112.3259 11.1925C 109.3149 13.9903 104.9126 15.3778 100.5402 15.3778C 96.1678 15.3778 91.7656 13.9789 88.7546 11.1925C 88.3571 10.8141 87.9795 10.4243 87.6218 10C 87.274 10.4243 86.8963 10.8141 86.4988 11.1925C 83.4878 13.9903 79.0856 15.3778 74.7132 15.3778C 70.3408 15.3778 65.9386 13.9789 62.9276 11.1925C 62.5301 10.8141 62.1525 10.4243 61.7948 10C 61.4469 10.4243 61.0693 10.8141 60.6619 11.1925C 57.6509 13.9903 53.2487 15.3778 48.8763 15.3778M 48.8763 15.3778C 44.4939 15.3778 39.9709 13.9789 36.9599 11.1925C 36.5624 10.8141 36.1848 10.4243 35.827 10C 35.4792 10.4243 35.1016 10.8141 34.6942 11.1925C 31.6832 13.9903 27.281 15.3778 22.9086 15.3778C 18.5361 15.3778 14.1339 13.9789 11.1229 11.1925C 10.7254 10.8141 10.3478 10.4243 10 10M 48.8763 15.3778L 48.8762 15.3862"></path></g></g></g><g id="g-root-sy_-1_line_v4vqc1idiolp-stroke" data-item-order="-298683" transform="translate(362, 139.9962158203125)"><g id="sy_-1_line_v4vqc1idiolp-stroke" fill="none" stroke-linecap="round" stroke-linejoin="round" stroke-miterlimit="4" stroke="#484848" stroke-width="2"><g><path d="M 10 10.003906L 176 10.003906"></path><path d="M 170 16.503906L 176.5 10.003906L 170 3.503906" stroke-dasharray="none"></path></g></g></g><g id="g-root-sy_1_line_zkp8ghidiole-stroke" data-item-order="-298677" transform="translate(362, 307.9962158203125)"><g id="sy_1_line_zkp8ghidiole-stroke" fill="none" stroke-linecap="round" stroke-linejoin="round" stroke-miterlimit="4" stroke="#484848" stroke-width="2"><g><path d="M 10 10.003906L 188 10.003906"></path><path d="M 182 16.503906L 188.5 10.003906L 182 3.503906" stroke-dasharray="none"></path></g></g></g><g id="g-root-sy_2_line_qp287lidipe5-stroke" data-item-order="-298671" transform="translate(362, 368.0003662109375)"><g id="sy_2_line_qp287lidipe5-stroke" fill="none" stroke-linecap="round" stroke-linejoin="round" stroke-miterlimit="4" stroke="#484848" stroke-width="2"><g><path d="M 10 9.999878L 150 9.999878"></path><path d="M 144 16.499878L 150.5 9.999878L 144 3.499878" stroke-dasharray="none"></path></g></g></g><g id="g-root-sy_3_line_v4vqc1idipds-stroke" data-item-order="-298665" transform="translate(362, 427.996337890625)"><g id="sy_3_line_v4vqc1idipds-stroke" fill="none" stroke-linecap="round" stroke-linejoin="round" stroke-miterlimit="4" stroke="#484848" stroke-width="2"><g><path d="M 10 10.003906L 212 10.003906"></path><path d="M 206 16.503906L 212.5 10.003906L 206 3.503906" stroke-dasharray="none"></path></g></g></g><g id="g-root-ic_tech_v4vqc1idioln-stroke" data-item-order="-2304" transform="translate(302, 116.0001220703125)"></g><g id="g-root-ic_uneq_zkp8ghidiold-stroke" data-item-order="-2304" transform="translate(302, 284.0001220703125)"></g><g id="g-root-ic_down_qp287lidipe4-stroke" data-item-order="-2304" transform="translate(302, 344.0001220703125)"></g><g id="g-root-ic_stre_qp287lidipe7-stroke" data-item-order="-2304" transform="translate(302, 404.0001220703125)"></g><g id="g-root-tx_larvolut_v4vqc1idiolk-stroke" data-item-order="0" transform="translate(194.37109375, 38)"></g><g id="g-root-tx_leconten_v4vqc1idiolm-stroke" data-item-order="0" transform="translate(74, 116.0001220703125)"></g><g id="g-root-tx_question_zkp8ghidiolc-stroke" data-item-order="0" transform="translate(38, 296.0001220703125)"></g><g id="g-root-tx_origined_zkp8ghidiolf-stroke" data-item-order="0" transform="translate(122, 356.0001220703125)"></g><g id="g-root-tx_consomma_qp287lidipe6-stroke" data-item-order="0" transform="translate(62, 404.0001220703125)"></g></g></g></svg>