<?xml version="1.0" encoding="utf-8" standalone="yes"?>
<!DOCTYPE svg PUBLIC "-//W3C//DTD SVG 1.1//EN" "http://www.w3.org/Graphics/SVG/1.1/DTD/svg11.dtd">
<svg width="702" height="322" viewBox="0 0 702 322" style="fill:none;stroke:none;fill-rule:evenodd;clip-rule:evenodd;stroke-linecap:round;stroke-linejoin:round;stroke-miterlimit:1.5;" version="1.1" xmlns="http://www.w3.org/2000/svg" xmlns:xlink="http://www.w3.org/1999/xlink"><style class="text-font-style fontImports" data-font-family="Roboto">@import url('https://fonts.googleapis.com/css2?family=Roboto:wght@400;700&amp;display=block');</style><g id="items" style="isolation: isolate"><g id="blend" style="mix-blend-mode: normal"><g id="g-root-cr_3_cr-small_zlxkba1fnyzgm-fill" data-item-order="5999923118" transform="translate(169.8699951171875, 180.0244140625)"><g id="cr_3_cr-small_zlxkba1fnyzgm-fill" stroke="none" fill="#1eabda"><g><path d="M 10 46C 10 65.882251 26.117749 82 46 82C 65.882251 82 82 65.882251 82 46C 82 26.117749 65.882251 10 46 10C 26.117749 10 10 26.117749 10 46"></path></g></g></g><g id="g-root-cr_2_cr-small_qqak2e1fnz09b-fill" data-item-order="5999923122" transform="translate(464.00396728515625, 78)"><g id="cr_2_cr-small_qqak2e1fnz09b-fill" stroke="none" fill="#e0cb15"><g><path d="M 10 46C 10 65.882251 26.117749 82 46 82C 65.882251 82 82 65.882251 82 46C 82 26.117749 65.882251 10 46 10C 26.117749 10 10 26.117749 10 46"></path></g></g></g><g id="g-root-cr_1_cr-small_mb3j121fnyxvs-fill" data-item-order="5999923126" transform="translate(200.00299072265625, 78)"><g id="cr_1_cr-small_mb3j121fnyxvs-fill" stroke="none" fill="#3cc583"><g><path d="M 10 46C 10 65.882251 26.117749 82 46 82C 65.882251 82 82 65.882251 82 46C 82 26.117749 65.882251 10 46 10C 26.117749 10 10 26.117749 10 46"></path></g></g></g><g id="g-root-sy_0_Vector_mb3j121fnyxvt-fill" data-item-order="5999923130" transform="translate(253.44992065429688, 144)"><g id="sy_0_Vector_mb3j121fnyxvt-fill" stroke="none" fill="#666666"><g><path d="M 24.813009 95.601L 10.000009 81.999L 24.813009 68.397L 24.813009 75.968L 52.651009 75.968C 53.648009 63.943 57.601009 52.757 63.780009 43.138L 63.635009 43.037L 41.574009 26.096L 37.008009 32.041L 33.543009 12.231L 53.576009 10.465L 48.965009 16.47L 71.027009 33.411L 71.163009 33.526C 84.331009 19.071 103.307009 10 124.402009 10C 145.493009 10 164.466009 19.068 177.634009 33.519L 177.777009 33.411L 199.839009 16.47L 195.227009 10.465L 215.260009 12.231L 211.796009 32.041L 207.230009 26.096L 185.168009 43.037L 185.023009 43.136C 192.225009 54.347 196.402009 67.685 196.402009 82C 196.402009 121.764 164.166009 154 124.402009 154C 86.694009 154 55.756009 125.012 52.657009 88.105L 24.813009 88.105L 24.813009 95.601Z"></path></g></g></g><g id="g-root-tx_applicat_1luwi6u1fo60b2-fill" data-item-order="6000000000" transform="translate(230.00299072265625, 0)"><g id="tx_applicat_1luwi6u1fo60b2-fill" stroke="none" fill="#484848"><g><text style="font: bold 25px Roboto, sans-serif; white-space: pre;" font-weight="bold" font-size="25px" font-family="Roboto, sans-serif"><tspan x="13.02" y="43" dominant-baseline="ideographic">Generative AI use cases</tspan></text></g></g></g><g id="g-root-tx_gnration_58yl21fo5yx9-fill" data-item-order="6000000000" transform="translate(32.00299072265625, 90)"><g id="tx_gnration_58yl21fo5yx9-fill" stroke="none" fill="#374840"><g><text style="font: 20px Roboto, sans-serif; white-space: pre;" font-size="20px" font-family="Roboto, sans-serif"><tspan x="20.72" y="34" dominant-baseline="ideographic">Automatic Code </tspan><tspan x="66.99" y="58" dominant-baseline="ideographic">Generation</tspan></text></g></g></g><g id="g-root-ic_comp_qrji8m1fo4ljb-fill" data-item-order="6000000000" transform="translate(212.00299072265625, 90)"></g><g id="g-root-ic_mega_1d0ig461fnyz29-fill" data-item-order="6000000000" transform="translate(475.98699951171875, 90)"></g><g id="g-root-tx_crationd_dg2zva1fo60i4-fill" data-item-order="6000000000" transform="translate(548.0029907226562, 78)"><g id="tx_crationd_dg2zva1fo60i4-fill" stroke="none" fill="#46432d"><g><text style="font: 20px Roboto, sans-serif; white-space: pre;" font-size="20px" font-family="Roboto, sans-serif"><tspan x="12" y="34" dominant-baseline="ideographic">Marketing</tspan><tspan x="12" y="58" dominant-baseline="ideographic">Content</tspan><tspan x="12" y="82" dominant-baseline="ideographic">Creation</tspan></text></g></g></g><g id="g-root-tx_dploieme_qrji8m1fo5yx7-fill" data-item-order="6000000000" transform="translate(50.00299072265625, 180)"><g id="tx_dploieme_qrji8m1fo5yx7-fill" stroke="none" fill="#32444a"><g><text style="font: 20px Roboto, sans-serif; white-space: pre;" font-size="20px" font-family="Roboto, sans-serif"><tspan x="27.85" y="34" dominant-baseline="ideographic">Advanced </tspan><tspan x="35.04" y="58" dominant-baseline="ideographic">Chatbots </tspan><tspan x="11.56" y="82" dominant-baseline="ideographic">deployment</tspan></text></g></g></g><g id="g-root-ic_robo_hva0wm1fnyyo2-fill" data-item-order="6000000000" transform="translate(182.00299072265625, 192)"></g><g id="g-root-ic_inte_1lrs4ra1fo5zwh-fill" data-item-order="6000000000" transform="translate(332.00299072265625, 180)"></g><g id="g-root-cr_3_cr-small_zlxkba1fnyzgm-stroke" data-item-order="5999923118" transform="translate(169.8699951171875, 180.0244140625)"><g id="cr_3_cr-small_zlxkba1fnyzgm-stroke" fill="none" stroke-linecap="round" stroke-linejoin="round" stroke-miterlimit="4" stroke="#ffffff" stroke-width="2"><g><path d="M 10 46C 10 65.882251 26.117749 82 46 82C 65.882251 82 82 65.882251 82 46C 82 26.117749 65.882251 10 46 10C 26.117749 10 10 26.117749 10 46"></path></g></g></g><g id="g-root-cr_2_cr-small_qqak2e1fnz09b-stroke" data-item-order="5999923122" transform="translate(464.00396728515625, 78)"><g id="cr_2_cr-small_qqak2e1fnz09b-stroke" fill="none" stroke-linecap="round" stroke-linejoin="round" stroke-miterlimit="4" stroke="#ffffff" stroke-width="2"><g><path d="M 10 46C 10 65.882251 26.117749 82 46 82C 65.882251 82 82 65.882251 82 46C 82 26.117749 65.882251 10 46 10C 26.117749 10 10 26.117749 10 46"></path></g></g></g><g id="g-root-cr_1_cr-small_mb3j121fnyxvs-stroke" data-item-order="5999923126" transform="translate(200.00299072265625, 78)"><g id="cr_1_cr-small_mb3j121fnyxvs-stroke" fill="none" stroke-linecap="round" stroke-linejoin="round" stroke-miterlimit="4" stroke="#ffffff" stroke-width="2"><g><path d="M 10 46C 10 65.882251 26.117749 82 46 82C 65.882251 82 82 65.882251 82 46C 82 26.117749 65.882251 10 46 10C 26.117749 10 10 26.117749 10 46"></path></g></g></g><g id="g-root-sy_0_Vector_mb3j121fnyxvt-stroke" data-item-order="5999923130" transform="translate(253.44992065429688, 144)"><g id="sy_0_Vector_mb3j121fnyxvt-stroke" fill="none" stroke-linecap="round" stroke-linejoin="round" stroke-miterlimit="4" stroke="#ffffff" stroke-width="2"><g><path d="M 24.813009 95.601L 10.000009 81.999L 24.813009 68.397L 24.813009 75.968L 52.651009 75.968C 53.648009 63.943 57.601009 52.757 63.780009 43.138L 63.635009 43.037L 41.574009 26.096L 37.008009 32.041L 33.543009 12.231L 53.576009 10.465L 48.965009 16.47L 71.027009 33.411L 71.163009 33.526C 84.331009 19.071 103.307009 10 124.402009 10C 145.493009 10 164.466009 19.068 177.634009 33.519L 177.777009 33.411L 199.839009 16.47L 195.227009 10.465L 215.260009 12.231L 211.796009 32.041L 207.230009 26.096L 185.168009 43.037L 185.023009 43.136C 192.225009 54.347 196.402009 67.685 196.402009 82C 196.402009 121.764 164.166009 154 124.402009 154C 86.694009 154 55.756009 125.012 52.657009 88.105L 24.813009 88.105L 24.813009 95.601Z"></path></g></g></g><g id="g-root-tx_applicat_1luwi6u1fo60b2-stroke" data-item-order="6000000000" transform="translate(230.00299072265625, 0)"></g><g id="g-root-tx_gnration_58yl21fo5yx9-stroke" data-item-order="6000000000" transform="translate(32.00299072265625, 90)"></g><g id="g-root-ic_comp_qrji8m1fo4ljb-stroke" data-item-order="6000000000" transform="translate(212.00299072265625, 90)"><g id="ic_comp_qrji8m1fo4ljb-stroke" fill="none" stroke-linecap="round" stroke-linejoin="round" stroke-miterlimit="4" stroke="#ffffff" stroke-width="2"><g><path d="M 28 55C 29.811644 52.712475 30.860811 49.914696 31 47M 40 55C 38.188354 52.712475 37.139191 49.914696 37 47M 24.998001 55L 42.998001 55M 11 41L 57 41M 13 13L 55 13C 55 13 57 13 57 15L 57 45C 57 45 57 47 55 47L 13 47C 13 47 11 47 11 45L 11 15C 11 15 11 13 13 13M 34 33L 34 36M 30 36L 30 32.248001C 27.537663 31.152081 25.964613 28.694975 26 26C 26 21.581722 29.581722 18 34 18C 38.418278 18 42 21.581722 42 26C 42.035641 28.694555 40.462379 31.151201 38 32.246002L 38 36M 36 25.5C 36 25.776142 36.223858 26 36.5 26C 36.776142 26 37 25.776142 37 25.5C 37 25.223858 36.776142 25 36.5 25C 36.223858 25 36 25.223858 36 25.5M 31 25.5C 31 25.776142 31.223858 26 31.5 26C 31.776142 26 32 25.776142 32 25.5C 32 25.223858 31.776142 25 31.5 25C 31.223858 25 31 25.223858 31 25.5"></path></g></g></g><g id="g-root-ic_mega_1d0ig461fnyz29-stroke" data-item-order="6000000000" transform="translate(475.98699951171875, 90)"><g id="ic_mega_1d0ig461fnyz29-stroke" fill="none" stroke-linecap="round" stroke-linejoin="round" stroke-miterlimit="4" stroke="#ffffff" stroke-width="2"><g><path d="M 10 10M 29.068001 46.848L 28.348 47.248001C 26.024939 48.495937 25.152903 51.390488 26.4 53.714001L 26.414 53.714001C 27.669382 56.051044 30.578348 56.932766 32.919998 55.686001L 33.639999 55.285999C 46.195999 48.523998 49.287998 48.785999 57.009998 48.265999L 47.995998 31.346001C 43.312 37.493999 41.629997 40.082001 29.068001 46.848ZM 10 10M 33.316002 44.625999L 37.827999 53.049999L 38.577999 54.459999C 39.825478 56.792969 42.725437 57.676731 45.062 56.436001M 25 57L 11 57L 11 29C 11 27.89543 11.895431 27 13 27L 23 27C 24.104568 27 25 27.89543 25 29L 25 45M 23 27L 23 19.65C 23.000999 19.253292 23.236408 18.894684 23.6 18.736L 39.599998 11.624C 39.908749 11.48925 40.264595 11.519007 40.546673 11.703165C 40.828751 11.887322 40.999153 12.201128 41 12.538L 41 33M 21 57L 21 52C 21 51.447716 20.552284 51 20 51L 16 51C 15.447716 51 15 51.447716 15 52L 15 57M 11 33L 19 33M 35 21L 41 21M 31 25L 41 25M 11 37L 15 37M 27 17.222L 27 11"></path></g></g></g><g id="g-root-tx_crationd_dg2zva1fo60i4-stroke" data-item-order="6000000000" transform="translate(548.0029907226562, 78)"></g><g id="g-root-tx_dploieme_qrji8m1fo5yx7-stroke" data-item-order="6000000000" transform="translate(50.00299072265625, 180)"></g><g id="g-root-ic_robo_hva0wm1fnyyo2-stroke" data-item-order="6000000000" transform="translate(182.00299072265625, 192)"><g id="ic_robo_hva0wm1fnyyo2-stroke" fill="none" stroke-linecap="round" stroke-linejoin="round" stroke-miterlimit="4" stroke="#ffffff" stroke-width="2"><g><path d="M 31.520599 18.796879L 16.332039 18.796879C 14.1229 18.796879 12.33204 20.58774 12.33204 22.796879L 12.33204 43.4842C 12.33204 45.693199 14.1229 47.4842 16.332039 47.4842L 20.691299 47.4842L 20.691299 54.150002C 20.691299 55.973598 22.932301 56.845798 24.1651 55.501999L 30.926001 48.132198C 31.3048 47.7192 31.8396 47.4842 32.399799 47.4842L 46.439201 47.4842C 48.648399 47.4842 50.439201 45.693199 50.439201 43.4842L 50.439201 37.9314M 41.830002 18.188L 51.667999 18.188C 51.667999 18.188 55.667999 18.188 55.667999 22.188L 55.667999 28.063999C 55.667999 28.063999 55.667999 32.063999 51.667999 32.063999L 41.830002 32.063999C 41.830002 32.063999 37.830002 32.063999 37.830002 28.063999L 37.830002 22.188C 37.830002 22.188 37.830002 18.188 41.830002 18.188M 10 10M 46.748001 12.71406L 46.748001 18.1875M 10 10M 43.617199 23.941799L 43.617199 26.328119M 10 10M 49.879002 23.941799L 49.879002 26.328119"></path></g></g></g><g id="g-root-ic_inte_1lrs4ra1fo5zwh-stroke" data-item-order="6000000000" transform="translate(332.00299072265625, 180)"><g id="ic_inte_1lrs4ra1fo5zwh-stroke" fill="none" stroke-linecap="round" stroke-linejoin="round" stroke-miterlimit="4" stroke="#ffffff" stroke-width="2"><g><path d="M 17.5 79.75C 14.186292 79.75 11.5 77.063713 11.5 73.75C 11.5 70.436287 14.186292 67.75 17.5 67.75C 31.576408 67.733467 42.983467 56.326408 43 42.25L 43 23.5L 17.5 23.5C 14.186292 23.5 11.5 20.813709 11.5 17.5C 11.5 14.186292 14.186292 11.5 17.5 11.5L 49 11.5C 52.313709 11.5 55 14.186292 55 17.5L 55 42.25C 54.976852 62.951088 38.201084 79.726852 17.5 79.75ZM 74.5 80.5C 71.186287 80.5 68.5 77.813713 68.5 74.5L 68.5 17.5C 68.5 14.186292 71.186287 11.5 74.5 11.5C 77.813713 11.5 80.5 14.186292 80.5 17.5L 80.5 74.5C 80.5 77.813713 77.813713 80.5 74.5 80.5ZM 11.5 44.5C 11.5 49.884777 15.865224 54.25 21.25 54.25C 26.634777 54.25 31 49.884777 31 44.5C 31 39.115227 26.634777 34.75 21.25 34.75C 15.865224 34.75 11.5 39.115227 11.5 44.5"></path></g></g></g></g></g></svg>