<?xml version="1.0" encoding="utf-8" standalone="yes"?>
<!DOCTYPE svg PUBLIC "-//W3C//DTD SVG 1.1//EN" "http://www.w3.org/Graphics/SVG/1.1/DTD/svg11.dtd">
<svg width="864" height="614" viewBox="0 0 864 614" style="fill:none;stroke:none;fill-rule:evenodd;clip-rule:evenodd;stroke-linecap:round;stroke-linejoin:round;stroke-miterlimit:1.5;" version="1.1" xmlns="http://www.w3.org/2000/svg" xmlns:xlink="http://www.w3.org/1999/xlink"><style class="text-font-style fontImports" data-font-family="Roboto">@import url('https://fonts.googleapis.com/css2?family=Roboto:wght@400;700&amp;display=block');</style><g id="items" style="isolation: isolate"><g id="blend" style="mix-blend-mode: normal"><g id="g-root-cp_4_g-4_1uljpt21e047pl-fill" data-item-order="9999550946" transform="translate(224.52700805664062, 108)"><g id="cp_4_g-4_1uljpt21e047pl-fill" stroke="none" fill="#de8431"><g><path d="M 15.470703 98C 15.470705 134.450795 45.019912 164.000002 81.470705 164.000002C 117.921499 164.000002 147.470705 134.450795 147.470705 98.000002C 147.470705 61.549208 117.921499 32.000002 81.470705 32.000002C 45.019912 32.000002 15.470705 61.549208 15.470705 98.000002"></path></g></g><g id="cp_4_g-4_1uljpt21e047pl-fill" stroke="none" fill="#de8431"><g><path d="M 233.472 51L 189.472 10L 189.472 35.9052C 168.403 37.2726 147.672 42.09 128.114 50.1913C 127.848 50.3012 127.583 50.4117 127.318 50.5228C 136.769 59.6504 143.501 71.5735 146.184 84.9601C 160.071 79.5626 174.653 76.2149 189.472 75.0081L 189.472 92L 233.472 51ZM 63.3232 161.473C 50.2822 157.752 38.8904 150.12 30.4968 139.926C 28.0176 144.726 25.737 149.635 23.663 154.642C 16.5117 171.907 11.9193 195.086 10 213.604L 25.4717 197L 48.4293 221.637C 49.6779 205.476 53.4723 184.588 59.6943 169.567C 60.8274 166.831 62.0376 164.133 63.3232 161.473Z"></path></g></g></g><g id="g-root-cp_3_g-3_1hapoiu1e0464r-fill" data-item-order="9999550952" transform="translate(199, 295)"><g id="cp_3_g-3_1hapoiu1e0464r-fill" stroke="none" fill="#e0cb15"><g><path d="M 41 163C 41.000002 199.450795 70.549208 229.000002 107.000002 229.000002C 143.450795 229.000002 173.000002 199.450795 173.000002 163.000002C 173.000002 126.549208 143.450795 97.000002 107.000002 97.000002C 70.549208 97.000002 41.000002 126.549208 41.000002 163.000002"></path></g></g><g id="cp_3_g-3_1hapoiu1e0464r-fill" stroke="none" fill="#e0cb15"><g><path d="M 51 10L 92 54L 74.0081 54C 75.3064 69.9414 79.0824 85.6095 85.2225 100.4333C 85.252 100.5043 85.2815 100.5754 85.3111 100.6465C 72.3183 105.1653 61.1728 113.631 53.3098 124.607C 51.8579 121.564 50.4844 118.48 49.1912 115.358C 41.09 95.7998 36.2726 75.0688 34.9052 54L 10 54L 51 10ZM 145.835 216.371C 148.409 217.573 151.012 218.719 153.642 219.809C 171.626 227.258 195.601 231.931 214.919 233.698L 197 217L 220.57 195.037C 204.775 193.81 184.452 190.151 169.531 184.171C 165.118 197.21 156.742 208.421 145.835 216.371Z"></path></g></g></g><g id="g-root-cp_2_g-2_1cuw6ee1e046x1-fill" data-item-order="9999550958" transform="translate(386, 332.435546875)"><g id="cp_2_g-2_1cuw6ee1e046x1-fill" stroke="none" fill="#92bd39"><g><path d="M 106 125.563629C 106.000002 162.014425 135.549208 191.563631 172.000002 191.563631C 208.450795 191.563631 238.000002 162.014425 238.000002 125.563631C 238.000002 89.112838 208.450795 59.563631 172.000002 59.563631C 135.549208 59.563631 106.000002 89.112838 106.000002 125.563631"></path></g></g><g id="cp_2_g-2_1cuw6ee1e046x1-fill" stroke="none" fill="#92bd39"><g><path d="M 217 34.5636L 232.585 17.8386C 230.737 36.7442 226.104 60.3084 218.809 77.9214C 218.7 78.1837 218.591 78.4457 218.481 78.7074C 209.187 69.4869 197.164 63.0126 183.731 60.6029C 189.502 45.5315 192.998 25.6372 194.111 10L 217 34.5636ZM 108.167 142.401C 105.301 143.803 102.3885 145.117 99.4333 146.341C 84.9196 152.353 69.5965 156.098 54 157.471L 54 138.564L 10 179.564L 54 220.564L 54 196.591C 74.7246 195.138 95.1093 190.345 114.358 182.372C 119.325 180.315 124.195 178.055 128.958 175.599C 118.989 167.016 111.614 155.505 108.167 142.401Z"></path></g></g></g><g id="g-root-cp_1_g-1_13z965i1e047pr-fill" data-item-order="9999550964" transform="translate(422.3690185546875, 130)"><g id="cp_1_g-1_13z965i1e047pr-fill" stroke="none" fill="#3cc583"><g><path d="M 69.630859 76C 69.630861 112.450795 99.180068 142.000002 135.630861 142.000002C 172.081655 142.000002 201.630861 112.450795 201.630861 76.000002C 201.630861 39.549208 172.081655 10.000002 135.630861 10.000002C 99.180068 10.000002 69.630861 39.549208 69.630861 76.000002"></path></g></g><g id="cp_1_g-1_13z965i1e047pr-fill" stroke="none" fill="#3cc583"><g><path d="M 179.305 125.484766C 169.577 134.076766 157.295 139.845766 143.745 141.506766C 144.675 143.504766 145.564 145.525766 146.409 147.566766C 152.421 162.080766 156.166 177.403766 157.539 192.999766L 139.632 192.999766L 180.632 236.999766L 221.632 192.999766L 196.659 192.999766C 195.206 172.275766 190.413 151.890766 182.44 132.641766C 181.443 130.233766 180.397 127.846766 179.305 125.484766ZM 86.4815 31.950566C 83.6843 30.630966 80.8529 29.377366 77.9895 28.191266C 61.1015 21.196066 38.3392 16.649266 20.2399 14.657766L 35.6316 28.999966L 10 52.883966C 26.5036 54.051566 47.7357 57.872966 63.0648 64.222566C 65.4683 65.218066 67.8436 66.273266 70.1885 67.386766C 71.9516 53.858966 77.8111 41.618466 86.4815 31.950566Z"></path></g></g></g><g id="g-root-tx_cyclever_m8lmqu1e046x5-fill" data-item-order="10000000000" transform="translate(194, 12)"><g id="tx_cyclever_m8lmqu1e046x5-fill" stroke="none" fill="#484848"><g><text style="font: bold 25px Roboto, sans-serif; white-space: pre;" font-weight="bold" font-size="25px" font-family="Roboto, sans-serif"><tspan x="13.23" y="43" dominant-baseline="ideographic">Virtuous cycle of technology integration</tspan></text></g></g></g><g id="g-root-tx_concepti_meudly1e05lvw-fill" data-item-order="10000000000" transform="translate(38, 106)"><g id="tx_concepti_meudly1e05lvw-fill" stroke="none" fill="#de8431"><g><text style="font: bold 20px Roboto, sans-serif; white-space: pre;" font-weight="bold" font-size="20px" font-family="Roboto, sans-serif"><tspan x="16.83" y="46" dominant-baseline="ideographic">Computing power </tspan><tspan x="37.95" y="70" dominant-baseline="ideographic">enhanced by AI</tspan></text></g></g></g><g id="g-root-tx_automati_dhyf6u1e05la8-fill" data-item-order="10000000000" transform="translate(638, 130)"><g id="tx_automati_dhyf6u1e05la8-fill" stroke="none" fill="#3cc583"><g><text style="font: bold 20px Roboto, sans-serif; white-space: pre;" font-weight="bold" font-size="20px" font-family="Roboto, sans-serif"><tspan x="12" y="34" dominant-baseline="ideographic">AI-driven </tspan><tspan x="12" y="58" dominant-baseline="ideographic">automation</tspan></text></g></g></g><g id="g-root-ic_chip_8z0jmu1e05kw5-fill" data-item-order="10000000000" transform="translate(266, 166)"></g><g id="g-root-ic_box_1unf52e1e046q2-fill" data-item-order="10000000000" transform="translate(518, 166)"></g><g id="g-root-tx_concepti_93dv8m1e05ngt-fill" data-item-order="10000000000" transform="translate(50, 190)"><g id="tx_concepti_93dv8m1e05ngt-fill" stroke="none" fill="#4c4034"><g><text style="font: 15px Roboto, sans-serif; white-space: pre;" font-size="15px" font-family="Roboto, sans-serif"><tspan x="17.75" y="28" dominant-baseline="ideographic">Computer chip design </tspan><tspan x="65.06" y="46" dominant-baseline="ideographic">improved by AI</tspan></text></g></g></g><g id="g-root-tx_automati_6hwti1e05mv5-fill" data-item-order="10000000000" transform="translate(638, 190)"><g id="tx_automati_6hwti1e05mv5-fill" stroke="none" fill="#374840"><g><text style="font: 15px Roboto, sans-serif; white-space: pre;" font-size="15px" font-family="Roboto, sans-serif"><tspan x="12" y="28" dominant-baseline="ideographic">Automation of complex </tspan><tspan x="12" y="46" dominant-baseline="ideographic">tasks through AI</tspan></text></g></g></g><g id="g-root-tx_optimisa_1d14x9i1e05lvu-fill" data-item-order="10000000000" transform="translate(26, 420)"><g id="tx_optimisa_1d14x9i1e05lvu-fill" stroke="none" fill="#e0cb15"><g><text style="font: bold 20px Roboto, sans-serif; white-space: pre;" font-weight="bold" font-size="20px" font-family="Roboto, sans-serif"><tspan x="18.23" y="34" dominant-baseline="ideographic">Cloud optimization </tspan><tspan x="142.53" y="58" dominant-baseline="ideographic">by AI</tspan></text></g></g></g><g id="g-root-ic_plur_4hbm921e05mo4-fill" data-item-order="10000000000" transform="translate(266, 418)"></g><g id="g-root-ic_clou_1q5q7om1e05lvv-fill" data-item-order="10000000000" transform="translate(518, 418)"></g><g id="g-root-tx_capacits_4kfzom1e05n2m-fill" data-item-order="10000000000" transform="translate(638, 420)"><g id="tx_capacits_4kfzom1e05n2m-fill" stroke="none" fill="#92bd39"><g><text style="font: bold 20px Roboto, sans-serif; white-space: pre;" font-weight="bold" font-size="20px" font-family="Roboto, sans-serif"><tspan x="12" y="34" dominant-baseline="ideographic">AI capabilities </tspan><tspan x="12" y="58" dominant-baseline="ideographic">enhanced by the </tspan><tspan x="12" y="82" dominant-baseline="ideographic">cloud</tspan></text></g></g></g><g id="g-root-tx_optimisa_zpoew61e05ngr-fill" data-item-order="10000000000" transform="translate(26, 480)"><g id="tx_optimisa_zpoew61e05ngr-fill" stroke="none" fill="#46432d"><g><text style="font: 15px Roboto, sans-serif; white-space: pre;" font-size="15px" font-family="Roboto, sans-serif"><tspan x="44.91" y="28" dominant-baseline="ideographic">Optimization of cloud </tspan><tspan x="12.59" y="46" dominant-baseline="ideographic">resource usage through AI</tspan></text></g></g></g><g id="g-root-tx_amliorat_zofgpy1e05lan-fill" data-item-order="10000000000" transform="translate(638, 504)"><g id="tx_amliorat_zofgpy1e05lan-fill" stroke="none" fill="#424736"><g><text style="font: 15px Roboto, sans-serif; white-space: pre;" font-size="15px" font-family="Roboto, sans-serif"><tspan x="12" y="31" dominant-baseline="ideographic">Improvement of AI </tspan><tspan x="12" y="49" dominant-baseline="ideographic">capabilities thanks to </tspan><tspan x="12" y="67" dominant-baseline="ideographic">cloud resources</tspan></text></g></g></g><g id="g-root-cp_4_g-4_1uljpt21e047pl-stroke" data-item-order="9999550946" transform="translate(224.52700805664062, 108)"><g id="cp_4_g-4_1uljpt21e047pl-stroke" fill="none" stroke-linecap="round" stroke-linejoin="round" stroke-miterlimit="4" stroke="#ffffff" stroke-width="2"><g><path d="M 15.470703 98C 15.470705 134.450795 45.019912 164.000002 81.470705 164.000002C 117.921499 164.000002 147.470705 134.450795 147.470705 98.000002C 147.470705 61.549208 117.921499 32.000002 81.470705 32.000002C 45.019912 32.000002 15.470705 61.549208 15.470705 98.000002"></path></g></g><g id="cp_4_g-4_1uljpt21e047pl-stroke" fill="none" stroke-linecap="round" stroke-linejoin="round" stroke-miterlimit="4" stroke="#ffffff" stroke-width="2"><g><path d="M 233.4716 51L 189.4716 10L 189.4716 35.9052C 168.4028 37.2726 147.672 42.09 128.1139 50.1913C 127.8484 50.3012 127.5833 50.4117 127.3185 50.5228C 136.7686 59.6504 143.5011 71.5735 146.1838 84.9601C 160.0711 79.5626 174.6533 76.2149 189.4716 75.0081L 189.4716 92L 233.4716 51ZM 63.3232 161.4734C 50.2822 157.7517 38.8904 150.1196 30.4968 139.9261C 28.0176 144.7257 25.737 149.635 23.663 154.6421C 16.5117 171.9069 11.9193 195.0856 10 213.6038L 25.4717 197L 48.4293 221.6374C 49.6779 205.4763 53.4723 184.588 59.6943 169.5668C 60.8274 166.8314 62.0376 164.1326 63.3232 161.4734Z"></path></g></g></g><g id="g-root-cp_3_g-3_1hapoiu1e0464r-stroke" data-item-order="9999550952" transform="translate(199, 295)"><g id="cp_3_g-3_1hapoiu1e0464r-stroke" fill="none" stroke-linecap="round" stroke-linejoin="round" stroke-miterlimit="4" stroke="#ffffff" stroke-width="2"><g><path d="M 41 163C 41.000002 199.450795 70.549208 229.000002 107.000002 229.000002C 143.450795 229.000002 173.000002 199.450795 173.000002 163.000002C 173.000002 126.549208 143.450795 97.000002 107.000002 97.000002C 70.549208 97.000002 41.000002 126.549208 41.000002 163.000002"></path></g></g><g id="cp_3_g-3_1hapoiu1e0464r-stroke" fill="none" stroke-linecap="round" stroke-linejoin="round" stroke-miterlimit="4" stroke="#ffffff" stroke-width="2"><g><path d="M 51 10L 92 54L 74.0081 54C 75.3064 69.9414 79.0824 85.6095 85.2225 100.4333C 85.252 100.5043 85.2815 100.5754 85.3111 100.6465C 72.3183 105.1653 61.1728 113.6305 53.3098 124.6069C 51.8579 121.5639 50.4844 118.4799 49.1912 115.3579C 41.09 95.7998 36.2726 75.0688 34.9052 54L 10 54L 51 10ZM 145.835 216.3709C 148.4092 217.5731 151.0122 218.7194 153.6421 219.8088C 171.626 227.2579 195.6015 231.9306 214.9194 233.6976L 197 217L 220.5698 195.0372C 204.7751 193.8099 184.4522 190.1509 169.5314 184.1705C 165.1184 197.2096 156.7415 208.4212 145.835 216.3709Z"></path></g></g></g><g id="g-root-cp_2_g-2_1cuw6ee1e046x1-stroke" data-item-order="9999550958" transform="translate(386, 332.435546875)"><g id="cp_2_g-2_1cuw6ee1e046x1-stroke" fill="none" stroke-linecap="round" stroke-linejoin="round" stroke-miterlimit="4" stroke="#ffffff" stroke-width="2"><g><path d="M 106 125.563629C 106.000002 162.014425 135.549208 191.563631 172.000002 191.563631C 208.450795 191.563631 238.000002 162.014425 238.000002 125.563631C 238.000002 89.112838 208.450795 59.563631 172.000002 59.563631C 135.549208 59.563631 106.000002 89.112838 106.000002 125.563631"></path></g></g><g id="cp_2_g-2_1cuw6ee1e046x1-stroke" fill="none" stroke-linecap="round" stroke-linejoin="round" stroke-miterlimit="4" stroke="#ffffff" stroke-width="2"><g><path d="M 217 34.5636L 232.5846 17.8386C 230.7367 36.7442 226.1043 60.3084 218.8088 77.9214C 218.7001 78.1837 218.5909 78.4457 218.4812 78.7074C 209.1867 69.4869 197.1638 63.0126 183.7306 60.6029C 189.5021 45.5315 192.9979 25.6372 194.1112 10L 217 34.5636ZM 108.167 142.4008C 105.301 143.8027 102.3885 145.117 99.4333 146.3411C 84.9196 152.3528 69.5965 156.0983 54 157.4708L 54 138.5636L 10 179.5636L 54 220.5636L 54 196.5909C 74.7246 195.1377 95.1093 190.3454 114.3579 182.3724C 119.3246 180.3151 124.1951 178.0546 128.9576 175.5986C 118.9894 167.0157 111.6142 155.5047 108.167 142.4008Z"></path></g></g></g><g id="g-root-cp_1_g-1_13z965i1e047pr-stroke" data-item-order="9999550964" transform="translate(422.3690185546875, 130)"><g id="cp_1_g-1_13z965i1e047pr-stroke" fill="none" stroke-linecap="round" stroke-linejoin="round" stroke-miterlimit="4" stroke="#ffffff" stroke-width="2"><g><path d="M 69.630859 76C 69.630861 112.450795 99.180068 142.000002 135.630861 142.000002C 172.081655 142.000002 201.630861 112.450795 201.630861 76.000002C 201.630861 39.549208 172.081655 10.000002 135.630861 10.000002C 99.180068 10.000002 69.630861 39.549208 69.630861 76.000002"></path></g></g><g id="cp_1_g-1_13z965i1e047pr-stroke" fill="none" stroke-linecap="round" stroke-linejoin="round" stroke-miterlimit="4" stroke="#ffffff" stroke-width="2"><g><path d="M 179.3046 125.485066C 169.5765 134.077166 157.2955 139.845266 143.7447 141.506266C 144.6752 143.505266 145.5636 145.525866 146.409 147.566866C 152.4208 162.080466 156.1662 177.403566 157.5387 193.000066L 139.6316 193.000066L 180.6316 237.000066L 221.6316 193.000066L 196.6589 193.000066C 195.2057 172.275366 190.4134 151.890766 182.4404 132.642066C 181.4426 130.233366 180.3971 127.847166 179.3046 125.485066ZM 86.4815 31.950566C 83.6843 30.630966 80.8529 29.377366 77.9895 28.191266C 61.1015 21.196066 38.3392 16.649266 20.2399 14.657766L 35.6316 28.999966L 10 52.883966C 26.5036 54.051566 47.7357 57.872966 63.0648 64.222566C 65.4683 65.218066 67.8436 66.273266 70.1885 67.386766C 71.9516 53.858966 77.8111 41.618466 86.4815 31.950566Z"></path></g></g></g><g id="g-root-tx_cyclever_m8lmqu1e046x5-stroke" data-item-order="10000000000" transform="translate(194, 12)"></g><g id="g-root-tx_concepti_meudly1e05lvw-stroke" data-item-order="10000000000" transform="translate(38, 106)"></g><g id="g-root-tx_automati_dhyf6u1e05la8-stroke" data-item-order="10000000000" transform="translate(638, 130)"></g><g id="g-root-ic_chip_8z0jmu1e05kw5-stroke" data-item-order="10000000000" transform="translate(266, 166)"><g id="ic_chip_8z0jmu1e05kw5-stroke" fill="none" stroke-linecap="round" stroke-linejoin="round" stroke-miterlimit="4" stroke="#ffffff" stroke-width="2"><g><path d="M 32.8475 20.965C 35.268547 20.148661 36.684662 17.638371 36.131245 15.144058C 35.57782 12.649746 33.232922 10.973926 30.693802 11.258112C 28.154688 11.542298 26.238291 13.695057 26.25 16.25C 26.256775 16.701294 26.324898 17.149569 26.452499 17.5825C 26.174999 17.557501 25.907499 17.5 25.625 17.5C 22.054062 17.482567 18.786413 19.504904 17.20903 22.708614C 15.631646 25.912327 16.021261 29.735359 18.2125 32.555C 14.29851 32.823517 11.260763 36.076809 11.260763 40C 11.260763 43.923191 14.29851 47.176479 18.2125 47.445C 16.021261 50.264641 15.631646 54.087673 17.20903 57.291382C 18.786413 60.495094 22.054062 62.517433 25.625 62.5C 25.907499 62.5 26.174999 62.442497 26.452499 62.417496C 25.709597 65.045555 27.212856 67.783501 29.829008 68.567284C 32.44516 69.351059 35.206215 67.890656 36.030674 65.287041C 36.855133 62.683426 35.43795 59.899944 32.8475 59.035M 47.1525 20.965C 44.731453 20.148661 43.315338 17.638371 43.868755 15.144058C 44.42218 12.649746 46.767078 10.973926 49.306198 11.258112C 51.845314 11.542298 53.761711 13.695057 53.75 16.25C 53.743225 16.701294 53.675098 17.149569 53.547501 17.5825C 53.825001 17.557501 54.092499 17.5 54.375 17.5C 57.945938 17.482567 61.213589 19.504904 62.79097 22.708614C 64.368355 25.912327 63.978737 29.735359 61.787498 32.555C 65.701492 32.823517 68.739235 36.076809 68.739235 40C 68.739235 43.923191 65.701492 47.176479 61.787498 47.445C 63.978737 50.264641 64.368355 54.087673 62.79097 57.291382C 61.213589 60.495094 57.945938 62.517433 54.375 62.5C 54.092499 62.5 53.825001 62.442497 53.547501 62.417496C 54.290405 65.045555 52.78714 67.783501 50.170994 68.567284C 47.55484 69.351059 44.793785 67.890656 43.969326 65.287041C 43.144867 62.683426 44.56205 59.899944 47.1525 59.035M 36.25 16C 38.570511 14.660254 41.429493 14.660254 43.75 16M 43.75 64C 41.429493 65.339745 38.570511 65.339745 36.25 64M 32.5 30L 47.5 30C 47.5 30 50 30 50 32.5L 50 47.5C 50 47.5 50 50 47.5 50L 32.5 50C 32.5 50 30 50 30 47.5L 30 32.5C 30 32.5 30 30 32.5 30M 35 25L 35 30M 45 25L 45 30M 25 45L 30 45M 25 35L 30 35M 45 55L 45 50M 35 55L 35 50M 55 35L 50 35M 55 45L 50 45"></path></g></g></g><g id="g-root-ic_box_1unf52e1e046q2-stroke" data-item-order="10000000000" transform="translate(518, 166)"><g id="ic_box_1unf52e1e046q2-stroke" fill="none" stroke-linecap="round" stroke-linejoin="round" stroke-miterlimit="4" stroke="#ffffff" stroke-width="2"><g><path d="M 29.859999 19.7575L 29.859999 57.024998L 35.485001 67.830002L 14.235 67.830002L 19.9625 56.894997L 19.860001 19.752501M 48.6875 20.955L 30.5725 20.955M 29.030001 13.455L 49.157501 13.455M 46.212498 55.047497L 62.2575 55.047497L 62.2575 68.419998L 46.212498 68.419998ZM 46.212498 55.047497L 41.532501 50.3675M 62.2575 55.047497L 66.9375 50.3675M 54.235001 31.477499C 52.196152 31.477962 50.467533 29.978476 50.18 27.960001L 48.75 17.9125C 48.441551 15.763026 49.415588 13.631211 51.24247 12.457381C 53.069351 11.28355 55.413151 11.28355 57.240032 12.457381C 59.06691 13.631211 60.040951 15.763026 59.732498 17.9125L 58.295002 27.959999C 58.008217 29.980909 56.27615 31.481535 54.234997 31.477499ZM 49.324997 38.880001L 59.147499 38.880001L 59.147499 48.702499L 49.324997 48.702499ZM 19.235001 17.205C 19.235001 20.311602 21.753399 22.83 24.860001 22.83C 27.966602 22.83 30.485001 20.311602 30.485001 17.205C 30.485001 14.098398 27.966602 11.58 24.860001 11.58C 21.753399 11.58 19.235001 14.098398 19.235001 17.205M 11.11 67.830002L 38.610001 67.830002M 61.59 26.022499L 59.074997 24.8925C 58.964809 24.861301 58.852974 24.836262 58.740002 24.817501L 58.290001 27.9625C 58.124855 29.045382 57.52655 30.014587 56.632496 30.647499L 59.0275 31.724998C 61.729149 32.937428 63.172501 35.912632 62.452499 38.785C 62.034145 40.459805 63.052696 42.156647 64.727501 42.575001C 66.402306 42.993359 68.099144 41.974804 68.517502 40.300003C 69.9729 34.490955 67.053635 28.474396 61.589996 26.022499ZM 50.18 27.9625L 49.73 24.817501C 49.617851 24.836267 49.506844 24.861307 49.397503 24.8925L 46.880001 26.025C 41.414101 28.474571 38.493874 34.493122 39.952499 40.302502C 40.303307 41.69067 41.550697 42.664291 42.982502 42.6675C 43.235279 42.66642 43.487038 42.635372 43.732498 42.575001C 45.406532 42.155842 46.423908 40.459095 46.005001 38.785C 45.285351 35.909943 46.733681 32.93317 49.439999 31.725002L 51.837502 30.647499C 50.944309 30.013786 50.346245 29.044979 50.18 27.962502Z"></path></g></g></g><g id="g-root-tx_concepti_93dv8m1e05ngt-stroke" data-item-order="10000000000" transform="translate(50, 190)"></g><g id="g-root-tx_automati_6hwti1e05mv5-stroke" data-item-order="10000000000" transform="translate(638, 190)"></g><g id="g-root-tx_optimisa_1d14x9i1e05lvu-stroke" data-item-order="10000000000" transform="translate(26, 420)"></g><g id="g-root-ic_plur_4hbm921e05mo4-stroke" data-item-order="10000000000" transform="translate(266, 418)"><g id="ic_plur_4hbm921e05mo4-stroke" fill="none" stroke-linecap="round" stroke-linejoin="round" stroke-miterlimit="4" stroke="#ffffff" stroke-width="2"><g><path d="M 39.412502 68.75L 39.412502 35.022499M 31.9175 43.764999L 31.9175 65.002502L 25.672501 65.002502L 25.672501 68.75M 16.9275 68.75L 16.9275 57.5075L 24.422501 57.5075L 24.422501 47.512501M 46.907497 43.764999L 46.907497 65.002502L 53.154999 65.002502L 53.154999 68.75M 61.900002 68.75L 61.900002 57.5075L 54.404999 57.5075L 54.404999 47.512501M 58.75 44.25C 63.977425 42.917686 67.600975 38.163589 67.5 32.77C 67.502357 29.524868 66.182922 26.418745 63.845745 24.167416C 61.508568 21.916086 58.35527 20.713757 55.112495 20.8375C 51.85556 13.924774 44.324821 10.101571 36.822151 11.551856C 29.319475 13.002141 23.756083 19.35647 23.309999 26.984999C 20.667839 26.429346 17.915962 27.094067 15.818769 28.794521C 13.721575 30.494976 12.502438 33.050045 12.5 35.75C 12.265585 39.917328 15.175086 43.605408 19.282499 44.3475"></path></g></g></g><g id="g-root-ic_clou_1q5q7om1e05lvv-stroke" data-item-order="10000000000" transform="translate(518, 418)"><g id="ic_clou_1q5q7om1e05lvv-stroke" fill="none" stroke-linecap="round" stroke-linejoin="round" stroke-miterlimit="4" stroke="#ffffff" stroke-width="2"><g><path d="M 59.4175 68.415001L 59.4175 52.080002M 56.149998 52.080002L 62.684998 52.080002M 56.149998 68.415001L 62.684998 68.415001M 37.797501 68.415001L 37.797501 61.880001M 37.797501 61.880001L 42.700001 61.880001C 45.40593 61.879623 47.599323 59.685932 47.599323 56.98C 47.599323 54.274067 45.40593 52.080376 42.700001 52.080002L 37.797501 52.080002ZM 16.1775 68.415001L 18.022501 56.1175C 18.392117 53.814133 20.379665 52.120094 22.7125 52.120094C 25.045336 52.120094 27.032883 53.814133 27.4025 56.1175L 29.25 68.415001M 17.035 62.697502L 28.389999 62.697502M 68.75 34.084999C 68.753136 30.692022 67.374107 27.444138 64.930748 25.08993C 62.487389 22.735722 59.190517 21.478306 55.799999 21.607498C 52.395882 14.379252 44.5224 10.38088 36.677795 11.896717C 28.833191 13.412554 23.016132 20.056393 22.549999 28.032501C 19.785784 27.453503 16.907833 28.151142 14.715572 29.931625C 12.523313 31.712111 11.250246 34.385796 11.25 37.209999C 11.25 46.735001 21.25 46.584999 21.25 46.584999L 57.5 46.584999C 57.5 46.584999 68.75 45.120003 68.75 34.084999Z"></path></g></g></g><g id="g-root-tx_capacits_4kfzom1e05n2m-stroke" data-item-order="10000000000" transform="translate(638, 420)"></g><g id="g-root-tx_optimisa_zpoew61e05ngr-stroke" data-item-order="10000000000" transform="translate(26, 480)"></g><g id="g-root-tx_amliorat_zofgpy1e05lan-stroke" data-item-order="10000000000" transform="translate(638, 504)"></g></g></g></svg>