<?xml version="1.0" encoding="utf-8" standalone="yes"?>
<!DOCTYPE svg PUBLIC "-//W3C//DTD SVG 1.1//EN" "http://www.w3.org/Graphics/SVG/1.1/DTD/svg11.dtd">
<svg width="841" height="385" viewBox="0 0 841 385" style="fill:none;stroke:none;fill-rule:evenodd;clip-rule:evenodd;stroke-linecap:round;stroke-linejoin:round;stroke-miterlimit:1.5;" version="1.1" xmlns="http://www.w3.org/2000/svg" xmlns:xlink="http://www.w3.org/1999/xlink"><style class="text-font-style fontImports" data-font-family="Roboto">@import url('https://fonts.googleapis.com/css2?family=Roboto:wght@400;700&amp;display=block');</style><g id="items" style="isolation: isolate"><g id="blend" style="mix-blend-mode: normal"><g id="g-root-sy_0_cu_m7zlfa1cwbhu2-fill" data-item-order="6999771910" transform="translate(14.000091552734375, 61.99951171875)"><g id="sy_0_cu_m7zlfa1cwbhu2-fill" stroke="none" fill="#6b6b6b"><g><path d="M 250 130C 250 196.274 196.274 250 130 250C 63.7258 250 10 196.274 10 130C 10 63.7258 63.7258 10 130 10C 196.274 10 250 63.7258 250 130Z"></path></g></g></g><g id="g-root-sy_3_cu_hsskdy1cwbfgj-fill" data-item-order="6999771914" transform="translate(241.19244384765625, 199.99951171875)"><g id="sy_3_cu_hsskdy1cwbfgj-fill" stroke="none" fill="#60703f"><g><path d="M 574.807 40L 154.807 40L 21.4665 10C 19.5456 22.7701 15.6123 34.8811 10 46L 154.807 136L 574.807 136L 574.807 40Z"></path></g></g></g><g id="g-root-sy_2_cu_8x5k521cwbg98-fill" data-item-order="6999771918" transform="translate(252.6593017578125, 133.99951171875)"><g id="sy_2_cu_8x5k521cwbg98-fill" stroke="none" fill="#41735b"><g><path d="M 563.341 10L 143.341 10L 10 40C 10.8832 45.8715 11.341 51.8823 11.341 58C 11.341 64.1177 10.8832 70.1285 10 76L 143.341 106L 563.341 106L 563.341 10Z"></path></g></g></g><g id="g-root-sy_1_cu_8x5k521cwbg99-fill" data-item-order="6999771922" transform="translate(241.19244384765625, 37.99951171875)"><g id="sy_1_cu_8x5k521cwbg99-fill" stroke="none" fill="#346778"><g><path d="M 574.807 10L 154.807 10L 10 100C 15.6123 111.119 19.5456 123.23 21.4665 136L 154.807 106L 574.807 106L 574.807 10Z"></path></g></g></g><g id="g-root-ic_1_8z0zee1cwbf9n-fill" data-item-order="6999997696" transform="translate(422.0000915527344, 61.99951171875)"><g id="ic_1_8z0zee1cwbf9n-fill" stroke="none" fill="#1ac3fb"><g><path d="M 31.139999 50.48C 30.952065 50.185799 30.629059 50.005516 30.279999 49.999996L 30 50C 29.723858 50 29.5 49.776142 29.5 49.5L 29.5 46.720001C 28.451445 42.921124 29.069653 38.855499 31.200001 35.540001C 31.378178 35.223343 31.378178 34.836655 31.199999 34.519997C 31.027449 34.195305 30.687658 33.994518 30.32 34L 15 34C 12.238577 34 10 36.238579 10 39C 10 41.761425 12.238577 44 15 44L 26 44C 26.276142 44 26.5 44.223858 26.5 44.5L 26.5 49.5C 26.5 49.776142 26.276142 50 26 50L 20 50C 19.171574 50 18.5 50.671574 18.5 51.5C 18.5 52.32843 19.171574 53 20 53L 30.959999 53C 31.332058 53.00164 31.672956 52.792454 31.84 52.459999C 32.03801 52.134407 32.03801 51.72559 31.84 51.399998C 31.587734 51.108212 31.353945 50.800945 31.140001 50.48ZM 16 39C 16 37.619289 17.119289 36.5 18.5 36.5C 19.880711 36.5 21 37.619289 21 39C 21 40.380714 19.880711 41.5 18.5 41.5C 17.119289 41.5 16 40.380714 16 39ZM 26 41.5C 24.619289 41.5 23.5 40.380714 23.5 39C 23.5 37.619289 24.619289 36.5 26 36.5C 27.380713 36.5 28.5 37.619289 28.5 39C 28.5 40.380714 27.380713 41.5 26 41.5ZM 14 50L 12 50C 11.171573 50 10.5 50.671574 10.5 51.5C 10.5 52.32843 11.171573 53 12 53L 14 53C 14.828427 53 15.5 52.32843 15.5 51.5C 15.5 50.671574 14.828427 50 14 50ZM 15 20L 41 20C 43.761425 20 46 17.761423 46 15C 46 12.238577 43.761425 10 41 10L 15 10C 12.238577 10 10 12.238577 10 15C 10 17.761423 12.238577 20 15 20ZM 16 15C 16 13.619288 17.119289 12.5 18.5 12.5C 19.880711 12.5 21 13.619288 21 15C 21 16.380713 19.880711 17.5 18.5 17.5C 17.119289 17.5 16 16.380713 16 15ZM 23.5 15C 23.5 13.619288 24.619289 12.5 26 12.5C 27.380713 12.5 28.5 13.619288 28.5 15C 28.5 16.380713 27.380713 17.5 26 17.5C 24.619289 17.5 23.5 16.380713 23.5 15ZM 43.060001 29C 43.608101 29.002815 44.155617 29.0362 44.699997 29.099998C 45.176647 29.162382 45.630238 28.876787 45.779999 28.42C 45.924168 27.960386 45.998333 27.481691 46 27C 46 24.238577 43.761425 22 41 22L 15 22C 12.238577 22 10 24.238577 10 27C 10 29.761423 12.238577 32 15 32L 34 32C 34.216141 31.998589 34.426239 31.928555 34.599998 31.799999C 37.039757 29.970127 40.0103 28.986967 43.060001 29ZM 28.5 27C 28.5 28.380713 27.380713 29.5 26 29.5C 24.619289 29.5 23.5 28.380713 23.5 27C 23.5 25.619289 24.619289 24.5 26 24.5C 27.380713 24.5 28.5 25.619289 28.5 27ZM 21 27C 21 28.380713 19.880711 29.5 18.5 29.5C 17.119289 29.5 16 28.380713 16 27C 16 25.619289 17.119289 24.5 18.5 24.5C 19.880711 24.5 21 25.619289 21 27ZM 32 43.060001C 31.990112 47.101223 34.189072 50.824898 37.732704 52.767643C 41.276337 54.710388 45.598267 54.561695 49 52.380001C 49.184067 52.24332 49.435928 52.24332 49.619999 52.379997L 54.580002 57.360001C 54.955532 57.738625 55.466724 57.951595 56 57.951595C 56.533276 57.951595 57.044468 57.738625 57.419998 57.360001C 57.798626 56.984467 58.011597 56.473274 58.011597 55.939999C 58.011597 55.406723 57.798626 54.895535 57.419998 54.52L 52.439999 49.560001C 52.303322 49.375927 52.303322 49.124065 52.439999 48.939999C 54.973137 44.975281 54.720737 39.841946 51.810883 36.144848C 48.901024 32.44775 43.970715 30.996237 39.521786 32.526863C 35.072853 34.057484 32.079231 38.235168 32.059998 42.939999ZM 43.060001 50.119999C 39.16087 50.119999 36 46.959129 36 43.060001C 36 39.16087 39.16087 36 43.060001 36C 46.959129 36 50.119999 39.16087 50.119999 43.060001C 50.119999 46.959129 46.959129 50.119999 43.060001 50.119999Z"></path></g></g></g><g id="g-root-ic_star_zpounq1cwbhu4-fill" data-item-order="6999997696" transform="translate(422.0000915527344, 157.99951171875)"><g id="ic_star_zpounq1cwbhu4-fill" stroke="none" fill="#43dd93"><g><path d="M 42 28.799999C 42.170677 28.710026 42.277512 28.532942 42.277512 28.339998C 42.277512 28.147055 42.170677 27.969973 42 27.879999L 38.940002 26.799999L 38 26.459999C 37.700165 25.708241 37.657967 24.878298 37.880001 24.100002C 39.666882 22.18047 40.553925 19.592054 40.32 16.98C 40.46384 15.202629 39.866604 13.444853 38.669746 12.123009C 37.472893 10.801165 35.782879 10.032834 34 10C 33.071587 10.004064 32.155865 10.21591 31.319998 10.62C 31.190605 10.687054 31.095287 10.805329 31.057262 10.946017C 31.019239 11.086706 31.042 11.236894 31.119999 11.36C 32.229187 13.023284 32.814365 14.98085 32.800003 16.98C 32.935585 19.526817 32.286362 22.053902 30.939999 24.219999C 30.86887 24.350964 30.86887 24.509033 30.940001 24.639999C 30.975914 24.792461 31.09017 24.914333 31.24 24.959999C 35.059998 26.4 37.82 27.620001 39.040001 30.040001L 39.16 30.280001C 39.252102 30.422586 39.410255 30.508707 39.580002 30.508707C 39.749748 30.508707 39.907898 30.422586 40 30.280001C 40.563782 29.660969 41.243202 29.158195 42 28.799999ZM 34.52 36L 36.900002 36C 37.099442 36.000694 37.280224 35.882793 37.360001 35.700001L 37.739998 34.799999C 37.760666 34.707809 37.760666 34.61219 37.739998 34.519997C 37.563801 33.356674 37.220245 32.224953 36.720001 31.16C 35.82 29.34 32.919998 28.280001 28.9 26.799999L 28 26.459999C 27.700163 25.708241 27.657963 24.878298 27.880001 24.100002C 29.666883 22.18047 30.553923 19.592054 30.32 16.98C 30.46384 15.202629 29.866604 13.444853 28.669746 12.123009C 27.472891 10.801165 25.782879 10.032834 24 10C 22.220631 10.038273 20.535881 10.808961 19.343391 12.130166C 18.150898 13.45137 17.556324 15.206028 17.700001 16.98C 17.47164 19.554062 18.343582 22.104496 20.1 24C 20.328602 24.796331 20.293522 25.645241 20 26.419998L 18.98 26.799999C 14.98 28.280001 12.059999 29.34 11.16 31.16C 10.390079 33.01054 9.995768 34.995689 10 37C 10 37.552284 10.447715 38 11 38L 29.6 38C 29.73247 37.995834 29.85952 37.946426 29.959999 37.860001C 31.177198 36.665894 32.814873 35.997894 34.52 36ZM 51.48 57.66C 52.439034 58.194485 53.631271 58.063484 54.451366 57.333508C 55.271461 56.603535 55.539745 55.434509 55.119999 54.419998L 52.66 48.799999C 52.58007 48.596458 52.636021 48.364662 52.799995 48.219997L 57.220001 44.220001C 57.955341 43.503544 58.191528 42.41708 57.82 41.459999C 57.411827 40.540718 56.48513 39.962521 55.48 40L 50.48 40C 50.280556 40.000694 50.099777 39.882793 50.02 39.700001L 47.34 33.459999C 46.903919 32.583317 46.009151 32.029045 45.029999 32.029045C 44.050846 32.029045 43.156078 32.583317 42.720001 33.459999L 40 39.700001C 39.920223 39.882793 39.739441 40.000694 39.540001 40L 34.540001 40C 33.521908 39.978195 32.593956 40.580967 32.200001 41.52C 31.826065 42.49678 32.078842 43.602673 32.84 44.32L 37.239998 48.220001C 37.39695 48.369434 37.444767 48.600548 37.360001 48.799999L 34.919998 54.419998C 34.462288 55.417374 34.714478 56.596973 35.540001 57.32C 36.016739 57.752769 36.636147 57.994835 37.279999 57.999996C 37.727829 57.99144 38.166954 57.874794 38.560001 57.66L 44.779999 54.16C 44.924236 54.059563 45.115761 54.059563 45.259998 54.16Z"></path></g></g></g><g id="g-root-ic_dete_qvx9o61cwbhn1-fill" data-item-order="6999997696" transform="translate(422.0000915527344, 253.99951171875)"><g id="ic_dete_qvx9o61cwbhn1-fill" stroke="none" fill="#a6da37"><g><path d="M 41.487999 33.785999L 56.388 33.785999C 57.256001 33.785999 58.504002 33.021999 57.787998 31.586L 47.787998 11.586C 47.388 10.986 46.787998 10.586 46.188 10.586L 46.172001 10.586C 46.025051 10.586469 45.879154 10.610785 45.740002 10.658C 45.299999 10.798 44.886002 11.138 44.585999 11.586L 37.512001 25.736L 34.585999 31.586C 33.870003 33.021999 35.118 33.785999 35.986 33.785999L 41.487999 33.785999ZM 35.440002 24.288C 34.233749 23.622318 32.914993 23.184992 31.549999 22.998001L 31.549999 32.849998L 31.9 32.849998L 31.896 32.806C 31.818453 31.99918 31.976131 31.187162 32.349998 30.467999L 35.440002 24.288ZM 33.251999 35.299999C 34.023743 35.931679 34.98872 36.279694 35.986 36.286003L 41.321999 36.285999C 40.459999 41.077999 36.538002 44.967999 31.549999 45.608002L 31.549999 35.349998L 32.900002 35.349998C 33.019089 35.349789 33.137566 35.332962 33.251999 35.299999ZM 29.049999 22.952L 29.049999 32.849998L 18.798 32.849998C 19.493999 27.690001 23.841999 23.458 29.049999 22.950001ZM 29.049999 35.349998L 18.75 35.349998C 19.251999 40.692001 23.548 45.144001 29.049999 45.652L 29.049999 35.349998ZM 30.1 49.700001C 24.416 49.700001 19.366001 52.02 15.592 55.792C 15.305246 56.07803 15.219339 56.508778 15.374432 56.882927C 15.529523 57.257072 15.894982 57.500725 16.299999 57.5L 43.900002 57.5C 44.305019 57.500725 44.670479 57.257072 44.825569 56.882927C 44.980659 56.508778 44.894753 56.07803 44.608002 55.792C 40.834 52.02 35.784 49.700001 30.1 49.700001ZM 47.124001 24.788L 47.824001 19.588001C 47.976002 18.462 47.124001 17.608 46.188 17.608C 45.251999 17.608 44.400002 18.462 44.549999 19.588001L 45.25 24.788C 45.25 25.188 45.720001 25.588001 46.188 25.588001C 46.655998 25.588001 47.124001 25.188 47.124001 24.788ZM 47.444 27.528C 47.112644 27.189821 46.661392 26.995811 46.188 26.988001C 45.714607 26.995811 45.263355 27.189821 44.931999 27.528C 44.591385 27.859676 44.395821 28.312639 44.388 28.788C 44.39687 29.261967 44.59235 29.713303 44.931999 30.044001C 45.263027 30.382914 45.714321 30.577662 46.188 30.586C 46.662376 30.578184 47.114483 30.383398 47.445999 30.044001C 47.785397 29.712484 47.980186 29.260376 47.987999 28.786001C 47.97966 28.312321 47.784916 27.861027 47.445999 27.530001ZM 14.016 27.9L 14.016 21.5L 20.416 21.5C 21.520569 21.5 22.416 20.604568 22.416 19.5C 22.416 18.395432 21.520569 17.5 20.416 17.5L 14.016 17.5C 12.962 17.5 11.927999 17.860001 11.152 18.636C 10.376 19.411999 10.016 20.445999 10.016 21.5L 10.016 27.9C 10.016 29.00457 10.91143 29.9 12.016 29.9C 13.120569 29.9 14.016 29.00457 14.016 27.9ZM 14.016 38.900002C 14.016 37.795433 13.120569 36.900002 12.016 36.900002C 10.91143 36.900002 10.016 37.795433 10.016 38.900002L 10.016 45.299999C 10.016 46.354 10.376 47.388 11.152 48.164001C 11.927999 48.939999 12.962 49.299999 14.016 49.299999L 20.416 49.299999C 21.520569 49.299999 22.416 48.404568 22.416 47.299999C 22.416 46.195431 21.520569 45.299999 20.416 45.299999L 14.016 45.299999L 14.016 38.900002ZM 48.787998 36.900002C 49.89257 36.900002 50.787998 37.795433 50.787998 38.900002L 50.787998 45.299999C 50.787998 46.354 50.428001 47.388 49.652 48.164001C 48.875999 48.939999 47.841999 49.299999 46.787998 49.299999L 40.188 49.299999C 39.083431 49.299999 38.188 48.404568 38.188 47.299999C 38.188 46.195431 39.083431 45.299999 40.188 45.299999L 46.787998 45.299999L 46.787998 38.900002C 46.787998 37.795433 47.68343 36.900002 48.787998 36.900002Z"></path></g></g></g><g id="g-root-tx_moteursd_18gc27q1cwbhmo-fill" data-item-order="7000000000" transform="translate(482.0000915527344, 73.99951171875)"><g id="tx_moteursd_18gc27q1cwbhmo-fill" stroke="none" fill="#1ac3fb"><g><text style="font: 20px Roboto, sans-serif; white-space: pre;" font-size="20px" font-family="Roboto, sans-serif"><tspan x="12" y="34" dominant-baseline="ideographic">Moteurs de recherche</tspan></text></g></g></g><g id="g-root-tx_applicat_1hbz2gm1cwbg27-fill" data-item-order="7000000000" transform="translate(44.000091552734375, 145.99951171875)"><g id="tx_applicat_1hbz2gm1cwbg27-fill" stroke="none" fill="#b7b7b7"><g><text style="font: bold 20px Roboto, sans-serif; white-space: pre;" font-weight="bold" font-size="20px" font-family="Roboto, sans-serif"><tspan x="12.28" y="34" dominant-baseline="ideographic">Applications du ML </tspan><tspan x="15.55" y="58" dominant-baseline="ideographic">dans les systèmes </tspan><tspan x="39.05" y="82" dominant-baseline="ideographic">d'information</tspan></text></g></g></g><g id="g-root-tx_systmesd_v5i0xi1cwbg1t-fill" data-item-order="7000000000" transform="translate(482.0000915527344, 169.99951171875)"><g id="tx_systmesd_v5i0xi1cwbg1t-fill" stroke="none" fill="#43dd93"><g><text style="font: 20px Roboto, sans-serif; white-space: pre;" font-size="20px" font-family="Roboto, sans-serif"><tspan x="12" y="34" dominant-baseline="ideographic">Systèmes de recommandations</tspan></text></g></g></g><g id="g-root-tx_dtection_m9v0om1cwbgui-fill" data-item-order="7000000000" transform="translate(482.0000915527344, 253.99951171875)"><g id="tx_dtection_m9v0om1cwbgui-fill" stroke="none" fill="#a6da37"><g><text style="font: 20px Roboto, sans-serif; white-space: pre;" font-size="20px" font-family="Roboto, sans-serif"><tspan x="12" y="34" dominant-baseline="ideographic">Détection d'anomalie en </tspan><tspan x="12" y="58" dominant-baseline="ideographic">cybersécurité</tspan></text></g></g></g><g id="g-root-sy_0_cu_m7zlfa1cwbhu2-stroke" data-item-order="6999771910" transform="translate(14.000091552734375, 61.99951171875)"><g id="sy_0_cu_m7zlfa1cwbhu2-stroke" fill="none" stroke-linecap="round" stroke-linejoin="round" stroke-miterlimit="4" stroke="#2c2c2c" stroke-width="2"><g><path d="M 250 130C 250 196.2742 196.2742 250 130 250C 63.7258 250 10 196.2742 10 130C 10 63.7258 63.7258 10 130 10C 196.2742 10 250 63.7258 250 130Z"></path></g></g></g><g id="g-root-sy_3_cu_hsskdy1cwbfgj-stroke" data-item-order="6999771914" transform="translate(241.19244384765625, 199.99951171875)"><g id="sy_3_cu_hsskdy1cwbfgj-stroke" fill="none" stroke-linecap="round" stroke-linejoin="round" stroke-miterlimit="4" stroke="#2c2e29" stroke-width="2"><g><path d="M 574.8075 40L 154.8075 40L 21.4665 10C 19.5456 22.7701 15.6123 34.8811 10 46L 154.8075 136L 574.8075 136L 574.8075 40Z"></path></g></g></g><g id="g-root-sy_2_cu_8x5k521cwbg98-stroke" data-item-order="6999771918" transform="translate(252.6593017578125, 133.99951171875)"><g id="sy_2_cu_8x5k521cwbg98-stroke" fill="none" stroke-linecap="round" stroke-linejoin="round" stroke-miterlimit="4" stroke="#2a2e2c" stroke-width="2"><g><path d="M 563.341 10L 143.341 10L 10 40C 10.8832 45.8715 11.341 51.8823 11.341 58C 11.341 64.1177 10.8832 70.1285 10 76L 143.341 106L 563.341 106L 563.341 10Z"></path></g></g></g><g id="g-root-sy_1_cu_8x5k521cwbg99-stroke" data-item-order="6999771922" transform="translate(241.19244384765625, 37.99951171875)"><g id="sy_1_cu_8x5k521cwbg99-stroke" fill="none" stroke-linecap="round" stroke-linejoin="round" stroke-miterlimit="4" stroke="#292d2f" stroke-width="2"><g><path d="M 574.8075 10L 154.8075 10L 10 100C 15.6123 111.1189 19.5456 123.2299 21.4665 136L 154.8075 106L 574.8075 106L 574.8075 10Z"></path></g></g></g><g id="g-root-ic_1_8z0zee1cwbf9n-stroke" data-item-order="6999997696" transform="translate(422.0000915527344, 61.99951171875)"></g><g id="g-root-ic_star_zpounq1cwbhu4-stroke" data-item-order="6999997696" transform="translate(422.0000915527344, 157.99951171875)"></g><g id="g-root-ic_dete_qvx9o61cwbhn1-stroke" data-item-order="6999997696" transform="translate(422.0000915527344, 253.99951171875)"></g><g id="g-root-tx_moteursd_18gc27q1cwbhmo-stroke" data-item-order="7000000000" transform="translate(482.0000915527344, 73.99951171875)"></g><g id="g-root-tx_applicat_1hbz2gm1cwbg27-stroke" data-item-order="7000000000" transform="translate(44.000091552734375, 145.99951171875)"></g><g id="g-root-tx_systmesd_v5i0xi1cwbg1t-stroke" data-item-order="7000000000" transform="translate(482.0000915527344, 169.99951171875)"></g><g id="g-root-tx_dtection_m9v0om1cwbgui-stroke" data-item-order="7000000000" transform="translate(482.0000915527344, 253.99951171875)"></g></g></g></svg>