<?xml version="1.0" encoding="utf-8" standalone="yes"?>
<!DOCTYPE svg PUBLIC "-//W3C//DTD SVG 1.1//EN" "http://www.w3.org/Graphics/SVG/1.1/DTD/svg11.dtd">
<svg width="804" height="396" viewBox="0 0 804 396" style="fill:none;stroke:none;fill-rule:evenodd;clip-rule:evenodd;stroke-linecap:round;stroke-linejoin:round;stroke-miterlimit:1.5;" version="1.1" xmlns="http://www.w3.org/2000/svg" xmlns:xlink="http://www.w3.org/1999/xlink"><style class="text-font-style fontImports" data-font-family="Roboto">@import url('https://fonts.googleapis.com/css2?family=Roboto:wght@400;700&amp;display=block');</style><g id="items" style="isolation: isolate"><g id="blend" style="mix-blend-mode: normal"><g id="g-root-sy_0_cu_92rb2g19a6xaa-fill" data-item-order="1999912225" transform="translate(321.0220947265625, 153.4742431640625)"><g id="sy_0_cu_92rb2g19a6xaa-fill" stroke="none" fill="#666666"><g><path d="M 87.2512 10C 44.5746 10 10 44.5851 10 87.2747C 10 129.964 44.5746 164.549 87.2512 164.549C 129.928 164.549 164.502 129.964 164.502 87.2747C 164.502 44.5851 129.928 10 87.2512 10ZM 87.2512 108.2511C 75.683 108.2511 66.2811 98.8464 66.2811 87.2747C 66.2811 75.703 75.683 66.2983 87.2512 66.2983C 98.8194 66.2983 108.2211 75.703 108.2211 87.2747C 108.2211 98.8464 98.8194 108.2511 87.2512 108.2511Z"></path></g></g></g><g id="g-root-sy_3_cu_92rb2g19a6xac-fill" data-item-order="1999912229" transform="translate(267.73046875, 230.662353515625)"><g id="sy_3_cu_92rb2g19a6xac-fill" stroke="none" fill="#92bd39"><g><path d="M 63.3349 10.0867L 31.2301 10.0867C 31.2301 13.9873 31.4465 17.8012 31.8365 21.615L 10 31.2798C 11.4298 40.2078 13.7695 48.7891 16.889 57.0236L 40.6319 54.4666C 43.7947 61.5309 47.6506 68.2052 52.1566 74.4028L 38.0755 93.689C 43.7079 100.58 50.0337 106.9076 56.9227 112.542L 76.2027 98.4563C 82.3984 102.9637 89.0709 106.8209 96.1331 109.9847L 93.5767 133.735C 101.8087 136.855 110.387 139.196 119.313 140.626L 128.975 118.783C 132.744 119.173 136.6 119.389 140.499 119.389L 140.499 87.2747C 97.8228 87.2747 63.2482 52.6896 63.2482 10L 63.3349 10.0867Z"></path></g></g></g><g id="g-root-sy_3_line_92rb2g19a6xai-fill" data-item-order="1999912234" transform="translate(518, 302)"></g><g id="g-root-sy_4_cu_92rb2g19a6xad-fill" data-item-order="1999912237" transform="translate(398.273193359375, 230.7490234375)"><g id="sy_4_cu_92rb2g19a6xad-fill" stroke="none" fill="#e0cb15"><g><path d="M 119.356 10L 87.2512 10C 87.2512 52.6896 52.6766 87.2747 10 87.2747L 10 119.389C 13.8994 119.389 17.712 119.173 21.5247 118.783L 31.1867 140.626C 40.112 139.196 48.6906 136.855 56.9227 133.735L 54.3663 109.9847C 61.4285 106.8209 68.1007 102.9637 74.2964 98.4563L 93.5767 112.542C 100.4656 106.9076 106.7914 100.58 112.424 93.689L 98.3428 74.4028C 102.8487 68.2052 106.7047 61.5309 109.8675 54.4666L 133.61 57.0236C 136.73 48.789 139.07 40.2078 140.499 31.2798L 118.663 21.615C 119.053 17.8445 119.269 13.9873 119.269 10.0867L 119.356 10Z"></path></g></g></g><g id="g-root-sy_4_line_92rb2g19a6xah-fill" data-item-order="1999912242" transform="translate(230, 302)"></g><g id="g-root-sy_2_cu_4mxsy019a6xak-fill" data-item-order="1999912245" transform="translate(398.3599853515625, 100.209716796875)"><g id="sy_2_cu_4mxsy019a6xak-fill" stroke="none" fill="#3cc583"><g><path d="M 87.1645 140.539L 119.269 140.539C 119.269 136.639 119.053 132.825 118.663 129.011L 140.499 119.346C 139.07 110.418 136.73 101.8368 133.61 93.6023L 109.8675 96.1593C 106.7047 89.095 102.8485 82.4207 98.3425 76.2231L 112.424 56.9369C 106.7912 50.0459 100.4656 43.7183 93.5767 38.0841L 74.2964 52.1695C 68.1007 47.6622 61.4285 43.805 54.3663 40.6412L 56.9224 16.891C 48.6904 13.7706 40.1117 11.4302 31.1865 10L 21.5247 31.8432C 17.7553 31.4532 13.8994 31.2365 10 31.2365L 10 63.3512C 52.6766 63.3512 87.2509 97.9363 87.2509 140.626L 87.1645 140.539Z"></path></g></g></g><g id="g-root-sy_2_line_92rb2g19a6xab-fill" data-item-order="1999912250" transform="translate(518, 158)"></g><g id="g-root-sy_1_cu_4mxsy019a6xaj-fill" data-item-order="1999912253" transform="translate(267.7738037109375, 100.123046875)"><g id="sy_1_cu_4mxsy019a6xaj-fill" stroke="none" fill="#1eabda"><g><path d="M 140.499 63.3512L 140.499 31.2365C 136.6 31.2365 132.787 31.4532 128.974 31.8432L 119.313 10C 110.387 11.4302 101.8087 13.7706 93.5767 16.891L 96.1331 40.6412C 89.0709 43.805 82.3984 47.6622 76.2027 52.1695L 56.9227 38.0841C 50.0338 43.7183 43.7079 50.0459 38.0755 56.9369L 52.1566 76.2231C 47.6506 82.4206 43.7947 89.095 40.6319 96.1593L 16.8888 93.6023C 13.7693 101.8368 11.4298 110.418 10 119.346L 31.8365 129.011C 31.4465 132.781 31.2298 136.639 31.2298 140.539L 63.3349 140.539C 63.3349 97.8496 97.9095 63.2645 140.586 63.2645L 140.499 63.3512Z"></path></g></g></g><g id="g-root-sy_1_line_92rb2g19a6xa9-fill" data-item-order="1999912258" transform="translate(230, 158)"></g><g id="g-root-ic_moni_4mxsy019a6xam-fill" data-item-order="1999998704" transform="translate(182, 140)"><g id="ic_moni_4mxsy019a6xam-fill" stroke="none" fill="#1eabda"><g><path d="M 38.619999 39.099998L 30.445 39.099998C 30.163643 38.631218 29.946693 38.126686 29.799999 37.599998L 33.294998 37.599998C 34.747169 37.591747 35.920025 36.412193 35.920002 34.959999L 35.920002 28.960001C 35.920025 27.507805 34.747169 26.328251 33.294998 26.32L 22.705 26.32C 21.246967 26.32 20.065001 27.501968 20.065001 28.959999L 20.065001 34.959999C 20.065001 36.41803 21.246967 37.599998 22.705 37.599998L 26.200001 37.599998C 26.053307 38.126686 25.836357 38.631218 25.555 39.099998L 18.055 39.099998C 17.43368 39.100002 16.93 39.60368 16.93 40.225002C 16.93 40.846321 17.43368 41.350002 18.055 41.350002L 18.4 41.349998L 18.4 44.695C 18.400002 45.316322 18.903681 45.82 19.525002 45.82C 20.14632 45.82 20.650002 45.316322 20.650002 44.695L 20.65 41.349998L 35.949997 41.349998L 35.949997 44.695C 35.950001 45.316322 36.453678 45.82 37.075001 45.82C 37.69632 45.82 38.200001 45.316322 38.200001 44.695L 38.199997 41.349998L 38.619999 41.349998C 39.241322 41.350002 39.744999 40.846321 39.744999 40.225002C 39.744999 39.60368 39.241322 39.100002 38.619999 39.100002ZM 22.315001 34.974998L 22.315001 28.974998C 22.314999 28.759607 22.489609 28.584999 22.704998 28.584999L 33.294998 28.585001C 33.39711 28.584919 33.494839 28.62648 33.565613 28.700085C 33.636387 28.773689 33.674084 28.872971 33.669998 28.974998L 33.669998 34.974998C 33.670155 35.184662 33.504509 35.356934 33.294998 35.364998L 22.705 35.364998C 22.489609 35.364998 22.314999 35.190388 22.314999 34.974998ZM 44.829998 21.805L 40 21.805C 39.804028 21.427328 39.648178 21.030159 39.535 20.619999L 42.550003 20.619999C 44.00803 20.619999 45.189999 19.438032 45.189999 17.98L 45.189999 12.805C 45.190014 12.1062 44.911392 11.436237 44.415859 10.943521C 43.920326 10.450805 43.248787 10.176007 42.550003 10.18L 33.294998 10.18C 32.59621 10.176007 31.924675 10.450805 31.429142 10.943521C 30.933609 11.436237 30.654989 12.1062 30.655001 12.805L 30.655001 17.98C 30.654999 19.438032 31.836967 20.619999 33.294998 20.619999L 36.385002 20.619999C 36.27182 21.030159 36.115971 21.427328 35.920002 21.805L 19.33 21.805C 19.128967 21.427889 18.968084 21.030712 18.85 20.619999L 22 20.619999C 23.440428 20.595444 24.595209 19.420637 24.594999 17.98L 24.594999 12.805C 24.595095 11.366888 23.438019 10.196436 22 10.18L 12.684999 10.18C 11.97847 10.163846 11.295273 10.433261 10.789935 10.927305C 10.284598 11.42135 9.999815 12.098286 10 12.805L 10 17.98C 9.999897 18.688038 10.284208 19.366444 10.78908 19.862854C 11.293951 20.359264 11.977064 20.632069 12.684999 20.619999L 15.775 20.619999C 15.668357 21.032307 15.512222 21.430199 15.309999 21.805L 11.365 21.805C 10.74368 21.805 10.24 22.30868 10.24 22.93C 10.24 23.551321 10.74368 24.055 11.365 24.055L 11.62 24.055L 11.62 29.68C 11.62 30.301321 12.12368 30.805 12.745 30.805C 13.366321 30.805 13.87 30.301321 13.87 29.68L 13.87 24.055L 41.994999 24.055L 41.994999 29.68C 41.994999 30.301321 42.49868 30.805 43.119999 30.805C 43.741322 30.805 44.244999 30.301321 44.244999 29.68L 44.244999 24.055L 44.829998 24.055C 45.451321 24.055 45.955002 23.551321 45.955002 22.93C 45.955002 22.30868 45.451321 21.805 44.830002 21.805ZM 12.684999 18.369999C 12.469608 18.369999 12.295 18.195391 12.295 17.98L 12.295 12.805C 12.303064 12.595489 12.475333 12.429845 12.684999 12.43L 22 12.43C 22.209665 12.429845 22.381935 12.595489 22.389999 12.805L 22.389999 17.98C 22.389999 18.195391 22.215391 18.369999 22 18.369999ZM 33.294998 18.369999C 33.079609 18.369999 32.904999 18.195391 32.904999 17.98L 32.904999 12.805C 32.904919 12.702889 32.94648 12.605161 33.020084 12.534388C 33.093689 12.463614 33.19297 12.425916 33.294998 12.43L 42.550003 12.43C 42.652027 12.425916 42.751312 12.463614 42.824917 12.534388C 42.898521 12.605161 42.940083 12.702889 42.939999 12.805L 42.939999 17.98C 42.939999 18.195391 42.765388 18.369999 42.549999 18.369999Z"></path></g></g></g><g id="g-root-ic_clus_4mxsy019a6xan-fill" data-item-order="1999998704" transform="translate(578, 140)"><g id="ic_clus_4mxsy019a6xan-fill" stroke="none" fill="#3cc583"><g><path d="M 29.783501 10.8205C 30.208 10.396 30.7885 10.183 31.414 10.183L 34.446999 10.183C 35.072502 10.183 35.653 10.396 36.077499 10.8205C 36.501999 11.245 36.715 11.8255 36.715 12.451L 36.715 15.328L 36.744999 15.358L 40.373501 18.9865C 40.420002 18.9835 40.468002 18.982 40.515999 18.982L 43.549 18.982C 44.1745 18.982 44.755001 19.193501 45.179497 19.619499C 45.605499 20.044001 45.817001 20.6245 45.817001 21.25L 45.817001 24.283001C 45.817001 24.908501 45.605499 25.489 45.179497 25.9135C 44.755001 26.338001 44.1745 26.551001 43.549 26.551001L 43.532501 26.551001L 43.532501 29.601999L 43.549 29.601999C 44.1745 29.601999 44.755001 29.812 45.179497 30.237999C 45.605499 30.664 45.817001 31.243 45.817001 31.8685L 45.817001 34.903C 45.817001 35.5285 45.605499 36.107502 45.179497 36.533501C 44.755001 36.958 44.1745 37.169502 43.549 37.169502L 40.515999 37.169502C 40.417 37.169502 40.3195 37.165001 40.222 37.154503L 36.715 40.521999L 36.715 43.549C 36.715 44.1745 36.501999 44.755001 36.077499 45.179497C 35.653 45.605499 35.072502 45.817001 34.446999 45.817001L 31.414 45.817001C 30.786999 45.817001 30.208 45.604 29.783501 45.179497C 29.3575 44.755001 29.146 44.1745 29.146 43.549L 29.146 40.515999C 29.146 40.4575 29.147501 40.400501 29.152 40.345001C 29.118773 40.30365 29.08773 40.260593 29.059 40.216003L 24.377501 32.900501C 24.383469 32.80962 24.386471 32.718575 24.386499 32.627499L 24.386499 23.524C 24.386503 23.432426 24.383503 23.340878 24.377501 23.2495L 29.1175 15.838C 29.131891 15.816082 29.146896 15.794573 29.162498 15.7735C 29.152336 15.677337 29.147331 15.580698 29.147501 15.484L 29.147501 12.451C 29.147501 11.8255 29.3575 11.245 29.783501 10.8205ZM 34.733501 38.2645L 38.248001 34.8895L 38.248001 34.717003L 26.619999 30.841L 31.362999 38.2495L 31.414 38.2495L 34.446999 38.2495C 34.544502 38.2495 34.640499 38.254002 34.735001 38.2645ZM 40.515999 26.5495L 40.532501 26.5495L 40.532501 29.601999L 40.515999 29.601999C 39.890499 29.601999 39.310001 29.812 38.885498 30.237999C 38.534775 30.595266 38.316269 31.061384 38.265999 31.5595L 27.8125 28.0765L 38.267498 24.591999C 38.324501 25.0975 38.531502 25.5595 38.885498 25.9135C 39.310001 26.338001 39.890499 26.551001 40.515999 26.551001ZM 38.250999 21.1075L 34.863998 17.719C 34.729 17.74 34.5895 17.752001 34.446999 17.752001L 31.455999 17.752001L 26.6185 25.312L 38.248001 21.4345L 38.248001 21.25C 38.248001 21.202 38.2495 21.153999 38.252499 21.1075ZM 20.619999 34.144001C 21.5305 34.144001 22.138 33.536499 22.138 32.627499L 22.138 23.524C 22.138 22.615 21.5305 22.008999 20.619999 22.008999L 11.5165 22.008999C 10.6075 22.0075 10 22.615 10 23.522501L 10 32.625999C 10 33.535 10.6075 34.142498 11.5165 34.142498L 20.619999 34.142498Z"></path></g></g></g><g id="g-root-ic_shar_92rb2g19a6xaf-fill" data-item-order="1999998704" transform="translate(182, 284)"><g id="ic_shar_92rb2g19a6xaf-fill" stroke="none" fill="#92bd39"><g><path d="M 20.875 26.5L 12.625 26.5C 11.17866 26.508194 10.008195 27.678659 10 29.125L 10 43.375C 10.008195 44.821339 11.17866 45.991806 12.625 46L 20.875 46C 22.324747 46.000004 23.5 44.824749 23.5 43.375004L 23.5 29.125C 23.5 27.675255 22.324747 26.5 20.875 26.500002ZM 12.625 28.75L 20.875 28.75C 21.082108 28.75 21.25 28.917892 21.25 29.125L 21.25 40L 12.25 40L 12.25 29.200001C 12.227186 29.088354 12.256374 28.972395 12.329325 28.884853C 12.402275 28.797314 12.511071 28.747692 12.625 28.75ZM 43.375 10L 32.125 10C 30.678659 10.008195 29.508194 11.17866 29.5 12.625L 29.5 23.125C 29.508194 24.571339 30.678659 25.741804 32.125 25.75L 43.375 25.75C 44.821339 25.741804 45.991806 24.571339 46 23.125L 46 12.625C 45.991806 11.17866 44.821339 10.008195 43.375 10ZM 38.5 15.355L 38.5 18.355L 31.75 18.355L 31.75 15.355ZM 40.75 15.355L 43.75 15.355L 43.75 18.355L 40.75 18.355ZM 31.75 23.125L 31.75 20.575001L 38.5 20.575001L 38.5 23.5L 32.125 23.5C 31.917892 23.5 31.75 23.332108 31.75 23.125ZM 43.375 23.5L 40.779999 23.5L 40.779999 20.575001L 43.779999 20.575001L 43.779999 23.125C 43.780334 23.229879 43.736736 23.330107 43.659782 23.401361C 43.582825 23.472618 43.479546 23.508392 43.375 23.5ZM 27.715 13.555L 24.34 10.315C 24.018038 10.000672 23.53817 9.911807 23.125 10.09C 22.707836 10.264906 22.436005 10.672655 22.434999 11.125L 22.434999 13.24L 21.309999 13.24C 18.256229 13.198188 15.742494 15.631485 15.684999 18.684999L 15.684999 19.18L 13.434999 19.18C 12.97634 19.180294 12.563782 19.459 12.392303 19.884398C 12.220825 20.309795 12.324765 20.796703 12.655 21.115L 16 24.355C 16.439226 24.79368 17.150774 24.79368 17.59 24.355001L 20.965 21.115C 21.295235 20.796703 21.399176 20.309795 21.227697 19.884398C 21.056217 19.459 20.64366 19.180294 20.185001 19.18L 17.934999 19.18L 17.934999 18.684999C 17.992161 16.874084 19.498671 15.447921 21.310001 15.49L 22.434999 15.49L 22.434999 17.605C 22.436005 18.057344 22.707836 18.465096 23.125 18.639999C 23.243587 18.692255 23.370613 18.72274 23.5 18.73C 23.791571 18.73304 24.072311 18.619665 24.280001 18.415001L 27.655001 15.175C 27.886946 14.973564 28.025036 14.68501 28.036407 14.378016C 28.047775 14.071021 27.93141 13.773042 27.715 13.555Z"></path></g></g></g><g id="g-root-ic_1_92rb2g19a6xag-fill" data-item-order="1999998704" transform="translate(578, 284)"><g id="ic_1_92rb2g19a6xag-fill" stroke="none" fill="#e0cb15"><g><path d="M 16.136499 25.875999C 16.136499 19.399 21.5065 14.0305 27.982 14.0305C 31.429001 14.0305 34.561001 15.55 36.738998 17.9485L 35.632 19.0555C 35.242065 19.432112 35.085682 19.989817 35.222954 20.514261C 35.360229 21.038704 35.769794 21.448273 36.294239 21.585546C 36.818684 21.722818 37.376389 21.566435 37.753002 21.1765L 38.485001 20.4445C 39.366352 22.118799 39.827103 23.982395 39.827499 25.8745C 39.827499 26.702927 40.499073 27.3745 41.327499 27.3745C 42.155926 27.3745 42.827499 26.702927 42.827499 25.8745C 42.826866 23.182682 42.085838 20.5429 40.685501 18.243999L 41.686001 17.2435C 42.254456 16.654932 42.24633 15.719373 41.667728 15.140772C 41.089127 14.562172 40.153568 14.554042 39.564999 15.122499L 38.8615 15.8245C 36.140499 12.8845 32.257 11.0305 27.982 11.0305C 19.848999 11.0305 13.1365 17.741499 13.1365 25.875999C 13.1365 26.704428 13.808073 27.375999 14.6365 27.375999C 15.464928 27.375999 16.136499 26.704428 16.136499 25.875999ZM 28.0525 21.184C 23.6245 21.184 19.904501 24.903999 19.904501 29.331999C 19.904501 31.529499 20.7535 33.572502 22.283501 35.102501C 22.661499 35.482002 22.978001 35.920002 23.213501 36.398502L 32.891499 36.398502C 33.126999 35.918499 33.443501 35.482002 33.821499 35.102501C 35.354084 33.574409 36.210869 31.496201 36.2005 29.331999C 36.2005 24.903999 32.480499 21.184 28.0525 21.184ZM 23.698 38.464001L 23.698 38.425003L 32.406998 38.425003L 32.406998 38.464001C 32.411572 40.222797 31.244856 41.76963 29.5525 42.248501L 29.5525 43.407997C 29.5525 44.236427 28.880928 44.907997 28.0525 44.907997C 27.224073 44.907997 26.5525 44.236427 26.5525 43.407997L 26.5525 42.248501C 24.860146 41.76963 23.693432 40.222797 23.698 38.464001ZM 40.6255 31.801001C 39.902283 31.801001 39.316002 32.387283 39.316002 33.1105C 39.316002 33.833717 39.902283 34.420002 40.625504 34.420002C 41.348717 34.420002 41.935001 33.833717 41.935001 33.1105C 41.935001 32.387283 41.348717 31.801001 40.625504 31.801001ZM 36.316002 33.1105C 36.315327 30.729952 38.244949 28.799782 40.625496 28.799782C 43.006046 28.799782 44.935669 30.729952 44.934998 33.110497C 44.934326 35.490097 43.005093 37.418781 40.625496 37.418781C 38.245903 37.418781 36.316669 35.490097 36.315998 33.110497ZM 14.635 34.928497C 15.303754 34.955639 15.933656 34.614326 16.276114 34.039268C 16.61857 33.464214 16.61857 32.747787 16.276114 32.172729C 15.933656 31.597672 15.303754 31.256363 14.635 31.283501C 13.657207 31.323177 12.884956 32.127403 12.884956 33.105999C 12.884956 34.084599 13.657207 34.888824 14.635 34.928497Z"></path></g></g></g><g id="g-root-tx_transfor_dikt6w19a6wht-fill" data-item-order="2000000000" transform="translate(140, 14)"><g id="tx_transfor_dikt6w19a6wht-fill" stroke="none" fill="#484848"><g><text style="font: 20px Roboto, sans-serif; white-space: pre;" font-size="20px" font-family="Roboto, sans-serif"><tspan x="16.5" y="34" dominant-baseline="ideographic">Transformation Industrielle par l'Intégration Informatique</tspan></text></g></g></g><g id="g-root-tx_gestiond_4mxsy019a6xal-fill" data-item-order="2000000000" transform="translate(26, 122)"><g id="tx_gestiond_4mxsy019a6xal-fill" stroke="none" fill="#32444a"><g><text style="font: 20px Roboto, sans-serif; white-space: pre;" font-size="20px" font-family="Roboto, sans-serif"><tspan x="46.42" y="34" dominant-baseline="ideographic">Gestion des </tspan><tspan x="21.06" y="58" dominant-baseline="ideographic">Infrastructures </tspan><tspan x="72.61" y="82" dominant-baseline="ideographic">Critiques</tspan></text></g></g></g><g id="g-root-tx_distribu_92rb2g19a6xa8-fill" data-item-order="2000000000" transform="translate(626, 134)"><g id="tx_distribu_92rb2g19a6xa8-fill" stroke="none" fill="#374840"><g><text style="font: 20px Roboto, sans-serif; white-space: pre;" font-size="20px" font-family="Roboto, sans-serif"><tspan x="12" y="34" dominant-baseline="ideographic">Distribution de </tspan><tspan x="12" y="58" dominant-baseline="ideographic">Services</tspan></text></g></g></g><g id="g-root-tx_converge_92rb2g19a6xae-fill" data-item-order="2000000000" transform="translate(50, 278)"><g id="tx_converge_92rb2g19a6xae-fill" stroke="none" fill="#424736"><g><text style="font: 20px Roboto, sans-serif; white-space: pre;" font-size="20px" font-family="Roboto, sans-serif"><tspan x="11.81" y="34" dominant-baseline="ideographic">Convergence </tspan><tspan x="76.95" y="58" dominant-baseline="ideographic">TI/TO</tspan></text></g></g></g><g id="g-root-tx_innovati_4nka1419a6uwz-fill" data-item-order="2000000000" transform="translate(626, 290)"><g id="tx_innovati_4nka1419a6uwz-fill" stroke="none" fill="#46432d"><g><text style="font: 20px Roboto, sans-serif; white-space: pre;" font-size="20px" font-family="Roboto, sans-serif"><tspan x="12" y="34" dominant-baseline="ideographic">Innovation</tspan></text></g></g></g><g id="g-root-sy_0_cu_92rb2g19a6xaa-stroke" data-item-order="1999912225" transform="translate(321.0220947265625, 153.4742431640625)"><g id="sy_0_cu_92rb2g19a6xaa-stroke" fill="none" stroke-linecap="round" stroke-linejoin="round" stroke-miterlimit="4" stroke="#ffffff" stroke-width="2"><g><path d="M 87.2512 10C 44.5746 10 10 44.5851 10 87.2747C 10 129.9643 44.5746 164.5494 87.2512 164.5494C 129.9278 164.5494 164.5024 129.9643 164.5024 87.2747C 164.5024 44.5851 129.9278 10 87.2512 10ZM 87.2512 108.2511C 75.683 108.2511 66.2811 98.8464 66.2811 87.2747C 66.2811 75.703 75.683 66.2983 87.2512 66.2983C 98.8194 66.2983 108.2211 75.703 108.2211 87.2747C 108.2211 98.8464 98.8194 108.2511 87.2512 108.2511ZM 128.064744 87.27473C 128.064744 109.82233 109.791944 128.10073 87.251244 128.10073C 64.710544 128.10073 46.437744 109.82233 46.437744 87.27473C 46.437744 64.72713 64.710544 46.44873 87.251244 46.44873C 109.791944 46.44873 128.064744 64.72713 128.064744 87.27473Z"></path></g></g></g><g id="g-root-sy_3_cu_92rb2g19a6xac-stroke" data-item-order="1999912229" transform="translate(267.73046875, 230.662353515625)"><g id="sy_3_cu_92rb2g19a6xac-stroke" fill="none" stroke-linecap="round" stroke-linejoin="round" stroke-miterlimit="4" stroke="#ffffff" stroke-width="2"><g><path d="M 63.3349 10.0867L 31.2301 10.0867C 31.2301 13.9873 31.4465 17.8011 31.8365 21.615L 10 31.2798C 11.4298 40.2078 13.7695 48.7891 16.889 57.0236L 40.6319 54.4666C 43.7947 61.5309 47.6506 68.2052 52.1566 74.4028L 38.0755 93.689C 43.7079 100.58 50.0337 106.9076 56.9227 112.5418L 76.2027 98.4563C 82.3984 102.9637 89.0709 106.8209 96.1331 109.9847L 93.5767 133.7349C 101.8087 136.8553 110.3874 139.1957 119.3126 140.6259L 128.9746 118.7827C 132.744 119.1727 136.6 119.3894 140.4994 119.3894L 140.4994 87.2747C 97.8228 87.2747 63.2482 52.6896 63.2482 10L 63.3349 10.0867Z"></path></g></g></g><g id="g-root-sy_3_line_92rb2g19a6xai-stroke" data-item-order="1999912234" transform="translate(518, 302)"><g id="sy_3_line_92rb2g19a6xai-stroke" fill="none" stroke-linecap="round" stroke-linejoin="round" stroke-miterlimit="4" stroke="#484848" stroke-width="2"><g><path d="M 58 10L 12 10"></path><path d="M 18 3.5L 11.5 10L 18 16.5" stroke-dasharray="none"></path></g></g></g><g id="g-root-sy_4_cu_92rb2g19a6xad-stroke" data-item-order="1999912237" transform="translate(398.273193359375, 230.7490234375)"><g id="sy_4_cu_92rb2g19a6xad-stroke" fill="none" stroke-linecap="round" stroke-linejoin="round" stroke-miterlimit="4" stroke="#ffffff" stroke-width="2"><g><path d="M 119.356 10L 87.2512 10C 87.2512 52.6896 52.6766 87.2747 10 87.2747L 10 119.3894C 13.8994 119.3894 17.712 119.1727 21.5247 118.7827L 31.1867 140.6259C 40.112 139.1957 48.6906 136.8553 56.9227 133.7349L 54.3663 109.9847C 61.4285 106.8209 68.1007 102.9637 74.2964 98.4563L 93.5767 112.5418C 100.4656 106.9076 106.7914 100.58 112.4239 93.689L 98.3428 74.4028C 102.8487 68.2052 106.7047 61.5309 109.8675 54.4666L 133.6103 57.0236C 136.7298 48.789 139.0696 40.2078 140.4994 31.2798L 118.6629 21.615C 119.0528 17.8445 119.2693 13.9873 119.2693 10.0867L 119.356 10Z"></path></g></g></g><g id="g-root-sy_4_line_92rb2g19a6xah-stroke" data-item-order="1999912242" transform="translate(230, 302)"><g id="sy_4_line_92rb2g19a6xah-stroke" fill="none" stroke-linecap="round" stroke-linejoin="round" stroke-miterlimit="4" stroke="#484848" stroke-width="2"><g><path d="M 10 10L 56 10"></path><path d="M 50 16.5L 56.5 10L 50 3.5" stroke-dasharray="none"></path></g></g></g><g id="g-root-sy_2_cu_4mxsy019a6xak-stroke" data-item-order="1999912245" transform="translate(398.3599853515625, 100.209716796875)"><g id="sy_2_cu_4mxsy019a6xak-stroke" fill="none" stroke-linecap="round" stroke-linejoin="round" stroke-miterlimit="4" stroke="#ffffff" stroke-width="2"><g><path d="M 87.1645 140.5392L 119.2693 140.5392C 119.2693 136.6386 119.0526 132.8247 118.6626 129.0108L 140.4994 119.3461C 139.0696 110.4181 136.7298 101.8368 133.6103 93.6023L 109.8675 96.1593C 106.7047 89.095 102.8485 82.4207 98.3425 76.2231L 112.4236 56.9369C 106.7912 50.0459 100.4656 43.7183 93.5767 38.0841L 74.2964 52.1695C 68.1007 47.6622 61.4285 43.805 54.3663 40.6412L 56.9224 16.891C 48.6904 13.7706 40.1117 11.4302 31.1865 10L 21.5247 31.8432C 17.7553 31.4532 13.8994 31.2365 10 31.2365L 10 63.3512C 52.6766 63.3512 87.2509 97.9363 87.2509 140.6259L 87.1645 140.5392Z"></path></g></g></g><g id="g-root-sy_2_line_92rb2g19a6xab-stroke" data-item-order="1999912250" transform="translate(518, 158)"><g id="sy_2_line_92rb2g19a6xab-stroke" fill="none" stroke-linecap="round" stroke-linejoin="round" stroke-miterlimit="4" stroke="#484848" stroke-width="2"><g><path d="M 58 10L 12 10"></path><path d="M 18 3.5L 11.5 10L 18 16.5" stroke-dasharray="none"></path></g></g></g><g id="g-root-sy_1_cu_4mxsy019a6xaj-stroke" data-item-order="1999912253" transform="translate(267.7738037109375, 100.123046875)"><g id="sy_1_cu_4mxsy019a6xaj-stroke" fill="none" stroke-linecap="round" stroke-linejoin="round" stroke-miterlimit="4" stroke="#ffffff" stroke-width="2"><g><path d="M 140.4994 63.3512L 140.4994 31.2365C 136.6 31.2365 132.7871 31.4532 128.9744 31.8432L 119.3127 10C 110.3874 11.4302 101.8087 13.7706 93.5767 16.891L 96.1331 40.6412C 89.0709 43.805 82.3984 47.6622 76.2027 52.1695L 56.9227 38.0841C 50.0338 43.7183 43.7079 50.0459 38.0755 56.9369L 52.1566 76.2231C 47.6506 82.4206 43.7947 89.095 40.6319 96.1593L 16.8888 93.6023C 13.7693 101.8368 11.4298 110.4181 10 119.3461L 31.8365 129.0108C 31.4465 132.7814 31.2298 136.6386 31.2298 140.5392L 63.3349 140.5392C 63.3349 97.8496 97.9095 63.2645 140.5861 63.2645L 140.4994 63.3512Z"></path></g></g></g><g id="g-root-sy_1_line_92rb2g19a6xa9-stroke" data-item-order="1999912258" transform="translate(230, 158)"><g id="sy_1_line_92rb2g19a6xa9-stroke" fill="none" stroke-linecap="round" stroke-linejoin="round" stroke-miterlimit="4" stroke="#484848" stroke-width="2"><g><path d="M 10 10L 56 10"></path><path d="M 50 16.5L 56.5 10L 50 3.5" stroke-dasharray="none"></path></g></g></g><g id="g-root-ic_moni_4mxsy019a6xam-stroke" data-item-order="1999998704" transform="translate(182, 140)"></g><g id="g-root-ic_clus_4mxsy019a6xan-stroke" data-item-order="1999998704" transform="translate(578, 140)"></g><g id="g-root-ic_shar_92rb2g19a6xaf-stroke" data-item-order="1999998704" transform="translate(182, 284)"></g><g id="g-root-ic_1_92rb2g19a6xag-stroke" data-item-order="1999998704" transform="translate(578, 284)"></g><g id="g-root-tx_transfor_dikt6w19a6wht-stroke" data-item-order="2000000000" transform="translate(140, 14)"></g><g id="g-root-tx_gestiond_4mxsy019a6xal-stroke" data-item-order="2000000000" transform="translate(26, 122)"></g><g id="g-root-tx_distribu_92rb2g19a6xa8-stroke" data-item-order="2000000000" transform="translate(626, 134)"></g><g id="g-root-tx_converge_92rb2g19a6xae-stroke" data-item-order="2000000000" transform="translate(50, 278)"></g><g id="g-root-tx_innovati_4nka1419a6uwz-stroke" data-item-order="2000000000" transform="translate(626, 290)"></g></g></g></svg>