<?xml version="1.0" encoding="utf-8" standalone="yes"?>
<!DOCTYPE svg PUBLIC "-//W3C//DTD SVG 1.1//EN" "http://www.w3.org/Graphics/SVG/1.1/DTD/svg11.dtd">
<svg width="672" height="370" viewBox="0 0 672 370" style="fill:none;stroke:none;fill-rule:evenodd;clip-rule:evenodd;stroke-linecap:round;stroke-linejoin:round;stroke-miterlimit:1.5;" version="1.1" xmlns="http://www.w3.org/2000/svg" xmlns:xlink="http://www.w3.org/1999/xlink"><style class="text-font-style fontImports" data-font-family="Roboto">@import url('https://fonts.googleapis.com/css2?family=Roboto:wght@400;700&amp;display=block');</style><g id="items" style="isolation: isolate"><g id="blend" style="mix-blend-mode: normal"><g id="g-root-sy_back_cu_qofem9ix81dx-fill" data-item-order="19999956000" transform="translate(235.26953125, 74.166015625)"><g id="sy_back_cu_qofem9ix81dx-fill" stroke="none" fill="#f5f5f5"><g><path d="M 15.0326 206.541496C 15.9629 207.112496 17.0468 207.444496 18.1904 207.444496L 19.2095 207.444496C 24.2441 213.857896 30.6852 219.848896 37.1417 224.982996L 29.3103 225.260696C 25.9806 225.393796 23.41 228.208396 23.41 231.542096L 23.41 232.952696C 23.5432 236.279696 26.3668 238.848196 29.6965 238.721796L 55.9034 237.809096C 61.4301 241.013396 67.2932 243.994396 73.3864 246.876096L 63.9578 270.929496C 46.3568 262.748596 28.2306 251.796196 14.9511 237.223296C 7.5094 227.592896 9.223 216.307196 15.0326 206.541496ZM 15.133342 110.003595C 7.076442 99.577095 9.706442 87.063395 16.752242 76.799995C 16.204642 77.617195 15.449042 78.809795 14.959442 79.650695C 16.476142 80.525295 17.443242 80.525295 18.546742 80.525295L 19.731442 80.525295C 24.773642 86.939095 30.927942 92.932695 37.386942 98.064495L 29.285442 98.344695C 25.955642 98.477795 23.385142 101.292395 23.385142 104.626095L 23.385142 106.036695C 23.518342 109.363695 26.341942 111.932195 29.671642 111.805795L 56.162042 110.888195C 66.137742 116.666395 77.207042 121.322595 88.745842 126.378595L 89.077642 126.525195L 88.745842 126.670595C 82.647342 129.367795 77.285442 131.582795 73.204342 133.245495C 68.085642 135.395195 62.839142 137.775895 57.604942 140.409495C 42.141042 132.628695 26.768942 122.772395 15.133342 110.003595ZM 135.705342 179.499995L 148.087342 180.001995C 151.296342 180.127995 153.910342 177.729995 154.036342 174.522595L 154.036342 173.244995C 154.036342 170.037795 151.606342 167.349595 148.396342 167.216495L 113.666342 165.834295C 105.899842 161.787995 97.618842 158.040095 89.076842 154.294295C 95.038242 151.663195 100.277342 149.498795 104.284442 147.866195C 109.592042 145.637095 115.037342 143.159795 120.463342 140.409495C 135.730342 148.147695 150.600342 157.992395 162.091342 170.601695C 170.190342 181.083995 167.316342 193.588995 160.247342 203.898995C 160.242342 203.890995 160.236342 203.882995 160.230342 203.874995C 160.236342 203.865995 160.242342 203.857995 160.247342 203.849995C 161.783342 201.609995 163.115342 199.268995 164.176342 196.869995C 163.097342 195.026995 161.468342 193.748995 159.234342 193.748995L 152.217342 193.748995C 147.118342 188.480995 141.266342 183.607995 135.705342 179.499995ZM 113.692421 38.8982L 148.396221 40.2793C 151.606021 40.4124 154.036721 43.1006 154.036721 46.3078L 154.036721 47.5854C 153.910221 50.7926 151.346321 53.2214 148.136521 53.0949L 135.788021 52.6035C 141.347621 56.7126 147.133121 61.5442 152.229621 66.8122L 159.234321 66.8122C 161.474821 66.8122 163.659221 68.2291 164.735421 70.0804C 168.548821 61.6721 169.111421 51.826 162.340421 43.3864C 149.060921 28.8136 130.934721 18.181 113.333621 10L 103.905121 34.0534C 107.242421 35.6318 110.510621 37.2399 113.692421 38.8982Z"></path></g></g></g><g id="g-root-sy_4_cu_m8lwhtix826d-fill" data-item-order="19999956004" transform="translate(314.013916015625, 228.966796875)"><g id="sy_4_cu_m8lwhtix826d-fill" stroke="none" fill="#fffbda"><g><path d="M 69.652 12.374C 72.8619 12.5071 75.2926 15.1953 75.2926 18.4026L 75.2926 19.6801C 75.1661 22.8874 72.6022 25.3161 69.3923 25.1897L 10.000004 22.8259L 10.000004 10L 69.652 12.374ZM 78.8627 52.6209C 79.8051 51.4275 80.6989 50.2193 81.5354 48.9991C 83.0713 46.7592 84.5356 44.1467 85.5964 41.7473C 84.6143 40.2268 82.6713 38.9458 80.4375 38.9458L 10.000004 38.9069L 10.000004 52.6209L 78.8627 52.6209ZM 65.3074 66.4553L 10.000004 68.3809L 10 81.852L 45.9823 80.5926C 51.7414 77.0178 58.6982 72.1444 65.3074 66.4553Z"></path></g></g></g><g id="g-root-sy_3_cu_m8lwhtix826c-fill" data-item-order="19999956008" transform="translate(240.3424072265625, 228.166015625)"><g id="sy_3_cu_m8lwhtix826c-fill" stroke="none" fill="#f4ffdc"><g><path d="M 10.000007 52.6336C 10.898631 53.1539 12.103431 53.454 13.190731 53.454L 83.680831 53.454L 83.680831 39.74L 20.284231 39.74C 17.073131 43.0393 14.074831 46.5121 11.623231 50.0879C 11.050431 50.9232 10.512531 51.7724 10.000007 52.6336ZM 41.933131 21.9974L 83.680831 23.659L 83.680831 10.8331L 62.747331 10C 58.077931 12.3271 53.572131 14.7402 49.281431 17.2997C 47.030131 18.6465 44.544531 20.2237 41.933131 21.9974ZM 18.321731 77.5515C 18.321731 74.2178 20.892231 71.4032 24.222031 71.2701L 83.680831 69.214L 83.680831 82.6851L 24.608231 84.7312C 21.278531 84.8576 18.454931 82.2892 18.321731 78.9621L 18.321731 77.5515Z"></path></g></g></g><g id="g-root-sy_2_cu_qofem9ix81e1-fill" data-item-order="19999956012" transform="translate(314.01373291015625, 102.0712890625)"><g id="sy_2_cu_qofem9ix81e1-fill" stroke="none" fill="#e3fff2"><g><path d="M 69.652 12.374C 72.8619 12.5071 75.2926 15.1953 75.2926 18.4026L 75.2926 19.6801C 75.1661 22.8874 72.6022 25.3161 69.3923 25.1897L 10.000005 22.8259L 10.000005 10L 69.652 12.374ZM 79.467 52.6209C 80.3141 51.5352 81.1207 50.4377 81.88 49.3302C 83.4557 47.0322 84.8166 44.6281 85.8905 42.1635C 84.8338 40.2434 82.7819 38.9069 80.4902 38.9069L 10.000005 38.9069L 10.000005 52.6209L 79.467 52.6209ZM 66.0837 66.4415L 10.000005 68.3809L 10 81.852L 46.9214 80.5732C 52.6853 76.9594 59.5694 72.0937 66.0837 66.4415Z"></path></g></g></g><g id="g-root-sy_1_cu_qofem9ix81e0-fill" data-item-order="19999956016" transform="translate(240.225830078125, 101.21484375)"><g id="sy_1_cu_qofem9ix81e0-fill" stroke="none" fill="#e8f9ff"><g><path d="M 20.0608 39.7625C 16.9982 42.9437 14.1971 46.2553 11.843 49.6887C 11.1882 50.6438 10.5755 51.6202 9.999992 52.6087C 10.9079 53.1433 12.006 53.4765 13.1095 53.4765L 83.7879 53.4765L 83.7879 39.7625L 20.0608 39.7625ZM 41.4923 22.0049L 83.7879 23.6815L 83.7879 10.8556L 62.1184 10C 59.1294 11.5014 56.209 13.0397 53.3708 14.6308C 52.0273 15.3839 50.7022 16.1489 49.3971 16.9275C 46.9864 18.3697 44.3071 20.076 41.4923 22.0049ZM 18.4288 77.574C 18.4288 74.2403 20.9994 71.4257 24.3291 71.2926L 83.7879 69.2365L 83.7879 82.7076L 24.7154 84.7537C 21.3856 84.8801 18.562 82.3117 18.4288 78.9847L 18.4288 77.574Z"></path></g></g></g><g id="g-root-sy_top_cu_qofem9ix81dw-fill" data-item-order="19999956020" transform="translate(229.74176025390625, 74)"><g id="sy_top_cu_qofem9ix81dw-fill" stroke="none" fill="#f5f5f5"><g><path d="M 165.986199 203.901093C 156.501099 217.734893 139.638899 230.028993 128.505899 236.689293C 127.200699 237.467793 125.875599 238.232893 124.532099 238.985993C 119.668399 241.712593 114.562999 244.284293 109.284699 246.780993L 118.718699 270.831893C 136.312299 262.651793 154.428199 251.702693 167.701799 237.136293C 176.487799 227.494593 178.106299 218.223493 178.106299 203.901093C 178.106299 189.578793 176.487799 180.307693 167.701799 170.665893C 175.801699 181.148093 173.055099 193.591293 165.986199 203.901093ZM 20.4382 171.12746C 36.0626 154.03646 58.3749 141.92516 78.6817 133.42416C 82.776 131.76136 88.1553 129.54646 94.2736 126.84926C 106.5574 121.48416 118.308 116.12336 128.783 109.89486C 139.952 103.23456 156.869 90.94046 166.385 77.10666C 173.477 66.79686 176.232 54.35366 168.106 43.87146C 176.921 53.51326 178.544 62.78436 178.544 77.10666C 178.544 91.42906 176.921 100.70016 168.106 110.34196C 152.482 127.43266 130.169 139.54386 109.8625 148.04446C 105.7682 149.70746 100.3918 151.92146 94.2736 154.61946C 81.9897 159.98446 70.2362 165.34546 59.7611 171.57446C 48.592 178.23446 31.6752 190.52846 22.1594 204.36246C 15.0676 214.67246 12.3642 227.14346 20.6699 237.59746C 11.8554 227.95546 10 218.68446 10 204.36246C 10 190.03946 11.6237 180.76846 20.4382 171.12746ZM 22.307892 76.930801C 31.793 63.097 48.739594 50.802902 59.872589 44.142601C 61.177796 43.364097 62.502899 42.598999 63.846375 41.845901C 68.710083 39.119301 73.815491 36.5476 79.093781 34.050903L 69.65979 10C 52.066193 18.180099 33.950287 29.129196 20.676697 43.695595C 11.890686 53.337295 10.272187 62.608398 10.272187 76.930801C 10.272187 91.253097 11.890686 100.5242 20.676697 110.166C 12.576782 99.683792 15.238983 87.2406 22.307892 76.930801Z"></path></g></g></g><g id="g-root-tx_fondemen_qofem9ix81du-fill" data-item-order="20000000000" transform="translate(128, 2.00048828125)"><g id="tx_fondemen_qofem9ix81du-fill" stroke="none" fill="#484848"><g><text style="font: bold 25px Roboto, sans-serif; white-space: pre;" font-weight="bold" font-size="25px" font-family="Roboto, sans-serif"><tspan x="13.11" y="43" dominant-baseline="ideographic">Fondements de l'IA Responsable</tspan></text></g></g></g><g id="g-root-tx_cadredeg_qofem9ix81dy-fill" data-item-order="20000000000" transform="translate(14, 110.00048828125)"><g id="tx_cadredeg_qofem9ix81dy-fill" stroke="none" fill="#484848"><g><text style="font: 20px Roboto, sans-serif; white-space: pre;" font-size="20px" font-family="Roboto, sans-serif"><tspan x="60.78" y="34" dominant-baseline="ideographic">Cadre de </tspan><tspan x="22.96" y="58" dominant-baseline="ideographic">Gouvernance</tspan></text></g></g></g><g id="g-root-ic_uneq_qofem9ix81dz-fill" data-item-order="20000000000" transform="translate(158, 110.00048828125)"></g><g id="g-root-ic_spar_qofem9ix81e2-fill" data-item-order="20000000000" transform="translate(422, 110.00048828125)"></g><g id="g-root-tx_transpar_m8lwhtix826b-fill" data-item-order="20000000000" transform="translate(482, 110.00048828125)"><g id="tx_transpar_m8lwhtix826b-fill" stroke="none" fill="#484848"><g><text style="font: 20px Roboto, sans-serif; white-space: pre;" font-size="20px" font-family="Roboto, sans-serif"><tspan x="12" y="34" dominant-baseline="ideographic">Transparence et </tspan><tspan x="12" y="58" dominant-baseline="ideographic">Valeurs</tspan></text></g></g></g><g id="g-root-tx_thiquede_m8lwhtix826e-fill" data-item-order="20000000000" transform="translate(14, 254.00048828125)"><g id="tx_thiquede_m8lwhtix826e-fill" stroke="none" fill="#484848"><g><text style="font: 20px Roboto, sans-serif; white-space: pre;" font-size="20px" font-family="Roboto, sans-serif"><tspan x="14.38" y="34" dominant-baseline="ideographic">Éthique de l'IA</tspan></text></g></g></g><g id="g-root-ic_1_m8lwhtix826f-fill" data-item-order="20000000000" transform="translate(158, 242.00048828125)"></g><g id="g-root-ic_teac_m8lwhtix826g-fill" data-item-order="20000000000" transform="translate(422, 242.00048828125)"></g><g id="g-root-tx_ducation_m8lwhtix826h-fill" data-item-order="20000000000" transform="translate(482, 242.00048828125)"><g id="tx_ducation_m8lwhtix826h-fill" stroke="none" fill="#484848"><g><text style="font: 20px Roboto, sans-serif; white-space: pre;" font-size="20px" font-family="Roboto, sans-serif"><tspan x="12" y="34" dominant-baseline="ideographic">Éducation et </tspan><tspan x="12" y="58" dominant-baseline="ideographic">Adoption</tspan></text></g></g></g><g id="g-root-sy_back_cu_qofem9ix81dx-stroke" data-item-order="19999956000" transform="translate(235.26953125, 74.166015625)"><g id="sy_back_cu_qofem9ix81dx-stroke" fill="none" stroke-linecap="round" stroke-linejoin="round" stroke-miterlimit="4" stroke="#969696" stroke-width="2"><g><path d="M 15.0326 206.541496C 15.9629 207.112496 17.0468 207.444496 18.1904 207.444496L 19.2095 207.444496C 24.2441 213.857896 30.6852 219.848896 37.1417 224.982996L 29.3103 225.260696C 25.9806 225.393796 23.41 228.208396 23.41 231.542096L 23.41 232.952696C 23.5432 236.279696 26.3668 238.848196 29.6965 238.721796L 55.9034 237.809096C 61.4301 241.013396 67.2932 243.994396 73.3864 246.876096L 63.9578 270.929496C 46.3568 262.748596 28.2306 251.796196 14.9511 237.223296C 7.5094 227.592896 9.223 216.307196 15.0326 206.541496ZM 15.133342 110.003595C 7.076542 99.577095 9.706442 87.063395 16.752242 76.799995C 16.204642 77.617195 15.449042 78.809795 14.959442 79.650695C 16.476142 80.525295 17.443242 80.525295 18.546642 80.525295L 19.731442 80.525295C 24.773642 86.939095 30.927942 92.932695 37.386942 98.064495L 29.285442 98.344695C 25.955642 98.477795 23.385142 101.292395 23.385142 104.626095L 23.385142 106.036695C 23.518342 109.363695 26.341942 111.932195 29.671642 111.805795L 56.162042 110.888195C 66.137742 116.666395 77.207042 121.322595 88.745842 126.378595L 89.077642 126.525195L 88.745842 126.670595C 82.647342 129.367795 77.285442 131.582795 73.204342 133.245495C 68.085642 135.395195 62.839142 137.775895 57.604942 140.409495C 42.141042 132.628695 26.768942 122.772395 15.133342 110.003595ZM 135.705442 179.499495L 148.086942 180.001495C 151.296842 180.127895 153.910242 177.729795 154.036842 174.522595L 154.036842 173.244995C 154.036842 170.037795 151.606142 167.349595 148.396242 167.216495L 113.666042 165.834295C 105.899842 161.787995 97.618842 158.040095 89.076842 154.294295C 95.038242 151.663195 100.277342 149.498795 104.284442 147.866195C 109.592042 145.637095 115.037042 143.159795 120.463242 140.409495C 135.730842 148.147695 150.600742 157.992395 162.090942 170.601695C 170.190842 181.083895 167.316442 193.589395 160.247542 203.899295C 160.241942 203.890995 160.236342 203.882795 160.230642 203.874595C 160.236342 203.866295 160.241942 203.858095 160.247642 203.849895C 161.783442 201.609895 163.115242 199.269195 164.176142 196.869795C 163.097642 195.027395 161.468242 193.749395 159.234342 193.749395L 152.217042 193.749395C 147.118042 188.480595 141.266142 183.608295 135.705442 179.499495ZM 113.692421 38.8982L 148.396221 40.2793C 151.606021 40.4124 154.036721 43.1006 154.036721 46.3078L 154.036721 47.5854C 153.910221 50.7926 151.346321 53.2214 148.136521 53.0949L 135.788021 52.6035C 141.347621 56.7126 147.133121 61.5442 152.229621 66.8122L 159.234321 66.8122C 161.474821 66.8122 163.659221 68.2291 164.735421 70.0804C 168.548821 61.6721 169.111421 51.826 162.340421 43.3864C 149.060921 28.8136 130.934721 18.181 113.333621 10L 103.905121 34.0534C 107.242421 35.6318 110.510621 37.2399 113.692421 38.8982Z"></path></g></g></g><g id="g-root-sy_4_cu_m8lwhtix826d-stroke" data-item-order="19999956004" transform="translate(314.013916015625, 228.966796875)"><g id="sy_4_cu_m8lwhtix826d-stroke" fill="none" stroke-linecap="round" stroke-linejoin="round" stroke-miterlimit="4" stroke="#e0cb15" stroke-width="2"><g><path d="M 69.652 12.374C 72.8619 12.5071 75.2926 15.1953 75.2926 18.4025L 75.2926 19.6801C 75.1661 22.8874 72.6022 25.3161 69.3923 25.1897L 10 22.8259L 10 10L 69.652 12.374ZM 78.8627 52.6209C 79.8051 51.4275 80.6989 50.2193 81.5354 48.9991C 83.0713 46.7592 84.5356 44.1467 85.5964 41.7473C 84.6142 40.2268 82.6713 38.9458 80.4375 38.9458L 10 38.9069L 10 52.6209L 78.8627 52.6209ZM 65.3074 66.4553L 10 68.3809L 10 81.852L 45.9823 80.5926C 51.7414 77.0178 58.6982 72.1444 65.3074 66.4553Z"></path></g></g></g><g id="g-root-sy_3_cu_m8lwhtix826c-stroke" data-item-order="19999956008" transform="translate(240.3424072265625, 228.166015625)"><g id="sy_3_cu_m8lwhtix826c-stroke" fill="none" stroke-linecap="round" stroke-linejoin="round" stroke-miterlimit="4" stroke="#92bd39" stroke-width="2"><g><path d="M 10.000031 52.6336C 10.898631 53.1539 12.103431 53.454 13.190731 53.454L 83.680831 53.454L 83.680831 39.74L 20.284231 39.74C 17.073131 43.0393 14.074831 46.5121 11.623131 50.0879C 11.050431 50.9232 10.512531 51.7724 10.000031 52.6336ZM 41.933131 21.9974L 83.680831 23.659L 83.680831 10.8331L 62.747331 10C 58.077931 12.3271 53.572131 14.7402 49.281431 17.2997C 47.030131 18.6465 44.544531 20.2237 41.933131 21.9974ZM 18.321731 77.5515C 18.321731 74.2178 20.892231 71.4032 24.222031 71.2701L 83.680831 69.214L 83.680831 82.6851L 24.608231 84.7312C 21.278531 84.8576 18.454931 82.2892 18.321731 78.9621L 18.321731 77.5515Z"></path></g></g></g><g id="g-root-sy_2_cu_qofem9ix81e1-stroke" data-item-order="19999956012" transform="translate(314.01373291015625, 102.0712890625)"><g id="sy_2_cu_qofem9ix81e1-stroke" fill="none" stroke-linecap="round" stroke-linejoin="round" stroke-miterlimit="4" stroke="#3cc583" stroke-width="2"><g><path d="M 69.652 12.374C 72.8619 12.5071 75.2926 15.1953 75.2926 18.4025L 75.2926 19.6801C 75.1661 22.8874 72.6022 25.3161 69.3923 25.1897L 10 22.8259L 10 10L 69.652 12.374ZM 79.467 52.6209C 80.3141 51.5352 81.1207 50.4377 81.88 49.3302C 83.4557 47.0322 84.8166 44.6281 85.8905 42.1635C 84.8338 40.2434 82.7819 38.9069 80.4902 38.9069L 10 38.9069L 10 52.6209L 79.467 52.6209ZM 66.0837 66.4415L 10 68.3809L 10 81.852L 46.9214 80.5732C 52.6853 76.9594 59.5694 72.0937 66.0837 66.4415Z"></path></g></g></g><g id="g-root-sy_1_cu_qofem9ix81e0-stroke" data-item-order="19999956016" transform="translate(240.225830078125, 101.21484375)"><g id="sy_1_cu_qofem9ix81e0-stroke" fill="none" stroke-linecap="round" stroke-linejoin="round" stroke-miterlimit="4" stroke="#1eabda" stroke-width="2"><g><path d="M 20.0608 39.7625C 16.9982 42.9437 14.1971 46.2553 11.843 49.6887C 11.1882 50.6438 10.5755 51.6202 10 52.6087C 10.9079 53.1433 12.006 53.4765 13.1095 53.4765L 83.7879 53.4765L 83.7879 39.7625L 20.0608 39.7625ZM 41.4923 22.0049L 83.7879 23.6815L 83.7879 10.8556L 62.1184 10C 59.1294 11.5014 56.209 13.0397 53.3708 14.6308C 52.0273 15.3839 50.7022 16.1489 49.3971 16.9275C 46.9864 18.3697 44.3071 20.076 41.4923 22.0049ZM 18.4288 77.574C 18.4288 74.2403 20.9994 71.4257 24.3291 71.2926L 83.7879 69.2365L 83.7879 82.7076L 24.7154 84.7537C 21.3856 84.8801 18.562 82.3117 18.4288 78.9847L 18.4288 77.574Z"></path></g></g></g><g id="g-root-sy_top_cu_qofem9ix81dw-stroke" data-item-order="19999956020" transform="translate(229.74176025390625, 74)"><g id="sy_top_cu_qofem9ix81dw-stroke" fill="none" stroke-linecap="round" stroke-linejoin="round" stroke-miterlimit="4" stroke="#969696" stroke-width="2"><g><path d="M 165.986199 203.901093C 156.501099 217.734893 139.638899 230.028993 128.505899 236.689293C 127.200699 237.467793 125.875599 238.232893 124.532099 238.985993C 119.668399 241.712593 114.562999 244.284293 109.284699 246.780993L 118.718699 270.831493C 136.312299 262.651793 154.428199 251.702693 167.701799 237.136293C 176.487799 227.494593 178.106299 218.223493 178.106299 203.901093C 178.106299 189.578793 176.487799 180.307693 167.701799 170.665893C 175.801699 181.148093 173.055099 193.591293 165.986199 203.901093ZM 78.6817 133.42416C 58.3749 141.92516 36.0626 154.03626 20.4382 171.12706C 11.6237 180.76876 10 190.03996 10 204.36226C 10 218.68456 11.8554 227.95576 20.6699 237.59746C 12.3642 227.14336 15.0676 214.67206 22.1594 204.36226C 31.6752 190.52846 48.592 178.23436 59.7611 171.57406C 70.2362 165.34556 81.9897 159.98426 94.2736 154.61916C 100.3918 151.92196 105.7682 149.70756 109.8625 148.04486C 130.1694 139.54386 152.4817 127.43266 168.106 110.34196C 176.9206 100.70016 178.5443 91.42906 178.5443 77.10666C 178.5443 62.78436 176.9206 53.51326 168.106 43.87146C 176.2322 54.35366 173.4767 66.79686 166.3849 77.10666C 156.8691 90.94046 139.9523 103.23456 128.7832 109.89486C 118.3081 116.12336 106.5574 121.48416 94.2736 126.84926C 88.1553 129.54646 82.776 131.76136 78.6817 133.42416ZM 22.307892 76.930801C 31.793 63.097 48.739594 50.802902 59.872589 44.142601C 61.177796 43.364097 62.502899 42.598999 63.846375 41.845901C 68.710083 39.119301 73.815491 36.5476 79.093781 34.050903L 69.65979 10.000397C 52.066193 18.180099 33.950287 29.129196 20.676697 43.695595C 11.890686 53.337295 10.272187 62.608398 10.272187 76.930801C 10.272187 91.253097 11.890686 100.5242 20.676697 110.166C 12.576782 99.683792 15.238983 87.2406 22.307892 76.930801Z"></path></g></g></g><g id="g-root-tx_fondemen_qofem9ix81du-stroke" data-item-order="20000000000" transform="translate(128, 2.00048828125)"></g><g id="g-root-tx_cadredeg_qofem9ix81dy-stroke" data-item-order="20000000000" transform="translate(14, 110.00048828125)"></g><g id="g-root-ic_uneq_qofem9ix81dz-stroke" data-item-order="20000000000" transform="translate(158, 110.00048828125)"><g id="ic_uneq_qofem9ix81dz-stroke" fill="none" stroke-linecap="round" stroke-linejoin="round" stroke-miterlimit="4" stroke="#1eabda" stroke-width="2"><g><path d="M 34 23.364L 34 54.363998M 29 54.363998L 39 54.363998M 12 42.363998L 19 27.436001L 26 42.363998M 31 20.364C 31 22.020855 32.343147 23.364 34 23.364C 35.656853 23.364 37 22.020855 37 20.364C 37 18.707146 35.656853 17.364 34 17.364C 32.343147 17.364 31 18.707146 31 20.364ZM 19 49.363998C 20.870407 49.410587 22.678082 48.688061 24.001072 47.36507C 25.32406 46.042084 26.046587 44.234409 26 42.363998L 12 42.363998C 11.953412 44.234409 12.67594 46.042084 13.998928 47.36507C 15.321917 48.688061 17.129591 49.410587 19 49.363998ZM 56 30.364L 49 15.298L 42 30.364M 49 37.363998C 47.129589 37.410587 45.321915 36.688061 43.998928 35.36507C 42.675938 34.042084 41.953411 32.234406 42 30.363998L 56 30.364C 56.046585 32.234406 55.324059 34.042084 54.001072 35.36507C 52.678082 36.688061 50.870407 37.410587 49 37.363998ZM 36.987999 20.156L 53.110001 13.636M 14.892 29.094L 31.73 22.282"></path></g></g></g><g id="g-root-ic_spar_qofem9ix81e2-stroke" data-item-order="20000000000" transform="translate(422, 110.00048828125)"><g id="ic_spar_qofem9ix81e2-stroke" fill="none" stroke-linecap="round" stroke-linejoin="round" stroke-miterlimit="4" stroke="#3cc583" stroke-width="2"><g><path d="M 37.585999 21.4426C 42.210602 20.51292 45.933998 16.74424 46.8652 12C 47.7962 16.74424 51.518799 20.51292 56.143398 21.4426M 56.143398 21.448021C 51.518799 22.377701 47.795399 26.146379 46.864201 30.8906C 45.932999 26.146379 42.210602 22.377701 37.585999 21.448021M 31.9844 21.16378C 31.128599 21.03532 30.252399 20.96876 29.360359 20.96876C 19.704559 20.96876 11.857422 28.78672 11.857422 38.4716L 11.857422 38.500801C 11.857422 48.156601 19.6754 56.003799 29.360359 56.003799C 39.016197 56.003799 46.863201 48.185799 46.863201 38.500801C 46.863201 37.871799 46.8302 37.250401 46.765999 36.638599M 29.361219 20.96876C 25.4522 20.96876 22.2754 28.78672 22.2754 38.4716L 22.2754 38.500801C 22.2754 48.156601 25.440399 56.003799 29.361219 56.003799C 33.270203 56.003799 36.446999 48.185799 36.446999 38.500801C 36.446999 36.599602 36.325001 34.769199 36.0994 33.055M 11.857422 38.492203L 46.863602 38.492203"></path></g></g></g><g id="g-root-tx_transpar_m8lwhtix826b-stroke" data-item-order="20000000000" transform="translate(482, 110.00048828125)"></g><g id="g-root-tx_thiquede_m8lwhtix826e-stroke" data-item-order="20000000000" transform="translate(14, 254.00048828125)"></g><g id="g-root-ic_1_m8lwhtix826f-stroke" data-item-order="20000000000" transform="translate(158, 242.00048828125)"><g id="ic_1_m8lwhtix826f-stroke" fill="none" stroke-linecap="round" stroke-linejoin="round" stroke-miterlimit="4" stroke="#92bd39" stroke-width="2"><g><path d="M 28.062 39.938C 24.162493 43.839989 17.837507 43.839989 13.938 39.938L 12 38L 30 38ZM 54.062 39.938C 50.162495 43.839989 43.837509 43.839989 39.938 39.938L 38 38L 56 38ZM 21 42.863998C 20.938053 45.282139 22.520025 47.43586 24.846001 48.099998L 28.464001 49.133999M 47 42.863998C 47.062191 45.281578 45.481178 47.435108 43.155998 48.099998L 39.538002 49.133999M 16.5 16.498001C 16.5 18.98328 18.514719 20.998001 21 20.998001C 23.485281 20.998001 25.5 18.98328 25.5 16.498001C 25.5 14.012718 23.485281 11.998 21 11.998C 18.514719 11.998 16.5 14.012718 16.5 16.498001ZM 21 23C 15 23 15 27.686001 15 31L 15 31L 18 31L 19 38L 23 38L 24 31L 27 31L 27 31C 27 27.681999 27 23 21 23ZM 42.158001 54.481998L 42.186001 54.534C 42.349358 54.844166 42.338375 55.217224 42.157055 55.517242C 41.975735 55.817261 41.650555 56.000427 41.299999 56L 26.700001 56C 26.348854 56.000797 26.02302 55.81736 25.841576 55.516727C 25.66013 55.216091 25.649662 54.842316 25.813999 54.532001L 25.841999 54.48L 29.452 47.119999C 29.789072 46.433994 30.487659 46.000095 31.252001 46.001999L 36.760002 46.001999C 37.524338 46.000095 38.222927 46.433994 38.559998 47.119999ZM 52 18L 48.599998 18C 47.448231 17.992489 46.428791 18.743656 46.094772 19.845955C 45.760757 20.948254 46.191784 22.138935 47.153999 22.771999L 50.834 25.226C 51.796238 25.857189 52.229076 27.045841 51.898022 28.147978C 51.566963 29.250114 50.550777 30.00351 49.399998 30L 46 30M 50 18.001999L 50 16.001999M 48 32.001999L 48 30.002001"></path></g></g></g><g id="g-root-ic_teac_m8lwhtix826g-stroke" data-item-order="20000000000" transform="translate(422, 242.00048828125)"><g id="ic_teac_m8lwhtix826g-stroke" fill="none" stroke-linecap="round" stroke-linejoin="round" stroke-miterlimit="4" stroke="#e0cb15" stroke-width="2"><g><path d="M 38.5 19L 38.5 23.6M 32.5 21.6875L 32.5 29.599979C 32.5 29.599979 29.5 32.599998 25.1 32.599998C 20.700001 32.599998 17.5 29.599979 17.5 29.599979L 17.5 21.6875M 10 10M 11.5 19L 25.1 25L 38.5 19L 25.1 13L 11.5 19ZM 32.5 37L 32.5 51C 32.5 53.200001 34.299999 55 36.5 55L 52.5 55C 54.700001 55 56.5 53.200001 56.5 51L 56.5 35C 56.5 32.799999 54.700001 31 52.5 31L 40.5 31M 56.5 47L 32.5 47M 48.5 47L 48.5 55M 40.5 47L 40.5 55M 44.5 31L 44.5 27M 44.5 27C 46.700001 27 48.5 25.200001 48.5 23C 48.5 20.799999 46.700001 19 44.5 19M 39.377602 41.419399C 38.262199 41.419399 37.3582 40.515198 37.3582 39.400002C 37.3582 38.284599 38.262199 37.3806 39.377602 37.3806C 40.492798 37.3806 41.396999 38.284599 41.396999 39.400002C 41.396999 40.515198 40.492798 41.419399 39.377602 41.419399ZM 49.622398 41.419399C 48.507198 41.419399 47.603001 40.515198 47.603001 39.400002C 47.603001 38.284599 48.507198 37.3806 49.622398 37.3806C 50.737801 37.3806 51.6418 38.284599 51.6418 39.400002C 51.6418 40.515198 50.737801 41.419399 49.622398 41.419399Z"></path></g></g></g><g id="g-root-tx_ducation_m8lwhtix826h-stroke" data-item-order="20000000000" transform="translate(482, 242.00048828125)"></g></g></g></svg>