<?xml version="1.0" encoding="utf-8" standalone="yes"?>
<!DOCTYPE svg PUBLIC "-//W3C//DTD SVG 1.1//EN" "http://www.w3.org/Graphics/SVG/1.1/DTD/svg11.dtd">
<svg width="654" height="500" viewBox="0 0 654 500" style="fill:none;stroke:none;fill-rule:evenodd;clip-rule:evenodd;stroke-linecap:round;stroke-linejoin:round;stroke-miterlimit:1.5;" version="1.1" xmlns="http://www.w3.org/2000/svg" xmlns:xlink="http://www.w3.org/1999/xlink"><style class="text-font-style fontImports" data-font-family="Roboto">@import url('https://fonts.googleapis.com/css2?family=Roboto:wght@400;700&amp;display=block');</style><g id="items" style="isolation: isolate"><g id="blend" style="mix-blend-mode: normal"><g id="g-root-cr_3_cr-small_8yzxqplpjh1q-fill" data-item-order="21999882718" transform="translate(139, 106)"><g id="cr_3_cr-small_8yzxqplpjh1q-fill" stroke="none" fill="#5c4938"><g><path d="M 10 46C 10 65.882251 26.117749 82 46 82C 65.882251 82 82 65.882251 82 46C 82 26.117749 65.882251 10 46 10C 26.117749 10 10 26.117749 10 46"></path></g></g></g><g id="g-root-cr_2_cr-small_4j6fm9lpjhtz-fill" data-item-order="21999882722" transform="translate(284, 358)"><g id="cr_2_cr-small_4j6fm9lpjhtz-fill" stroke="none" fill="#54502f"><g><path d="M 10 46C 10 65.882251 26.117749 82 46 82C 65.882251 82 82 65.882251 82 46C 82 26.117749 65.882251 10 46 10C 26.117749 10 10 26.117749 10 46"></path></g></g></g><g id="g-root-cr_1_cr-small_3zekxlpjfgg-fill" data-item-order="21999882726" transform="translate(429.0001220703125, 106)"><g id="cr_1_cr-small_3zekxlpjfgg-fill" stroke="none" fill="#3b5649"><g><path d="M 10 46C 10 65.882251 26.117749 82 46 82C 65.882251 82 82 65.882251 82 46C 82 26.117749 65.882251 10 46 10C 26.117749 10 10 26.117749 10 46"></path></g></g></g><g id="g-root-sy_0_cu_1ltmy6plpjgu9-fill" data-item-order="21999882730" transform="translate(223.03866577148438, 154.00048828125)"><g id="sy_0_cu_1ltmy6plpjgu9-fill" stroke="none" fill="#545454"><g><path d="M 172.006 51.0879C 176.465 60.4542 178.961 70.9356 178.961 82C 178.961 119.817 149.805 150.825 112.745 153.771L 112.745 180.035L 119.85 180.035L 106.9578 194L 94.0653 180.035L 101.2417 180.035L 101.2417 153.776C 64.1511 150.861 34.9612 119.839 34.9612 82C 34.9612 70.9048 37.4709 60.3957 41.9535 51.0095L 19.2006 37.8731L 15.6481 44.0263L 10 25.8783L 28.5406 21.6958L 24.9524 27.9107L 47.7262 41.0592C 60.7216 22.2923 82.4059 10 106.9612 10C 131.548 10.000003 153.256 22.3235 166.246 41.1306L 189.089 27.9421L 185.536 21.789L 204.077 25.9716L 198.429 44.1195L 194.84 37.9045L 172.006 51.0879Z"></path></g></g></g><g id="g-root-tx_soutenir_1czvd75lpjgn9-fill" data-item-order="22000000000" transform="translate(194, 10)"><g id="tx_soutenir_1czvd75lpjgn9-fill" stroke="none" fill="#f4f4f4"><g><text style="font: bold 25px Roboto, sans-serif; white-space: pre;" font-weight="bold" font-size="25px" font-family="Roboto, sans-serif"><tspan x="23.23" y="40" dominant-baseline="ideographic">Support Community</tspan><tspan x="12.43" y="70" dominant-baseline="ideographic">Technology Initiatives</tspan></text></g></g></g><g id="g-root-tx_bnvolat_1cxzxxtlpjhmy-fill" data-item-order="22000000000" transform="translate(8, 130)"><g id="tx_bnvolat_1cxzxxtlpjhmy-fill" stroke="none" fill="#f4f4f4"><g><text style="font: 20px Roboto, sans-serif; white-space: pre;" font-size="20px" font-family="Roboto, sans-serif"><tspan x="15.7" y="34" dominant-baseline="ideographic">Volunteering</tspan></text></g></g></g><g id="g-root-ic_2_dj6umplp16o9-fill" data-item-order="22000000000" transform="translate(150, 118)"></g><g id="g-root-ic_dock_145hea9loztag-fill" data-item-order="22000000000" transform="translate(442, 118)"></g><g id="g-root-tx_donsdema_4l1uvllpjguc-fill" data-item-order="22000000000" transform="translate(512, 118)"><g id="tx_donsdema_4l1uvllpjguc-fill" stroke="none" fill="#f4f4f4"><g><text style="font: 20px Roboto, sans-serif; white-space: pre;" font-size="20px" font-family="Roboto, sans-serif"><tspan x="12" y="34" dominant-baseline="ideographic">Equipment </tspan><tspan x="12" y="58" dominant-baseline="ideographic">Donations</tspan></text></g></g></g><g id="g-root-ic_pick_zp1bwxlpjf2e-fill" data-item-order="22000000000" transform="translate(284, 189.99609375)"></g><g id="g-root-ic_coin_mdktjllpku13-fill" data-item-order="22000000000" transform="translate(296, 370)"></g><g id="g-root-tx_donsfina_mbpea9lpjhmz-fill" data-item-order="22000000000" transform="translate(230, 442)"><g id="tx_donsfina_mbpea9lpjhmz-fill" stroke="none" fill="#f4f4f4"><g><text style="font: 20px Roboto, sans-serif; white-space: pre;" font-size="20px" font-family="Roboto, sans-serif"><tspan x="12.22" y="34" dominant-baseline="ideographic">Financial Donations</tspan></text></g></g></g><g id="g-root-cr_3_cr-small_8yzxqplpjh1q-stroke" data-item-order="21999882718" transform="translate(139, 106)"><g id="cr_3_cr-small_8yzxqplpjh1q-stroke" fill="none" stroke-linecap="round" stroke-linejoin="round" stroke-miterlimit="4" stroke="#f79438" stroke-width="2"><g><path d="M 10 46C 10 65.882251 26.117749 82 46 82C 65.882251 82 82 65.882251 82 46C 82 26.117749 65.882251 10 46 10C 26.117749 10 10 26.117749 10 46"></path></g></g></g><g id="g-root-cr_2_cr-small_4j6fm9lpjhtz-stroke" data-item-order="21999882722" transform="translate(284, 358)"><g id="cr_2_cr-small_4j6fm9lpjhtz-stroke" fill="none" stroke-linecap="round" stroke-linejoin="round" stroke-miterlimit="4" stroke="#ffe711" stroke-width="2"><g><path d="M 10 46C 10 65.882251 26.117749 82 46 82C 65.882251 82 82 65.882251 82 46C 82 26.117749 65.882251 10 46 10C 26.117749 10 10 26.117749 10 46"></path></g></g></g><g id="g-root-cr_1_cr-small_3zekxlpjfgg-stroke" data-item-order="21999882726" transform="translate(429.0001220703125, 106)"><g id="cr_1_cr-small_3zekxlpjfgg-stroke" fill="none" stroke-linecap="round" stroke-linejoin="round" stroke-miterlimit="4" stroke="#43dd93" stroke-width="2"><g><path d="M 10 46C 10 65.882251 26.117749 82 46 82C 65.882251 82 82 65.882251 82 46C 82 26.117749 65.882251 10 46 10C 26.117749 10 10 26.117749 10 46"></path></g></g></g><g id="g-root-sy_0_cu_1ltmy6plpjgu9-stroke" data-item-order="21999882730" transform="translate(223.03866577148438, 154.00048828125)"><g id="sy_0_cu_1ltmy6plpjgu9-stroke" fill="none" stroke-linecap="round" stroke-linejoin="round" stroke-miterlimit="4" stroke="#b7b7b7" stroke-width="2"><g><path d="M 172.0063 51.0879C 176.4655 60.4542 178.9612 70.9357 178.9612 82C 178.9612 119.8175 149.8052 150.8252 112.7453 153.7711L 112.7453 180.0352L 119.8504 180.0352L 106.9578 194.0005L 94.0653 180.0352L 101.2417 180.0352L 101.2417 153.7762C 64.1511 150.8612 34.9612 119.8394 34.9612 82C 34.9612 70.9048 37.4709 60.3957 41.9535 51.0096L 19.2006 37.8731L 15.6481 44.0263L 10 25.8783L 28.5406 21.6958L 24.9524 27.9107L 47.7262 41.0592C 60.7216 22.2923 82.4059 10 106.9612 10C 131.5477 10 153.2558 22.3235 166.2456 41.1306L 189.0887 27.9421L 185.5362 21.789L 204.0768 25.9716L 198.4287 44.1195L 194.8405 37.9045L 172.0063 51.0879Z"></path></g></g></g><g id="g-root-tx_soutenir_1czvd75lpjgn9-stroke" data-item-order="22000000000" transform="translate(194, 10)"></g><g id="g-root-tx_bnvolat_1cxzxxtlpjhmy-stroke" data-item-order="22000000000" transform="translate(8, 130)"></g><g id="g-root-ic_2_dj6umplp16o9-stroke" data-item-order="22000000000" transform="translate(150, 118)"><g id="ic_2_dj6umplp16o9-stroke" fill="none" stroke-linecap="round" stroke-linejoin="round" stroke-miterlimit="4" stroke="#f79438" stroke-width="2"><g><path d="M 29.39036 43.9702L 15.5903 43.9702C 14.7903 43.9702 14.19034 43.370201 13.99034 42.770199L 11.590306 34.1702C 11.190306 33.1702 12.19034 31.9702 13.19034 31.9702L 24.5903 31.9702C 25.390301 31.9702 25.990341 32.570198 26.19034 33.1702L 29.39036 43.9702ZM 34.389999 43.9702L 29.390141 43.9702M 42.145 27.300039C 45.458801 27.300039 48.145 24.61376 48.145 21.300041C 48.145 17.98634 45.458801 15.300039 42.145 15.300039C 38.831398 15.300039 36.145 17.98634 36.145 21.300041C 36.145 24.61376 38.831398 27.300039 42.145 27.300039ZM 34.145 34.299999C 35.945 31.9 38.945 30.299999 42.145 30.299999C 43.4902 30.299999 44.799801 30.5828 46 31.0888M 51.494202 45.1702C 54.2556 45.1702 56.494202 42.931599 56.494202 40.1702C 56.494202 37.408798 54.2556 35.1702 51.494202 35.1702C 48.7328 35.1702 46.494202 37.408798 46.494202 40.1702C 46.494202 42.931599 48.7328 45.1702 51.494202 45.1702ZM 56.109402 42.109402C 55.109402 46.909401 52.931 49.9702 48.931 52.570202C 45.131001 55.1702 40.131001 54.1702 39.331001 50.570202C 38.331001 46.9702 39.884399 42.909401 46.484402 40.109398"></path></g></g></g><g id="g-root-ic_dock_145hea9loztag-stroke" data-item-order="22000000000" transform="translate(442, 118)"><g id="ic_dock_145hea9loztag-stroke" fill="none" stroke-linecap="round" stroke-linejoin="round" stroke-miterlimit="4" stroke="#43dd93" stroke-width="2"><g><path d="M 10 10M 48.5 41.2812L 49.613602 41.080601L 52.700001 40.5C 54.900002 39.900002 56.299999 37.900002 55.900002 35.700001L 53.099998 21.9C 52.700001 19.700001 50.700001 18.299999 48.5 18.700001L 47.099998 18.9L 43.099998 26.1C 42.099998 27.9 39.700001 28.700001 37.700001 27.9C 36.700001 27.299999 35.900002 26.5 35.5 25.5C 35.099998 24.5 35.299999 23.299999 35.700001 22.299999L 36.299999 21.1L 15.30002 25.299999C 13.100019 25.9 11.700004 27.9 12.1 30.1L 15.1 43.700001C 15.44202 45.5812 16.95384 46.877399 18.76026 46.9636L 19.484379 46.9636M 10 10M 21.109379 24.140621L 23.73464 36.4828M 10 10M 43.078201 26.1875L 45.078201 36.546799M 48.5 54.5C 48.5 55.700001 47.700001 56.5 46.5 56.5L 21.50004 56.5C 20.300041 56.5 19.50004 55.700001 19.50004 54.5L 19.50004 40.5C 19.50004 38.299999 21.300041 36.5 23.50004 36.5L 44.5 36.5C 46.700001 36.5 48.5 38.299999 48.5 40.5L 48.5 54.5ZM 14.50004 56.5L 53.700001 56.5M 26.100019 23.1L 26.100019 18.5C 26.100019 16.9 26.700001 15.3 27.9 14.3L 30.700001 11.5M 10 10M 38.099998 17.1L 36.299999 21.1M 10 10M 47.099998 18.9L 51.099998 11.7M 36.299999 46.5L 31.419399 46.5M 47.52 31.604C 47.519722 32.592785 48.321213 33.394501 49.309998 33.394501C 50.298782 33.394501 51.100273 32.592785 51.099998 31.603998C 51.100273 30.615213 50.298782 29.813498 49.309998 29.813498C 48.321213 29.813498 47.519722 30.615213 47.519997 31.603998M 15.92 31.007999C 15.919722 31.996784 16.721214 32.7985 17.709999 32.7985C 18.698784 32.7985 19.500277 31.996784 19.5 31.007999C 19.500277 30.019213 18.698784 29.217497 17.709999 29.217497C 16.721214 29.217497 15.919722 30.019213 15.92 31.007999"></path></g></g></g><g id="g-root-tx_donsdema_4l1uvllpjguc-stroke" data-item-order="22000000000" transform="translate(512, 118)"></g><g id="g-root-ic_pick_zp1bwxlpjf2e-stroke" data-item-order="22000000000" transform="translate(284, 189.99609375)"><g id="ic_pick_zp1bwxlpjf2e-stroke" fill="none" stroke-linecap="round" stroke-linejoin="round" stroke-miterlimit="4" stroke="#b7b7b7" stroke-width="2"><g><path d="M 35.907997 57.369999C 35.907104 62.995655 40.467346 67.556618 46.093002 67.556618C 51.718651 67.556618 56.278893 62.995655 56.278 57.369999C 56.278893 51.744347 51.718651 47.18338 46.093002 47.18338C 40.467346 47.18338 35.907104 51.744347 35.907997 57.369999M 30.478001 80.5C 32.833492 74.024605 38.940968 69.674728 45.830605 69.565544C 52.720238 69.456345 58.962494 73.610504 61.521999 80.008003M 18.694 60.990997C 18.694 64.616196 21.632803 67.555 25.257999 67.555C 28.883198 67.555 31.822001 64.616196 31.822001 60.990997C 31.822001 57.365803 28.883198 54.427002 25.257999 54.427002C 21.632803 54.427002 18.694 57.365803 18.694 60.990997M 33.168999 75.757004C 30.911947 73.98745 28.12603 73.027115 25.257999 73.029999C 20.396446 73.043015 15.951465 75.776962 13.747 80.110001M 60.178001 60.990997C 60.178001 64.616196 63.116802 67.555 66.741997 67.555C 70.367195 67.555 73.306 64.616196 73.306 60.990997C 73.306 57.365803 70.367195 54.427002 66.741997 54.427002C 63.116802 54.427002 60.178001 57.365803 60.178001 60.990997M 78.252998 80.110001C 76.048531 75.776962 71.603554 73.043015 66.741997 73.029999C 63.922672 73.023819 61.180389 73.949867 58.942001 75.664001M 65.5 11.5L 54.568001 11.8C 52.565952 11.85655 50.629608 12.526783 49.021 13.72L 38.560001 21.480999C 36.362934 23.114714 34.77821 25.438976 34.060001 28.080999L 32.260002 34.725998C 31.544945 36.763756 31.536491 38.982861 32.236 41.026001C 33.329334 43.162819 35.833027 44.163528 38.098 43.368999C 39.430378 42.944691 40.450539 41.864452 40.798004 40.510002L 43.042 31.125999C 43.410194 30.25581 44.029606 29.515234 44.820999 28.999001L 52.336002 24.099998C 53.736824 23.183702 55.515766 23.069813 57.021999 23.799999C 58.222 24.400002 60.340004 25.557999 60.808002 26.757999C 61.732841 28.660126 61.404793 30.933868 59.98 32.496998L 54.355 37.984001C 52.630306 39.55809 52.342598 42.168022 53.682999 44.079998C 55.407997 46.135002 57.832001 44.926003 60.07 43.378002L 70.18 36.382C 71.064194 35.767555 71.716125 34.873661 72.030998 33.844002L 74.131004 26.976999"></path></g></g></g><g id="g-root-ic_coin_mdktjllpku13-stroke" data-item-order="22000000000" transform="translate(296, 370)"><g id="ic_coin_mdktjllpku13-stroke" fill="none" stroke-linecap="round" stroke-linejoin="round" stroke-miterlimit="4" stroke="#ffe711" stroke-width="2"><g><path d="M 11.008 30.91C 11.008 32.014572 15.485153 32.91 21.007999 32.91C 26.530848 32.91 31.007999 32.014572 31.007999 30.91C 31.007999 29.805431 26.530848 28.91 21.007999 28.91C 15.485153 28.91 11.008 29.805431 11.008 30.91ZM 31 30.91L 31 36.91C 31 38.015999 26.524 38.91 21 38.91C 15.476 38.91 11 38.015999 11 36.91L 11 30.91M 31 36.91L 31 42.91C 31 44.015999 26.524 44.91 21 44.91C 15.476 44.91 11 44.015999 11 42.91L 11 36.91M 31 42.91L 31 48.91C 31 50.015999 26.524 50.91 21 50.91C 15.476 50.91 11 50.015999 11 48.91L 11 42.91M 31 48.91L 31 54.91C 31 56.015999 26.524 56.91 21 56.91C 15.476 56.91 11 56.015999 11 54.91L 11 48.91M 18.762001 23.908001C 21.448 18.116001 28.200001 14 36.098 14C 38.127289 14.000175 40.146675 14.282888 42.098 14.84C 43.344147 13.069212 45.143986 11.763309 47.214001 11.128C 47.515499 11.043455 47.839191 11.105017 48.088608 11.294335C 48.33802 11.483655 48.484356 11.778872 48.484001 12.092L 48.484001 18.01C 50.604637 19.867947 52.207432 22.243889 53.135998 24.906L 55.009998 24.906C 56.114571 24.906 57.009998 25.80143 57.009998 26.906L 57.009998 32.905998C 57.009998 34.010567 56.114571 34.905998 55.009998 34.905998L 53.138 34.905998C 52.084843 37.527756 50.270103 39.773712 47.927998 41.353996L 49.543999 45.736C 50.135986 47.340519 49.314919 49.121105 47.710258 49.7127C 46.105595 50.304298 44.325211 49.482803 43.733997 47.877998L 42.32 44.048C 40.302071 44.653641 38.206852 44.962872 36.099998 44.966M 44.507999 23.91C 44.231857 23.91 44.007999 24.133858 44.007999 24.41C 44.007999 24.686142 44.231857 24.91 44.507999 24.91C 44.784142 24.91 45.007999 24.686142 45.007999 24.41C 45.007999 24.133858 44.784142 23.91 44.507999 23.91M 26 21.91C 28.072859 19.623466 30.927057 18.196367 34 17.91"></path></g></g></g><g id="g-root-tx_donsfina_mbpea9lpjhmz-stroke" data-item-order="22000000000" transform="translate(230, 442)"></g></g></g></svg>