<?xml version="1.0" encoding="utf-8" standalone="yes"?>
<!DOCTYPE svg PUBLIC "-//W3C//DTD SVG 1.1//EN" "http://www.w3.org/Graphics/SVG/1.1/DTD/svg11.dtd">
<svg width="666" height="640" viewBox="0 0 666 640" style="fill:none;stroke:none;fill-rule:evenodd;clip-rule:evenodd;stroke-linecap:round;stroke-linejoin:round;stroke-miterlimit:1.5;" version="1.1" xmlns="http://www.w3.org/2000/svg" xmlns:xlink="http://www.w3.org/1999/xlink"><style class="text-font-style fontImports" data-font-family="Roboto">@import url('https://fonts.googleapis.com/css2?family=Roboto:wght@400;700&amp;display=block');</style><g id="items" style="isolation: isolate"><g id="blend" style="mix-blend-mode: normal"><g id="g-root-sy_5_cu_v4vqddixnhu7-fill" data-item-order="20999866950" transform="translate(125.6251220703125, 460.48193359375)"><g id="sy_5_cu_v4vqddixnhu7-fill" stroke="none" fill="#f79438"><g><path d="M 54.374901 95.518921C 34.368889 95.518921 18.150795 90.146302 18.150795 83.518921L 18.102104 82.950318C 15.967704 58.092285 13.296898 33.858887 10.045501 10.392701L 10.008697 10.075409C 10.0056 10.050293 10.002701 10.025086 10 10L 10.008697 10.075409C 10.9375 17.549012 30.461998 23.518097 54.411705 23.518097C 77.465797 23.518097 96.419502 17.987091 98.633201 10.907288C 98.667396 10.659088 98.701805 10.411011 98.736198 10.162903L 98.6399 10.88559C 98.637703 10.892792 98.635399 10.899994 98.633201 10.907288C 95.395103 34.349396 92.735603 58.555298 90.610695 83.382996L 90.598991 83.518921C 90.598991 90.146302 74.380897 95.518921 54.374901 95.518921Z"></path></g></g></g><g id="g-root-sy_5_line_zkp8htixnhtt-fill" data-item-order="20999866955" transform="translate(210, 498)"></g><g id="g-root-sy_4_cu_v4vqddixnhu3-fill" data-item-order="20999866958" transform="translate(113.130615234375, 388.091796875)"><g id="sy_4_cu_v4vqddixnhu3-fill" stroke="none" fill="#ffe711"><g><path d="M 123.726304 10.060699C 118.860703 33.229309 114.71341 57.451202 111.230805 82.551819L 111.1344 83.275391C 108.952698 90.3656 89.983811 95.907806 66.906205 95.907806C 42.875992 95.907806 23.300301 89.89859 22.494301 82.389801L 22.410302 81.844116C 18.952302 57.029785 14.8443 33.077087 10.032303 10.154785C 10.029305 10.143494 10.025307 10.13211 10.022301 10.120697L 10.000306 10C 10.011307 10.051605 10.021302 10.10321 10.032303 10.154785C 12.411301 17.842987 36.965897 23.887787 66.906205 23.887787C 96.220307 23.887787 120.371705 18.093201 123.601609 10.63501L 123.726304 10.060699Z"></path></g></g></g><g id="g-root-sy_4_line_v4vqddixnhu6-fill" data-item-order="20999866963" transform="translate(219, 432)"></g><g id="g-root-sy_3_cu_v4vqddixnhtz-fill" data-item-order="20999866966" transform="translate(94.21722412109375, 315.150390625)"><g id="sy_3_cu_v4vqddixnhtz-fill" stroke="none" fill="#a6da37"><g><path d="M 142.515106 83.576416C 139.285095 91.034607 115.133698 96.829193 85.819595 96.829193C 55.834992 96.829193 31.251999 90.76651 28.936005 83.062103L 28.912995 82.942016C 23.516998 57.253296 17.237 32.859893 10 10L 10.158005 10.494995C 14.089996 18.564209 46.463989 24.858703 85.819595 24.858703C 124.644989 24.858703 156.676102 18.732696 161.306992 10.820099C 161.358292 10.657409 161.409592 10.494598 161.460999 10.332L 161.308106 10.818206C 161.3078 10.818786 161.307404 10.819488 161.306992 10.820099C 154.173599 33.46109 147.974793 57.598693 142.639694 83.002685L 142.515106 83.576416Z"></path></g></g></g><g id="g-root-sy_3_line_v4vqddixnhu1-fill" data-item-order="20999866971" transform="translate(235, 354)"></g><g id="g-root-sy_2_cu_zk2repixnk7f-fill" data-item-order="20999866974" transform="translate(65.27499389648438, 242.5830078125)"><g id="sy_2_cu_zk2repixnk7f-fill" stroke="none" fill="#43dd93"><g><path d="M 38.942001 82.568207C 30.64801 56.366913 21.096008 32.180099 10.178009 10.366302L 10 10C 14.95401 18.649505 59.952011 25.421295 114.731003 25.421295C 169.0298 25.421295 213.718597 18.767807 219.322998 10.227295L 219.350006 10.212204C 208.352997 32.158203 198.741608 56.509399 190.403198 82.900207L 190.250412 83.385803C 185.623703 91.299316 153.590408 97.4263 114.762009 97.4263C 75.406006 97.4263 43.032013 91.131897 39.100006 83.062683L 38.942001 82.568207Z"></path></g></g></g><g id="g-root-sy_2_line_v4vqddixnhtx-fill" data-item-order="20999866979" transform="translate(258, 282)"></g><g id="g-root-sy_1_cu_zk2repixnk7b-fill" data-item-order="20999866982" transform="translate(14, 150)"><g id="sy_1_cu_zk2repixnk7b-fill" stroke="none" fill="#1ac3fb"><g><path d="M 320.814392 30.230194C 301.940399 49.557205 285.188599 73.915298 271.082703 101.882294L 270.597992 102.809998C 264.993591 111.350998 220.304993 118.003998 166.005997 118.003998C 111.227005 118.003998 66.229004 111.231995 61.274994 102.582794L 61.085999 102.216797C 46.94101 74.106506 30.067993 49.570206 11.118011 30.166C 11.253998 30.297302 10.957001 30.035599 11.118011 30.166C 10.380005 29.455795 10 28.7332 10 28C 10 18.058899 79.843994 10 166 10C 252.156403 10 322 18.058899 322 28C 322 28.755203 321.596985 29.499496 320.814392 30.230194C 320.949585 30.120605 320.696411 30.340393 320.814392 30.230194Z"></path></g></g></g><g id="g-root-sy_1_line_zk2repixnk7d-fill" data-item-order="20999866987" transform="translate(294, 210)"></g><g id="g-root-tx_formatio_v4vqddixnhty-fill" data-item-order="21000000000" transform="translate(374.112060546875, 270)"><g id="tx_formatio_v4vqddixnhty-fill" stroke="none" fill="#dffff0"><g><text style="font: 20px Roboto, sans-serif; white-space: pre;" font-size="20px" font-family="Roboto, sans-serif"><tspan x="12" y="34" dominant-baseline="ideographic">Formation en cybersécurité</tspan></text></g></g></g><g id="g-root-ic_2_v4vqddixnhu0-fill" data-item-order="21000000000" transform="translate(146.224365234375, 342.111328125)"></g><g id="g-root-ic_head_v4vqddixnhtw-fill" data-item-order="21000000000" transform="translate(146.224365234375, 270.111328125)"></g><g id="g-root-tx_formatio_v4vqddixnhu2-fill" data-item-order="21000000000" transform="translate(374.112060546875, 342)"><g id="tx_formatio_v4vqddixnhu2-fill" stroke="none" fill="#f2ffd7"><g><text style="font: 20px Roboto, sans-serif; white-space: pre;" font-size="20px" font-family="Roboto, sans-serif"><tspan x="12" y="34" dominant-baseline="ideographic">Formation en IA</tspan></text></g></g></g><g id="g-root-tx_formatio_zk2repixnk7e-fill" data-item-order="21000000000" transform="translate(374.112060546875, 198)"><g id="tx_formatio_zk2repixnk7e-fill" stroke="none" fill="#e5f8ff"><g><text style="font: 20px Roboto, sans-serif; white-space: pre;" font-size="20px" font-family="Roboto, sans-serif"><tspan x="12" y="34" dominant-baseline="ideographic">Formation en informatique</tspan></text></g></g></g><g id="g-root-ic_team_v4vqddixnhu4-fill" data-item-order="21000000000" transform="translate(146.224365234375, 414.111328125)"></g><g id="g-root-tx_programm_v4vqddixnhu5-fill" data-item-order="21000000000" transform="translate(374.112060546875, 414)"><g id="tx_programm_v4vqddixnhu5-fill" stroke="none" fill="#fffbd5"><g><text style="font: 20px Roboto, sans-serif; white-space: pre;" font-size="20px" font-family="Roboto, sans-serif"><tspan x="12" y="34" dominant-baseline="ideographic">Programmes de mentorat</tspan></text></g></g></g><g id="g-root-ic_1_zk2repixnk7c-fill" data-item-order="21000000000" transform="translate(146.224365234375, 198.111328125)"></g><g id="g-root-ic_shar_zkp8htixnhts-fill" data-item-order="21000000000" transform="translate(146.224365234375, 486.111328125)"></g><g id="g-root-tx_initiati_zk2repixnk79-fill" data-item-order="21000000000" transform="translate(44, 90)"><g id="tx_initiati_zk2repixnk79-fill" stroke="none" fill="#f4f4f4"><g><text style="font: 20px Roboto, sans-serif; white-space: pre;" font-size="20px" font-family="Roboto, sans-serif"><tspan x="12.56" y="34" dominant-baseline="ideographic">Initiatives de formation des </tspan><tspan x="83.76" y="58" dominant-baseline="ideographic">entreprises</tspan></text></g></g></g><g id="g-root-tx_environn_zkp8htixnhtv-fill" data-item-order="21000000000" transform="translate(56, 558)"><g id="tx_environn_zkp8htixnhtv-fill" stroke="none" fill="#f4f4f4"><g><text style="font: 20px Roboto, sans-serif; white-space: pre;" font-size="20px" font-family="Roboto, sans-serif"><tspan x="12.02" y="34" dominant-baseline="ideographic">Environnement de travail </tspan><tspan x="71.14" y="58" dominant-baseline="ideographic">collaboratif</tspan></text></g></g></g><g id="g-root-tx_renforce_zk2repixnk78-fill" data-item-order="21000000000" transform="translate(188, 6)"><g id="tx_renforce_zk2repixnk78-fill" stroke="none" fill="#f4f4f4"><g><text style="font: bold 25px Roboto, sans-serif; white-space: pre;" font-weight="bold" font-size="25px" font-family="Roboto, sans-serif"><tspan x="14.56" y="40" dominant-baseline="ideographic">Renforcer la collaboration</tspan><tspan x="18.33" y="70" dominant-baseline="ideographic">et les compétences en IA</tspan></text></g></g></g><g id="g-root-tx_communau_zkp8htixnhtu-fill" data-item-order="21000000000" transform="translate(374.112060546875, 486)"><g id="tx_communau_zkp8htixnhtu-fill" stroke="none" fill="#fff0e2"><g><text style="font: 20px Roboto, sans-serif; white-space: pre;" font-size="20px" font-family="Roboto, sans-serif"><tspan x="12" y="34" dominant-baseline="ideographic">Communautés de pratique</tspan></text></g></g></g><g id="g-root-sy_5_cu_v4vqddixnhu7-stroke" data-item-order="20999866950" transform="translate(125.6251220703125, 460.48193359375)"><g id="sy_5_cu_v4vqddixnhu7-stroke" fill="none" stroke-linecap="round" stroke-linejoin="round" stroke-miterlimit="4" stroke="#2c2c2c" stroke-width="2"><g><path d="M 54.374901 95.518921C 34.368889 95.518921 18.150795 90.146302 18.150795 83.518921L 18.102104 82.950318C 15.967704 58.092285 13.296898 33.858887 10.045501 10.392701L 10 10C 10.806297 17.508789 30.381492 23.518097 54.411705 23.518097C 77.489296 23.518097 96.458198 17.9758 98.6399 10.88559L 98.736198 10.162903C 95.4515 33.836914 92.758094 58.292389 90.610695 83.382996L 90.598991 83.518921C 90.598991 90.146302 74.380897 95.518921 54.374901 95.518921Z"></path></g></g></g><g id="g-root-sy_5_line_zkp8htixnhtt-stroke" data-item-order="20999866955" transform="translate(210, 498)"><g id="sy_5_line_zkp8htixnhtt-stroke" fill="none" stroke-linecap="round" stroke-linejoin="round" stroke-miterlimit="4" stroke="#f4f4f4" stroke-width="2"><g><path d="M 150 10L 12 10"></path><path d="M 18 3.5L 11.5 10L 18 16.5" stroke-dasharray="none"></path></g></g></g><g id="g-root-sy_4_cu_v4vqddixnhu3-stroke" data-item-order="20999866958" transform="translate(113.130615234375, 388.091796875)"><g id="sy_4_cu_v4vqddixnhu3-stroke" fill="none" stroke-linecap="round" stroke-linejoin="round" stroke-miterlimit="4" stroke="#2c2c2c" stroke-width="2"><g><path d="M 123.726304 10.060699C 118.860703 33.229309 114.713501 57.451202 111.230805 82.551819L 111.1344 83.275391C 108.952698 90.3656 89.983811 95.907806 66.906205 95.907806C 42.875992 95.907806 23.300805 89.89859 22.494507 82.389801L 22.409806 81.844116C 18.944504 56.973999 14.825402 32.969208 10 10L 10.022202 10.120697C 12.338807 17.825104 36.921708 23.887787 66.906205 23.887787C 96.220307 23.887787 120.371705 18.093201 123.601609 10.63501L 123.726304 10.060699Z"></path></g></g></g><g id="g-root-sy_4_line_v4vqddixnhu6-stroke" data-item-order="20999866963" transform="translate(219, 432)"><g id="sy_4_line_v4vqddixnhu6-stroke" fill="none" stroke-linecap="round" stroke-linejoin="round" stroke-miterlimit="4" stroke="#f4f4f4" stroke-width="2"><g><path d="M 141 10L 12 10"></path><path d="M 18 3.5L 11.5 10L 18 16.5" stroke-dasharray="none"></path></g></g></g><g id="g-root-sy_3_cu_v4vqddixnhtz-stroke" data-item-order="20999866966" transform="translate(94.21722412109375, 315.150390625)"><g id="sy_3_cu_v4vqddixnhtz-stroke" fill="none" stroke-linecap="round" stroke-linejoin="round" stroke-miterlimit="4" stroke="#2c2c2c" stroke-width="2"><g><path d="M 142.515106 83.576416C 139.285095 91.034607 115.133698 96.829193 85.819595 96.829193C 55.835098 96.829193 31.252197 90.76651 28.935593 83.062103L 28.913498 82.942016C 23.5168 57.253296 17.236801 32.859893 10 10L 10.157898 10.494995C 14.0896 18.564209 46.464096 24.858703 85.819595 24.858703C 124.648193 24.858703 156.681503 18.731689 161.308106 10.818206L 161.460999 10.332C 154.262802 33.114105 148.013199 57.416107 142.639694 83.002685L 142.515106 83.576416Z"></path></g></g></g><g id="g-root-sy_3_line_v4vqddixnhu1-stroke" data-item-order="20999866971" transform="translate(235, 354)"><g id="sy_3_line_v4vqddixnhu1-stroke" fill="none" stroke-linecap="round" stroke-linejoin="round" stroke-miterlimit="4" stroke="#f4f4f4" stroke-width="2"><g><path d="M 125 10L 12 10"></path><path d="M 18 3.5L 11.5 10L 18 16.5" stroke-dasharray="none"></path></g></g></g><g id="g-root-sy_2_cu_zk2repixnk7f-stroke" data-item-order="20999866974" transform="translate(65.27499389648438, 242.5830078125)"><g id="sy_2_cu_zk2repixnk7f-stroke" fill="none" stroke-linecap="round" stroke-linejoin="round" stroke-miterlimit="4" stroke="#2c2c2c" stroke-width="2"><g><path d="M 10.177612 10.366302C 21.096207 32.180099 30.647613 56.366913 38.9422 82.568207L 39.100113 83.062683C 43.031799 91.131897 75.406311 97.4263 114.76181 97.4263C 153.590408 97.4263 185.623703 91.299316 190.250412 83.385803L 190.403198 82.900207C 198.741608 56.509399 208.352997 32.158203 219.350006 10.212204L 219.322998 10.227295C 213.718597 18.767807 169.0298 25.421295 114.731415 25.421295C 59.952408 25.421295 14.953903 18.649505 10.000305 10L 10.177612 10.366302Z"></path></g></g></g><g id="g-root-sy_2_line_v4vqddixnhtx-stroke" data-item-order="20999866979" transform="translate(258, 282)"><g id="sy_2_line_v4vqddixnhtx-stroke" fill="none" stroke-linecap="round" stroke-linejoin="round" stroke-miterlimit="4" stroke="#f4f4f4" stroke-width="2"><g><path d="M 102 10L 12 10"></path><path d="M 18 3.5L 11.5 10L 18 16.5" stroke-dasharray="none"></path></g></g></g><g id="g-root-sy_1_cu_zk2repixnk7b-stroke" data-item-order="20999866982" transform="translate(14, 150)"><g id="sy_1_cu_zk2repixnk7b-stroke" fill="none" stroke-linecap="round" stroke-linejoin="round" stroke-miterlimit="4" stroke="#2c2c2c" stroke-width="2"><g><path d="M 166.224121 10C 80.067703 10 10.224121 18.058868 10.224121 28C 10.224121 37.941132 80.067703 46 166.224121 46C 252.380539 46 322.224121 37.941132 322.224121 28C 322.224121 18.058868 252.380539 10 166.224121 10M 11.027405 30.074219C 29.267578 49.009018 48.518097 75.196014 61.312286 103.055222C 67.922592 111.482422 108.929688 118.000519 165.989792 118.000519C 223.248993 118.000519 264.563202 111.439026 270.912994 102.96933C 283.707581 75.101227 303.159302 49.009018 320.95459 30.09642"></path></g></g></g><g id="g-root-sy_1_line_zk2repixnk7d-stroke" data-item-order="20999866987" transform="translate(294, 210)"><g id="sy_1_line_zk2repixnk7d-stroke" fill="none" stroke-linecap="round" stroke-linejoin="round" stroke-miterlimit="4" stroke="#f4f4f4" stroke-width="2"><g><path d="M 66 10L 12 10"></path><path d="M 18 3.5L 11.5 10L 18 16.5" stroke-dasharray="none"></path></g></g></g><g id="g-root-tx_formatio_v4vqddixnhty-stroke" data-item-order="21000000000" transform="translate(374.112060546875, 270)"></g><g id="g-root-ic_2_v4vqddixnhu0-stroke" data-item-order="21000000000" transform="translate(146.224365234375, 342.111328125)"><g id="ic_2_v4vqddixnhu0-stroke" fill="none" stroke-linecap="round" stroke-linejoin="round" stroke-miterlimit="4" stroke="#2c2c2c" stroke-width="2"><g><path d="M 35.648003 33.686001L 42.324001 19L 49 33.686001M 37.127998 30.431999L 47.52 30.431999M 37.5 45L 53 45C 55.209141 45 57 43.209141 57 41L 57 15C 57 12.790861 55.209141 11 53 11L 17 11C 14.790861 11 13 12.790861 13 15L 13 33.299999M 33 55C 33 56.104568 32.104568 57 31 57L 13 57C 11.895431 57 11 56.104568 11 55L 11 48C 11 41.92487 15.924868 37 22 37C 28.075132 37 33 41.92487 33 48ZM 11 51L 33 51M 17 45.5C 17 45.776142 17.223858 46 17.5 46C 17.776142 46 18 45.776142 18 45.5C 18 45.223858 17.776142 45 17.5 45C 17.223858 45 17 45.223858 17 45.5M 26 45.5C 26 45.776142 26.223858 46 26.5 46C 26.776142 46 27 45.776142 27 45.5C 27 45.223858 26.776142 45 26.5 45C 26.223858 45 26 45.223858 26 45.5M 22 37L 22 33M 19 30C 19 31.656855 20.343147 33 22 33C 23.656855 33 25 31.656855 25 30C 25 28.343147 23.656855 27 22 27C 20.343147 27 19 28.343147 19 30"></path></g></g></g><g id="g-root-ic_head_v4vqddixnhtw-stroke" data-item-order="21000000000" transform="translate(146.224365234375, 270.111328125)"><g id="ic_head_v4vqddixnhtw-stroke" fill="none" stroke-linecap="round" stroke-linejoin="round" stroke-miterlimit="4" stroke="#2c2c2c" stroke-width="2"><g><path d="M 33 51L 35 51M 46 39C 46 32.372581 40.627419 27 34 27C 27.372583 27 22 32.372581 22 39L 22 43C 22 49.627419 27.372583 55 34 55C 40.627419 55 46 49.627419 46 43ZM 22 38.961998C 24.576 38.739998 29 36 29 32C 32 37 36 39 42 39L 46 39M 22 43.571999C 22 45.464001 25.532 47 27.834 47C 29.92462 47.182953 31.776991 45.65873 32 43.572002C 32 41.678001 30.134001 41 27.834 41C 25.534 41 22 41.678001 22 43.571999ZM 46 43.571999C 46 45.464001 42.467999 47 40.166 47C 38.075382 47.182953 36.223011 45.65873 36 43.572002C 36 41.678001 37.865997 41 40.166 41C 42.466 41 46 41.678001 46 43.571999ZM 36 43L 32 43M 51 13L 52 13C 52.552284 13 53 13.447716 53 14L 53 21M 51 21L 55 21M 51 27L 52 27C 52.552284 27 53 27.447716 53 28L 53 35M 51 35L 55 35M 13 13L 14 13C 14.552284 13 15 13.447716 15 14L 15 21M 13 21L 17 21M 13 43L 14 43C 14.552284 43 15 43.447716 15 44L 15 51M 13 51L 17 51M 43 19C 43 20.104568 42.104568 21 41 21C 39.895432 21 39 20.104568 39 19L 39 15C 39 13.895431 39.895432 13 41 13C 42.104568 13 43 13.895431 43 15ZM 55 49C 55 50.104568 54.104568 51 53 51C 51.895432 51 51 50.104568 51 49L 51 45C 51 43.895432 51.895432 43 53 43C 54.104568 43 55 43.895432 55 45ZM 29 19C 29 20.104568 28.10457 21 27 21C 25.895432 21 25 20.104568 25 19L 25 15C 25 13.895431 25.895432 13 27 13C 28.10457 13 29 13.895431 29 15ZM 17 33C 17 34.104568 16.104568 35 15 35C 13.895431 35 13 34.104568 13 33L 13 29C 13 27.89543 13.895431 27 15 27C 16.104568 27 17 27.89543 17 29Z"></path></g></g></g><g id="g-root-tx_formatio_v4vqddixnhu2-stroke" data-item-order="21000000000" transform="translate(374.112060546875, 342)"></g><g id="g-root-tx_formatio_zk2repixnk7e-stroke" data-item-order="21000000000" transform="translate(374.112060546875, 198)"></g><g id="g-root-ic_team_v4vqddixnhu4-stroke" data-item-order="21000000000" transform="translate(146.224365234375, 414.111328125)"><g id="ic_team_v4vqddixnhu4-stroke" fill="none" stroke-linecap="round" stroke-linejoin="round" stroke-miterlimit="4" stroke="#2c2c2c" stroke-width="2"><g><path d="M 42.48 57L 42.48 55.366001C 42.338257 51.629597 39.268089 48.673691 35.528999 48.673691C 31.789909 48.673691 28.719744 51.629597 28.577999 55.366001L 28.577999 57M 31.666 41.094002C 31.665316 43.22739 33.455482 44.957195 35.663998 44.957195C 37.872517 44.957195 39.662682 43.22739 39.661999 41.093998C 39.662682 38.960609 37.872517 37.230804 35.663998 37.230804C 33.455482 37.230804 31.665316 38.960609 31.665998 41.093998M 56.383999 57L 56.383999 55.366001C 56.256851 51.618271 53.181885 48.645859 49.431999 48.645859C 45.682114 48.645859 42.607147 51.618271 42.48 55.366001L 42.48 57M 45.568001 41.094002C 45.567314 43.22739 47.357479 44.957195 49.565998 44.957195C 51.774513 44.957195 53.564682 43.22739 53.563995 41.093998C 53.564682 38.960609 51.774513 37.230804 49.565998 37.230804C 47.357479 37.230804 45.567314 38.960609 45.567997 41.093998M 38.653999 11L 54.542 11C 55.671196 10.999999 56.586899 11.914806 56.588001 13.044001L 56.588001 26.334C 56.586899 27.463194 55.671196 28.378 54.542 28.378L 37.02 28.378M 43.681999 18.486L 46.262001 21.552L 49.702 19.507999L 51.557999 22.452M 14.478001 16.222C 14.477289 19.106533 16.815466 21.445288 19.700001 21.445288C 22.584534 21.445288 24.92271 19.106533 24.922001 16.222C 24.92271 13.337466 22.584534 10.998713 19.700001 10.998713C 16.815466 10.998713 14.477289 13.337466 14.478001 16.222M 26.868 39.304001L 26.868 34.464001L 26.868 34.464001L 37.903999 20.028L 37.958 19.959999C 39.044456 18.471672 38.74308 16.38806 37.279434 15.268578C 35.815788 14.149096 33.725952 14.40377 32.574001 15.842001L 26.552 23.577999C 26.124405 24.123838 25.469379 24.442499 24.776001 24.441999L 18.200001 24.442001C 16.400814 24.438814 14.674229 25.151306 13.400886 26.422398C 12.127542 27.693489 11.411997 29.418814 11.412 31.218L 11.412 39.129997M 52.745998 28.378L 52.745998 32.101997M 19.700001 29.021999L 19.700001 32.101997"></path></g></g></g><g id="g-root-tx_programm_v4vqddixnhu5-stroke" data-item-order="21000000000" transform="translate(374.112060546875, 414)"></g><g id="g-root-ic_1_zk2repixnk7c-stroke" data-item-order="21000000000" transform="translate(146.224365234375, 198.111328125)"><g id="ic_1_zk2repixnk7c-stroke" fill="none" stroke-linecap="round" stroke-linejoin="round" stroke-miterlimit="4" stroke="#2c2c2c" stroke-width="2"><g><path d="M 36.982002 37.014L 55.532001 37.014C 55.532001 37.014 56.959999 37.014 56.959999 38.442001L 56.959999 49.855999C 56.959999 49.855999 56.959999 51.284 55.532001 51.284L 36.982002 51.284C 36.982002 51.284 35.554001 51.284 35.554001 49.855999L 35.554001 38.442001C 35.554001 38.442001 35.554001 37.014 36.982002 37.014M 46.220001 51.66L 46.220001 56.542M 41.337997 56.542L 51.102001 56.542M 21.875999 25.813999L 21.875999 28.826C 21.875999 32.486542 24.843456 35.453999 28.504 35.453999C 32.164543 35.453999 35.132 32.486542 35.132 28.826L 35.132 25.813999M 28.504 39.599998C 23.013641 39.601105 18.563105 44.051643 18.562 49.542M 35.132 19.672001L 35.132 25.813999L 28.326 28.006001L 21.875999 25.813999L 21.875999 19.806M 42.681999 16.841999L 28.326 11.458L 13.972 16.841999L 28.326 22.223999L 42.681999 16.841999ZM 13.972 16.841999L 13.972 24.02M 14.04 24.07L 11.04 30.07L 17.040001 30.07L 14.04 24.07Z"></path></g></g></g><g id="g-root-ic_shar_zkp8htixnhts-stroke" data-item-order="21000000000" transform="translate(146.224365234375, 486.111328125)"><g id="ic_shar_zkp8htixnhts-stroke" fill="none" stroke-linecap="round" stroke-linejoin="round" stroke-miterlimit="4" stroke="#2c2c2c" stroke-width="2"><g><path d="M 33 46.5C 33 48.985283 35.014717 51 37.5 51C 39.985283 51 42 48.985283 42 46.5C 42 44.014717 39.985283 42 37.5 42C 35.014717 42 33 44.014717 33 46.5ZM 48 52.5C 48 54.985283 50.014717 57 52.5 57C 54.985283 57 57 54.985283 57 52.5C 57 50.014717 54.985283 48 52.5 48C 50.014717 48 48 50.014717 48 52.5ZM 48 37.5C 48 39.985283 50.014717 42 52.5 42C 54.985283 42 57 39.985283 57 37.5C 57 35.014717 54.985283 33 52.5 33C 50.014717 33 48 35.014717 48 37.5ZM 41.349998 44.189999L 48.650002 39.809998M 41.676003 48.172001L 48.324001 50.830002M 52.958 29C 52.986 28.67 53 28.336 53 28C 53 18.614 43.599998 11 32 11C 20.4 11 11 18.614 11 28C 11.106569 32.681503 13.325481 37.063446 17.035999 39.919998L 13 49L 24.274 43.799999C 25.817003 44.284218 27.402954 44.619087 29.01 44.799999"></path></g></g></g><g id="g-root-tx_initiati_zk2repixnk79-stroke" data-item-order="21000000000" transform="translate(44, 90)"></g><g id="g-root-tx_environn_zkp8htixnhtv-stroke" data-item-order="21000000000" transform="translate(56, 558)"></g><g id="g-root-tx_renforce_zk2repixnk78-stroke" data-item-order="21000000000" transform="translate(188, 6)"></g><g id="g-root-tx_communau_zkp8htixnhtu-stroke" data-item-order="21000000000" transform="translate(374.112060546875, 486)"></g></g></g></svg>